<?xml version="1.0" encoding="UTF-8" standalone="no"?>
<svg
   xmlns:dc="http://purl.org/dc/elements/1.1/"
   xmlns:cc="http://creativecommons.org/ns#"
   xmlns:rdf="http://www.w3.org/1999/02/22-rdf-syntax-ns#"
   xmlns:svg="http://www.w3.org/2000/svg"
   xmlns="http://www.w3.org/2000/svg"
   xmlns:sodipodi="http://sodipodi.sourceforge.net/DTD/sodipodi-0.dtd"
   xmlns:inkscape="http://www.inkscape.org/namespaces/inkscape"
   viewBox="0 0 24 24"
   fill="black"
   width="18px"
   height="18px"
   version="1.1"
   id="svg4370"
   sodipodi:docname="movie-4-black-18dp.svg"
   inkscape:version="0.92.5 (2060ec1f9f, 2020-04-08)">
  <metadata
     id="metadata4376">
    <rdf:RDF>
      <cc:Work
         rdf:about="">
        <dc:format>image/svg+xml</dc:format>
        <dc:type
           rdf:resource="http://purl.org/dc/dcmitype/StillImage" />
        <dc:title></dc:title>
      </cc:Work>
    </rdf:RDF>
  </metadata>
  <defs
     id="defs4374" />
  <sodipodi:namedview
     pagecolor="#ffffff"
     bordercolor="#666666"
     borderopacity="1"
     objecttolerance="10"
     gridtolerance="10"
     guidetolerance="10"
     inkscape:pageopacity="0"
     inkscape:pageshadow="2"
     inkscape:window-width="1916"
     inkscape:window-height="1076"
     id="namedview4372"
     showgrid="false"
     inkscape:zoom="34.451814"
     inkscape:cx="4.7451577"
     inkscape:cy="12.316161"
     inkscape:window-x="0"
     inkscape:window-y="0"
     inkscape:window-maximized="0"
     inkscape:current-layer="svg4370" />
  <path
     d="M0 0h24v24H0V0z"
     fill="none"
     id="path4366" />
  <path
     d="M 4.2119441,13.216959 H 20.27091 v 7.337333 H 4.2709098 M 22.298276,13.216959 H 2.2709098 c 0,0 -0.081352,2.928702 -3e-7,7.337337 0,1.1 0.9,2 2,2 H 20.27091 c 1.1,0 1.995897,-0.900008 2,-2 z"
     id="path4368"
     inkscape:connector-curvature="0"
     sodipodi:nodetypes="cccccccsssc" />
  <path
     sodipodi:nodetypes="ccccccccccccccccc"
     inkscape:connector-curvature="0"
     id="path4389"
     d="M 22.298276,9.2169565 H 20.29891 l -2,3.9999995 h -2.666667 l 2,-3.9999995 h -2.666666 l -2,3.9999995 H 10.29891 l 2,-3.9999995 H 9.6322428 L 7.632243,13.216956 H 4.9655764 l 2,-3.9999995 H 2.2982758 V 13.216959 H 22.298276 Z" />
  <path
     style="stroke-width:1"
     sodipodi:nodetypes="ccccccccccccccccc"
     inkscape:connector-curvature="0"
     id="path4389-8"
     d="m 20.968582,1.0060074 -3.90625,0.8609398 2.814065,3.4757793 -2.604167,0.57396 L 14.458165,2.440907 11.854,3.0148665 14.668063,6.4906463 12.063899,7.0646056 9.2498343,3.5888261 6.6456676,4.1627859 9.4597318,7.6385655 6.8555663,8.212525 4.041501,4.7367457 1.4373359,5.3107052 2.2982759,9.2169565 21.829522,4.9122587 Z" />
</svg>
