<?xml version="1.0" encoding="UTF-8" standalone="no"?>
<svg
   xmlns:dc="http://purl.org/dc/elements/1.1/"
   xmlns:cc="http://creativecommons.org/ns#"
   xmlns:rdf="http://www.w3.org/1999/02/22-rdf-syntax-ns#"
   xmlns:svg="http://www.w3.org/2000/svg"
   xmlns="http://www.w3.org/2000/svg"
   xmlns:sodipodi="http://sodipodi.sourceforge.net/DTD/sodipodi-0.dtd"
   xmlns:inkscape="http://www.inkscape.org/namespaces/inkscape"
   viewBox="0 0 24 24"
   fill="black"
   width="18px"
   height="18px"
   version="1.1"
   id="svg4370"
   sodipodi:docname="movie-black-18dp.svg"
   inkscape:version="0.92.5 (2060ec1f9f, 2020-04-08)">
  <metadata
     id="metadata4376">
    <rdf:RDF>
      <cc:Work
         rdf:about="">
        <dc:format>image/svg+xml</dc:format>
        <dc:type
           rdf:resource="http://purl.org/dc/dcmitype/StillImage" />
        <dc:title></dc:title>
      </cc:Work>
    </rdf:RDF>
  </metadata>
  <defs
     id="defs4374" />
  <sodipodi:namedview
     pagecolor="#ffffff"
     bordercolor="#666666"
     borderopacity="1"
     objecttolerance="10"
     gridtolerance="10"
     guidetolerance="10"
     inkscape:pageopacity="0"
     inkscape:pageshadow="2"
     inkscape:window-width="956"
     inkscape:window-height="1076"
     id="namedview4372"
     showgrid="false"
     inkscape:zoom="34.451814"
     inkscape:cx="8.2652403"
     inkscape:cy="8.8330353"
     inkscape:window-x="0"
     inkscape:window-y="0"
     inkscape:window-maximized="0"
     inkscape:current-layer="svg4370" />
  <path
     d="M0 0h24v24H0V0z"
     fill="none"
     id="path4366" />
  <path
     d="M 4.2119441,12.662432 H 20.27091 v 7.337333 H 4.2709098 M 22.298276,12.662432 H 2.2709098 c 0,0 -0.081352,2.928702 -3e-7,7.337337 0,1.1 0.9,2 2,2 H 20.27091 c 1.1,0 1.995897,-0.900008 2,-2 z"
     id="path4368"
     inkscape:connector-curvature="0"
     sodipodi:nodetypes="cccccccsssc" />
  <path
     sodipodi:nodetypes="ccccccccccccccccc"
     inkscape:connector-curvature="0"
     id="path4389"
     d="M 22.298276,10.536957 H 20.29891 l -2,3.999999 h -2.666667 l 2,-3.999999 h -2.666666 l -2,3.999999 H 10.29891 l 2,-3.999999 H 9.6322429 L 7.6322431,14.536956 H 4.9655765 l 2,-3.999999 H 2.2982759 v 4.000002 H 22.298276 Z" />
  <path
     style="stroke-width:1"
     sodipodi:nodetypes="ccccccccccccccccc"
     inkscape:connector-curvature="0"
     id="path4389-8"
     d="m 20.968582,2.3260074 -3.90625,0.8609398 2.814065,3.4757793 -2.604167,0.57396 L 14.458165,3.760907 11.854,4.3348665 14.668063,7.8106463 12.063899,8.3846056 9.2498343,4.9088261 6.6456676,5.4827859 9.4597318,8.9585655 6.8555663,9.532525 4.041501,6.0567457 1.4373359,6.6307052 2.2982759,10.536957 21.829522,6.2322587 Z" />
</svg>
