<svg xmlns="http://www.w3.org/2000/svg" width="137.373" height="112.683" overflow="visible" xml:space="preserve">
  <switch>
    <g>
      <path d="M70.135 69.445 45.543 0H24.592L0 69.445h17.453l4.253-12.287h26.723l4.254 12.287h17.452zM43.632 43.297H26.503l8.565-24.742 8.564 24.742z"/>
      <path fill="#FA1B31" d="M76.662 69.445h15.742V53.702H76.662v15.743z"/>
      <path fill="#FA1B31" d="M92.908 24.06V0H76.19v24.06l3.411 24.06h9.238l4.069-24.06z"/>
      <path d="m7.038 93.687.595 2.213h2.808L6.939 84.882H3.85L0 95.9h2.693l.694-2.214h3.651zm-.545-2.033H3.998l1.338-4.312 1.157 4.312zm7.153-1.221c.099-.646.561-.959 1.404-.959.776 0 1.239.28 1.239.744 0 .313-.182.462-.71.545l-1.272.215c-2.231.363-3.172 1.14-3.172 2.626 0 1.504 1.173 2.511 2.924 2.511.958 0 1.503-.198 2.296-.842.083.297.083.347.182.628h2.395c-.264-.397-.297-.512-.297-1.371v-3.668c0-1.189-.215-1.817-.793-2.329-.628-.562-1.553-.843-2.759-.843-2.247 0-3.387.892-3.535 2.743h2.098zm2.709 2.89c-.38.677-.942 1.007-1.718 1.007-.727 0-1.189-.313-1.189-.842 0-.479.363-.76 1.206-.958l.842-.182c.397-.083.611-.149.859-.248v1.223zm6.625-8.441h-2.346V95.9h2.346V84.882zm6.36 3.139h-1.437v-2.528h-2.346v2.528h-1.124v1.651h1.124v3.635c0 1.238.099 1.669.462 2.064.347.38.859.529 1.884.529h1.437v-1.768h-.843c-.545 0-.594-.1-.594-1.355v-3.105h1.437v-1.651zm5.27-.315c-2.478 0-4.23 1.751-4.23 4.196 0 2.478 1.752 4.212 4.23 4.212 2.461 0 4.245-1.734 4.245-4.146 0-2.528-1.718-4.262-4.245-4.262m0 1.867c1.206 0 1.883.842 1.883 2.378 0 1.438-.694 2.297-1.883 2.297-1.19 0-1.867-.858-1.867-2.346 0-1.469.677-2.329 1.867-2.329m16.206-4.691v7.284c0 .744-.116 1.074-.446 1.389-.364.313-.893.495-1.504.495-.594 0-1.123-.182-1.487-.495-.33-.314-.446-.645-.446-1.389v-7.284h-2.478v7.449c0 1.389.364 2.265 1.19 2.875.842.611 1.966.941 3.221.941 1.272 0 2.396-.33 3.238-.941.826-.61 1.19-1.486 1.19-2.875v-7.449h-2.478zm4.724 3.039V95.9h2.346v-4.478c0-.693.083-1.023.347-1.321.248-.281.611-.43 1.008-.43.413 0 .76.165.958.463.198.298.248.61.248 1.421V95.9h2.345v-5.171c0-1.883-1.057-3.04-2.791-3.04-.826 0-1.306.215-2.181 1.008v-.776h-2.28zm11.828 0h-2.346V95.9h2.346v-7.979zm0-3.039h-2.346v1.933h2.346v-1.933zM73.942 95.9l2.71-7.979h-2.511l-.81 3.057a68.63 68.63 0 0 0-.496 2.296c-.265-.958-.462-1.735-.627-2.296l-.893-3.057h-2.462l2.858 7.979h2.231zm11.615-3.303c0-1.059-.116-1.769-.364-2.43-.577-1.586-1.865-2.461-3.584-2.461-2.396 0-4.081 1.734-4.081 4.212 0 2.512 1.637 4.196 4.098 4.196 1.899 0 3.387-.991 3.833-2.544H83.08c-.331.496-.761.711-1.389.711-1.008 0-1.651-.595-1.801-1.685h5.667zm-5.65-1.653c.182-.925.775-1.454 1.685-1.454s1.454.529 1.553 1.454h-3.238zm7.335-3.023V95.9h2.346v-2.247c0-1.553.082-2.296.313-2.825.266-.595.927-.958 1.735-.958.165 0 .314.017.595.049v-2.213c-1.702-.017-2.296.348-2.759 1.636l.066-1.421h-2.296zm13.166 2.395c-.198-1.685-1.454-2.61-3.502-2.61-2.115 0-3.403.975-3.403 2.577 0 1.272.677 1.916 2.428 2.296l1.454.331c.628.148.892.363.892.727 0 .463-.495.776-1.223.776-.941 0-1.437-.363-1.569-1.106h-2.196c.132 1.768 1.503 2.808 3.717 2.808s3.585-1.057 3.585-2.742c0-.644-.215-1.238-.595-1.602-.348-.364-.844-.579-1.817-.777l-1.47-.313c-.744-.165-.976-.314-.976-.611 0-.396.446-.661 1.123-.661.777 0 1.256.314 1.355.909h2.197zm4.03-2.395h-2.346V95.9h2.346v-7.979zm0-3.039h-2.346v1.933h2.346v-1.933zm6.526 3.139h-1.438v-2.528h-2.346v2.528h-1.123v1.651h1.123v3.635c0 1.238.1 1.669.463 2.064.348.38.859.529 1.883.529h1.438v-1.768h-.842c-.546 0-.596-.1-.596-1.355v-3.105h1.438v-1.651zm6.757-.1-1.041 3.602c-.182.71-.313 1.255-.413 1.784l-.099-.314c-.183-.661-.183-.677-.413-1.421l-1.173-3.65h-2.512l2.628 6.707c.279.693.297.743.297 1.024 0 .694-.38 1.008-1.206 1.008h-.694v1.768h1.371c1.784 0 2.164-.33 2.908-2.461l2.774-8.046h-2.427z"/>
      <path fill="#6A5E54" d="M9.56 104.868c-.099-.941-.264-1.503-.595-2.032-.677-1.106-1.966-1.668-3.799-1.668-2.776 0-4.428 1.272-4.428 3.403 0 .892.314 1.686.876 2.164.495.429 1.222.743 2.395 1.024l1.999.495c.777.198 1.19.578 1.19 1.123 0 .761-.777 1.239-2.049 1.239-1.503 0-2.214-.562-2.263-1.816H.408c.016 2.461 1.735 3.882 4.708 3.882 2.858 0 4.609-1.404 4.609-3.685 0-.876-.281-1.586-.842-2.098-.529-.496-1.206-.793-2.429-1.09l-2.23-.513c-.677-.165-1.008-.479-1.008-.941 0-.694.711-1.123 1.884-1.123 1.239 0 1.982.545 1.982 1.453v.182H9.56zm9.201 2.461c-.148-1.898-1.569-3.089-3.65-3.089-2.528 0-4.048 1.604-4.048 4.229 0 2.561 1.536 4.18 3.965 4.18 2.114 0 3.502-1.14 3.833-3.155l-2.28-.116c-.182.942-.644 1.371-1.487 1.371-1.09 0-1.669-.826-1.669-2.346 0-1.453.579-2.263 1.652-2.263.777 0 1.322.445 1.454 1.188h2.23zm4.147-5.914h-2.346v11.02h2.346v-4.478c0-.842.049-1.073.314-1.338.247-.264.627-.413 1.024-.413.396 0 .727.149.925.413.215.281.264.578.264 1.338v4.478h2.346v-4.906c0-1.206-.198-1.884-.71-2.445-.512-.545-1.256-.858-2.049-.858-.826 0-1.454.28-2.114.908v-3.719zm10.936 2.825c-2.478 0-4.229 1.751-4.229 4.196 0 2.478 1.751 4.213 4.229 4.213 2.461 0 4.246-1.735 4.246-4.147 0-2.526-1.719-4.262-4.246-4.262m0 1.867c1.206 0 1.883.843 1.883 2.379 0 1.437-.694 2.296-1.883 2.296-1.19 0-1.867-.859-1.867-2.346 0-1.469.677-2.329 1.867-2.329m9.912-1.867c-2.478 0-4.229 1.751-4.229 4.196 0 2.478 1.751 4.213 4.229 4.213 2.461 0 4.245-1.735 4.245-4.147 0-2.526-1.718-4.262-4.245-4.262m0 1.867c1.206 0 1.883.843 1.883 2.379 0 1.437-.694 2.296-1.883 2.296-1.19 0-1.867-.859-1.867-2.346 0-1.469.677-2.329 1.867-2.329m8.425-4.692h-2.346v11.02h2.346v-11.02zm9.614 2.825c-2.478 0-4.229 1.751-4.229 4.196 0 2.478 1.751 4.213 4.229 4.213 2.462 0 4.246-1.735 4.246-4.147 0-2.526-1.718-4.262-4.246-4.262m0 1.867c1.206 0 1.884.843 1.884 2.379 0 1.437-.694 2.296-1.884 2.296-1.189 0-1.866-.859-1.866-2.346 0-1.469.677-2.329 1.866-2.329m10.16-1.552h-1.521v-.563c0-.462.281-.71.826-.71h.694v-1.867h-1.288c-1.735 0-2.578.844-2.578 2.562v.578h-1.106v1.651h1.106v6.229h2.346v-6.229h1.521v-1.651zm14.389.313c-.099-.941-.265-1.503-.595-2.032-.678-1.106-1.966-1.668-3.8-1.668-2.775 0-4.428 1.272-4.428 3.403 0 .892.314 1.686.876 2.164.495.429 1.223.743 2.396 1.024l1.999.495c.775.198 1.188.578 1.188 1.123 0 .761-.775 1.239-2.048 1.239-1.503 0-2.214-.562-2.263-1.816H77.19c.017 2.461 1.734 3.882 4.708 3.882 2.858 0 4.609-1.404 4.609-3.685 0-.876-.281-1.586-.843-2.098-.528-.496-1.206-.793-2.429-1.09l-2.229-.513c-.676-.163-1.006-.478-1.006-.94 0-.694.71-1.123 1.883-1.123 1.239 0 1.983.545 1.983 1.453v.182h2.478zm9.201 2.461c-.149-1.898-1.569-3.089-3.651-3.089-2.526 0-4.047 1.604-4.047 4.229 0 2.561 1.536 4.18 3.965 4.18 2.114 0 3.502-1.14 3.832-3.155l-2.278-.116c-.183.942-.646 1.371-1.487 1.371-1.091 0-1.669-.826-1.669-2.346 0-1.453.578-2.263 1.651-2.263.777 0 1.322.445 1.454 1.188h2.23zm4.063-2.874h-2.346v7.979h2.346v-7.979zm0-3.04h-2.346v1.934h2.346v-1.934zm9.863 7.715c0-1.057-.115-1.767-.363-2.428-.578-1.586-1.866-2.462-3.585-2.462-2.395 0-4.08 1.735-4.08 4.213 0 2.511 1.636 4.196 4.098 4.196 1.898 0 3.386-.991 3.832-2.544h-2.379c-.33.495-.761.71-1.388.71-1.008 0-1.651-.595-1.801-1.686h5.666zm-5.65-1.651c.182-.925.776-1.454 1.686-1.454.908 0 1.453.529 1.552 1.454h-3.238zm7.5-3.024v7.979h2.346v-4.478c0-.693.083-1.023.347-1.32a1.325 1.325 0 0 1 1.008-.431c.413 0 .761.165.958.463.198.298.248.611.248 1.42v4.346h2.347v-5.171c0-1.884-1.058-3.039-2.792-3.039-.826 0-1.306.214-2.182 1.007v-.776h-2.28zm16.701 2.874c-.147-1.898-1.568-3.089-3.65-3.089-2.527 0-4.047 1.604-4.047 4.229 0 2.561 1.535 4.18 3.965 4.18 2.113 0 3.502-1.14 3.832-3.155l-2.279-.116c-.182.942-.645 1.371-1.487 1.371-1.091 0-1.669-.826-1.669-2.346 0-1.453.578-2.263 1.652-2.263.777 0 1.322.445 1.454 1.188h2.229zm9.351 1.801c0-1.057-.115-1.767-.363-2.428-.578-1.586-1.867-2.462-3.585-2.462-2.396 0-4.08 1.735-4.08 4.213 0 2.511 1.635 4.196 4.097 4.196 1.899 0 3.387-.991 3.832-2.544h-2.379c-.33.495-.759.71-1.387.71-1.008 0-1.652-.595-1.801-1.686h5.666zm-5.649-1.651c.181-.925.776-1.454 1.686-1.454.907 0 1.452.529 1.553 1.454h-3.239z"/>
    </g>
  </switch>
</svg>
