<?xml version="1.0" encoding="UTF-8" standalone="no"?>
<svg
   xmlns:dc="http://purl.org/dc/elements/1.1/"
   xmlns:cc="http://creativecommons.org/ns#"
   xmlns:rdf="http://www.w3.org/1999/02/22-rdf-syntax-ns#"
   xmlns:svg="http://www.w3.org/2000/svg"
   xmlns="http://www.w3.org/2000/svg"
   xmlns:sodipodi="http://sodipodi.sourceforge.net/DTD/sodipodi-0.dtd"
   xmlns:inkscape="http://www.inkscape.org/namespaces/inkscape"
   viewBox="0 0 91.011002 18.197001"
   version="1.1"
   id="svg40"
   sodipodi:docname="Aarhus.svg"
   width="91.011002"
   height="18.197001"
   inkscape:version="0.92.5 (2060ec1f9f, 2020-04-08)">
  <metadata
     id="metadata9">
    <rdf:RDF>
      <cc:Work
         rdf:about="">
        <dc:format>image/svg+xml</dc:format>
        <dc:type
           rdf:resource="http://purl.org/dc/dcmitype/StillImage" />
        <dc:title></dc:title>
      </cc:Work>
    </rdf:RDF>
  </metadata>
  <defs
     id="defs7" />
  <sodipodi:namedview
     pagecolor="#ffffff"
     bordercolor="#666666"
     borderopacity="1"
     objecttolerance="10"
     gridtolerance="10"
     guidetolerance="10"
     inkscape:pageopacity="0"
     inkscape:pageshadow="2"
     inkscape:window-width="1920"
     inkscape:window-height="2136"
     id="namedview5"
     showgrid="false"
     fit-margin-top="0"
     fit-margin-left="0"
     fit-margin-right="0"
     fit-margin-bottom="0"
     inkscape:zoom="3.7727273"
     inkscape:cx="60.19712"
     inkscape:cy="8.038"
     inkscape:window-x="0"
     inkscape:window-y="0"
     inkscape:window-maximized="0"
     inkscape:current-layer="svg40" />
  <g
     id="au"
     class="icon"
     style="fill:#002546"
     transform="translate(-6.333,-2.841)">
    <path
       d="M 12.675,20.808 H 6.333 L 24.3,2.841 v 6.36 z m 29.592,-8.985 a 8.811,8.811 0 0 1 -0.701,3.505 c -0.468,1.09 -1.108,2.039 -1.923,2.848 -0.815,0.809 -1.768,1.449 -2.856,1.922 a 8.69,8.69 0 0 1 -3.504,0.71 8.72,8.72 0 0 1 -2.389,-0.324 9.155,9.155 0 0 1 -2.147,-0.906 8.909,8.909 0 0 1 -1.813,-1.401 8.878,8.878 0 0 1 -1.401,-1.815 c -0.39,-0.665 -0.691,-1.38 -0.907,-2.146 -0.216,-0.766 -0.322,-1.563 -0.322,-2.391 h 4.49 c 0,0.611 0.12,1.188 0.36,1.734 0.239,0.545 0.562,1.021 0.97,1.429 0.407,0.407 0.883,0.731 1.428,0.971 a 4.272,4.272 0 0 0 1.733,0.358 4.33,4.33 0 0 0 1.752,-0.358 4.63,4.63 0 0 0 1.429,-0.971 c 0.407,-0.406 0.729,-0.883 0.961,-1.429 a 4.35,4.35 0 0 0 0.352,-1.734 h 4.488 z M 54.286,9.731 53.097,7.169 51.988,9.731 Z m -1.2,-3.942 2.833,6.036 h -0.666 l -0.706,-1.52 h -2.808 l -0.657,1.52 H 50.417 Z M 60.079,9.731 58.89,7.169 57.78,9.731 Z m -1.199,-3.942 2.833,6.036 h -0.666 l -0.706,-1.52 h -2.808 l -0.657,1.52 h -0.665 z m 5.379,3.039 c 0.203,0 0.384,-0.029 0.542,-0.086 0.159,-0.058 0.29,-0.137 0.396,-0.234 0.104,-0.099 0.183,-0.214 0.238,-0.345 a 1.111,1.111 0 0 0 0,-0.843 A 1.027,1.027 0 0 0 65.197,6.971 1.101,1.101 0 0 0 64.801,6.737 1.593,1.593 0 0 0 64.259,6.651 H 62.921 V 8.828 Z M 62.305,6.077 H 64.3 c 0.285,0 0.541,0.044 0.769,0.131 0.228,0.088 0.419,0.207 0.575,0.356 0.155,0.15 0.276,0.328 0.361,0.53 0.084,0.203 0.127,0.419 0.127,0.649 0,0.213 -0.034,0.415 -0.105,0.604 -0.071,0.189 -0.175,0.356 -0.312,0.501 a 1.683,1.683 0 0 1 -0.497,0.361 1.975,1.975 0 0 1 -0.66,0.185 l 1.657,2.432 H 65.468 L 63.826,9.403 h -0.903 v 2.423 h -0.615 z m 4.822,0 h 0.616 V 8.54 h 3.038 V 6.077 h 0.616 v 5.748 h -0.616 v -2.71 h -3.038 v 2.71 h -0.616 z m 5.5,0 h 0.624 v 3.67 c 0,0.307 0.044,0.563 0.131,0.771 0.089,0.208 0.202,0.375 0.342,0.501 0.139,0.126 0.298,0.216 0.476,0.271 a 1.81,1.81 0 0 0 1.076,0 c 0.178,-0.056 0.336,-0.146 0.477,-0.271 0.14,-0.126 0.253,-0.292 0.34,-0.501 0.088,-0.208 0.132,-0.465 0.132,-0.771 v -3.67 h 0.625 v 3.761 c 0,0.351 -0.062,0.657 -0.182,0.92 -0.121,0.263 -0.279,0.483 -0.479,0.661 -0.2,0.178 -0.426,0.311 -0.679,0.397 a 2.348,2.348 0 0 1 -1.542,0 1.948,1.948 0 0 1 -1.157,-1.058 2.195,2.195 0 0 1 -0.181,-0.92 z m 5.716,4.064 c 0,0.175 0.028,0.338 0.087,0.489 a 1.124,1.124 0 0 0 0.615,0.649 c 0.145,0.063 0.309,0.095 0.488,0.095 0.181,0 0.346,-0.029 0.497,-0.086 0.15,-0.058 0.28,-0.139 0.39,-0.242 0.109,-0.104 0.194,-0.227 0.255,-0.365 0.061,-0.14 0.091,-0.292 0.091,-0.456 a 0.788,0.788 0 0 0 -0.1,-0.403 C 80.602,9.708 80.514,9.608 80.403,9.523 80.292,9.438 80.166,9.361 80.021,9.294 A 7.547,7.547 0 0 0 79.573,9.101 22.428,22.428 0 0 1 78.957,8.851 2.268,2.268 0 0 1 78.436,8.543 C 78.286,8.422 78.164,8.278 78.071,8.111 77.978,7.944 77.931,7.732 77.931,7.474 c 0,-0.213 0.04,-0.413 0.118,-0.599 a 1.47,1.47 0 0 1 0.328,-0.484 c 0.141,-0.137 0.309,-0.244 0.505,-0.32 0.197,-0.076 0.413,-0.114 0.648,-0.114 0.241,0 0.461,0.042 0.661,0.124 0.2,0.082 0.371,0.193 0.513,0.337 0.144,0.142 0.252,0.311 0.329,0.505 0.077,0.193 0.115,0.406 0.115,0.636 h -0.632 c 0,-0.312 -0.093,-0.561 -0.275,-0.748 -0.184,-0.186 -0.42,-0.279 -0.71,-0.279 -0.29,0 -0.527,0.087 -0.71,0.26 -0.183,0.172 -0.275,0.4 -0.275,0.685 0,0.154 0.036,0.284 0.107,0.391 0.071,0.107 0.164,0.2 0.279,0.279 0.114,0.079 0.247,0.15 0.397,0.213 0.15,0.063 0.309,0.127 0.474,0.193 0.208,0.082 0.405,0.167 0.595,0.254 0.188,0.087 0.354,0.193 0.5,0.316 0.145,0.123 0.262,0.271 0.35,0.446 0.087,0.176 0.131,0.395 0.131,0.657 0,0.257 -0.048,0.491 -0.144,0.702 -0.097,0.211 -0.229,0.393 -0.396,0.546 -0.167,0.153 -0.362,0.271 -0.587,0.354 a 2.11,2.11 0 0 1 -0.723,0.122 c -0.257,0 -0.495,-0.045 -0.714,-0.135 -0.219,-0.09 -0.409,-0.216 -0.571,-0.378 a 1.779,1.779 0 0 1 -0.522,-1.293 z m -27.367,4.861 h 0.625 v 3.671 c 0,0.306 0.043,0.563 0.131,0.771 0.088,0.208 0.202,0.375 0.341,0.501 0.14,0.126 0.298,0.217 0.476,0.271 a 1.816,1.816 0 0 0 1.076,0 c 0.179,-0.054 0.336,-0.146 0.477,-0.271 0.14,-0.126 0.253,-0.293 0.341,-0.501 0.088,-0.208 0.131,-0.466 0.131,-0.771 v -3.671 h 0.625 v 3.761 c 0,0.351 -0.061,0.657 -0.181,0.92 a 1.988,1.988 0 0 1 -0.48,0.661 c -0.2,0.178 -0.426,0.311 -0.678,0.398 a 2.35,2.35 0 0 1 -1.543,0 1.96,1.96 0 0 1 -1.158,-1.059 2.195,2.195 0 0 1 -0.181,-0.92 z m 5.528,-0.205 4.016,4.607 v -4.402 h 0.616 v 5.954 L 57.12,16.365 v 4.385 h -0.616 z m 5.991,0.205 h 0.615 v 5.748 h -0.615 z m 1.343,0 h 0.674 l 1.905,4.525 1.773,-4.525 h 0.658 l -2.423,6.036 z m 5.713,0 H 73 v 0.575 h -2.833 v 1.889 h 2.587 v 0.575 h -2.587 v 2.134 H 73 v 0.575 h -3.449 z m 6.408,2.751 c 0.203,0 0.383,-0.029 0.542,-0.086 0.158,-0.059 0.29,-0.137 0.395,-0.234 a 1.053,1.053 0 0 0 0.319,-0.763 c 0,-0.148 -0.026,-0.289 -0.082,-0.423 a 1.014,1.014 0 0 0 -0.237,-0.35 1.118,1.118 0 0 0 -0.395,-0.233 1.573,1.573 0 0 0 -0.542,-0.086 H 74.62 v 2.176 z m -1.954,-2.751 h 1.996 c 0.285,0 0.541,0.044 0.769,0.131 0.228,0.088 0.419,0.207 0.575,0.356 0.155,0.15 0.276,0.327 0.36,0.53 0.085,0.203 0.127,0.419 0.127,0.649 0,0.213 -0.035,0.415 -0.106,0.603 a 1.495,1.495 0 0 1 -0.312,0.501 1.653,1.653 0 0 1 -0.497,0.361 1.958,1.958 0 0 1 -0.661,0.185 l 1.659,2.432 H 77.167 L 75.525,18.327 H 74.62 v 2.423 h -0.616 z m 5.161,4.065 c 0,0.176 0.028,0.338 0.086,0.488 0.059,0.151 0.139,0.281 0.242,0.391 a 1.154,1.154 0 0 0 0.863,0.353 c 0.18,0 0.346,-0.028 0.497,-0.086 a 1.1,1.1 0 0 0 0.734,-1.064 0.777,0.777 0 0 0 -0.099,-0.401 1.031,1.031 0 0 0 -0.263,-0.301 2.135,2.135 0 0 0 -0.381,-0.229 7.834,7.834 0 0 0 -0.448,-0.192 C 80.183,17.943 79.978,17.86 79.781,17.775 79.584,17.69 79.41,17.587 79.26,17.467 c -0.149,-0.121 -0.271,-0.264 -0.365,-0.431 -0.094,-0.167 -0.14,-0.38 -0.14,-0.638 a 1.518,1.518 0 0 1 0.447,-1.084 c 0.14,-0.137 0.309,-0.243 0.505,-0.319 a 1.77,1.77 0 0 1 0.649,-0.115 c 0.241,0 0.461,0.042 0.661,0.123 a 1.477,1.477 0 0 1 0.842,0.842 c 0.076,0.194 0.115,0.407 0.115,0.636 h -0.633 c 0,-0.312 -0.092,-0.561 -0.274,-0.747 a 0.955,0.955 0 0 0 -0.71,-0.278 c -0.291,0 -0.527,0.086 -0.71,0.259 -0.184,0.173 -0.275,0.4 -0.275,0.686 0,0.154 0.036,0.284 0.107,0.392 0.07,0.105 0.164,0.199 0.278,0.278 0.115,0.08 0.247,0.15 0.398,0.213 0.15,0.063 0.308,0.128 0.472,0.193 0.208,0.082 0.407,0.167 0.597,0.254 0.188,0.087 0.354,0.193 0.501,0.316 0.144,0.123 0.261,0.271 0.349,0.447 0.087,0.176 0.132,0.395 0.132,0.656 0,0.257 -0.048,0.492 -0.144,0.702 -0.098,0.21 -0.228,0.394 -0.396,0.546 a 1.749,1.749 0 0 1 -0.587,0.354 c -0.225,0.082 -0.465,0.123 -0.723,0.123 a 1.817,1.817 0 0 1 -1.285,-0.514 1.779,1.779 0 0 1 -0.382,-0.57 1.837,1.837 0 0 1 -0.141,-0.724 h 0.616 z m 4.105,-4.065 h 0.616 v 5.748 h -0.616 z m 3.027,0.575 h -1.683 v -0.575 h 3.982 v 0.575 h -1.683 v 5.173 h -0.616 z m 3.007,-0.575 h 3.449 v 0.575 h -2.833 v 1.889 h 2.587 v 0.575 h -2.587 v 2.134 h 2.833 v 0.575 h -3.449 z m 5.739,0.575 h -1.683 v -0.575 h 3.983 v 0.575 h -1.683 v 5.173 h -0.617 z"
       id="path37"
       inkscape:connector-curvature="0" />
  </g>
</svg>
