<svg xmlns="http://www.w3.org/2000/svg" width="91.011" height="18.197">
  <path d="M12.675 20.808H6.333L24.3 2.841v6.36zm29.592-8.985a8.811 8.811 0 0 1-.701 3.505 8.932 8.932 0 0 1-1.923 2.848 9.242 9.242 0 0 1-2.856 1.922 8.69 8.69 0 0 1-3.504.71 8.72 8.72 0 0 1-2.389-.324 9.155 9.155 0 0 1-2.147-.906 8.909 8.909 0 0 1-1.813-1.401 8.878 8.878 0 0 1-1.401-1.815 9.102 9.102 0 0 1-.907-2.146 8.767 8.767 0 0 1-.322-2.391h4.49c0 .611.12 1.188.36 1.734.239.545.562 1.021.97 1.429.407.407.883.731 1.428.971a4.272 4.272 0 0 0 1.733.358 4.33 4.33 0 0 0 1.752-.358 4.63 4.63 0 0 0 1.429-.971c.407-.406.729-.883.961-1.429a4.35 4.35 0 0 0 .352-1.734h4.488zm12.019-2.092-1.189-2.562-1.109 2.562Zm-1.2-3.942 2.833 6.036h-.666l-.706-1.52h-2.808l-.657 1.52h-.665Zm6.993 3.942L58.89 7.169l-1.11 2.562ZM58.88 5.789l2.833 6.036h-.666l-.706-1.52h-2.808l-.657 1.52h-.665zm5.379 3.039c.203 0 .384-.029.542-.086.159-.058.29-.137.396-.234.104-.099.183-.214.238-.345a1.111 1.111 0 0 0 0-.843 1.027 1.027 0 0 0-.238-.349 1.101 1.101 0 0 0-.396-.234 1.593 1.593 0 0 0-.542-.086h-1.338v2.177Zm-1.954-2.751H64.3c.285 0 .541.044.769.131.228.088.419.207.575.356.155.15.276.328.361.53.084.203.127.419.127.649 0 .213-.034.415-.105.604a1.48 1.48 0 0 1-.312.501 1.683 1.683 0 0 1-.497.361 1.975 1.975 0 0 1-.66.185l1.657 2.432h-.747l-1.642-2.423h-.903v2.423h-.615zm4.822 0h.616V8.54h3.038V6.077h.616v5.748h-.616v-2.71h-3.038v2.71h-.616zm5.5 0h.624v3.67c0 .307.044.563.131.771.089.208.202.375.342.501.139.126.298.216.476.271a1.81 1.81 0 0 0 1.076 0c.178-.056.336-.146.477-.271.14-.126.253-.292.34-.501.088-.208.132-.465.132-.771v-3.67h.625v3.761c0 .351-.062.657-.182.92a1.972 1.972 0 0 1-.479.661c-.2.178-.426.311-.679.397a2.348 2.348 0 0 1-1.542 0 1.948 1.948 0 0 1-1.157-1.058 2.195 2.195 0 0 1-.181-.92zm5.716 4.064c0 .175.028.338.087.489a1.124 1.124 0 0 0 .615.649c.145.063.309.095.488.095.181 0 .346-.029.497-.086.15-.058.28-.139.39-.242.109-.104.194-.227.255-.365.061-.14.091-.292.091-.456a.788.788 0 0 0-.1-.403.98.98 0 0 0-.263-.299 2.012 2.012 0 0 0-.382-.229 7.547 7.547 0 0 0-.448-.193 22.428 22.428 0 0 1-.616-.25 2.268 2.268 0 0 1-.521-.308 1.47 1.47 0 0 1-.365-.432c-.093-.167-.14-.379-.14-.637 0-.213.04-.413.118-.599a1.47 1.47 0 0 1 .328-.484c.141-.137.309-.244.505-.32.197-.076.413-.114.648-.114.241 0 .461.042.661.124.2.082.371.193.513.337.144.142.252.311.329.505.077.193.115.406.115.636h-.632c0-.312-.093-.561-.275-.748a.954.954 0 0 0-.71-.279c-.29 0-.527.087-.71.26-.183.172-.275.4-.275.685a.69.69 0 0 0 .107.391c.071.107.164.2.279.279.114.079.247.15.397.213.15.063.309.127.474.193.208.082.405.167.595.254.188.087.354.193.5.316.145.123.262.271.35.446.087.176.131.395.131.657 0 .257-.048.491-.144.702a1.689 1.689 0 0 1-.396.546 1.759 1.759 0 0 1-.587.354 2.11 2.11 0 0 1-.723.122 1.86 1.86 0 0 1-.714-.135 1.725 1.725 0 0 1-.571-.378 1.779 1.779 0 0 1-.522-1.293zm-27.367 4.861h.625v3.671c0 .306.043.563.131.771a1.4 1.4 0 0 0 .341.501c.14.126.298.217.476.271a1.816 1.816 0 0 0 1.076 0c.179-.054.336-.146.477-.271.14-.126.253-.293.341-.501.088-.208.131-.466.131-.771v-3.671h.625v3.761c0 .351-.061.657-.181.92a1.988 1.988 0 0 1-.48.661c-.2.178-.426.311-.678.398a2.35 2.35 0 0 1-1.543 0 1.96 1.96 0 0 1-1.158-1.059 2.195 2.195 0 0 1-.181-.92zm5.528-.205 4.016 4.607v-4.402h.616v5.954l-4.016-4.591v4.385h-.616zm5.991.205h.615v5.748h-.615zm1.343 0h.674l1.905 4.525 1.773-4.525h.658l-2.423 6.036zm5.713 0H73v.575h-2.833v1.889h2.587v.575h-2.587v2.134H73v.575h-3.449zm6.408 2.751c.203 0 .383-.029.542-.086.158-.059.29-.137.395-.234a1.053 1.053 0 0 0 .319-.763c0-.148-.026-.289-.082-.423a1.014 1.014 0 0 0-.237-.35 1.118 1.118 0 0 0-.395-.233 1.573 1.573 0 0 0-.542-.086H74.62v2.176zm-1.954-2.751h1.996c.285 0 .541.044.769.131.228.088.419.207.575.356.155.15.276.327.36.53.085.203.127.419.127.649 0 .213-.035.415-.106.603a1.495 1.495 0 0 1-.312.501 1.653 1.653 0 0 1-.497.361 1.958 1.958 0 0 1-.661.185l1.659 2.432h-.748l-1.642-2.423h-.905v2.423h-.616zm5.161 4.065c0 .176.028.338.086.488.059.151.139.281.242.391a1.154 1.154 0 0 0 .863.353c.18 0 .346-.028.497-.086a1.1 1.1 0 0 0 .734-1.064.777.777 0 0 0-.099-.401 1.031 1.031 0 0 0-.263-.301 2.135 2.135 0 0 0-.381-.229 7.834 7.834 0 0 0-.448-.192 17.837 17.837 0 0 1-.616-.251 2.268 2.268 0 0 1-.521-.308 1.496 1.496 0 0 1-.365-.431c-.094-.167-.14-.38-.14-.638a1.518 1.518 0 0 1 .447-1.084c.14-.137.309-.243.505-.319a1.77 1.77 0 0 1 .649-.115c.241 0 .461.042.661.123a1.477 1.477 0 0 1 .842.842c.076.194.115.407.115.636h-.633c0-.312-.092-.561-.274-.747a.955.955 0 0 0-.71-.278c-.291 0-.527.086-.71.259-.184.173-.275.4-.275.686 0 .154.036.284.107.392.07.105.164.199.278.278.115.08.247.15.398.213.15.063.308.128.472.193.208.082.407.167.597.254.188.087.354.193.501.316.144.123.261.271.349.447.087.176.132.395.132.656 0 .257-.048.492-.144.702-.098.21-.228.394-.396.546a1.749 1.749 0 0 1-.587.354 2.091 2.091 0 0 1-.723.123 1.817 1.817 0 0 1-1.285-.514 1.779 1.779 0 0 1-.382-.57 1.837 1.837 0 0 1-.141-.724h.616zm4.105-4.065h.616v5.748h-.616zm3.027.575h-1.683v-.575h3.982v.575h-1.683v5.173h-.616zm3.007-.575h3.449v.575h-2.833v1.889h2.587v.575h-2.587v2.134h2.833v.575h-3.449zm5.739.575h-1.683v-.575h3.983v.575h-1.683v5.173h-.617z" transform="translate(-6.333 -2.841)" class="icon" style="fill:#002546"/>
</svg>
