<svg width="600" height="139" viewBox="0 0 600 139" fill="none" xmlns="http://www.w3.org/2000/svg">
<path fill-rule="evenodd" clip-rule="evenodd" d="M227.677 46.8311H235.075L255.775 94.8838H246.002L241.522 83.8887H220.686L216.342 94.8838H206.772L227.677 46.8311ZM238.536 76.5586L231.138 57.0117L223.604 76.5586H238.536ZM265.074 46.8311H296.905V54.5684H273.625V66.3779H295.684V74.1152H273.625V87.1465H298.127V94.8838H265.074V46.8311ZM309.733 90.1328C309.733 88.6849 310.265 87.4406 311.328 86.3999C312.391 85.3592 313.669 84.8389 315.163 84.8389C316.611 84.8389 317.877 85.3366 318.963 86.332C320.049 87.3275 320.592 88.5491 320.592 89.9971C320.592 91.445 320.061 92.6893 318.997 93.73C317.934 94.7707 316.656 95.291 315.163 95.291C314.439 95.291 313.749 95.1553 313.093 94.8838C312.436 94.6123 311.86 94.2503 311.362 93.7978C310.864 93.3454 310.468 92.8024 310.174 92.1689C309.88 91.5355 309.733 90.8568 309.733 90.1328ZM358.057 57.1475C357.152 55.8353 355.942 54.8738 354.426 54.2629C352.91 53.6521 351.315 53.3467 349.641 53.3467C348.646 53.3467 347.684 53.4598 346.757 53.686C345.829 53.9123 344.992 54.2742 344.245 54.772C343.499 55.2697 342.899 55.9145 342.447 56.7063C341.994 57.4981 341.768 58.437 341.768 59.5229C341.768 61.1519 342.334 62.3962 343.465 63.2559C344.596 64.1156 345.999 64.8621 347.673 65.4956C349.347 66.1291 351.18 66.7399 353.17 67.3281C355.161 67.9163 356.994 68.7308 358.668 69.7715C360.342 70.8122 361.745 72.1922 362.876 73.9116C364.007 75.631 364.573 77.916 364.573 80.7666C364.573 83.3457 364.098 85.5967 363.147 87.5198C362.197 89.4428 360.919 91.0378 359.313 92.3047C357.706 93.5716 355.84 94.5218 353.713 95.1553C351.587 95.7887 349.347 96.1055 346.994 96.1055C344.008 96.1055 341.135 95.6077 338.375 94.6123C335.614 93.6169 333.239 91.9427 331.248 89.5898L337.696 83.3457C338.736 84.9294 340.105 86.1623 341.802 87.0447C343.499 87.927 345.297 88.3682 347.198 88.3682C348.193 88.3682 349.189 88.2324 350.184 87.9609C351.18 87.6894 352.084 87.2822 352.899 86.7393C353.713 86.1963 354.369 85.5063 354.867 84.6692C355.365 83.8321 355.614 82.8706 355.614 81.7847C355.614 80.02 355.048 78.6626 353.917 77.7124C352.786 76.7622 351.383 75.9591 349.709 75.303C348.035 74.6469 346.202 74.0247 344.211 73.4365C342.221 72.8483 340.388 72.0452 338.714 71.0271C337.04 70.009 335.637 68.6516 334.506 66.9548C333.375 65.258 332.809 62.9844 332.809 60.1338C332.809 57.6452 333.318 55.4959 334.336 53.686C335.354 51.8761 336.689 50.3717 338.341 49.1726C339.992 47.9735 341.881 47.0799 344.008 46.4917C346.134 45.9035 348.306 45.6094 350.523 45.6094C353.057 45.6094 355.512 45.994 357.887 46.7632C360.263 47.5324 362.401 48.7993 364.301 50.564L358.057 57.1475ZM387.242 54.5684H372.514V46.8311H410.521V54.5684H395.793V94.8838H387.242V54.5684ZM458.778 77.2373C458.778 80.1332 458.28 82.7462 457.285 85.0764C456.289 87.4067 454.932 89.3862 453.212 91.0151C451.493 92.644 449.457 93.8997 447.104 94.782C444.751 95.6643 442.195 96.1055 439.435 96.1055C436.674 96.1055 434.118 95.6643 431.765 94.782C429.412 93.8997 427.365 92.644 425.623 91.0151C423.881 89.3862 422.523 87.4067 421.551 85.0764C420.578 82.7462 420.091 80.1332 420.091 77.2373V46.8311H428.643V76.9658C428.643 78.1423 428.824 79.3752 429.186 80.6648C429.548 81.9543 430.148 83.1421 430.985 84.228C431.822 85.314 432.93 86.2076 434.31 86.9089C435.69 87.6103 437.398 87.9609 439.435 87.9609C441.471 87.9609 443.179 87.6103 444.559 86.9089C445.939 86.2076 447.047 85.314 447.885 84.228C448.722 83.1421 449.321 81.9543 449.683 80.6648C450.045 79.3752 450.226 78.1423 450.226 76.9658V46.8311H458.778V77.2373ZM473.234 46.8311H492.17C495.338 46.8311 498.392 47.3175 501.333 48.2903C504.274 49.2631 506.876 50.7449 509.138 52.7358C511.401 54.7267 513.21 57.2266 514.568 60.2356C515.925 63.2446 516.604 66.7851 516.604 70.8574C516.604 74.975 515.823 78.5381 514.262 81.5471C512.701 84.5561 510.688 87.0447 508.222 89.0129C505.756 90.9812 503.018 92.4517 500.01 93.4246C497.001 94.3974 494.048 94.8838 491.152 94.8838H473.234V46.8311ZM488.166 87.1465C490.836 87.1465 493.358 86.8411 495.734 86.2302C498.109 85.6194 500.179 84.6692 501.944 83.3796C503.708 82.0901 505.1 80.4159 506.118 78.3572C507.136 76.2984 507.645 73.7985 507.645 70.8574C507.645 67.9616 507.193 65.473 506.288 63.3916C505.383 61.3102 504.127 59.6248 502.521 58.3352C500.914 57.0456 499.014 56.0955 496.82 55.4846C494.625 54.8738 492.216 54.5684 489.591 54.5684H481.786V87.1465H488.166ZM528.481 46.8311H537.033V94.8838H528.481V46.8311ZM548.911 71.061C548.911 67.215 549.544 63.7197 550.811 60.5749C552.078 57.4302 553.831 54.7494 556.071 52.5322C558.311 50.3151 560.98 48.607 564.08 47.408C567.179 46.2089 570.584 45.6094 574.294 45.6094C578.05 45.5641 581.489 46.1184 584.611 47.2722C587.733 48.426 590.425 50.1115 592.688 52.3286C594.95 54.5457 596.715 57.2153 597.981 60.3374C599.248 63.4595 599.882 66.9435 599.882 70.7895C599.882 74.5451 599.248 77.9612 597.981 81.0381C596.715 84.1149 594.95 86.7619 592.688 88.979C590.425 91.1961 587.733 92.9268 584.611 94.1711C581.489 95.4154 578.05 96.0602 574.294 96.1055C570.584 96.1055 567.179 95.5059 564.08 94.3069C560.98 93.1078 558.311 91.4111 556.071 89.2165C553.831 87.022 552.078 84.3864 550.811 81.3096C549.544 78.2327 548.911 74.8166 548.911 71.061ZM557.87 70.5181C557.87 73.0972 558.266 75.4726 559.057 77.6445C559.849 79.8164 560.969 81.6942 562.417 83.2778C563.865 84.8615 565.596 86.1058 567.609 87.0107C569.623 87.9157 571.874 88.3682 574.362 88.3682C576.851 88.3682 579.113 87.9157 581.149 87.0107C583.186 86.1058 584.928 84.8615 586.375 83.2778C587.823 81.6942 588.943 79.8164 589.735 77.6445C590.527 75.4726 590.923 73.0972 590.923 70.5181C590.923 68.1199 590.527 65.8802 589.735 63.7988C588.943 61.7174 587.823 59.8962 586.375 58.3352C584.928 56.7742 583.186 55.5525 581.149 54.6702C579.113 53.7878 576.851 53.3467 574.362 53.3467C571.874 53.3467 569.623 53.7878 567.609 54.6702C565.596 55.5525 563.865 56.7742 562.417 58.3352C560.969 59.8962 559.849 61.7174 559.057 63.7988C558.266 65.8802 557.87 68.1199 557.87 70.5181Z" fill="black"/>
<path d="M0 0V139H50V101.656L82.5 139H121L0 0Z" fill="#F99556"/>
<path d="M18 0L139 139V99V70H110.5L99 57H139V33.5H78.5L66.5 19.5H139V0H18Z" fill="#FA6E62"/>
</svg>
