<svg width="600" height="139" viewBox="0 0 600 139" fill="none" xmlns="http://www.w3.org/2000/svg">
<path fill-rule="evenodd" clip-rule="evenodd" d="M227.677 46.8312H235.075L255.775 94.8839H246.002L241.522 83.8888H220.686L216.342 94.8839H206.772L227.677 46.8312ZM238.536 76.5587L231.138 57.0118L223.604 76.5587H238.536ZM265.074 46.8312H296.905V54.5685H273.625V66.378H295.684V74.1154H273.625V87.1466H298.127V94.8839H265.074V46.8312ZM309.733 90.1329C309.733 88.685 310.265 87.4407 311.328 86.4C312.391 85.3593 313.669 84.839 315.163 84.839C316.611 84.839 317.877 85.3367 318.963 86.3321C320.049 87.3276 320.592 88.5493 320.592 89.9972C320.592 91.4451 320.061 92.6894 318.997 93.7301C317.934 94.7708 316.656 95.2911 315.163 95.2911C314.439 95.2911 313.749 95.1554 313.093 94.8839C312.436 94.6124 311.86 94.2504 311.362 93.798C310.864 93.3455 310.468 92.8025 310.174 92.1691C309.88 91.5356 309.733 90.8569 309.733 90.1329ZM358.057 57.1476C357.152 55.8354 355.942 54.8739 354.426 54.2631C352.91 53.6522 351.315 53.3468 349.641 53.3468C348.646 53.3468 347.684 53.4599 346.757 53.6862C345.829 53.9124 344.992 54.2744 344.245 54.7721C343.499 55.2698 342.899 55.9146 342.447 56.7064C341.994 57.4983 341.768 58.4371 341.768 59.5231C341.768 61.152 342.334 62.3963 343.465 63.256C344.596 64.1157 345.999 64.8623 347.673 65.4957C349.347 66.1292 351.18 66.74 353.17 67.3282C355.161 67.9165 356.994 68.7309 358.668 69.7716C360.342 70.8123 361.745 72.1923 362.876 73.9117C364.007 75.6312 364.573 77.9161 364.573 80.7667C364.573 83.3458 364.098 85.5969 363.147 87.5199C362.197 89.4429 360.919 91.0379 359.313 92.3048C357.706 93.5717 355.84 94.5219 353.713 95.1554C351.587 95.7889 349.347 96.1056 346.994 96.1056C344.008 96.1056 341.135 95.6079 338.375 94.6124C335.614 93.617 333.239 91.9428 331.248 89.59L337.696 83.3458C338.736 84.9295 340.105 86.1625 341.802 87.0448C343.499 87.9271 345.297 88.3683 347.198 88.3683C348.193 88.3683 349.189 88.2325 350.184 87.9611C351.18 87.6896 352.084 87.2823 352.899 86.7394C353.713 86.1964 354.369 85.5064 354.867 84.6693C355.365 83.8322 355.614 82.8707 355.614 81.7848C355.614 80.0201 355.048 78.6627 353.917 77.7125C352.786 76.7623 351.383 75.9592 349.709 75.3031C348.035 74.647 346.202 74.0249 344.211 73.4366C342.221 72.8484 340.388 72.0453 338.714 71.0272C337.04 70.0091 335.637 68.6517 334.506 66.955C333.375 65.2582 332.809 62.9845 332.809 60.1339C332.809 57.6453 333.318 55.4961 334.336 53.6862C335.354 51.8762 336.689 50.3718 338.341 49.1727C339.992 47.9737 341.881 47.08 344.008 46.4918C346.134 45.9036 348.306 45.6095 350.523 45.6095C353.057 45.6095 355.512 45.9941 357.887 46.7633C360.263 47.5325 362.401 48.7994 364.301 50.5641L358.057 57.1476ZM387.242 54.5685H372.514V46.8312H410.521V54.5685H395.793V94.8839H387.242V54.5685ZM458.778 77.2374C458.778 80.1333 458.28 82.7463 457.285 85.0765C456.289 87.4068 454.932 89.3863 453.212 91.0153C451.493 92.6442 449.457 93.8998 447.104 94.7821C444.751 95.6644 442.195 96.1056 439.435 96.1056C436.674 96.1056 434.118 95.6644 431.765 94.7821C429.412 93.8998 427.365 92.6442 425.623 91.0153C423.881 89.3863 422.523 87.4068 421.551 85.0765C420.578 82.7463 420.091 80.1333 420.091 77.2374V46.8312H428.643V76.9659C428.643 78.1424 428.824 79.3754 429.186 80.6649C429.548 81.9545 430.148 83.1422 430.985 84.2281C431.822 85.3141 432.93 86.2077 434.31 86.9091C435.69 87.6104 437.398 87.9611 439.435 87.9611C441.471 87.9611 443.179 87.6104 444.559 86.9091C445.939 86.2077 447.047 85.3141 447.885 84.2281C448.722 83.1422 449.321 81.9545 449.683 80.6649C450.045 79.3754 450.226 78.1424 450.226 76.9659V46.8312H458.778V77.2374ZM473.234 46.8312H492.17C495.338 46.8312 498.392 47.3176 501.333 48.2904C504.274 49.2632 506.876 50.7451 509.138 52.736C511.401 54.7269 513.21 57.2267 514.568 60.2357C515.925 63.2447 516.604 66.7853 516.604 70.8575C516.604 74.9751 515.823 78.5383 514.262 81.5472C512.701 84.5562 510.688 87.0448 508.222 89.0131C505.756 90.9813 503.018 92.4519 500.01 93.4247C497.001 94.3975 494.048 94.8839 491.152 94.8839H473.234V46.8312ZM488.166 87.1466C490.836 87.1466 493.358 86.8412 495.734 86.2303C498.109 85.6195 500.179 84.6693 501.944 83.3798C503.708 82.0902 505.1 80.4161 506.118 78.3573C507.136 76.2985 507.645 73.7986 507.645 70.8575C507.645 67.9617 507.193 65.4731 506.288 63.3917C505.383 61.3103 504.127 59.6249 502.521 58.3353C500.914 57.0458 499.014 56.0956 496.82 55.4847C494.625 54.8739 492.216 54.5685 489.591 54.5685H481.786V87.1466H488.166ZM528.481 46.8312H537.033V94.8839H528.481V46.8312ZM548.911 71.0612C548.911 67.2151 549.544 63.7198 550.811 60.5751C552.078 57.4304 553.831 54.7495 556.071 52.5323C558.311 50.3152 560.98 48.6071 564.08 47.4081C567.179 46.209 570.584 45.6095 574.294 45.6095C578.05 45.5642 581.489 46.1185 584.611 47.2723C587.733 48.4262 590.425 50.1116 592.688 52.3287C594.95 54.5459 596.715 57.2154 597.981 60.3375C599.248 63.4596 599.882 66.9436 599.882 70.7897C599.882 74.5452 599.248 77.9614 597.981 81.0382C596.715 84.115 594.95 86.762 592.688 88.9791C590.425 91.1963 587.733 92.927 584.611 94.1713C581.489 95.4156 578.05 96.0603 574.294 96.1056C570.584 96.1056 567.179 95.5061 564.08 94.307C560.98 93.1079 558.311 91.4112 556.071 89.2167C553.831 87.0222 552.078 84.3865 550.811 81.3097C549.544 78.2328 548.911 74.8167 548.911 71.0612ZM557.87 70.5182C557.87 73.0973 558.266 75.4728 559.057 77.6447C559.849 79.8165 560.969 81.6943 562.417 83.278C563.865 84.8616 565.596 86.1059 567.609 87.0109C569.623 87.9158 571.874 88.3683 574.362 88.3683C576.851 88.3683 579.113 87.9158 581.149 87.0109C583.186 86.1059 584.928 84.8616 586.375 83.278C587.823 81.6943 588.943 79.8165 589.735 77.6447C590.527 75.4728 590.923 73.0973 590.923 70.5182C590.923 68.1201 590.527 65.8803 589.735 63.7989C588.943 61.7176 587.823 59.8964 586.375 58.3353C584.928 56.7743 583.186 55.5526 581.149 54.6703C579.113 53.788 576.851 53.3468 574.362 53.3468C571.874 53.3468 569.623 53.788 567.609 54.6703C565.596 55.5526 563.865 56.7743 562.417 58.3353C560.969 59.8964 559.849 61.7176 559.057 63.7989C558.266 65.8803 557.87 68.1201 557.87 70.5182Z" fill="white"/>
<path d="M0 0V139H50V101.656L82.5 139H121L0 0Z" fill="#F99556"/>
<path d="M18 0L139 139V99V70H110.5L99 57H139V33.5H78.5L66.5 19.5H139V0H18Z" fill="#FA6E62"/>
</svg>
