<svg xmlns="http://www.w3.org/2000/svg" xml:space="preserve" y="0" x="0" id="Layer_1" version="1.1" width="204.16" height="148.813">
  <style id="style2" type="text/css">
    .st1{fill:#1a3560}.st2{fill:#9dad3a}.st3{fill:none;stroke:#9cad3a;stroke-miterlimit:10}.st4{fill:#6a6b71}
  </style>
  <g id="g172" transform="translate(-25.08 -6.667)">
    <g id="g94">
      <path id="path86" d="M70.61 97.01c0 8.4-5.52 14.33-18.53 14.33H35.35V59.86h16.06c12.35 0 17.54 5.6 17.54 13.43 0 5.02-3.05 9.97-9.88 11.7 7.58 1.47 11.54 6 11.54 12.02zM51.66 64.64H40.63v18.53h10.21c7.74 0 12.85-3.38 12.85-9.47 0-5.52-3.87-9.06-12.03-9.06zm-.49 23.31H40.63v18.61h11.86c9.06 0 12.85-3.71 12.85-9.55 0-6.02-5.03-9.06-14.17-9.06z" class="st1" style="fill:#1a3560"/>
      <path id="path88" d="M79.17 111.34V59.86h5.19v51.48z" class="st1" style="fill:#1a3560"/>
      <path id="path90" d="M108.08 111.34H94.49V59.86h14c16.88 0 27.26 10.21 27.26 25.37.01 16.22-10.12 26.11-27.67 26.11zm.08-46.62h-8.4v41.76h8.57c13.18 0 22.16-6.75 22.16-20.84 0-13.1-8.24-20.92-22.33-20.92z" class="st1" style="fill:#1a3560"/>
      <path id="path92" d="M169.85 97.99c0-6.01-4.94-8.4-13.01-10.79-7.25-2.14-14.99-5.27-14.99-14.41 0-8.15 6.92-14 16.47-14 5.93 0 11.12 1.65 15.49 4.45l-1.89 4.61c-3.87-2.64-8.9-4.28-13.51-4.28-7.74 0-11.45 4.12-11.45 8.81 0 5.68 5.11 7.82 13.01 10.3 7.41 2.22 14.91 5.6 14.91 14.91 0 8.48-7.08 14.83-17.38 14.83-6.18 0-11.86-1.81-16.56-4.78l1.89-4.69c4.12 2.8 8.98 4.78 14.83 4.78 7.17-.02 12.19-4.3 12.19-9.74z" class="st1" style="fill:#1a3560"/>
    </g>
    <circle id="circle96" r="4.14" cy="52.66" cx="82.01" class="st2" style="fill:#9dad3a"/>
    <circle id="circle98" r="4.14" cy="108.72" cx="181.06" class="st2" style="fill:#9dad3a"/>
    <path id="path100" d="M181.06 108.72c44.21-70.47-1.6-94.64-99.05-55.7" class="st3" style="fill:none;stroke:#9cad3a;stroke-miterlimit:10"/>
    <path id="path102" d="M82.01 52.85c124.59-55.77 152.32-16.48 99.05 55.87" class="st3" style="fill:none;stroke:#9cad3a;stroke-miterlimit:10"/>
    <path id="path104" d="M82.01 53.02c126.24-65.74 178.43-37.5 99.05 55.7" class="st3" style="fill:none;stroke:#9cad3a;stroke-miterlimit:10"/>
    <path id="path106" d="M82.01 53.02c72.84-26.55 134.44-9.27 99.05 55.7" class="st3" style="fill:none;stroke:#9cad3a;stroke-miterlimit:10"/>
    <g id="g170">
      <path id="path108" d="M40.92 128.94c0 1.31-.83 2.22-2.88 2.22h-2.96v-7.94h2.88c1.94 0 2.71.88 2.71 2.12 0 .77-.47 1.46-1.38 1.77 1.06.22 1.63.97 1.63 1.83zm-3.03-4.81h-1.8v2.63h1.75c1.16 0 1.8-.47 1.8-1.35 0-.79-.57-1.28-1.75-1.28zm.02 3.5h-1.82v2.63h1.94c1.3 0 1.87-.52 1.87-1.35-.01-.84-.68-1.28-1.99-1.28z" class="st4" style="fill:#6a6b71"/>
      <path id="path110" d="M43.62 131.16v-7.94h4.96v.93h-3.96v2.57h3.3v.93h-3.3v2.59h3.96v.93h-4.96z" class="st4" style="fill:#6a6b71"/>
      <path id="path112" d="M52.42 131.16H51.4v-7.94h2.44c2 0 3.03.93 3.03 2.42 0 1.18-.66 1.94-1.6 2.29l2.02 3.23h-1.18l-1.85-3-1.83.1v2.9zm1.42-3.82c1.3-.02 2-.64 2-1.63 0-1.06-.66-1.56-2.09-1.56H52.4v3.23z" class="st4" style="fill:#6a6b71"/>
      <path id="path114" d="m60.93 126.99 3.45-3.77h1.3l-3.77 3.9 3.8 4.04h-1.3l-3.48-3.75h-.02v3.75h-1.03v-7.94h1.03v3.77z" class="st4" style="fill:#6a6b71"/>
      <path id="path116" d="M67.95 131.16v-7.94h4.96v.93h-3.96v2.57h3.3v.93h-3.3v2.59h3.96v.93h-4.96z" class="st4" style="fill:#6a6b71"/>
      <path id="path118" d="M75.73 131.16v-7.94h1.03v7.02h3.82v.93h-4.85z" class="st4" style="fill:#6a6b71"/>
      <path id="path120" d="M83.05 131.16v-7.94h4.96v.93h-3.96v2.57h3.3v.93h-3.3v2.59h3.96v.93h-4.96z" class="st4" style="fill:#6a6b71"/>
      <path id="path122" d="M93.79 128.03v3.13h-1.03v-3.15l-2.76-4.8h1.11l2.19 3.8 2.12-3.8h1.13z" class="st4" style="fill:#6a6b71"/>
      <path id="path124" d="M103.4 131.16v-7.94h1.03v7.94z" class="st4" style="fill:#6a6b71"/>
      <path id="path126" d="M113.05 123.22h.98v8.03h-1.11l-4.34-6.55.02 6.46h-.98v-7.94h1.14l4.31 6.48z" class="st4" style="fill:#6a6b71"/>
      <path id="path128" d="M121.05 129.08c0-.86-.67-1.18-1.92-1.53-1.13-.34-2.36-.82-2.36-2.29 0-1.31 1.06-2.2 2.62-2.2.96 0 1.82.25 2.51.67l-.32.91c-.64-.42-1.45-.67-2.17-.67-1.11 0-1.62.57-1.62 1.23 0 .82.72 1.11 1.94 1.46 1.14.34 2.32.88 2.32 2.34 0 1.36-1.14 2.34-2.78 2.34-.94 0-1.9-.29-2.64-.72l.3-.91c.71.44 1.45.74 2.36.74 1.05-.01 1.76-.6 1.76-1.37z" class="st4" style="fill:#6a6b71"/>
      <path id="path130" d="M127.73 124.15v7.02h-1.03v-7.02h-2.76v-.93h6.55v.93z" class="st4" style="fill:#6a6b71"/>
      <path id="path132" d="M132.94 131.16v-7.94h1.03v7.94z" class="st4" style="fill:#6a6b71"/>
      <path id="path134" d="M140.19 124.15v7.02h-1.03v-7.02h-2.76v-.93h6.55v.93z" class="st4" style="fill:#6a6b71"/>
      <path id="path136" d="M148.27 131.33c-1.95 0-3.08-1.16-3.08-3.11v-5h1.01v4.88c0 1.45.69 2.31 2.1 2.31 1.33 0 2.04-.79 2.04-2.31v-4.88h1.01v4.88c0 2.02-1.06 3.23-3.08 3.23z" class="st4" style="fill:#6a6b71"/>
      <path id="path138" d="M157.38 124.15v7.02h-1.03v-7.02h-2.76v-.93h6.55v.93z" class="st4" style="fill:#6a6b71"/>
      <path id="path140" d="M162.57 131.16v-7.94h4.96v.93h-3.96v2.57h3.3v.93h-3.3v2.59h3.96v.93h-4.96z" class="st4" style="fill:#6a6b71"/>
      <path id="path142" d="M35.08 137.36h4.85v.93h-3.84V141h3.18v.94h-3.18v3.37h-1.01z" class="st4" style="fill:#6a6b71"/>
      <path id="path144" d="M45.99 145.47c-2.26 0-3.96-1.63-3.96-4.12 0-2.42 1.67-4.16 3.96-4.16 2.25 0 3.96 1.62 3.96 4.11 0 2.42-1.67 4.17-3.96 4.17zm-.03-7.38c-1.68 0-2.89 1.31-2.89 3.21 0 1.97 1.23 3.28 2.95 3.28 1.72 0 2.89-1.31 2.89-3.23-.01-1.95-1.22-3.26-2.95-3.26z" class="st4" style="fill:#6a6b71"/>
      <path id="path146" d="M53.7 145.31h-1.03v-7.94h2.44c2 0 3.03.93 3.03 2.42 0 1.18-.66 1.94-1.6 2.29l2.02 3.23h-1.18l-1.85-3-1.83.1zm1.42-3.82c1.3-.02 2-.64 2-1.63 0-1.06-.66-1.56-2.09-1.56h-1.35v3.23z" class="st4" style="fill:#6a6b71"/>
      <path id="path148" d="M67.91 145.31h-2.24v-7.94h2.32c2.62 0 4.22 1.56 4.22 3.92.01 2.47-1.55 4.02-4.3 4.02zm0-7.02H66.7v6.09h1.25c1.92 0 3.23-.99 3.23-3.03 0-1.97-1.21-3.06-3.27-3.06z" class="st4" style="fill:#6a6b71"/>
      <path id="path150" d="M81.19 145.31h-1.03l-.77-2.12h-3.52l-.77 2.12h-1.04l2.98-7.94h1.23zm-3.55-6.99-1.45 3.96h2.88z" class="st4" style="fill:#6a6b71"/>
      <path id="path152" d="M85.96 138.29v7.02h-1.03v-7.02h-2.76v-.93h6.55v.93z" class="st4" style="fill:#6a6b71"/>
      <path id="path154" d="M96.82 145.31h-1.03l-.77-2.12H91.5l-.77 2.12h-1.04l2.98-7.94h1.23zm-3.55-6.99-1.45 3.96h2.88z" class="st4" style="fill:#6a6b71"/>
      <path id="path156" d="M107.55 143.22c0-.86-.67-1.18-1.92-1.53-1.13-.34-2.36-.82-2.36-2.29 0-1.31 1.06-2.2 2.62-2.2.96 0 1.82.25 2.51.67l-.32.91c-.64-.42-1.45-.67-2.17-.67-1.11 0-1.62.57-1.62 1.23 0 .82.72 1.11 1.94 1.46 1.14.34 2.32.88 2.32 2.34 0 1.36-1.14 2.34-2.78 2.34-.94 0-1.9-.29-2.64-.72l.3-.91c.71.44 1.45.74 2.36.74 1.05-.01 1.76-.6 1.76-1.37z" class="st4" style="fill:#6a6b71"/>
      <path id="path158" d="M116.92 138.73c-.64-.39-1.36-.62-2.17-.62-1.68 0-2.86 1.18-2.86 3.21 0 2 1.13 3.25 2.88 3.25.86 0 1.67-.29 2.2-.71l.2.99c-.61.37-1.51.62-2.44.62-2.34 0-3.87-1.58-3.87-4.12 0-2.52 1.6-4.16 3.89-4.16.96 0 1.87.27 2.49.64z" class="st4" style="fill:#6a6b71"/>
      <path id="path160" d="M119.94 145.31v-7.94h1.03v7.94z" class="st4" style="fill:#6a6b71"/>
      <path id="path162" d="M124.15 145.31v-7.94h4.96v.93h-3.96v2.57h3.3v.93h-3.3v2.59h3.96v.93h-4.96z" class="st4" style="fill:#6a6b71"/>
      <path id="path164" d="M137.36 137.36h.98v8.03h-1.11l-4.34-6.55.02 6.46h-.98v-7.94h1.14l4.31 6.48z" class="st4" style="fill:#6a6b71"/>
      <path id="path166" d="M147.11 138.73c-.64-.39-1.36-.62-2.17-.62-1.68 0-2.86 1.18-2.86 3.21 0 2 1.13 3.25 2.88 3.25.86 0 1.67-.29 2.2-.71l.2.99c-.61.37-1.51.62-2.44.62-2.34 0-3.87-1.58-3.87-4.12 0-2.52 1.6-4.16 3.89-4.16.96 0 1.87.27 2.49.64z" class="st4" style="fill:#6a6b71"/>
      <path id="path168" d="M150.11 145.31v-7.94h4.96v.93h-3.96v2.57h3.3v.93h-3.3v2.59h3.96v.93h-4.96z" class="st4" style="fill:#6a6b71"/>
    </g>
  </g>
</svg>
