<svg xmlns="http://www.w3.org/2000/svg" height="113.13" viewBox="0 0 250 113.13039" width="250"><g transform="matrix(1.25 0 0 -1.25 -257.38 551.51)"><g><path d="m206.84 351.65h198.4v88.904h-198.4v-88.904z" fill="#c00"/><path d="m5.2031 4.8984v102.98h239.9v-102.98l-239.9-0.0016zm1.6914 1.6914h236.51v99.58h-236.51l0.0045-99.58zm66.354 15.605c-10.162 0.018-17.472 6.746-17.49 16.254 0.001 8.95 7.9 14.954 17.252 14.971 9.265-0.018 16.995-6.788 17.013-16.443-0.003-8.617-7.753-14.766-16.775-14.782zm31.882 0c-4.89 0.008-8.555 2.979-8.558 6.991 0.05 8.423 15.318 10.531 15.248 17.246 0 3.682-3.3 5.503-6.45 5.507-3.67-0.001-6.951-2.434-7.94-6.623l-0.018-0.076h-1.092l1.024 7.418h0.894 0.053l0.029-0.043c0.177-0.263 0.479-0.48 0.868-0.48 0.611-0.006 3.972 1.283 6.602 1.285 5.6-0.009 9.79-3.501 9.79-8.223-0.04-8.851-15.32-10.68-15.25-17.295 0-2.6 2.12-4.362 5.23-4.369 3.23 0 6.24 2.158 7.55 5.545l0.03 0.061h0.98l-0.83-6.229h-0.9l-0.02 0.037c-0.29 0.371-0.42 0.432-0.78 0.44-1.6 0.007-2.45-1.19-6.46-1.192zm65.5 0c-10.16 0.018-17.47 6.746-17.49 16.254 0.01 8.95 7.9 14.954 17.26 14.971 9.26-0.018 16.99-6.788 17.01-16.443 0-8.617-7.75-14.766-16.78-14.782zm-49.39 0.002l-0.78 7.891h1.05l0.01-0.08c0.72-4.187 1.53-5.186 3.37-5.194h8.17v23.375c-0.03 2.542-0.78 3.346-3.66 3.372h-1.85v1.097h15.16v-1.097h-1.85c-2.89-0.026-3.64-0.83-3.66-3.372v-23.375l8.17 0.002c1.84 0.005 2.64 1.005 3.37 5.192l0.01 0.08h1.05l-0.78-7.891h-1.07l-0.02 0.08c-0.06 0.477-0.71 0.636-1.37 0.633l-22.86-0.002c-0.32 0.001-0.64-0.044-0.91-0.137-0.27-0.088-0.42-0.246-0.46-0.494l-0.02-0.08h-1.07zm-85.943 0.283c-0.905 0-4.514 0.05-7.131 0.145-1.38 0.047-4.658 0.237-5.986 0.285l-0.094 0.002v1.098h1.762c3.285 0.027 3.532 1.32 3.56 4.033v19.719c-0.03 2.974-0.67 3.767-4.558 3.799h-1.192v1.097h17.488c7.702-0.007 10.35-5.329 10.362-9.125 0-3.703-2.586-6.611-6.963-7.969v-0.002c3.118-0.645 5.297-3.149 5.299-5.855 0.004-2.309-0.974-3.967-2.94-5.355-1.749-1.26-5.416-1.868-9.607-1.872zm156.9 0.428v1.098l0.09 0.004c1.63 0.047 2.83 0.413 3.9 1.142v23.327c-0.02 2.147-0.87 3.061-3.8 3.083h-0.29v1.096h11.22v-0.998-0.002-0.097h-0.1c-4.03-0.035-4.66-0.633-4.7-4.036v-20.138l24.47 25.605h1.38v-26.611c0.02-1.802 0.65-2.346 4.23-2.371h0.09v-1.1h-11.31v1.096l0.09 0.004c3.82 0.127 4.54 0.55 4.57 3.418v18.664l-22.25-23.184h-7.59zm-156.57 0.674c5.808 0.011 7.728 2.985 7.74 6.268-0.011 3.656-2.203 5.398-6.742 5.412h-5.082v-11.541c1.194-0.048 3.07-0.139 4.084-0.139zm36.381 0c7.783 0.004 13.344 6.165 13.349 14.961-0.007 6.718-3.68 13.48-11.353 13.492-7.592-0.001-13.583-6.217-13.586-15.058 0.004-5.673 3.303-13.382 11.59-13.395zm97.388 0c7.78 0.004 13.34 6.165 13.34 14.961 0 6.718-3.67 13.48-11.35 13.492-7.59-0.001-13.58-6.217-13.58-15.058 0-5.673 3.3-13.382 11.59-13.395zm-137.85 12.779h5.033c5.511 0.004 8.259 3.708 8.264 7.317-0.014 3.675-1.757 7.49-7.979 7.5-3.974-0.023-5.295-1.214-5.318-4.793v-10.024zm130.15 32.647c-3.24 0.005-5.69 1.981-5.69 4.654 0.05 5.604 10.14 7.004 10.08 11.397-0.01 2.406-2.16 3.6-4.24 3.603-2.4-0.001-4.56-1.597-5.21-4.35l-0.02-0.074h-0.78l0.68 4.969h0.68l0.03-0.043c0.11-0.165 0.3-0.305 0.54-0.305 0.39-0.008 2.62 0.848 4.36 0.85 3.72-0.006 6.51-2.324 6.51-5.467-0.05-5.883-10.15-7.103-10.08-11.428 0-1.696 1.38-2.85 3.42-2.855 2.12 0 4.1 1.415 4.96 3.643l0.02 0.062h0.72l-0.56-4.185h-0.64l-0.03 0.039c-0.19 0.242-0.25 0.268-0.49 0.277-1.03 0.009-1.61-0.786-4.26-0.787zm24.74 0.002l-0.53 5.281h0.76l0.02-0.08c0.48-2.769 1-3.398 2.19-3.402h5.36v15.41c-0.02 1.671-0.48 2.168-2.38 2.193l-1.26 0.002v0.793h10.09v-0.793h-1.26c-1.9-0.027-2.36-0.524-2.38-2.195v-15.414l5.36 0.004c1.19 0.005 1.71 0.633 2.2 3.402l0.01 0.08h0.76l-0.52-5.281h-0.69-0.09l-0.01 0.082c-0.03 0.285-0.43 0.388-0.87 0.387h-15.11c-0.21 0-0.42-0.029-0.59-0.088-0.17-0.057-0.26-0.15-0.28-0.299l-0.02-0.082h-0.76zm-46.28 0.271c-2.03-0.001-2.66 0.033-3.95 0.094-1.28 0.063-3.19 0.189-3.93 0.189h-0.1v0.79h0.79c1.79 0.026 2.22 0.479 2.25 2.402l-0.01 13.162c-0.02 2.073-0.57 2.467-2.4 2.494h-0.63v0.791h9.05v-0.791h-0.82c-1.74-0.025-2.38-0.402-2.4-2.242l0.01-5.182c0.46 0.029 0.87 0.059 1.52 0.057 0.85 0 1.68-0.07 2.35-0.188l0.01-0.048v0.045c0.29-0.052 1.42 1.57 2.59 3.048l1.84 2.268c2.48 2.83 3.24 3.377 7.49 3.365h0.12 0.09v-0.744l-0.08-0.014c-1.91-0.326-2.59-0.708-3.99-2.367 0 0.001-3.99-5.074-4.62-5.885-0.2-0.238-0.35-0.4-0.46-0.498 2.32-0.871 3.76-2.644 3.76-5.082-0.01-3.256-2.68-5.658-8.48-5.664zm-118.35 0.198v0.792l0.097 0.002c2.137 0.062 2.574 0.273 2.604 2.258v9.166c0.01 4.539 3.138 8.002 9.174 8.012 6.859-0.01 9.382-4.233 9.39-8.168v-8.477c0.022-1.984 0.687-2.741 2.76-2.791h0.098v-0.794h-7.575v0.789l0.092 0.005c2.593 0.156 2.951 0.56 2.985 3.575v7.318c-0.009 5.28-3.532 6.699-7.061 6.711-4.639-0.01-7.048-2.485-7.059-6.682v-8.726c0.022-1.787 0.668-2.171 2.381-2.196h0.379v-0.794h-8.265zm55.673 0v0.697 0.092l0.094 0.003c1.748 0.119 2.237 0.496 2.262 2.165l-0.002 13.375c-0.03 2.097-0.332 2.478-2.26 2.601l-0.094 0.006v0.789h7.825v-0.795h-0.098c-2.148-0.028-2.54-0.548-2.566-2.381v-13.312c0.026-2.081 0.598-2.417 2.566-2.446h0.098v-0.794h-7.825zm10.729 0v0.794h0.1c1.896 0.019 2.18 0.41 2.986 2.389l6.836 17.047h1.705l6.494-16.797c0.76-1.934 1.55-2.631 3.14-2.639h0.1v-0.794h-7.48v0.697 0.099h0.1c2.14 0.01 2.82 0.365 2.82 1.221 0 0.411-0.19 1.033-0.53 1.908l-4.871 12.735-5.558-13.832c-0.127-0.307-0.19-0.57-0.19-0.791-0.014-0.774 0.81-1.189 3.084-1.243l0.096-0.002v-0.792h-8.832zm23.471 0v0.794h0.79c2.08 0.027 2.39 0.666 2.41 2.415v13.248c-0.02 1.868-0.35 2.446-2.85 2.476h-0.98v0.795h16.86l0.53-4.875h-0.75l-0.02 0.072c-0.8 2.696-1.39 3.461-3.55 3.475h-4.83c-1.15-0.027-1.58-0.212-1.6-1.629v-6.59h5.21c1.27 0.025 1.75 0.176 2.03 2.395l0.01 0.086h0.79v-6.161h-0.79l-0.01 0.09c-0.17 1.815-0.63 2.249-1.72 2.264h-5.52v-7.527h6.52c1.08 0.01 1.81 0.486 2.23 3.15l0.01 0.084h0.76l-0.27-4.562h-15.26zm62.45 0v0.697 0.092l0.09 0.005c1.75 0.119 2.24 0.496 2.26 2.163v13.375c-0.02 2.097-0.33 2.48-2.26 2.603l-0.09 0.004v0.791h7.83v-0.795h-0.1c-2.15-0.028-2.55-0.548-2.57-2.381v-13.314c0.02-2.081 0.6-2.417 2.57-2.446h0.1v-0.794h-7.83zm32.74 0v0.791l0.1 0.003c2.02 0.074 2.67 0.464 4.22 2.877l5.57 8.704v4.396c-0.02 1.515-0.49 2.141-2.41 2.164h-0.7v0.795h8.83v-0.795h-0.5c-1.9-0.023-2.39-0.586-2.42-2.226v-4.709l5.2-8.774c0.88-1.462 1.74-2.27 3.85-2.432l0.09-0.003v-0.79h-7.29v0.793h0.1c1.37 0.005 1.97 0.249 1.98 0.85 0 0.298-0.15 0.718-0.47 1.262l-4.34 7.398-4.94-7.621c-0.34-0.513-0.52-0.915-0.52-1.183 0-0.449 0.52-0.706 2.1-0.706h0.1v-0.794h-8.55zm-157.85 0.001v0.79l0.095 0.003c1.064 0.031 1.846 0.271 2.543 0.741v15.396c-0.019 1.409-0.547 1.983-2.478 2.004h-0.223v0.795h7.481v-0.795h-0.1c-2.666-0.035-3.041-0.389-3.072-2.633v-13.224l16.123 16.871h0.959v-17.617c0.019-1.173 0.396-1.51 2.76-1.536h0.097v-0.795h-7.543v0.696 0.094l0.096 0.003c2.52 0.095 2.952 0.344 2.98 2.225v12.25l-14.648-15.268h-5.07zm90.454 0.594c4.79 0.017 6.01 2.186 6.03 5.059-0.01 3.701-2.21 5.106-5.65 5.119-0.3 0.001-0.55 0.008-0.79 0.008-0.34-0.001-0.65-0.011-1.05-0.057v-10.078c0.51-0.052 0.9-0.051 1.46-0.051z" transform="matrix(.8 0 0 -.8 205.9 441.21)" fill="#fff"/></g></g></svg>