<svg xmlns="http://www.w3.org/2000/svg" height="113.13" width="250">
  <path d="M1.17 111.947h248V.817h-248v111.13z" fill="#c00"/>
  <path d="M5.198 4.896v102.98h239.9V4.896l-239.9-.002zM6.89 6.587H243.4v99.58H6.89l.004-99.58zm66.353 15.605c-10.161.018-17.471 6.746-17.49 16.254.002 8.95 7.9 14.954 17.253 14.971C82.27 53.4 90 46.63 90.017 36.974c-.002-8.617-7.752-14.766-16.774-14.782zm31.883 0c-4.89.008-8.556 2.98-8.559 6.991.05 8.423 15.319 10.531 15.249 17.246 0 3.682-3.3 5.503-6.45 5.507-3.67 0-6.952-2.434-7.94-6.623l-.019-.076h-1.091l1.023 7.418h.948l.028-.043c.178-.263.48-.48.869-.48.61-.006 3.971 1.283 6.601 1.285 5.6-.009 9.79-3.5 9.79-8.223-.04-8.85-15.32-10.68-15.25-17.295 0-2.6 2.12-4.362 5.23-4.369 3.23 0 6.24 2.158 7.55 5.545l.03.061h.98l-.83-6.229h-.9l-.02.037c-.29.371-.42.432-.78.44-1.6.007-2.45-1.19-6.46-1.192zm65.5 0c-10.16.018-17.47 6.746-17.49 16.254.01 8.95 7.9 14.954 17.26 14.971 9.26-.018 16.99-6.788 17.01-16.443 0-8.617-7.75-14.766-16.78-14.782zm-49.39.002-.78 7.891h1.05l.01-.08c.72-4.187 1.53-5.186 3.37-5.194h8.17v23.375c-.03 2.542-.78 3.346-3.66 3.372h-1.85v1.097h15.16v-1.097h-1.85c-2.89-.026-3.64-.83-3.66-3.372V24.811l8.17.002c1.84.005 2.64 1.005 3.37 5.192l.01.08h1.05l-.78-7.89h-1.07l-.02.08c-.06.476-.71.635-1.37.632l-22.86-.002c-.32.001-.64-.044-.91-.137-.27-.088-.42-.246-.46-.494l-.02-.08h-1.07zm-85.944.283c-.905 0-4.514.05-7.13.145-1.38.047-4.659.237-5.987.285l-.094.002v1.098h1.762c3.285.027 3.532 1.32 3.56 4.033v19.72c-.03 2.973-.67 3.766-4.558 3.798h-1.192v1.097h17.488c7.702-.007 10.35-5.329 10.362-9.125 0-3.703-2.586-6.61-6.963-7.969v-.002c3.118-.645 5.297-3.149 5.3-5.855.003-2.309-.975-3.967-2.94-5.355-1.75-1.26-5.417-1.868-9.608-1.872zm156.9.428v1.098l.09.004c1.63.047 2.83.413 3.9 1.142v23.327c-.02 2.147-.87 3.061-3.8 3.083h-.29v1.096h11.22v-1.097h-.1c-4.03-.035-4.66-.633-4.7-4.036V27.384l24.47 25.605h1.38V26.38c.02-1.803.65-2.347 4.23-2.372h.09v-1.1h-11.31v1.096l.09.004c3.82.127 4.54.55 4.57 3.418V46.09l-22.25-23.184h-7.59zm-156.57.674c5.809.011 7.729 2.985 7.74 6.268-.01 3.656-2.202 5.398-6.741 5.412h-5.082V23.72c1.194-.049 3.07-.14 4.084-.14zm36.382 0c7.782.004 13.343 6.165 13.348 14.961-.006 6.718-3.68 13.48-11.352 13.492-7.592 0-13.583-6.217-13.586-15.058.004-5.673 3.303-13.382 11.59-13.395zm97.388 0c7.78.004 13.34 6.165 13.34 14.961 0 6.718-3.67 13.48-11.35 13.492-7.59 0-13.58-6.217-13.58-15.058 0-5.673 3.3-13.382 11.59-13.395zM31.542 36.36h5.033c5.51.003 8.259 3.707 8.264 7.316-.014 3.675-1.757 7.49-7.98 7.5-3.973-.023-5.294-1.214-5.317-4.793V36.358zm130.15 32.646c-3.24.005-5.69 1.981-5.69 4.654.05 5.604 10.14 7.004 10.08 11.397-.01 2.406-2.16 3.6-4.24 3.603-2.4 0-4.56-1.597-5.21-4.35l-.02-.074h-.78l.68 4.97h.68l.03-.044c.11-.165.3-.305.54-.305.39-.008 2.62.848 4.36.85 3.72-.006 6.51-2.324 6.51-5.467-.05-5.883-10.15-7.103-10.08-11.428 0-1.696 1.38-2.85 3.42-2.855 2.12 0 4.1 1.415 4.96 3.643l.02.062h.72l-.56-4.185h-.64l-.03.04c-.19.241-.25.267-.49.276-1.03.01-1.61-.786-4.26-.787zm24.74.002-.53 5.281h.76l.02-.08c.48-2.769 1-3.398 2.19-3.402h5.36v15.41c-.02 1.671-.48 2.168-2.38 2.193l-1.26.002v.793h10.09v-.793h-1.26c-1.9-.027-2.36-.524-2.38-2.195V70.802l5.36.004c1.19.005 1.71.633 2.2 3.402l.01.08h.76l-.52-5.28h-.78l-.01.081c-.03.285-.43.388-.87.387h-15.11c-.21 0-.42-.029-.59-.088-.17-.057-.26-.15-.28-.299l-.02-.082h-.76zm-46.28.271c-2.03 0-2.66.033-3.95.094-1.28.063-3.19.19-3.93.19h-.1v.79h.79c1.79.025 2.22.478 2.25 2.401l-.01 13.162c-.02 2.073-.57 2.467-2.4 2.494h-.63v.791h9.05v-.79h-.82c-1.74-.026-2.38-.403-2.4-2.243l.01-5.182c.46.03.87.06 1.52.057.85 0 1.68-.07 2.35-.188l.01-.048v.045c.29-.052 1.42 1.57 2.59 3.048l1.84 2.268c2.48 2.83 3.24 3.377 7.49 3.365h.21v-.744l-.08-.014c-1.91-.326-2.59-.708-3.99-2.367 0 .001-3.99-5.074-4.62-5.885-.2-.238-.35-.4-.46-.498 2.32-.87 3.76-2.644 3.76-5.082-.01-3.256-2.68-5.658-8.48-5.664zm-118.35.198v.792l.097.002c2.137.062 2.574.273 2.604 2.258v9.166c.01 4.54 3.138 8.002 9.174 8.012 6.859-.01 9.382-4.233 9.39-8.168v-8.477c.022-1.984.687-2.74 2.76-2.79h.098v-.795H38.35v.79l.092.004c2.593.156 2.95.56 2.985 3.575v7.318c-.01 5.28-3.532 6.7-7.061 6.711-4.64-.01-7.048-2.485-7.06-6.682v-8.726c.023-1.787.669-2.17 2.382-2.196h.379v-.794h-8.265zm55.673 0v.788l.094.003c1.748.12 2.237.496 2.262 2.165l-.002 13.375c-.03 2.097-.332 2.478-2.26 2.601l-.094.006v.79H85.3v-.796h-.098c-2.148-.028-2.54-.548-2.566-2.38V72.715c.026-2.08.598-2.417 2.566-2.446h.098v-.794h-7.825zm10.729 0v.794h.1c1.896.02 2.18.41 2.986 2.39l6.836 17.046h1.705l6.494-16.797c.76-1.934 1.55-2.63 3.14-2.639h.1v-.794h-7.48v.796h.1c2.14.01 2.82.364 2.82 1.22 0 .411-.19 1.033-.53 1.908l-4.871 12.735-5.558-13.832c-.128-.307-.19-.57-.19-.79-.014-.775.81-1.19 3.084-1.244l.096-.002v-.792h-8.832zm23.47 0v.794h.79c2.08.027 2.39.666 2.41 2.415v13.248c-.02 1.868-.35 2.446-2.85 2.476h-.98v.795h16.86l.53-4.875h-.75l-.02.072c-.8 2.696-1.39 3.461-3.55 3.475h-4.83c-1.15-.027-1.58-.212-1.6-1.629v-6.59h5.21c1.27.025 1.75.176 2.03 2.395l.01.086h.79v-6.16h-.79l-.01.09c-.17 1.814-.63 2.248-1.72 2.263h-5.52v-7.527h6.52c1.08.01 1.81.486 2.23 3.15l.01.084h.76l-.27-4.562h-15.26zm62.45 0v.788l.09.005c1.75.12 2.24.496 2.26 2.163v13.375c-.02 2.097-.33 2.48-2.26 2.603l-.09.004v.791h7.83v-.795h-.1c-2.15-.028-2.55-.548-2.57-2.38V72.715c.02-2.08.6-2.417 2.57-2.446h.1v-.794h-7.83zm32.74 0v.791l.1.003c2.02.074 2.67.464 4.22 2.877l5.57 8.704v4.396c-.02 1.515-.49 2.141-2.41 2.164h-.7v.795h8.83v-.795h-.5c-1.9-.023-2.39-.586-2.42-2.226v-4.709l5.2-8.774c.88-1.462 1.74-2.27 3.85-2.432l.09-.003v-.79h-7.29v.793h.1c1.37.005 1.97.25 1.98.85 0 .298-.15.718-.47 1.262l-4.34 7.398-4.94-7.62c-.34-.514-.52-.916-.52-1.184 0-.449.52-.706 2.1-.706h.1v-.794h-8.55zm-157.85.001v.79l.096.003c1.064.031 1.846.271 2.543.741v15.396c-.02 1.41-.547 1.983-2.478 2.004h-.223v.795h7.48v-.795h-.1c-2.665-.035-3.04-.389-3.071-2.633V72.554l16.123 16.871h.959V71.808c.019-1.173.396-1.51 2.76-1.536h.097v-.795h-7.543v.79l.096.003c2.52.095 2.952.344 2.98 2.225v12.25L54.085 69.477h-5.07zm90.455.594c4.79.017 6.01 2.186 6.03 5.06-.01 3.7-2.21 5.105-5.65 5.118-.3.001-.55.008-.79.008a8.833 8.833 0 0 1-1.05-.057V70.122c.51-.052.9-.05 1.46-.05z" fill="#fff"/>
</svg>
