<svg id="Layer_1" data-name="Layer 1" xmlns="http://www.w3.org/2000/svg" viewBox="0 0 268.32 76.21">
  <defs>
    <style>
      .cls-1{fill:#fff}
    </style>
  </defs>
  <path class="cls-1" d="M228.46 43.67a1.81 1.81 0 0 1-1.87-1.7v-.54a1.87 1.87 0 0 1 3.72 0 4.86 4.86 0 0 1 0 .54 1.8 1.8 0 0 1-1.85 1.7Zm1.47-2.27a1.48 1.48 0 0 0-3 0 3 3 0 0 0 0 .6 1.48 1.48 0 0 0 3 0 3 3 0 0 0 0-.6Zm-1.45.61a.13.13 0 0 0-.14-.07h-.29v.59a.19.19 0 0 1-.38 0v-1.62a.23.23 0 0 1 .26-.24h.65a.66.66 0 0 1 .74.63.56.56 0 0 1-.46.57l.48.55a.18.18 0 0 1 0 .12c0 .1-.08.17-.21.17a.19.19 0 0 1-.13-.07Zm.05-.39c.29 0 .39-.13.39-.31s-.11-.32-.37-.32h-.5v.63ZM77 72.75v3.1a1.23 1.23 0 0 1-1.18 1.23 1.24 1.24 0 0 1-1.19-1.23V66.3a1.47 1.47 0 0 1 1.58-1.54h3.55a4 4 0 0 1 4.22 4 3.46 3.46 0 0 1-2.25 3.58l2.24 2.69a1.23 1.23 0 0 1-.06 1.66 1.2 1.2 0 0 1-1.71 0l-2.79-3.39a1.08 1.08 0 0 0-1-.55Zm2.51-2.19c1.55 0 2.08-.67 2.08-1.73s-.64-1.75-2-1.75H77v3.48Zm14.78-5.8a1.12 1.12 0 0 1 1.14 1.13A1.17 1.17 0 0 1 94.29 67h-5.06v2.74h4.85a1.06 1.06 0 0 1 1.08 1.07 1.12 1.12 0 0 1-1.08 1.09h-4.85v2.79h5.09a1.18 1.18 0 0 1 1.15 1.13A1.13 1.13 0 0 1 94.32 77h-5.75a1.63 1.63 0 0 1-1.71-1.72v-8.82a1.62 1.62 0 0 1 1.71-1.7Zm7.86 7.24c-2.86-.61-4.15-1.66-4.15-3.76s1.89-3.65 4.42-3.65a6.23 6.23 0 0 1 3.78 1 1.13 1.13 0 0 1 .41.89 1.15 1.15 0 0 1-1.12 1.18 2 2 0 0 1-.87-.25 5 5 0 0 0-2.15-.48c-1.5 0-2.09.6-2.09 1.33s.69 1.11 2.46 1.44c3.06.57 4.41 1.54 4.41 3.76s-1.69 3.76-4.64 3.76A6.83 6.83 0 0 1 98.34 76a1.46 1.46 0 0 1-.64-1.08 1.19 1.19 0 0 1 1.2-1.21 1.36 1.36 0 0 1 .88.33 4.89 4.89 0 0 0 2.91.87c1.33 0 2.16-.51 2.16-1.36s-.97-1.22-2.7-1.55Zm15.09-7.24a1.12 1.12 0 0 1 1.14 1.13 1.18 1.18 0 0 1-1.14 1.11h-5.06v2.74H117a1.05 1.05 0 0 1 1.07 1.07 1.12 1.12 0 0 1-1.07 1.12h-4.85v2.79h5.09a1.17 1.17 0 0 1 1.14 1.13 1.13 1.13 0 0 1-1.11 1.15h-5.75a1.63 1.63 0 0 1-1.72-1.72v-8.82a1.63 1.63 0 0 1 1.72-1.7Zm11.01 8.73h-4.83l-1 2.79a1.19 1.19 0 0 1-1.54.67 1.23 1.23 0 0 1-.66-1.54l3.29-9.14a2.41 2.41 0 0 1 4.59 0l3.26 9.14a1.23 1.23 0 0 1-.66 1.53 1.18 1.18 0 0 1-1.54-.66Zm-4.12-2.11h3.39l-1.4-4.14a.31.31 0 0 0-.28-.23.3.3 0 0 0-.29.23Zm11.94 1.37v3.1a1.22 1.22 0 0 1-1.17 1.23 1.25 1.25 0 0 1-1.2-1.23V66.3a1.47 1.47 0 0 1 1.58-1.54h3.55a4 4 0 0 1 4.23 4 3.46 3.46 0 0 1-2.26 3.58l2.2 2.73a1.23 1.23 0 0 1 0 1.66 1.22 1.22 0 0 1-1.72 0l-2.75-3.43a1.1 1.1 0 0 0-1-.55Zm2.52-2.19c1.54 0 2.07-.67 2.07-1.73s-.64-1.75-2-1.75h-2.6v3.48Zm14.63 2.83a1.1 1.1 0 0 1 1-.7 1.18 1.18 0 0 1 1.16 1.11 1.62 1.62 0 0 1-.12.64 4.85 4.85 0 0 1-4.54 2.76 5.14 5.14 0 0 1-5.2-4.92 18.16 18.16 0 0 1 0-2.76 5.14 5.14 0 0 1 5.2-4.93 4.84 4.84 0 0 1 4.54 2.75 1.65 1.65 0 0 1 .12.64 1.15 1.15 0 0 1-2.2.42 2.72 2.72 0 0 0-2.46-1.53 2.86 2.86 0 0 0-2.84 2.95 16.3 16.3 0 0 0 0 2.21 2.79 2.79 0 0 0 2.84 2.88 2.72 2.72 0 0 0 2.5-1.52Zm4.83-7.49a1.2 1.2 0 0 1 1.19-1.21 1.18 1.18 0 0 1 1.18 1.21v3.83h5.49V65.9a1.2 1.2 0 0 1 1.18-1.21 1.19 1.19 0 0 1 1.2 1.21v9.93a1.2 1.2 0 0 1-1.2 1.23 1.23 1.23 0 0 1-1.18-1.23v-3.78h-5.49v3.8a1.16 1.16 0 0 1-1.18 1.21 1.22 1.22 0 0 1-1.19-1.21Zm18.95 0a1.21 1.21 0 0 1 1.19-1.21 1.18 1.18 0 0 1 1.18 1.21v9.93a1.19 1.19 0 0 1-1.18 1.23 1.22 1.22 0 0 1-1.19-1.23Zm13.87 7.83c0-1.14-.05-1.71-.05-2.73v-5.1a1.19 1.19 0 0 1 1.18-1.21 1.17 1.17 0 0 1 1.17 1.21v9.34a1.72 1.72 0 0 1-1.71 1.82 1.93 1.93 0 0 1-1.7-1.06L185 67.84v8.02a1.17 1.17 0 0 1-1.16 1.23 1.23 1.23 0 0 1-1.19-1.23V66.7a1.83 1.83 0 0 1 1.88-2 1.87 1.87 0 0 1 1.7 1Zm9.47-1.73c-2.86-.59-4.16-1.64-4.16-3.74s1.89-3.65 4.42-3.65a6.2 6.2 0 0 1 3.77 1 1.13 1.13 0 0 1 .42.89 1.15 1.15 0 0 1-1.13 1.18 1.94 1.94 0 0 1-.86-.25 5 5 0 0 0-2.15-.48c-1.51 0-2.1.6-2.1 1.33s.7 1.11 2.46 1.44c3.07.57 4.42 1.54 4.42 3.76s-1.7 3.76-4.64 3.76a6.81 6.81 0 0 1-4.26-1.24 1.46 1.46 0 0 1-.64-1.08 1.18 1.18 0 0 1 1.19-1.21 1.38 1.38 0 0 1 .92.29 4.89 4.89 0 0 0 2.91.87c1.33 0 2.16-.51 2.16-1.36s-1-1.18-2.73-1.51Zm10.11-4.92h-2.77a1.18 1.18 0 0 1-1.21-1.16 1.16 1.16 0 0 1 1.21-1.16h7.92a1.17 1.17 0 0 1 1.21 1.16 1.2 1.2 0 0 1-1.21 1.16h-2.78v8.77a1.17 1.17 0 0 1-1.16 1.21 1.23 1.23 0 0 1-1.21-1.21Zm8.43-1.18a1.22 1.22 0 0 1 1.2-1.21 1.18 1.18 0 0 1 1.18 1.21v9.93a1.2 1.2 0 0 1-1.18 1.23 1.22 1.22 0 0 1-1.2-1.23Zm8.44 1.18h-2.77a1.19 1.19 0 0 1-1.22-1.16 1.17 1.17 0 0 1 1.22-1.16h7.91a1.16 1.16 0 0 1 1.21 1.16 1.2 1.2 0 0 1-1.21 1.16h-2.77v8.77a1.17 1.17 0 0 1-1.16 1.21 1.23 1.23 0 0 1-1.21-1.21Zm18.77 4.7a5.23 5.23 0 1 1-10.46 0V65.9a1.21 1.21 0 0 1 1.19-1.21A1.16 1.16 0 0 1 238 65.9v6a2.87 2.87 0 1 0 5.72 0v-6a1.19 1.19 0 1 1 2.37 0Zm5.91-4.7h-2.77a1.18 1.18 0 0 1-1.23-1.16 1.16 1.16 0 0 1 1.21-1.16h7.92a1.17 1.17 0 0 1 1.21 1.16 1.2 1.2 0 0 1-1.21 1.16h-2.78v8.77a1.17 1.17 0 0 1-1.16 1.21 1.23 1.23 0 0 1-1.19-1.21Zm15.87-2.32a1.12 1.12 0 0 1 1.13 1.13 1.18 1.18 0 0 1-1.13 1.11h-5.05v2.74h4.85a1.05 1.05 0 0 1 1.07 1.07 1.12 1.12 0 0 1-1.07 1.09h-4.85v2.79h5.09a1.17 1.17 0 0 1 1.14 1.13 1.13 1.13 0 0 1-1.14 1.18h-5.75a1.63 1.63 0 0 1-1.72-1.72v-8.82a1.63 1.63 0 0 1 1.72-1.7ZM29.48 50.25h7.19v-13.9a45.09 45.09 0 0 1-7.19 5.31Z" transform="translate(-.73 -.98)"/>
  <path class="cls-1" d="M53.58 14v12.5a20.24 20.24 0 0 0-8.66-1.94 21.05 21.05 0 0 0-8.25 1.75V14h-7.19v17.57l-.63.51a13.2 13.2 0 1 1-7.72-23.91 13 13 0 0 1 7.06 2.08v-8a20.4 20.4 0 1 0 .66 38c.2-.08.41-.18.63-.29a45.09 45.09 0 0 0 7.19-5.31l.09-.08a13.17 13.17 0 0 1 16.82.43v15.25h7.19V14Z" transform="translate(-.73 -.98)"/>
  <path class="cls-1" d="M14.17 22.85a3.32 3.32 0 0 0 0-.89c0-.64-.11-1.27-.17-1.91a6.79 6.79 0 0 1 .64-4.5 4.75 4.75 0 0 1 .69-.85h.05a6.21 6.21 0 0 1 4.11-1.7 6.69 6.69 0 0 1 2.14.27 12 12 0 0 1 2 .76 5.22 5.22 0 0 1 .8.52 2.67 2.67 0 0 1 .64.66 2.31 2.31 0 0 1 .31 2.21.93.93 0 0 1-.1.2l-.09.17a3.58 3.58 0 0 0 0-.4c0 .13-.16.37-.29.42a1.73 1.73 0 0 1-.1.37 2.74 2.74 0 0 0-.3.7V19c.29 0 .32-.18.32-.08s-.24.2-.33.24a2.36 2.36 0 0 0 .51 1.1 4.27 4.27 0 0 1 .48.48c.22.32-.36.63-.46.77.09.21.15.24.19.36s-.38.26-.29.4.14.34 0 .44c-.38.27-.32.35-.21.92s-.22.81-.65.9-1.5-.26-1.85 0c-.79.61-1.42 1.89.64 4.85.16.23.74.92.36.92-1.55 0-4.09-3.33-7.72-1.16-.47.28 1.6-2.65 1.91-4.19a2 2 0 0 1-1-.48.7.7 0 0 0 .32.44s-.13 0-.16 0h-.17a2 2 0 0 1-1.24-.34 1.18 1.18 0 0 1-.41-.57 2.53 2.53 0 0 1-.08-.57.7.7 0 0 1-.28.36.88.88 0 0 1-.64.13 2.46 2.46 0 0 0 .43-1.07Zm69.14 2.43a1.37 1.37 0 0 1 1.29-.85A1.45 1.45 0 0 1 86 25.8a1.91 1.91 0 0 1-.15.79A6 6 0 0 1 80.27 30a6.36 6.36 0 0 1-6.44-6.1 21.56 21.56 0 0 1 0-3.41 6.37 6.37 0 0 1 6.44-6.12 6 6 0 0 1 5.62 3.41 2 2 0 0 1 .15.8 1.42 1.42 0 0 1-2.73.51 3.36 3.36 0 0 0-3-1.89c-2.09 0-3.37 1.55-3.52 3.65a18 18 0 0 0 0 2.75c.15 2.12 1.43 3.56 3.52 3.56a3.36 3.36 0 0 0 3-1.88Zm8.4-6.28a4.41 4.41 0 0 1 2.7-.83c2.73 0 4.34 1.63 4.34 4.7v5.51a1.44 1.44 0 1 1-2.88 0V23a1.82 1.82 0 0 0-1.93-2 3.15 3.15 0 0 0-2.23.9v6.54a1.44 1.44 0 0 1-1.42 1.49 1.49 1.49 0 0 1-1.46-1.49V15.82a1.43 1.43 0 0 1 1.44-1.48 1.45 1.45 0 0 1 1.44 1.48Zm11.52-2a1.54 1.54 0 0 1-1.52-1.57 1.48 1.48 0 0 1 1.52-1.52 1.52 1.52 0 0 1 1.53 1.52 1.57 1.57 0 0 1-1.53 1.57Zm1.44 2.66v8.71a1.45 1.45 0 0 1-1.44 1.49 1.48 1.48 0 0 1-1.43-1.49v-8.71a1.42 1.42 0 0 1 1.43-1.48 1.44 1.44 0 0 1 1.44 1.48Zm6.08-3.8v12.51a1.44 1.44 0 0 1-1.44 1.49 1.48 1.48 0 0 1-1.44-1.49V15.86a1.45 1.45 0 0 1 1.44-1.5 1.47 1.47 0 0 1 1.44 1.5Zm7.49 2.26a7 7 0 0 1 2.53.53v-2.83a1.45 1.45 0 0 1 1.44-1.48 1.43 1.43 0 0 1 1.44 1.48v11.76a1.05 1.05 0 0 1-.52 1 8.29 8.29 0 0 1-4.5 1.33 4.75 4.75 0 0 1-5.09-4.46 21 21 0 0 1 0-3 4.39 4.39 0 0 1 4.7-4.33Zm.45 9.05a3.91 3.91 0 0 0 2.08-.66v-5.07a4.84 4.84 0 0 0-2.25-.58 1.94 1.94 0 0 0-2.11 2.08 18.2 18.2 0 0 0 0 2.09 2.06 2.06 0 0 0 2.28 2.14Zm14.9-7.4a1.35 1.35 0 0 1-1.35 1.35c-.5 0-1-.21-1.61-.19s-1.12.4-1.12 1.39v6.08a1.43 1.43 0 0 1-1.44 1.46 1.45 1.45 0 0 1-1.44-1.46v-6.61c0-2.24 1.31-3.67 3.78-3.67a8.44 8.44 0 0 1 1.85.17 1.53 1.53 0 0 1 1.33 1.48Zm11.27 3.8a1.32 1.32 0 0 1-1.48 1.43h-5.71v.21c0 1.35 1 2.08 2.46 2.08a6.51 6.51 0 0 0 2.3-.47 1.29 1.29 0 0 1 1.89 1.18 1.33 1.33 0 0 1-.73 1.2 7.56 7.56 0 0 1-3.54.75 4.84 4.84 0 0 1-5.17-4.55 19.92 19.92 0 0 1 0-2.68 4.8 4.8 0 0 1 5.06-4.57 4.67 4.67 0 0 1 4.92 5Zm-3-.52c.15 0 .24-.08.24-.26a2 2 0 0 0-2.15-2.18 2.14 2.14 0 0 0-2.27 2.44Zm15.45 5.32a1.44 1.44 0 0 1-1.44 1.49 1.48 1.48 0 0 1-1.44-1.49v-5.43a1.9 1.9 0 0 0-2.08-2 4.3 4.3 0 0 0-2.1.51v6.93a1.44 1.44 0 0 1-1.44 1.49 1.48 1.48 0 0 1-1.44-1.49v-8a1.09 1.09 0 0 1 .51-1.05 8.18 8.18 0 0 1 4.55-1.18c3.22 0 4.88 1.69 4.88 4.7Zm4.83-11.44a5.06 5.06 0 0 1-.62 2.58 1.57 1.57 0 0 1-1.36.86 1.18 1.18 0 0 1-1.2-1.14c0-.64.58-1 .58-2.17v-1.24a1.26 1.26 0 0 1 1.29-1.27 1.28 1.28 0 0 1 1.31 1.27Zm9.86 9.26c0 2.4-2 3.73-4.48 3.73a6.2 6.2 0 0 1-4.1-1.24 1.34 1.34 0 0 1-.26-1.79 1.32 1.32 0 0 1 1.87-.25 4.67 4.67 0 0 0 2.55.7c1.12 0 1.63-.4 1.63-1s-.34-.8-1.24-1-.76-.15-1.59-.37c-1.76-.45-3.14-1.43-3.14-3.28 0-2.32 1.87-3.58 4.38-3.58a5.88 5.88 0 0 1 3.5 1 1.34 1.34 0 0 1 .13 1.91 1.52 1.52 0 0 1-1.87.17 4.61 4.61 0 0 0-1.86-.47c-1.08 0-1.53.41-1.53.92s.32.76 1.29 1l1.52.34c2.2.46 3.2 1.51 3.2 3.21ZM179.83 16a1.48 1.48 0 0 1 1.48-1.5 1.46 1.46 0 0 1 1.46 1.5v4.75h6.8V16a1.48 1.48 0 0 1 1.46-1.5 1.46 1.46 0 0 1 1.48 1.5v12.3a1.47 1.47 0 0 1-1.51 1.53 1.51 1.51 0 0 1-1.46-1.52v-4.68h-6.8v4.7a1.45 1.45 0 0 1-1.46 1.5 1.49 1.49 0 0 1-1.48-1.5Zm20.75 13.92a4.86 4.86 0 0 1-5.15-4.36 26.2 26.2 0 0 1 0-3.07 5.21 5.21 0 0 1 10.28 0 22.18 22.18 0 0 1 0 3.05 4.82 4.82 0 0 1-5.13 4.38Zm2.28-7a2.12 2.12 0 0 0-2.28-2.08 2.16 2.16 0 0 0-2.29 2.08 15.43 15.43 0 0 0 0 2.15 2.3 2.3 0 0 0 4.57 0 19.27 19.27 0 0 0 0-2.13Zm14.04 3.27c0 2.4-2 3.73-4.49 3.73a6.22 6.22 0 0 1-4.1-1.24 1.36 1.36 0 0 1-.26-1.79 1.32 1.32 0 0 1 1.87-.25 4.73 4.73 0 0 0 2.56.7c1.11 0 1.63-.4 1.63-1s-.35-.8-1.25-1-.75-.15-1.59-.37c-1.76-.45-3.13-1.43-3.13-3.28 0-2.32 1.87-3.58 4.38-3.58a5.9 5.9 0 0 1 3.5 1 1.34 1.34 0 0 1 .13 1.91 1.52 1.52 0 0 1-1.87.17 4.61 4.61 0 0 0-1.87-.47c-1.07 0-1.52.41-1.52.92s.32.76 1.29 1l1.52.34c2.15.46 3.2 1.51 3.2 3.21Zm7.62 3.73a5.4 5.4 0 0 1-2.45-.54v3.2a1.44 1.44 0 1 1-2.87 0V20.24a.77.77 0 0 1 .36-.73 8.54 8.54 0 0 1 4.7-1.39 4.69 4.69 0 0 1 5 4.46 20.61 20.61 0 0 1 0 2.94 4.45 4.45 0 0 1-4.74 4.4Zm-.32-9a4.29 4.29 0 0 0-2.13.65v5.06a4.43 4.43 0 0 0 2.17.58 2 2 0 0 0 2.19-2.06 18 18 0 0 0 0-2.08 2.06 2.06 0 0 0-2.23-2.19Zm9.42-3.92a1.54 1.54 0 0 1-1.52-1.57 1.48 1.48 0 0 1 1.52-1.52 1.51 1.51 0 0 1 1.52 1.52 1.56 1.56 0 0 1-1.52 1.57Zm1.44 2.66v8.71a1.45 1.45 0 0 1-1.44 1.49 1.48 1.48 0 0 1-1.44-1.49v-8.71a1.42 1.42 0 0 1 1.44-1.48 1.45 1.45 0 0 1 1.44 1.48ZM242 29.92c-2.66 0-3.86-1.82-3.86-4.23v-8.48a1.45 1.45 0 0 1 1.44-1.5 1.47 1.47 0 0 1 1.44 1.5v1.46h2.68a1.27 1.27 0 1 1 0 2.54H241v4.42c0 1 .45 1.59 1.39 1.59a4.92 4.92 0 0 0 1.33-.24 1.32 1.32 0 0 1 1.78 1.22 1.35 1.35 0 0 1-.9 1.27 6.85 6.85 0 0 1-2.6.45Zm14.46-2.19a1 1 0 0 1-.52 1 8.2 8.2 0 0 1-4.52 1.18c-3.12 0-4.53-1.74-4.53-3.78 0-1.82 1.26-3.5 4.42-3.5a9 9 0 0 1 2.38.33v-.58c0-1.12-.54-1.68-2-1.68a7.15 7.15 0 0 0-2.06.37c-1.22.38-2-.24-2-1.12a1.35 1.35 0 0 1 .94-1.31 9 9 0 0 1 3.16-.53c3 0 4.74 1.33 4.74 4.35Zm-2.77-.81V25a7.17 7.17 0 0 0-2.15-.34c-1.16 0-1.86.58-1.86 1.4s.75 1.43 1.93 1.43a3.72 3.72 0 0 0 2.08-.57Zm8.59-11.06v12.51a1.44 1.44 0 0 1-1.44 1.49 1.48 1.48 0 0 1-1.44-1.49V15.86a1.45 1.45 0 0 1 1.44-1.5 1.47 1.47 0 0 1 1.44 1.5ZM79 51.39A4.86 4.86 0 0 1 73.85 47a22.47 22.47 0 0 1 0-3.07 5.21 5.21 0 0 1 10.28 0 25.86 25.86 0 0 1 0 3A4.84 4.84 0 0 1 79 51.39Zm2.27-7A2.12 2.12 0 0 0 79 42.33a2.17 2.17 0 0 0-2.3 2.08 19.27 19.27 0 0 0 0 2.15 2.17 2.17 0 0 0 2.3 2.08 2.13 2.13 0 0 0 2.27-2.08 15.43 15.43 0 0 0 0-2.15Zm6.38-4.81c0-2.6 1.48-4 3.82-4a8.81 8.81 0 0 1 2.17.28 1.36 1.36 0 0 1 1.11 1.37 1.25 1.25 0 0 1-1.35 1.25c-.47 0-1-.2-1.65-.2s-1.22.48-1.22 1.4v.45H93a1.29 1.29 0 0 1 1.31 1.29A1.27 1.27 0 0 1 93 42.67h-2.47v7.13a1.44 1.44 0 0 1-1.44 1.52 1.47 1.47 0 0 1-1.44-1.52v-7.13h-.52a1.26 1.26 0 0 1-1.33-1.24 1.28 1.28 0 0 1 1.33-1.29h.52Zm17.95 6.7v3.5a1.52 1.52 0 0 1-1.46 1.52 1.54 1.54 0 0 1-1.49-1.52V38a1.83 1.83 0 0 1 2-1.91h4.27a5 5 0 0 1 5.26 5.11c0 3.24-2.3 5.11-5.45 5.11Zm3-2.83c1.8 0 2.58-.86 2.58-2.26s-.82-2.25-2.51-2.25h-3.07v4.51Zm10.69-3.03a4.43 4.43 0 0 1 2.7-.84c2.73 0 4.34 1.63 4.34 4.7v5.52a1.44 1.44 0 1 1-2.88 0v-5.37a1.82 1.82 0 0 0-1.93-2 3.16 3.16 0 0 0-2.23.91v6.54a1.43 1.43 0 0 1-1.42 1.48 1.48 1.48 0 0 1-1.46-1.48V37.29a1.44 1.44 0 1 1 2.88 0Zm11.53-1.95a1.54 1.54 0 0 1-1.53-1.57 1.5 1.5 0 0 1 1.53-1.53 1.52 1.52 0 0 1 1.52 1.53 1.56 1.56 0 0 1-1.52 1.57Zm1.44 2.66v8.71a1.45 1.45 0 0 1-1.44 1.48 1.48 1.48 0 0 1-1.44-1.48v-8.71a1.42 1.42 0 0 1 1.44-1.48 1.45 1.45 0 0 1 1.44 1.48Zm6.07-3.8v12.51a1.43 1.43 0 0 1-1.44 1.48 1.47 1.47 0 0 1-1.43-1.48V37.33a1.44 1.44 0 1 1 2.87 0Zm12.15 11.87a1 1 0 0 1-.52 1 8.28 8.28 0 0 1-4.52 1.18c-3.12 0-4.53-1.74-4.53-3.78 0-1.83 1.26-3.5 4.42-3.5a9.38 9.38 0 0 1 2.38.32v-.58c0-1.11-.54-1.67-2-1.67a7.17 7.17 0 0 0-2.06.36c-1.22.39-2-.23-2-1.11a1.34 1.34 0 0 1 .94-1.31 9 9 0 0 1 3.16-.54c3 0 4.74 1.33 4.74 4.36Zm-2.77-.82v-1.93a7.17 7.17 0 0 0-2.15-.34c-1.15 0-1.86.58-1.86 1.39s.75 1.44 1.93 1.44a3.67 3.67 0 0 0 2.08-.56Zm10.09-8.8a7 7 0 0 1 2.53.54v-2.83a1.46 1.46 0 0 1 1.44-1.49 1.44 1.44 0 0 1 1.44 1.49v11.76a1.05 1.05 0 0 1-.52 1 8.34 8.34 0 0 1-4.5 1.33 4.75 4.75 0 0 1-5.09-4.47 24.36 24.36 0 0 1 0-3 4.4 4.4 0 0 1 4.7-4.33Zm.45 9.06a3.91 3.91 0 0 0 2.08-.67v-5.06a4.72 4.72 0 0 0-2.25-.58 1.93 1.93 0 0 0-2.1 2.08 14.42 14.42 0 0 0 0 2.08 2.06 2.06 0 0 0 2.27 2.15ZM176 45a1.32 1.32 0 0 1-1.49 1.44h-5.71v.22c0 1.35 1 2.08 2.47 2.08a6.51 6.51 0 0 0 2.3-.47 1.29 1.29 0 0 1 1.89 1.13 1.34 1.34 0 0 1-.73 1.21 7.59 7.59 0 0 1-3.54.75 4.86 4.86 0 0 1-5.19-4.52 24.08 24.08 0 0 1 0-2.69 4.82 4.82 0 0 1 5.07-4.57 4.68 4.68 0 0 1 4.92 5Zm-3-.51a.23.23 0 0 0 .24-.26 2 2 0 0 0-2.15-2.19 2.16 2.16 0 0 0-2.28 2.45Zm8.48-7.16v12.51a1.43 1.43 0 0 1-1.48 1.48 1.48 1.48 0 0 1-1.44-1.48V37.33a1.45 1.45 0 0 1 1.44-1.5 1.47 1.47 0 0 1 1.48 1.5Zm8.37 14.06a5.54 5.54 0 0 1-2.45-.54v3.2a1.44 1.44 0 1 1-2.87 0V41.71a.76.76 0 0 1 .36-.73 8.47 8.47 0 0 1 4.7-1.4 4.72 4.72 0 0 1 5 4.47 24 24 0 0 1 0 2.94 4.46 4.46 0 0 1-4.74 4.4Zm-.32-9a4.4 4.4 0 0 0-2.13.64v5.07a4.46 4.46 0 0 0 2.17.58 2 2 0 0 0 2.19-2.06 18 18 0 0 0 0-2.08 2.05 2.05 0 0 0-2.23-2.19Zm10.75-1.97a4.44 4.44 0 0 1 2.71-.84c2.72 0 4.33 1.63 4.33 4.7v5.52a1.44 1.44 0 1 1-2.87 0v-5.37a1.83 1.83 0 0 0-1.94-2 3.16 3.16 0 0 0-2.23.91v6.54a1.42 1.42 0 0 1-1.41 1.48 1.47 1.47 0 0 1-1.46-1.48V37.29a1.44 1.44 0 1 1 2.87 0Zm11.53-1.95a1.54 1.54 0 0 1-1.52-1.57 1.49 1.49 0 0 1 1.52-1.53 1.52 1.52 0 0 1 1.52 1.53 1.56 1.56 0 0 1-1.52 1.57Zm1.44 2.66v8.71a1.44 1.44 0 0 1-1.44 1.48 1.48 1.48 0 0 1-1.44-1.48v-8.71a1.42 1.42 0 0 1 1.44-1.48 1.45 1.45 0 0 1 1.44 1.48Zm12.23 8.07a1 1 0 0 1-.51 1 8.33 8.33 0 0 1-4.53 1.18c-3.11 0-4.53-1.74-4.53-3.78 0-1.83 1.27-3.5 4.42-3.5a9.32 9.32 0 0 1 2.38.32v-.58c0-1.11-.53-1.67-2-1.67a7.18 7.18 0 0 0-2.07.36c-1.22.39-2-.23-2-1.11a1.34 1.34 0 0 1 .94-1.31 9 9 0 0 1 3.16-.54c3 0 4.74 1.33 4.74 4.36Zm-2.77-.82v-1.93a7.15 7.15 0 0 0-2.14-.34c-1.16 0-1.87.58-1.87 1.39s.75 1.44 1.93 1.44a3.67 3.67 0 0 0 2.08-.56Z" transform="translate(-.73 -.98)"/>
</svg>
