<?xml version="1.0" encoding="UTF-8" standalone="no"?>
<!-- Created with Inkscape (http://www.inkscape.org/) -->

<svg
   xmlns:dc="http://purl.org/dc/elements/1.1/"
   xmlns:cc="http://creativecommons.org/ns#"
   xmlns:rdf="http://www.w3.org/1999/02/22-rdf-syntax-ns#"
   xmlns:svg="http://www.w3.org/2000/svg"
   xmlns="http://www.w3.org/2000/svg"
   version="1.1"
   width="292.32251"
   height="292.32251"
   id="svg2"
   xml:space="preserve"><metadata
     id="metadata8"><rdf:RDF><cc:Work
         rdf:about=""><dc:format>image/svg+xml</dc:format><dc:type
           rdf:resource="http://purl.org/dc/dcmitype/StillImage" /><dc:title></dc:title></cc:Work></rdf:RDF></metadata><defs
     id="defs6"><clipPath
       id="clipPath16"><path
         d="m 0,233.858 233.858,0 L 233.858,0 0,0 0,233.858 z"
         id="path18" /></clipPath></defs><g
     transform="matrix(1.25,0,0,-1.25,0,292.3225)"
     id="g10"><g
       id="g12"><g
         clip-path="url(#clipPath16)"
         id="g14"><g
           transform="translate(206.6582,233.8579)"
           id="g20"><path
             d="m 0,0 -42.781,-103.27 0.369,-0.599 c 1.599,-2.587 2.989,-5.292 4.13,-8.042 l 2.588,-6.254 L 13.256,0 0,0 z"
             id="path22"
             style="fill:#be311a;fill-opacity:1;fill-rule:nonzero;stroke:none" /></g><g
           transform="translate(148.5049,95.9258)"
           id="g24"><path
             d="m 0,0 c -0.37,-2.455 -1.032,-4.873 -1.974,-7.207 l -0.104,-0.275 c -3.26,-7.872 -9.39,-14.002 -17.264,-17.26 -3.906,-1.617 -8.011,-2.438 -12.202,-2.438 l -0.002,0 c -12.955,0 -24.525,7.733 -29.475,19.701 -3.258,7.866 -3.258,16.534 0,24.405 3.258,7.873 9.385,14.004 17.251,17.262 3.907,1.616 8.011,2.436 12.201,2.436 12.956,0 24.529,-7.729 29.484,-19.692 l 28.696,-69.252 13.243,0 -0.217,0.525 C 36.459,-44.129 8.571,23.117 8.225,23.84 c -7.297,15.206 -22.92,25.032 -39.804,25.032 -5.793,0 -11.469,-1.135 -16.868,-3.371 -22.487,-9.318 -33.203,-35.188 -23.888,-57.673 6.86,-16.56 22.876,-27.26 40.801,-27.26 5.796,0 11.472,1.133 16.873,3.369 10.048,4.163 18.176,11.856 22.886,21.661 L 8.49,-13.85 0.737,4.875 0,0 z"
             id="path26"
             style="fill:#be311a;fill-opacity:1;fill-rule:nonzero;stroke:none" /></g><g
           transform="translate(127.8662,74.3086)"
           id="g28"><path
             d="m 0,0 c -14.546,-6.041 -31.229,0.881 -37.253,15.428 -6.034,14.537 0.875,31.234 15.429,37.248 C -7.272,58.702 9.411,51.799 15.429,37.252 21.457,22.709 14.547,6.018 0,0 M 19.82,39.074 C 12.795,56.035 -6.667,64.104 -23.655,57.071 -40.622,50.045 -48.676,30.576 -41.649,13.613 -34.624,-3.371 -15.16,-11.424 1.822,-4.393 c 8.487,3.514 14.747,10.135 18.005,18.002 0.042,0.102 0.078,0.205 0.117,0.307 0.97,2.404 1.661,4.918 2.051,7.496 l 12.336,-29.779 9.253,-22.336 5.149,0 -28.913,69.777 z"
             id="path30"
             style="fill:#ff0000;fill-opacity:1;fill-rule:nonzero;stroke:none" /></g><g
           transform="translate(203.0068,233.8579)"
           id="g32"><path
             d="m 0,0 -40.805,-98.494 c 1.138,-1.485 2.211,-3.035 3.21,-4.653 L 5.136,0 0,0 z"
             id="path34"
             style="fill:#ff0000;fill-opacity:1;fill-rule:nonzero;stroke:none" /></g><g
           transform="translate(233.8584,233.8579)"
           id="g36"><path
             d="m 0,0 -15.429,0 -47.465,-114.578 -1.322,3.192 c -1.205,2.906 -2.628,5.648 -4.23,8.24 -0.999,1.617 -2.073,3.167 -3.21,4.652 -15.327,19.999 -42.695,28.072 -67.071,17.964 -29.091,-12.051 -42.918,-45.411 -30.859,-74.499 12.054,-29.101 45.405,-42.928 74.499,-30.871 9.604,3.975 17.531,10.283 23.426,17.984 l -6.704,16.176 c -4.399,-9.156 -12.05,-16.793 -22.175,-20.986 -21.825,-9.039 -46.843,1.328 -55.882,23.148 -9.039,21.817 1.329,46.84 23.147,55.88 21.088,8.735 45.153,-0.654 54.91,-20.987 0.341,-0.709 31.382,-75.566 31.382,-75.566 l 15.433,0 -23.627,57.043 L 0,0 z"
             id="path38"
             style="fill:#8e0000;fill-opacity:1;fill-rule:nonzero;stroke:none" /></g></g></g></g></svg>