<?xml version="1.0" encoding="UTF-8" standalone="no"?>
<!-- Created with Inkscape (http://www.inkscape.org/) -->

<svg
   version="1.1"
   id="svg25"
   xml:space="preserve"
   width="229.93333"
   height="229.93333"
   viewBox="0 0 229.93333 229.93333"
   sodipodi:docname="FCBG_logo_green.svg"
   inkscape:version="1.1.2 (0a00cf5339, 2022-02-04)"
   xmlns:inkscape="http://www.inkscape.org/namespaces/inkscape"
   xmlns:sodipodi="http://sodipodi.sourceforge.net/DTD/sodipodi-0.dtd"
   xmlns="http://www.w3.org/2000/svg"
   xmlns:svg="http://www.w3.org/2000/svg"><defs
     id="defs29" /><sodipodi:namedview
     id="namedview27"
     pagecolor="#ffffff"
     bordercolor="#666666"
     borderopacity="1.0"
     inkscape:pageshadow="2"
     inkscape:pageopacity="0.0"
     inkscape:pagecheckerboard="0"
     showgrid="false"
     inkscape:zoom="3.966367"
     inkscape:cx="114.96667"
     inkscape:cy="94.797076"
     inkscape:window-width="1920"
     inkscape:window-height="1163"
     inkscape:window-x="0"
     inkscape:window-y="0"
     inkscape:window-maximized="1"
     inkscape:current-layer="g31" /><g
     id="g31"
     inkscape:groupmode="layer"
     inkscape:label="ink_ext_XXXXXX"
     transform="matrix(1.3333333,0,0,-1.3333333,0,229.93333)"><g
       id="g33"
       transform="scale(0.1)"><path
         d="m 356.289,1189.32 c 0,-13.66 10.707,-19.17 23.035,-19.17 26.336,0 35.09,14.92 33.836,49.68 -7.832,-4.83 -22.082,-5.83 -34.121,-9.09 -12.375,-2.91 -22.75,-8.09 -22.75,-21.42"
         style="fill:#46a486;fill-opacity:1;fill-rule:nonzero;stroke:none"
         id="path35" /><path
         d="m 845.66,708.07 c -19.41,0 -32.406,-14 -35.66,-34.41 h 68.516 c -1.004,18.84 -14.274,34.41 -32.856,34.41"
         style="fill:#46a486;fill-opacity:1;fill-rule:nonzero;stroke:none"
         id="path37" /><path
         d="m 916.523,1473.82 c 0,-13.66 10.743,-19.16 23.067,-19.16 26.25,0 35.098,14.93 33.75,49.66 -7.742,-4.83 -22.078,-5.83 -34.07,-9.07 -12.336,-2.92 -22.747,-8.09 -22.747,-21.43"
         style="fill:#46a486;fill-opacity:1;fill-rule:nonzero;stroke:none"
         id="path39" /><path
         d="m 413.285,708.07 c -19.457,0 -32.449,-14 -35.707,-34.41 h 68.539 c -0.988,18.84 -14.293,34.41 -32.832,34.41"
         style="fill:#46a486;fill-opacity:1;fill-rule:nonzero;stroke:none"
         id="path41" /><path
         d="m 1250.84,620.32 c 0,-13.582 10.68,-19.16 23.02,-19.16 26.33,0 35.08,15 33.83,49.75 -7.84,-4.922 -22.09,-5.832 -34.09,-9.09 -12.42,-2.992 -22.76,-8.16 -22.76,-21.5"
         style="fill:#46a486;fill-opacity:1;fill-rule:nonzero;stroke:none"
         id="path43" /><path
         d="m 342.629,1462.74 c 25.656,0 33.781,25.43 33.781,46.85 0,21.39 -8.125,47.07 -33.781,47.07 -25.676,0 -33.465,-25.68 -33.465,-47.07 0,-21.42 7.789,-46.85 33.465,-46.85"
         style="fill:#46a486;fill-opacity:1;fill-rule:nonzero;stroke:none"
         id="path45" /><path
         d="m 487.828,987.652 c -25.664,0 -33.414,-25.66 -33.414,-47.082 0,-21.406 7.75,-46.824 33.414,-46.824 25.668,0 33.836,25.418 33.836,46.824 0,21.422 -8.168,47.082 -33.836,47.082"
         style="fill:#46a486;fill-opacity:1;fill-rule:nonzero;stroke:none"
         id="path47" /><path
         d="m 174.496,958.07 h -48.418 v -53.242 h 48.418 c 19.164,0 32.5,6.836 32.5,26 0,20.418 -14.336,27.242 -32.5,27.242"
         style="fill:#46a486;fill-opacity:1;fill-rule:nonzero;stroke:none"
         id="path49" /><path
         d="m 197.578,1019.16 c 0,16.92 -12.035,22.42 -24.707,22.42 h -46.793 v -44.502 h 46.793 c 10.383,0 24.707,5.492 24.707,22.082"
         style="fill:#46a486;fill-opacity:1;fill-rule:nonzero;stroke:none"
         id="path51" /><path
         d="m 1366.43,1556.66 c -25.66,0 -33.41,-25.68 -33.41,-47.07 0,-21.42 7.75,-46.85 33.41,-46.85 25.66,0 33.83,25.43 33.83,46.85 0,21.39 -8.17,47.07 -33.83,47.07"
         style="fill:#46a486;fill-opacity:1;fill-rule:nonzero;stroke:none"
         id="path53" /><path
         d="M 0,1724.49 V 0 H 1724.52 V 1724.49 H 0 m 1191.6,-67.08 h 55.25 v -42.25 h -55.25 z m 132.91,-415.75 c 34.09,-6.83 42.93,-31.59 42.93,-45.5 0,-45.18 -42.93,-60.08 -80.92,-60.08 -40,0 -80.92,13.24 -82.5,60.42 h 52.58 c 0,-8.51 3.59,-14.68 9.08,-18.85 5.26,-3.9 12.66,-5.91 20.5,-5.91 10.75,0 26.01,4.58 26.01,17.92 0,12.99 -17.26,15.59 -27,17.84 -34.76,8.82 -78.26,9.73 -78.26,55.25 0,40.58 43.83,51.66 77.01,51.66 37,0 75.66,-10.75 77.58,-54.58 h -51 c 0,7.16 -2.59,11.67 -7.08,14.58 -4.58,2.92 -10.75,4.25 -17.6,4.25 -9.07,0 -23.75,-1.01 -23.75,-12.68 0,-15.91 37.09,-18.82 62.42,-24.32 z m -42.83,-532 c -15.24,0 -25,-6.84 -27.58,-21.082 h -51.67 c 0.91,22.082 11.33,36.422 26.33,45.172 14.92,8.406 34.42,11.66 53.59,11.66 39.92,0 78.59,-8.75 78.59,-56.5 v -73.75 c 0,-14.328 0,-29.922 6.5,-43.25 h -55.51 c -2,5.25 -2.66,10.418 -3.25,15.91 -14.33,-14.91 -35.42,-20.738 -55.58,-20.738 -32.16,0 -57.5,16.25 -57.5,50.988 0,54.918 59.75,50.68 98.08,58.5 9.42,1.918 14.66,5.168 14.66,15.59 0,12.668 -15.32,17.5 -26.66,17.5 z m 30.51,146.742 v 81.59 c 0,22.992 2.66,46.422 -27.6,46.422 -20.83,0 -29.9,-17.5 -29.9,-36.086 v -91.926 h -55.18 v 232.008 h 55.18 v -86.42 h 0.66 c 8.41,17.17 31.17,27.92 51.33,27.92 56.17,0 60.76,-40.918 60.76,-65.332 V 856.402 Z M 1191.6,1593.99 h 55.25 v -168.58 h -55.25 z m -143.99,0 h 27.91 V 1645 h 55.24 v -51.01 h 34.09 v -35.66 h -34.09 v -76.67 c 0,-13.33 7.84,-16.25 19.84,-16.25 4.51,0 9.41,0.57 14.25,0.57 v -40.57 c -10.08,-0.33 -20.08,-1.59 -30.16,-1.59 -47.18,0 -59.17,13.59 -59.17,59.42 v 75.09 h -27.91 z m -100.255,-30.82 c -15.265,0 -25,-6.84 -27.589,-21.1 h -51.664 c 0.996,22.1 11.332,36.34 26.332,45.16 14.914,8.43 34.421,11.67 53.586,11.67 40,0 78.58,-8.74 78.58,-56.49 v -73.75 c 0,-14.34 0,-29.91 6.5,-43.25 h -55.495 c -2.007,5.25 -2.593,10.43 -3.257,15.92 -14.336,-14.94 -35.41,-20.76 -55.586,-20.76 -32.16,0 -57.512,16.25 -57.512,51 0,54.93 59.766,50.66 98.184,58.43 9.421,2 14.589,5.25 14.589,15.66 0,12.67 -15.261,17.51 -26.668,17.51 z m -218.777,35.73 c 20.746,0 36.664,-7.83 48.086,-23.06 h 0.625 v 81.57 H 832.5 v -232 h -52.582 v 19.49 h -0.676 c -10.746,-15.91 -26.996,-24.33 -46.453,-24.33 -52.961,0 -75.371,45.41 -75.371,92.92 0,43.84 23.418,85.41 71.16,85.41 z m -73.914,-311.82 c 13.328,17.92 29.922,27.33 52.664,27.33 53.586,0 59.414,-40.59 59.414,-72.75 V 1140.91 H 711.539 V 1240 c 0,18.16 -8.797,28.9 -23.043,28.9 -23.75,0 -25.996,-18.16 -25.996,-45.49 v -82.5 h -55.254 v 95.83 c 0,19.84 -5.836,32.16 -20.785,32.16 -19.797,0 -28.258,-11.33 -28.258,-45.83 v -82.16 h -55.211 v 168.58 h 53.59 v -22.99 h 0.664 c 10.043,16.83 27.914,27.91 48.379,27.91 21.117,0 39.957,-6.84 49.039,-27.33 z M 576.875,940.57 c 0,-50.664 -36.715,-89 -89.047,-89 -52.285,0 -88.664,38.336 -88.664,89 0,50.676 36.379,89.34 88.664,89.34 52.332,0 89.047,-38.664 89.047,-89.34 z M 460.703,1594 h 53.621 v -23.02 h 0.625 c 10.051,17.19 32.793,27.92 52.965,27.92 56.207,0 60.746,-40.9 60.746,-65.31 V 1425.41 H 573.414 V 1507 c 0,23 2.625,46.41 -27.578,46.41 -20.836,0 -29.922,-17.51 -29.922,-36.08 v -91.92 h -55.211 z m -118.074,4.9 c 52.289,0 89.035,-38.65 89.035,-89.31 0,-50.69 -36.746,-89.02 -89.035,-89.02 -52.301,0 -88.719,38.33 -88.719,89.02 0,50.66 36.418,89.31 88.719,89.31 z M 65.6602,1657.41 H 236.539 V 1609 H 126.078 v -47.43 h 95.504 v -46.84 h -95.504 v -89.32 H 65.6602 Z M 279.746,571.91 h -38.992 l -3.547,25.328 c -15.957,-22.41 -43.215,-30.156 -64.672,-30.156 -70.168,0 -115.6248,53.578 -115.6248,120.828 0,67.246 45.4568,120.84 115.6248,120.84 48.09,0 99.418,-25.684 104.965,-83.75 h -60.414 c -2.008,19.734 -21.461,31.816 -45.836,31.816 -39.004,0 -53.922,-34.488 -53.922,-68.906 0,-34.422 14.918,-68.84 53.922,-68.84 29.91,0 50,13.918 53.246,35.09 h -42.207 v 44.828 h 97.457 z m -12.328,356.668 c 0,-55.25 -40.625,-72.176 -90.332,-72.176 H 65.6602 V 1088.41 H 174.164 c 39.957,0.59 83.828,-9.75 83.828,-58.16 0,-20.84 -12.332,-37.676 -30.543,-46.844 24.715,-7.082 39.969,-28.578 39.969,-54.828 z m -94.547,259.412 c 28.289,0 44.496,16.25 46.793,42.92 h 60.414 c -3.254,-59.75 -47.086,-94.83 -105.914,-94.83 -70.172,0 -115.6679,53.58 -115.6679,120.83 0,67.25 45.4959,120.83 115.6679,120.83 50.039,0 104.293,-31.84 105.914,-87.67 h -60.414 c -3.254,23.34 -21.461,35.67 -46.793,35.67 -38.961,0 -53.961,-34.42 -53.961,-68.83 0,-34.41 15,-68.92 53.961,-68.92 z m 214.293,90.67 c -15.25,0 -25,-6.84 -27.629,-21.09 h -51.621 c 0.914,22.09 11.328,36.33 26.289,45.18 14.961,8.41 34.457,11.66 53.625,11.66 39.914,0 78.582,-8.75 78.582,-56.5 v -73.75 c 0,-14.33 0,-29.92 6.504,-43.25 h -55.547 c -1.953,5.25 -2.621,10.41 -3.246,15.91 -14.293,-14.91 -35.422,-20.74 -55.543,-20.74 -32.168,0 -57.5,16.25 -57.5,51 0,54.91 59.758,50.67 98.086,58.41 9.414,2.01 14.621,5.25 14.621,15.67 0,12.66 -15.289,17.5 -26.621,17.5 z m -26.25,-190.25 v -42.25 H 305.66 v 42.25 z M 305.66,1025 h 55.254 V 856.402 H 305.66 Z M 415.289,604.41 c 13.289,0 26.293,6.16 31.504,18.5 h 51.664 c -10.09,-38.922 -46.168,-55.828 -83.84,-55.828 -54.91,0 -92.25,33.156 -92.25,89.656 0,51.672 41.25,88.672 90.918,88.672 60.465,0 90.676,-45.5 88.094,-102.672 H 377.578 c 0.961,-23.078 14.297,-38.328 37.711,-38.328 z m 296.875,-32.5 h -55.25 v 81.578 c 0,23.082 2.578,46.422 -27.621,46.422 -20.797,0 -29.879,-17.5 -29.879,-36 v -92 h -55.25 v 168.656 h 53.625 V 717.5 h 0.625 c 10.082,17.156 32.836,27.91 52.996,27.91 56.168,0 60.754,-40.922 60.754,-65.25 z m 20.285,417.41 h -34.164 v -76.668 c 0,-13.332 7.832,-16.25 19.84,-16.25 4.586,0 9.41,0.59 14.324,0.59 v -40.59 c -10.082,-0.324 -20.16,-1.566 -30.242,-1.566 -47.078,0 -59.125,13.57 -59.125,59.406 V 989.32 H 615.129 V 1025 h 27.953 v 50.98 h 55.203 V 1025 h 34.164 z M 847.66,604.41 c 13.336,0 26.363,6.16 31.52,18.5 h 51.66 c -10.078,-38.922 -46.152,-55.828 -83.848,-55.828 -54.906,0 -92.246,33.156 -92.246,89.656 0,51.672 41.25,88.672 90.914,88.672 60.524,0 90.695,-45.5 88.102,-102.672 H 810 c 0.914,-23.078 14.242,-38.328 37.66,-38.328 z m 15.957,284.492 c 13.317,0 26.317,6.172 31.488,18.504 h 51.665 c -10.09,-39 -46.172,-55.836 -83.817,-55.836 -54.91,0 -92.25,33.086 -92.25,89.676 0,51.582 41.25,88.664 90.918,88.664 60.469,0 90.645,-45.496 88.067,-102.676 H 825.914 c 0.961,-23.07 14.297,-38.332 37.703,-38.332 z m 44.403,247.178 c -20.832,0 -36.758,7.74 -48.102,23 h -0.676 v -74.67 h -55.203 v 225.08 h 52.625 v -19.42 h 0.664 c 10.695,15.91 26.942,24.34 46.434,24.34 53.008,0 75.418,-45.51 75.418,-92.91 0,-43.85 -23.418,-85.42 -71.16,-85.42 z m 188.42,-564.17 h -63.67 l -56.247,168.656 h 57.497 l 30.91,-111.406 h 0.59 l 31.25,111.406 h 56.16 z m -19.92,279.66 c -50.68,0 -88.422,34.754 -88.422,86.422 0,53.586 34.172,91.918 88.422,91.918 41.92,0 79.24,-22.08 83.17,-66.582 h -53.59 c -0.34,14.246 -13,24.324 -27,24.324 -30.84,0 -35.76,-26.328 -35.76,-49.66 0,-21.836 9.43,-44.246 32.84,-44.246 19.17,0 28.93,11.082 31.51,28.906 h 53.57 c -4.82,-45.078 -39.9,-71.082 -84.74,-71.082 z m 100,289.34 h -53.59 V 1164 h -0.66 c -10.42,-17.26 -31.84,-27.92 -51.33,-27.92 -48.43,0 -62.42,27.92 -62.42,72.08 v 101.33 h 55.24 v -97.75 c 0,-22.42 9.76,-30.24 27.34,-30.24 12,0 30.16,7.82 30.16,37.74 v 90.25 h 55.26 z m 195.67,-765.34 h -64.76 v -64.73 h -55.42 v 64.73 h -64.74 v 55.418 l 64.74,0.051 v 64.699 h 55.42 v -64.699 h 64.76 z m -5.76,1045 c -52.25,0 -88.66,38.33 -88.66,89.02 0,50.66 36.41,89.31 88.66,89.31 52.33,0 89.09,-38.65 89.09,-89.31 0,-50.69 -36.76,-89.02 -89.09,-89.02 z m 286.08,4.84 h -55.24 V 1507 c 0,23 2.58,46.41 -27.57,46.41 -20.84,0 -29.94,-17.51 -29.94,-36.08 v -91.92 h -55.24 V 1594 h 53.66 v -23.02 h 0.58 c 10.1,17.19 32.84,27.92 53.02,27.92 56.15,0 60.73,-40.9 60.73,-65.31 v -108.18"
         style="fill:#46a486;fill-opacity:1;fill-rule:nonzero;stroke:none"
         id="path55" /><path
         d="m 746.41,1462.74 c 27.004,0 32.832,25.67 32.832,47.16 0,24.34 -8.75,46.76 -32.832,46.76 -25.332,0 -33.75,-23.66 -33.75,-45.16 0,-23.09 8.418,-48.76 33.75,-48.76"
         style="fill:#46a486;fill-opacity:1;fill-rule:nonzero;stroke:none"
         id="path57" /><path
         d="m 861.621,992.574 c -19.457,0 -32.457,-13.996 -35.707,-34.504 h 68.52 c -0.996,18.844 -14.246,34.504 -32.813,34.504"
         style="fill:#46a486;fill-opacity:1;fill-rule:nonzero;stroke:none"
         id="path59" /><path
         d="m 891.105,1272.16 c -14.921,0 -33.777,-10.42 -33.777,-45.17 0,-29.58 8.414,-48.75 33.434,-48.75 24.668,0 33.176,25.66 33.176,48.75 0,21.49 -8.508,45.17 -32.833,45.17"
         style="fill:#46a486;fill-opacity:1;fill-rule:nonzero;stroke:none"
         id="path61" /></g></g></svg>
