<svg xmlns="http://www.w3.org/2000/svg" width="129.33701" height="110.481" viewBox="0 0 129.33701 110.481"><rect width="129.33701" height="110.481" style="fill:#c6c6c6"/><rect x="5.71008" y="5.71" width="37.712" height="99.061" style="fill:#fff"/><rect x="43.422" y="5.71" width="80.205" height="99.061" style="fill:#fddc05"/><path d="M71.17505,63.473V75.158c0,5.046,4.382,9.03,9.561,9.03,5.046,0,9.561-3.851,9.561-9.03V63.473h-5.843V74.229c0,2.523-1.461,4.249-3.718,4.249s-3.718-1.593-3.718-4.249V63.473Z"/><path d="M71.17505,63.473V75.158c0,5.046,4.382,9.03,9.561,9.03,5.046,0,9.561-3.851,9.561-9.03V63.473h-5.843V74.229c0,2.523-1.461,4.249-3.718,4.249s-3.718-1.593-3.718-4.249V63.473Z" style="fill:none;stroke:#000;stroke-miterlimit:3.864000082015991;stroke-width:0.039000000804662704px"/><path d="M93.08508,63.075h1.593l10.49,9.561V63.475h5.843v20.45h-1.859l-10.357-9.43v9.162h-5.71Z"/><path d="M93.08508,63.075h1.593l10.49,9.561V63.475h5.843v20.45h-1.859l-10.357-9.43v9.162h-5.71Z" style="fill:none;stroke:#000;stroke-miterlimit:3.864000082015991;stroke-width:0.039000000804662704px"/><rect x="114.06604" y="63.47301" width="5.71" height="20.317"/><rect x="114.06604" y="63.47301" width="5.71" height="20.317" style="fill:none;stroke:#000;stroke-miterlimit:3.864000082015991;stroke-width:0.039000000804662704px"/><path d="M91.093,90.031H89.102V92.82h1.992c1.2,0,1.594-.664,1.594-1.461s-.4-1.328-1.594-1.328m10.49,4.515h2.656l-1.328-3.054ZM43.422,104.771h80.2V85.649h-80.2Zm39.571-8.366a6.316,6.316,0,0,1-11.553-3.32,6.207,6.207,0,0,1,6.241-6.108A5.865,5.865,0,0,1,82.594,89.5l-2.39,1.726a3.16492,3.16492,0,1,0-2.523,5.046c1.726,0,2.656-.664,2.789-1.593H78.478V92.554h5.044v.93a6.75406,6.75406,0,0,1-.531,2.921m22.973,2.523-.93-1.992h-4.382l-.93,1.992H93.083l-2.257-3.453H89.102v3.453h-3.32V87.242h5.577a4.123,4.123,0,0,1,4.37384,3.85588q.00819.1299.00815.26012a3.209,3.209,0,0,1-2.125,3.32l2.789,3.984,6.108-11.553h.8l6.109,11.819Zm13.943,0h-9.825v-.93l5.046-8.1h-5.046V87.11h9.694v.664l-5.312,8.366h5.312v2.789Z"/></svg>