<svg xmlns="http://www.w3.org/2000/svg" xmlns:xlink="http://www.w3.org/1999/xlink" height="61.9" width="184.6" xml:space="preserve">
  <g transform="translate(-115.2 1.4)">
    <defs>
      <path id="a" d="M.6-1.4h299.2v62H.6z"/>
    </defs>
    <clipPath id="b">
      <use height="100%" width="100%" xlink:href="#a" overflow="visible"/>
    </clipPath>
    <path clip-path="url(#b)" d="M254.4 12.7c-.8-.1-1-.7-.9-1.4.8-1.8 3.1-.2 1.8 1.2-.2.1-.4.3-.9.2m-34.9 6.5c.1-3 1.8-5.8 3.2-8.3 1-1.6 2.2-3.1 3.3-4.5-.8.1-1.4.3-2.3.4-.4.1-.4-.4-.2-.6 1.1-.3 2.2-.6 3.3-.8 1.9-2.2 3.1-3.4 4.6-4.9.6-.6 1.8-1.7 2.9-1.9.8 0 2.3.3 1.7 1.3-1.1 1.3-2.1 2.5-3.7 4.3 1.4-.2 2.8-.4 4.2-.7.6.1.8.5.2.8-.4.1-.4.1-5.2.9l-.2.2c-1 1.3-1.9 2.6-2.8 4-2 3.2-3.7 6.2-4.4 9.9-.1.3-.1.9.1 1.2.3 0 .7-.2 1-.4 3.7-1.9 6.8-4.5 10.4-6.8 1.7-4 3.5-8 5.7-11.7.5-.5.9-.2.7.1-1.2 2.1-4.2 8-5.2 10.7 2.2-1.5 5.6-3.6 8-4.6.9-.4 2.2-.1 2.7.9.2.4.2 1.4 0 1.8-1 2.5-2.1 4.5-3.1 6.9-.4 1-1.2 2.4-1 3.3.1.7 4.4-2.5 5.1-3 .2-.2 1.9-1.6 2.2-1.8.6-.4 1.1-.8 1.7-.7 1.1.1 2.3.8 1.6 1.5-3 3.2-6.2 6.5-10.1 7.5-1.7.5-4.2-.8-4.4-3.1-.1-1.9.5-3.6 1.2-5.3.3-.7 1.2-2.6 1.6-3.4-2.6 1.7-5.1 3.5-7.6 5.5-.8 2.3-1.2 3.4-1.9 5.8-.2.8-1.2.6-1.1-.1.3-1.2 1.2-3.5 1.6-4.7-2.2 1.6-4.4 3.6-6.9 4.7-1.3.6-2.8.8-3.9.5-2.3-.7-3-2.3-3-4.9" fill="#0f838b"/>
  </g>
  <path class="st1" fill="#ffffff" d="M7.7 34.4H4.6v9.7H3.1v-9.7H0v-1.3h7.7zm7.5-.1h-4.4v3.5h4.1V39h-4.1v3.8h4.5v1.3h-6v-11h5.9z"/>
  <g transform="translate(-115.2 1.4)">
    <defs>
      <path id="c" d="M.6-1.4h299.2v62H.6z"/>
    </defs>
    <clipPath id="d">
      <use height="100%" width="100%" xlink:href="#c" overflow="visible"/>
    </clipPath>
    <path clip-path="url(#d)" d="m140.6 32.1-.1 1.3c-.4-.2-.8-.3-1.2-.4-.4-.1-.8-.1-1.2-.1-1.3 0-2.4.4-3.1 1.1-.7.7-1.2 1.8-1.2 3.1s.4 2.4 1.2 3.1c.8.8 1.8 1.1 3.1 1.1.4 0 .8 0 1.2-.1.4-.1.8-.2 1.2-.4v1.4l-1.2.3c-.4.1-.9.1-1.4.1-1.8 0-3.2-.5-4.2-1.5s-1.6-2.3-1.6-4c0-1.7.5-3 1.6-4s2.5-1.5 4.2-1.5c.5 0 .9 0 1.4.1.5.2.9.3 1.3.4" fill="#ffffff"/>
  </g>
  <path class="st1" fill="#ffffff" d="M28.6 37.8h5v-4.7h1.5v11h-1.5V39h-5v5.1h-1.5v-11h1.5z"/>
  <g transform="translate(-115.2 1.4)">
    <defs>
      <path id="e" d="M.6-1.4h299.2v62H.6z"/>
    </defs>
    <clipPath id="f">
      <use height="100%" width="100%" xlink:href="#e" overflow="visible"/>
    </clipPath>
    <path clip-path="url(#f)" d="M153.1 31.7h1.9l4.8 8.5c.1.1.1.3.2.6l.3.9c-.1-.4-.1-.8-.2-1.1 0-.3-.1-.6-.1-.8v-8.1h1.4v10.9h-1.9l-4.8-8.6c-.1-.1-.1-.3-.2-.5s-.2-.6-.3-1c.1.6.1 1 .2 1.4 0 .3.1.5.1.7v8h-1.4z" fill="#ffffff"/>
  </g>
  <path class="st1" fill="#ffffff" d="M49 33.1h1.5V44H49z"/>
  <g transform="translate(-115.2 1.4)">
    <defs>
      <path id="g" d="M.6-1.4h299.2v62H.6z"/>
    </defs>
    <clipPath id="h">
      <use height="100%" width="100%" xlink:href="#g" overflow="visible"/>
    </clipPath>
    <path clip-path="url(#h)" d="m174 32-.2 1.3c-.3-.2-.7-.3-1-.4-.4-.1-.7-.1-1.1-.1-.7 0-1.2.1-1.6.4-.4.2-.6.6-.6 1 0 .3.1.6.4.9.3.3.8.6 1.6 1.1 1.1.6 1.8 1.1 2.2 1.6.4.5.6 1 .6 1.7 0 .9-.3 1.7-1 2.3-.7.6-1.6.9-2.6.9-.5 0-1 0-1.5-.1s-.9-.2-1.3-.4l.2-1.5c.5.2.9.4 1.3.5.4.1.8.2 1.2.2.6 0 1.2-.1 1.5-.4.4-.3.6-.7.6-1.1 0-.7-.8-1.5-2.3-2.4-.3-.1-.5-.3-.6-.3-.6-.3-1-.8-1.4-1.2-.3-.5-.5-1-.5-1.5 0-.8.3-1.5 1-2 .6-.5 1.5-.8 2.6-.8.4 0 .8 0 1.2.1.6 0 .9.1 1.3.2m10.4.1-.1 1.3c-.4-.2-.8-.3-1.2-.4-.4-.1-.8-.1-1.2-.1-1.3 0-2.4.4-3.1 1.1-.8.8-1.2 1.8-1.2 3.1s.4 2.4 1.2 3.1c.8.8 1.8 1.1 3.1 1.1.4 0 .8 0 1.2-.1.4-.1.8-.2 1.2-.4v1.4l-1.2.3c-.4.1-.9.1-1.4.1-1.8 0-3.2-.5-4.2-1.5s-1.5-2.3-1.5-4c0-1.7.5-3 1.6-4s2.5-1.5 4.2-1.5c.5 0 .9 0 1.4.1.4.2.9.3 1.2.4" class="st4" fill="#ffffff"/>
  </g>
  <path class="st1" fill="#ffffff" d="M72.5 37.8h5v-4.7H79v11h-1.5V39h-5v5.1H71v-11h1.5zm15.1-3.5h-4.3v3.5h4.1V39h-4.1v3.8h4.5v1.3h-6.1v-11h5.9z"/>
  <g transform="translate(-115.2 1.4)">
    <defs>
      <path id="i" d="M.6-1.4h299.2v62H.6z"/>
    </defs>
    <clipPath id="j">
      <use height="100%" width="100%" xlink:href="#i" overflow="visible"/>
    </clipPath>
    <path clip-path="url(#j)" d="M209.9 31.7h1.5v6.4c0 1.2.2 2 .6 2.6.4.6 1.1.8 1.9.8.9 0 1.5-.3 2-.9.5-.6.7-1.5.7-2.7v-6.3h1.4v6.3c0 1.6-.3 2.8-1 3.6-.7.8-1.7 1.2-3.1 1.2-1.3 0-2.3-.4-3-1.2-.7-.8-1-1.9-1-3.5zm11 0h1.9l4.8 8.5c.1.1.1.3.2.6l.3.9c-.1-.4-.1-.8-.2-1.1 0-.3-.1-.6-.1-.8v-8.1h1.4v10.9h-1.9l-4.8-8.6c-.1-.1-.1-.3-.2-.5s-.2-.6-.3-1c.1.6.1 1 .2 1.4v8.7h-1.4V31.7Z" class="st5" fill="#ffffff"/>
  </g>
  <path class="st1" fill="#ffffff" d="M116.8 33.1h1.5V44h-1.5zm8 9.5 3.3-9.5h1.6l-4.1 11h-1.7l-3.9-11h1.6zm12.4-8.3h-4.4v3.5h4.1V39h-4.1v3.8h4.5v1.3h-6.1v-11h6z"/>
  <g transform="translate(-115.2 1.4)">
    <defs>
      <path id="k" d="M.6-1.4h299.2v62H.6z"/>
    </defs>
    <clipPath id="l">
      <use height="100%" width="100%" xlink:href="#k" overflow="visible"/>
    </clipPath>
    <path clip-path="url(#l)" d="M256.2 32.9v3.7h1.2c.8 0 1.4-.2 1.8-.5.4-.3.7-.8.7-1.4 0-.6-.2-1.1-.6-1.4-.4-.3-1-.4-1.9-.4zm-1.6-1.2h2.9c1.2 0 2.2.2 2.8.7.6.5.9 1.2.9 2.1 0 .7-.2 1.3-.6 1.7-.4.5-1 .8-1.8.9.3.1.6.2.8.4.2.2.4.6.6 1.1l1.7 3.9h-1.6l-1.4-3.6c-.2-.5-.4-.8-.7-1-.3-.2-.7-.3-1.2-.3h-.9v4.8h-1.5zm14.9.3-.2 1.3c-.3-.2-.7-.3-1-.4-.4-.1-.7-.1-1.1-.1-.7 0-1.2.1-1.6.4-.4.2-.6.6-.6 1 0 .3.1.6.4.9.3.3.8.6 1.6 1.1 1.1.6 1.8 1.1 2.2 1.6.4.5.6 1 .6 1.7 0 .9-.3 1.7-1 2.3-.7.6-1.6.9-2.6.9-.5 0-1 0-1.5-.1s-.9-.2-1.3-.4l.2-1.5c.5.2.9.4 1.3.5.4.1.8.2 1.2.2.6 0 1.2-.1 1.5-.4.4-.3.6-.7.6-1.1 0-.7-.8-1.5-2.3-2.4-.3-.1-.5-.3-.6-.3-.6-.3-1-.8-1.4-1.2-.3-.5-.5-1-.5-1.5 0-.8.3-1.5 1-2 .6-.5 1.5-.8 2.6-.8.4 0 .8 0 1.2.1.6 0 1 .1 1.3.2" class="st6" fill="#ffffff"/>
  </g>
  <path class="st1" fill="#ffffff" d="M156.8 33.1h1.5V44h-1.5zm10.9 1.3h-3.1v9.7h-1.5v-9.7H160v-1.3h7.7zm5.4-4.3h1.3v1.5h-1.3zm-2.6 0h1.3v1.5h-1.3zm1.9 4.4-2.2 5.6h4.3zm-.9-1.4h1.9l4.3 10.9H176l-1.1-2.8h-5.2l-1.1 2.8h-1.5zm8.5 1.3v9.7h1.5v-9.7h3.1v-1.3h-7.7v1.3zm-67.9 16.4h2.9v10.9h-2.9zm12.5 11v-2.2h-4.3v-8.8h-2.9v11z"/>
  <g transform="translate(-115.2 1.4)">
    <defs>
      <path id="m" d="M.6-1.4h299.2v62H.6z"/>
    </defs>
    <clipPath id="n">
      <use height="100%" width="100%" xlink:href="#m" overflow="visible"/>
    </clipPath>
    <path clip-path="url(#n)" d="M241.3 49.4h4.4l2 6.6c.1.3.1.6.2.9 0 .3.1.7.1 1 0-.4.1-.8.1-1.1.1-.3.1-.6.2-.9l2-6.5h4.4v10.9H252v-8.4c0-.4.1-.8.1-1.2-.1.3-.1.6-.2.9-.1.3-.2.6-.2.8l-2.5 7.8h-2.6l-2.4-7.7c-.1-.3-.2-.6-.2-.9-.1-.3-.2-.7-.2-1 0 .5.1 1 .1 1.4v8.2h-2.5V49.4Z" fill="#ffffff"/>
  </g>
  <path class="st1" fill="#ffffff" d="M149.7 61.8v-2.1h-4.9v-2.5h4.4v-2.1h-4.4v-2.2h4.7v-2.1h-7.6v11z"/>
  <g transform="translate(-115.2 1.4)">
    <defs>
      <path id="o" d="M.6-1.4h299.2v62H.6z"/>
    </defs>
    <clipPath id="p">
      <use height="100%" width="100%" xlink:href="#o" overflow="visible"/>
    </clipPath>
    <path clip-path="url(#p)" d="M266.9 49.4h3.6l3.2 6.5c.1.2.2.5.4.9.1.4.3.9.5 1.4-.1-.5-.2-1-.2-1.5s-.1-.9-.1-1.2v-6.2h2.6v10.9h-3.6l-3.3-6.8c-.2-.3-.3-.7-.4-1-.1-.4-.2-.8-.4-1.2.1.7.2 1.2.2 1.8 0 .5.1 1 .1 1.4v5.8h-2.6z" fill="#ffffff"/>
  </g>
  <path d="m168.7 53.3 1.4 4.1h-2.8zm-1.7-2.5-4.1 10.9h2.9l.8-2.3h4.2l.8 2.3h3.1l-4.1-10.9z" class="st1" fill="#ffffff"/>
  <g transform="translate(-115.2 1.4)">
    <defs>
      <path id="q" d="M.6-1.4h299.2v62H.6z"/>
    </defs>
    <clipPath id="r">
      <use height="100%" width="100%" xlink:href="#q" overflow="visible"/>
    </clipPath>
    <path clip-path="url(#r)" d="M290.4 49.4h2.9v6.4c0 .9.1 1.6.4 2 .3.4.7.6 1.3.6.6 0 1.1-.2 1.4-.7.3-.4.5-1.1.5-2v-6.4h2.8v6.4c0 1.6-.4 2.8-1.2 3.6-.8.8-1.9 1.2-3.5 1.2-1.5 0-2.7-.4-3.5-1.2-.8-.8-1.2-2-1.2-3.6v-6.3z" fill="#ffffff"/>
  </g>
</svg>
