<?xml version="1.0" encoding="UTF-8" standalone="no"?>
<svg xmlns:dc="http://purl.org/dc/elements/1.1/" xmlns:cc="http://creativecommons.org/ns#" xmlns:rdf="http://www.w3.org/1999/02/22-rdf-syntax-ns#" xmlns:svg="http://www.w3.org/2000/svg" xmlns="http://www.w3.org/2000/svg" xmlns:sodipodi="http://sodipodi.sourceforge.net/DTD/sodipodi-0.dtd" xmlns:inkscape="http://www.inkscape.org/namespaces/inkscape" viewBox="0 0 309.44 135.55" version="1.1" id="svg4661" sodipodi:docname="logo_INRIA_EN.svg" inkscape:version="0.92.2 2405546, 2018-03-11">
  <metadata id="metadata4665">
    <rdf:RDF>
      <cc:Work rdf:about="">
        <dc:format>image/svg+xml</dc:format>
        <dc:type rdf:resource="http://purl.org/dc/dcmitype/StillImage"/>
      </cc:Work>
    </rdf:RDF>
  </metadata>
  <sodipodi:namedview pagecolor="#ffffff" bordercolor="#666666" borderopacity="1" objecttolerance="10" gridtolerance="10" guidetolerance="10" inkscape:pageopacity="0" inkscape:pageshadow="2" inkscape:window-width="1898" inkscape:window-height="988" id="namedview4663" showgrid="false" inkscape:zoom="3.4384695" inkscape:cx="154.72" inkscape:cy="67.775002" inkscape:window-x="1929" inkscape:window-y="44" inkscape:window-maximized="0" inkscape:current-layer="svg4661"/>
  <defs id="defs4597">
    <style id="style4595">.cls-1{fill:none;}.cls-2{fill:#e63312;}</style>
  </defs>
  <title id="title4599">inria_logo_eng_rouge_rvb</title>
  <g id="Calque_2" data-name="Calque 2">
    <g id="Calque_1-2" data-name="Calque 1">
      <rect class="cls-1" x="86.94" y="-86.94" width="135.55" height="309.44" transform="translate(222.5 -86.94) rotate(90)" id="rect4601"/>
      <path class="cls-2" d="M69.71,23.71a59.52,59.52,0,0,0,11.45-9.09c2.8-2.84-9.52-1.57-12.49,1a83.93,83.93,0,0,0-9.47,9.25C57.45,26.87,65.87,26,69.71,23.71ZM295,87.63c2.19,1.31,2.09-5.53-2.32-8.28-15.79-9.84-59,7.31-75.34,9.26-3.07.37-4.19-.41-3.46-2.49,1.39-4,6.86-11.4,8-13.94s.9-10.78-11.45-10.78c-10.09,0-19.35,4.69-25.85,10.58-6.2,5.29-18.21,15.75-25.6,15.75-7.65,0,14.76-23.12,16-24.29,3.33-3.13-7.17-2.35-11.59,1-1.76,1.34-8.81,8.88-13.22,16.18-12.75,8.81-25.44,10.86-19.4,3.53,3.21-3.9,8.64-9.13,12.38-13.27,5.21-5.78,4.27-9.59-7.24-9.59-15.41,0-17,1.34-25.74,11.52-1.61,1.89-.78,6.64.89,5,10.43-10.32,10.19-9.48,24-9.48-2.22,2.36-6.18,4.71-12.89,13.23-6,7.6-2.07,13.74,6.43,13.74,4.7,0,11.71-2.2,18.12-6.72-.77,4,.82,6.79,6.87,6.79,7,0,15-4.17,21.64-8.8-.83,5,1.76,8.8,9.18,8.8,5.71,0,12.35-2.24,19.21-8.19,0,4.55,3.17,8.16,9.14,8.16C227.32,95.34,277.57,77.09,295,87.63Zm-106.73,1.2c-9.54,0,9.56-21.8,22-21.8C217.78,67,197.52,88.83,188.32,88.83Zm-7.57-33.72A98.21,98.21,0,0,0,195.5,43.49c2.8-2.84-9.52-1.58-12.49,1a122.05,122.05,0,0,0-11.5,11.14C169.76,57.63,176.91,57.42,180.75,55.11ZM105.44,78.33c-3.74,3.65-11.91,9.76-19.06,9.76-5.29,0,5.24-9.47,10.46-17.11,5-7.3.91-9.48-3.2-9.48-10.18,0-20.12,7.14-26.86,12.17,2-2.73,5.21-6.22,8.59-10.68,1.87-2.48-9.35-1.59-12.22,2.19-.92,1.2-1.92,2.54-3,4C50.4,80.86,35.68,88.75,28.46,88.75c-4,0-5.49-2.77-3-8,6-12.63,26.84-36.63,38.15-47.14,5.13-4.81-10.29-2.85-13.83.7C34.13,50.07,18.36,67.67,13.91,81.36c-2.46,7.57-.19,14.37,9.22,14.37,7.72,0,16.28-3.83,23.55-8.37L41.94,93.8c-2.05,2.78,8.35,1.76,10.54-1,8.22-10.52,28-23.46,33.48-23.46,5,0-12.24,12.92-12.08,20.83.2,10.39,24.26,4,32.43-6.67C107.59,81.81,106.59,77.21,105.44,78.33Z" id="path4603"/>
    </g>
  </g>
</svg>