<?xml version="1.0" encoding="UTF-8"?>
<!-- Created with Inkscape (http://www.inkscape.org/) -->
<svg width="400" height="100" version="1.1" viewBox="0 0 105.83333 26.458334" xmlns="http://www.w3.org/2000/svg" xmlns:cc="http://creativecommons.org/ns#" xmlns:dc="http://purl.org/dc/elements/1.1/" xmlns:rdf="http://www.w3.org/1999/02/22-rdf-syntax-ns#">
 <metadata>
  <rdf:RDF>
   <cc:Work rdf:about="">
    <dc:format>image/svg+xml</dc:format>
    <dc:type rdf:resource="http://purl.org/dc/dcmitype/StillImage"/>
    <dc:title/>
   </cc:Work>
  </rdf:RDF>
 </metadata>
 <g transform="translate(-77.733 -137.28)">
  <g transform="matrix(1.5698 0 0 -1.5625 -135.09 982.24)">
   <path d="m156.13 529.67h-2.765v11.097h2.765z"/>
   <g transform="translate(160.77 536.92)">
    <path d="m0 0c0.236 0.253 0.514 0.548 0.942 0.775 0.361 0.192 0.79 0.367 1.373 0.367 0.487 0 1.038-0.095 1.462-0.33 0.864-0.455 1.084-1.192 1.084-2.464v-5.596h-2.405v4.609c0 0.736-0.015 1.003-0.11 1.222-0.188 0.44-0.614 0.628-1.086 0.628-1.275 0-1.275-1.02-1.275-2.038v-4.421h-2.41v8.179h2.425z"/>
   </g>
   <g transform="translate(168.12 532.43)">
    <path d="m0 0c0.661-0.642 1.568-1.118 2.489-1.118 0.586 0 1.476 0.188 1.476 0.799 0 0.282-0.175 0.392-0.319 0.471-0.364 0.187-0.935 0.234-1.412 0.313-0.365 0.063-0.745 0.141-1.107 0.251-0.502 0.14-1.004 0.345-1.366 0.705s-0.614 0.924-0.614 1.536c0 1.347 1.163 2.741 3.468 2.741 1.943 0 3.134-0.777 3.696-1.169l-1.354-1.412c-0.766 0.596-1.659 0.796-2.231 0.796-0.952 0-1.174-0.376-1.174-0.612 0-0.47 0.524-0.564 1.317-0.705 1.658-0.298 3.565-0.736 3.565-2.68 0-1.93-1.938-2.873-3.882-2.873-2.288 0-3.525 1.07-4.043 1.557z"/>
   </g>
   <g transform="translate(181.83 532.46)">
    <path d="m0 0c-0.38-0.632-0.754-1.237-2.074-1.237-1.306 0-1.887 1.029-1.872 2.056h5.863c-0.032 0.929-0.095 2.527-1.163 3.67-1.052 1.13-2.415 1.176-3.063 1.176-3.237 0-4.102-2.538-4.102-4.516 0-2.696 1.585-4.23 4.148-4.23 1.446 0 2.442 0.416 3.206 1.112 0.425 0.387 0.703 0.791 0.988 1.254zm-3.929 2.331c0.078 0.343 0.157 0.718 0.486 1.077 0.237 0.251 0.645 0.532 1.227 0.532 0.424 0 0.881-0.156 1.179-0.453 0.345-0.36 0.408-0.813 0.456-1.156z"/>
   </g>
   <g transform="translate(187.46 536.92)">
    <path d="m0 0c0.534 0.456 1.115 0.926 2.371 1.052v-2.146l-0.801-0.126c-1.162-0.203-1.508-0.594-1.508-1.631v-4.397h-2.409v8.211h2.347z"/>
   </g>
   <g transform="translate(193.41 536.92)">
    <path d="m0 0c0.285 0.33 0.92 1.143 2.346 1.143 1.348 0 1.833-0.503 2.271-0.958 0.475 0.393 1.14 0.958 2.455 0.958 1.349 0 2.037-0.675 2.288-1.178 0.203-0.44 0.22-1.005 0.22-1.883v-5.329h-2.381v4.295c0 0.47 0 1.081-0.095 1.395-0.221 0.689-0.872 0.737-1.062 0.737-0.237 0-0.555-0.063-0.792-0.252-0.46-0.36-0.46-0.83-0.46-1.723v-4.452h-2.381v4.843c0 0.361-0.016 0.847-0.237 1.16-0.191 0.251-0.555 0.424-0.951 0.424-0.191 0-0.445-0.048-0.666-0.189-0.54-0.36-0.555-1.018-0.555-1.574v-4.664h-2.38v8.182h2.38z"/>
   </g>
   <g transform="translate(154.75 527.55)">
    <path d="m0 0c-1.026 0-1.856-0.831-1.856-1.856 0-1.026 0.83-1.857 1.856-1.857 1.025 0 1.857 0.831 1.857 1.857 0 1.025-0.832 1.856-1.857 1.856" fill="#e64415"/>
   </g>
   <g>
    <path d="m146.64 531.47h-1.363v5.629h1.363z" fill="#ee7f00"/>
    <path d="m144.22 534.56h-1.362v5.629h1.362z" fill="#009dd1"/>
    <path d="m144.22 528.39h-1.362v5.629h1.362z" fill="#932683"/>
    <path d="m141.79 535.14h-1.363v5.63h1.363z" fill="#e64415"/>
    <path d="m141.79 527.82h-1.363v5.629h1.363z" fill="#b7b800"/>
    <path d="m139.36 534.56h-1.363v5.629h1.363z" fill="#005595"/>
    <path d="m139.36 528.39h-1.363v5.629h1.363z" fill="#fabb00"/>
    <path d="m136.94 531.47h-1.363v5.629h1.363z" fill="#be1972"/>
   </g>
  </g>
 </g>
</svg>