<svg width="400" height="100" viewBox="0 0 105.833 26.458" xmlns="http://www.w3.org/2000/svg">
  <path d="M32.27 17.35h-4.34V.013h4.34zm7.284-11.327c.37-.396.807-.857 1.478-1.211.567-.3 1.24-.574 2.156-.574.764 0 1.63.149 2.295.516 1.356.71 1.702 1.862 1.702 3.85v8.744h-3.776v-7.202c0-1.15-.023-1.567-.173-1.91-.295-.687-.963-.98-1.704-.98-2.002 0-2.002 1.593-2.002 3.184v6.908h-3.783V4.568h3.807zm11.538 7.015c1.037 1.003 2.461 1.747 3.907 1.747.92 0 2.317-.294 2.317-1.248 0-.441-.275-.613-.5-.736-.572-.293-1.468-.366-2.217-.49a14.57 14.57 0 0 1-1.738-.392c-.788-.218-1.576-.539-2.144-1.101s-.964-1.444-.964-2.4c0-2.105 1.825-4.283 5.444-4.283 3.05 0 4.92 1.214 5.802 1.827l-2.126 2.206c-1.202-.931-2.604-1.244-3.502-1.244-1.494 0-1.843.588-1.843.956 0 .735.823.882 2.068 1.102 2.602.466 5.596 1.15 5.596 4.187 0 3.016-3.042 4.49-6.094 4.49-3.592 0-5.534-1.672-6.347-2.433zm21.522-.047c-.597.988-1.184 1.933-3.256 1.933-2.05 0-2.962-1.608-2.939-3.212h9.204c-.05-1.452-.15-3.949-1.826-5.735-1.651-1.765-3.79-1.837-4.808-1.837-5.081 0-6.44 3.965-6.44 7.056 0 4.212 2.489 6.61 6.512 6.61 2.27 0 3.834-.65 5.033-1.738.667-.605 1.104-1.236 1.551-1.96zM66.446 9.35c.122-.536.246-1.122.763-1.683a2.625 2.625 0 0 1 1.926-.831c.666 0 1.383.244 1.85.708.542.562.641 1.27.717 1.806zm15.006-3.327c.838-.713 1.75-1.447 3.722-1.644v3.353l-1.258.197c-1.824.317-2.367.928-2.367 2.548v6.87h-3.782V4.518h3.685zm9.34 0c.447-.516 1.444-1.786 3.683-1.786 2.116 0 2.877.786 3.565 1.496.745-.614 1.79-1.496 3.854-1.496 2.117 0 3.197 1.054 3.591 1.84.319.688.346 1.57.346 2.942v8.327h-3.738v-6.711c0-.734 0-1.69-.15-2.18-.346-1.076-1.368-1.151-1.666-1.151-.372 0-.871.098-1.244.394-.722.562-.722 1.296-.722 2.692v6.956h-3.737V9.779c0-.564-.025-1.324-.372-1.813-.3-.392-.872-.662-1.493-.662-.3 0-.699.075-1.046.295-.847.563-.871 1.59-.871 2.46v7.287h-3.736V4.562h3.736z" fill="#fff"/>
  <path d="M30.104 20.663a2.906 2.906 0 0 0-2.914 2.9 2.906 2.906 0 0 0 2.914 2.902 2.909 2.909 0 0 0 2.915-2.902c0-1.601-1.306-2.9-2.915-2.9" fill="#e64415"/>
  <path d="M17.372 14.538h-2.14V5.743h2.14z" fill="#ee7f00"/>
  <path d="M13.574 9.71h-2.139V.915h2.139z" fill="#009dd1"/>
  <path d="M13.574 19.35h-2.139v-8.795h2.139z" fill="#932683"/>
  <path d="M9.759 8.804h-2.14V.007h2.14z" fill="#e64415"/>
  <path d="M9.759 20.241h-2.14v-8.795h2.14z" fill="#b7b800"/>
  <path d="M5.944 9.71h-2.14V.915h2.14z" fill="#005595"/>
  <path d="M5.944 19.35h-2.14v-8.795h2.14z" fill="#fabb00"/>
  <path d="M2.145 14.538H.005V5.743h2.14z" fill="#be1972"/>
</svg>
