<?xml version="1.0" encoding="UTF-8" standalone="no"?>
<svg
   xmlns:dc="http://purl.org/dc/elements/1.1/"
   xmlns:cc="http://creativecommons.org/ns#"
   xmlns:rdf="http://www.w3.org/1999/02/22-rdf-syntax-ns#"
   xmlns:svg="http://www.w3.org/2000/svg"
   xmlns="http://www.w3.org/2000/svg"
   xmlns:sodipodi="http://sodipodi.sourceforge.net/DTD/sodipodi-0.dtd"
   xmlns:inkscape="http://www.inkscape.org/namespaces/inkscape"
   data-name="Ebene 1"
   version="1.1"
   viewBox="0 0 155.91 45.301"
   id="svg10"
   sodipodi:docname="Logo_FZ_Juellich_RGB_schutzzone_weiss.svg"
   inkscape:version="0.92.5 (2060ec1f9f, 2020-04-08)">
  <defs
     id="defs14" />
  <sodipodi:namedview
     pagecolor="#ffffff"
     bordercolor="#666666"
     borderopacity="1"
     objecttolerance="10"
     gridtolerance="10"
     guidetolerance="10"
     inkscape:pageopacity="0"
     inkscape:pageshadow="2"
     inkscape:window-width="3840"
     inkscape:window-height="2136"
     id="namedview12"
     showgrid="false"
     inkscape:zoom="3.1941504"
     inkscape:cx="78.581146"
     inkscape:cy="22.650499"
     inkscape:window-x="0"
     inkscape:window-y="0"
     inkscape:window-maximized="1"
     inkscape:current-layer="svg10" />
  <metadata
     id="metadata2">
    <rdf:RDF>
      <cc:Work
         rdf:about="">
        <dc:format>image/svg+xml</dc:format>
        <dc:type
           rdf:resource="http://purl.org/dc/dcmitype/StillImage" />
      </cc:Work>
    </rdf:RDF>
  </metadata>
  <title
     id="title4">Logo_FZ_Juellich_RGB_schutzzone_weiss</title>
  <path
     d="m94.289 36.93h-0.64001a0.23 0.23 0 0 0-0.23 0.24v2.81c0 0.83001-0.42001 1.28-1.06 1.28-0.64001 0-1-0.45-1-1.28v-2.81a0.25 0.25 0 0 0-0.25001-0.24h-0.63a0.24 0.24 0 0 0-0.24 0.24v2.68c0 1.45 0.59 2.35 1.81 2.35a1.51 1.51 0 0 0 1.38-0.66001v0.32a0.23 0.23 0 0 0 0.23 0.24h0.64001a0.24 0.24 0 0 0 0.24-0.24v-4.69a0.24 0.24 0 0 0-0.25-0.24zm-8.0001-0.11a1.58 1.58 0 0 0-1.43 0.70001v-2.41a0.25 0.25 0 0 0-0.25-0.25h-0.63001a0.24 0.24 0 0 0-0.24 0.25v6.7501a0.23 0.23 0 0 0 0.24 0.24h0.67001a0.24 0.24 0 0 0 0.25-0.24v-2.8c0-0.83001 0.45001-1.29 1.1-1.29 0.65001 0 1.09 0.46 1.09 1.29v2.8a0.24 0.24 0 0 0 0.24001 0.24h0.63a0.24 0.24 0 0 0 0.25-0.24v-2.68c-0.01-1.41-0.62-2.36-1.89-2.36zm1.71-28.84h-2.49a0.93001 0.93001 0 0 0-0.93001 0.93001v11.88c0 3.09-1.5 4.41-3.63 4.41s-3.57-1.32-3.57-4.41v-11.88a0.93001 0.93001 0 0 0-0.93-0.93001h-2.49a0.93001 0.93001 0 0 0-0.93001 0.93001v11.88c0 5.2501 3.18 8.4901 7.9201 8.4901s8.0001-3.24 8.0001-8.4901v-11.88a0.93001 0.93001 0 0 0-0.92001-0.93001zm-17.46 29h-0.13001a1.57 1.57 0 0 0-1.38 0.77001v-0.53a0.23 0.23 0 0 0-0.23-0.24h-0.58001a0.24 0.24 0 0 0-0.24 0.24v4.69a0.23 0.23 0 0 0 0.24 0.24h0.62001a0.25 0.25 0 0 0 0.25-0.24v-2.39c0-1 0.44001-1.49 1.31-1.49h0.14001a0.24 0.24 0 0 0 0.25-0.23v-0.63001a0.25 0.25 0 0 0-0.22-0.24zm9.4101 0.84001a1.07 1.07 0 0 1 1.08 0.92001 0.17 0.17 0 0 0 0.17 0.15h0.72001a0.15 0.15 0 0 0 0.15-0.17 0.32 0.32 0 0 0 0-0.13 2.11 2.11 0 0 0-2.1-1.72 2.19 2.19 0 0 0-2.2 2.36v0.67001a2.18 2.18 0 0 0 2.2 2.35 2.07 2.07 0 0 0 2.1-1.66 1.28 1.28 0 0 0 0-0.17 0.16 0.16 0 0 0-0.17-0.16h-0.72001a0.15 0.15 0 0 0-0.16 0.14 1 1 0 0 1-1.07 0.91001c-0.64001 0-1.11-0.45-1.11-1.28v-0.92001c0.03-0.88001 0.5-1.34 1.14-1.34zm-6.6301 0.52c0-0.43 0.39001-0.57 0.84001-0.57a0.88001 0.88001 0 0 1 1 0.64001c0 0.11 0.07 0.16 0.19 0.16h0.65001a0.17 0.17 0 0 0 0.17-0.18 0.44 0.44 0 0 0 0-0.13 1.81 1.81 0 0 0-1.93-1.39c-1 0-2 0.45-2 1.52 0 2.1 2.94 1.23 2.94 2.31 0 0.48-0.36 0.66001-1 0.66001a1 1 0 0 1-1.06-0.69001c0-0.1-0.07-0.17-0.18-0.17h-0.64001a0.19 0.19 0 0 0-0.19 0.17 0.31 0.31 0 0 0 0 0.14 1.89 1.89 0 0 0 2 1.44c1.07 0 2-0.4 2-1.57 0.17-2.12-2.76-1.26-2.76-2.39zm4.66-32.14a2.16 2.16 0 1 0-2.16-2.16 2 2 0 0 0 2.19 2.11zm6.3001 0a2.16 2.16 0 1 0-2.16-2.16 2 2 0 0 0 2.19 2.11zm-15.88 2.76a0.93001 0.93001 0 0 0-0.93001-0.93001h-2.49a0.93001 0.93001 0 0 0-0.93001 0.93001v13.51a2.54 2.54 0 1 1-5.07 0v-0.27a0.93001 0.93001 0 0 0-0.93001-0.93001h-2.4a0.93001 0.93001 0 0 0-0.93001 0.93001v0.21a6.8401 6.8401 0 1 0 13.68 0zm-52.131 10.34 7.3801-19.17a22.7 22.7 0 0 0-22.61 12.2 0.50001 0.50001 0 0 1 0 0.13l-0.32 0.83001c-2.24 5.7901 1.18 10.08 4.5 11.36a8.5501 8.5501 0 0 0 11.05-5.3501zm47.76 17.52a2.2 2.2 0 0 0-2.22 2.36v0.67001a2.23 2.23 0 1 0 4.46 0v-0.67001a2.2 2.2 0 0 0-2.24-2.36zm1.12 3.16c0 0.83001-0.46 1.28-1.12 1.28s-1.1-0.45-1.1-1.28v-0.92001c0-0.83001 0.47-1.29 1.1-1.29s1.12 0.46 1.12 1.29zm-35.5-15.71c-4.4 11.5-15 15.81-24.71 14.15a22.67 22.67 0 1 0 31.77-32.33zm31 10.59h-4a0.24 0.24 0 0 0-0.23 0.25v6.7501a0.23 0.23 0 0 0 0.23 0.24h0.63001a0.24 0.24 0 0 0 0.25-0.24v-2.65h2.5a0.24 0.24 0 0 0 0.24-0.24v-0.55001a0.25 0.25 0 0 0-0.24-0.25h-2.5v-2.27h3.12a0.25 0.25 0 0 0 0.25-0.24v-0.55a0.25 0.25 0 0 0-0.25-0.25zm85.451 2.07h-0.63a0.24 0.24 0 0 0-0.24001 0.24v2.81c0 0.83001-0.42 1.28-1.06 1.28-0.64 0-1-0.45-1-1.28v-2.81a0.25 0.25 0 0 0-0.25-0.24h-0.63001a0.24 0.24 0 0 0-0.24 0.24v2.68c0 1.45 0.59001 2.35 1.81 2.35a1.51 1.51 0 0 0 1.38-0.66001v0.32a0.23 0.23 0 0 0 0.24001 0.24h0.63a0.24 0.24 0 0 0 0.24-0.24v-4.69a0.24 0.24 0 0 0-0.28-0.24zm-10.59-15.45h-3.09c-0.6 0-0.72 0.48-0.78001 0.93001a3.13 3.13 0 0 1-3.42 2.79c-2.19 0-4-1.62-4-4.71v-4c0-3.09 1.77-4.77 4-4.77a3.27 3.27 0 0 1 3.43 2.92c0.09 0.60001 0.42 0.81001 0.75 0.81001h3.06a0.63001 0.63001 0 0 0 0.66001-0.75001 7.5501 7.5501 0 0 0-7.9001-7.0601c-4.8 0-8.3101 3.54-8.3101 8.7901v4c0 5.2501 3.51 8.7901 8.3101 8.7901a7.7101 7.7101 0 0 0 8.0001-7.0801 0.68001 0.68001 0 0 0-0.71001-0.66001zm4.6 15.45h-0.14a1.54 1.54 0 0 0-1.37 0.77001v-0.53a0.24 0.24 0 0 0-0.24001-0.24h-0.58a0.24 0.24 0 0 0-0.24001 0.24v4.69a0.23 0.23 0 0 0 0.24001 0.24h0.62a0.25 0.25 0 0 0 0.25001-0.24v-2.34c0-1 0.44-1.49 1.31-1.49h0.15a0.23 0.23 0 0 0 0.24-0.23v-0.63001a0.24 0.24 0 0 0-0.24-0.24zm-4.69 0h-1.05v-1.1a0.24 0.24 0 0 0-0.24-0.25h-0.61001a0.24 0.24 0 0 0-0.23 0.25v0.45c0 0.53-0.21 0.65001-0.72001 0.65001a0.24 0.24 0 0 0-0.24 0.24v0.47a0.24 0.24 0 0 0 0.24 0.24h0.71001v2.56c0 1.07 0.36001 1.66 1.6 1.66h0.54a0.24 0.24 0 0 0 0.24001-0.24v-0.53a0.23 0.23 0 0 0-0.24001-0.23h-0.36c-0.62001 0-0.69001-0.22-0.69001-0.81001v-2.38h1.05a0.24 0.24 0 0 0 0.23001-0.27v-0.5a0.24 0.24 0 0 0-0.23001-0.21zm18.62-0.11a1.81 1.81 0 0 0-1.61 0.84001 1.64 1.64 0 0 0-1.52-0.84001 1.47 1.47 0 0 0-1.34 0.70001v-0.35a0.25 0.25 0 0 0-0.25001-0.24h-0.67a0.24 0.24 0 0 0-0.24 0.24v4.69a0.23 0.23 0 0 0 0.24 0.24h0.63a0.25 0.25 0 0 0 0.25001-0.24v-2.64c0-0.83001 0.16-1.45 1-1.45s1 0.51 1 1.45v2.64a0.24 0.24 0 0 0 0.24 0.24h0.64001a0.24 0.24 0 0 0 0.24-0.24v-2.64c0-0.89001 0.21-1.45 1.05-1.45s1 0.56 1 1.45v2.64a0.23 0.23 0 0 0 0.24 0.24h0.71001a0.25 0.25 0 0 0 0.25-0.24v-2.53c-0.04-1.49-0.34-2.51-1.86-2.51zm-25 0a1.57 1.57 0 0 0-1.42 0.71001v-0.36a0.24 0.24 0 0 0-0.24-0.24h-0.64a0.23 0.23 0 0 0-0.23001 0.24v4.69a0.23 0.23 0 0 0 0.23001 0.24h0.64a0.24 0.24 0 0 0 0.24-0.24v-2.8c0-0.83001 0.46001-1.29 1.1-1.29 0.64 0 1.1 0.46 1.1 1.29v2.8a0.23 0.23 0 0 0 0.24 0.24h0.59a0.24 0.24 0 0 0 0.24001-0.24v-2.68c0.02-1.41-0.60001-2.36-1.87-2.36zm26-28.84h-2.49a0.93001 0.93001 0 0 0-0.93001 0.93001v7.5001h-7.1701v-7.5001a0.93001 0.93001 0 0 0-0.93-0.93001h-2.49a0.93001 0.93001 0 0 0-0.93001 0.93001v19.14a0.93001 0.93001 0 0 0 0.93001 0.93001h2.49a0.93001 0.93001 0 0 0 0.93-0.93001v-7.5601h7.1101v7.5601a0.93001 0.93001 0 0 0 0.93001 0.93001h2.49a0.93001 0.93001 0 0 0 0.93001-0.93001v-19.14a0.93001 0.93001 0 0 0-0.93001-0.93001zm-55.821 28.84a1.57 1.57 0 0 0-1.42 0.71001v-0.36a0.24 0.24 0 0 0-0.24-0.24h-0.63001a0.24 0.24 0 0 0-0.24 0.24v4.69a0.23 0.23 0 0 0 0.24 0.24h0.63001a0.24 0.24 0 0 0 0.24-0.24v-2.8c0-0.83001 0.46001-1.29 1.1-1.29 0.64001 0 1.1 0.46 1.1 1.29v2.8a0.23 0.23 0 0 0 0.24001 0.24h0.63a0.25 0.25 0 0 0 0.25001-0.24v-2.68c0-1.41-0.62001-2.36-1.9-2.36zm6.6601 4.28h-1.34c-0.35 0-0.5-0.11-0.5-0.37a0.36 0.36 0 0 1 0.41-0.37h1a1.73 1.73 0 0 0 2-1.76v-2.12a0.24 0.24 0 0 0-0.24-0.24h-0.56001a0.24 0.24 0 0 0-0.24 0.24v0.67001a1.87 1.87 0 0 0-1.06-0.33h-0.26a1.77 1.77 0 0 0-2 1.78 1.4 1.4 0 0 0 0.66 1.26 0.83001 0.83001 0 0 0-0.7 0.85001 0.82001 0.82001 0 0 0 0.47 0.79001 1.26 1.26 0 0 0-0.70001 1.19 1.61 1.61 0 0 0 1.83 1.58h1.2a1.6 1.6 0 1 0 0-3.17zm-0.75-3.41h0.28a0.91001 0.91001 0 1 1 0 1.81h-0.28a0.87001 0.87001 0 0 1-1-0.90001 0.88001 0.88001 0 0 1 1-0.91001zm0.54 5.7201h-0.82001c-0.7 0-0.95001-0.28-0.95001-0.72001 0-0.44 0.25001-0.75001 0.95001-0.75001h0.80001c0.71001 0 1 0.29 1 0.75001 0 0.46-0.27 0.72001-1 0.72001zm4.6-5.1201c0-0.43 0.39-0.57001 0.84001-0.57001a0.89001 0.89001 0 0 1 1 0.64001c0 0.11 0.07 0.16 0.18 0.16h0.66001a0.17 0.17 0 0 0 0.17-0.18 0.44 0.44 0 0 0 0-0.13 1.81 1.81 0 0 0-1.93-1.39c-1 0-2 0.45-2 1.52 0 2.1 2.94 1.23 2.94 2.31 0 0.48-0.36001 0.66001-0.95001 0.66001a1 1 0 0 1-1.06-0.69001c0-0.1-0.07-0.17-0.18001-0.17h-0.65a0.18 0.18 0 0 0-0.18 0.17 0.31 0.31 0 0 0 0 0.14 1.88 1.88 0 0 0 2.05 1.44c1.07 0 2-0.4 2-1.57 0.04-2.07-2.89-1.21-2.89-2.34zm-3.11-10.24v-2.22a0.93001 0.93001 0 0 0-0.93001-0.93001h-8.0001v-16a0.93001 0.93001 0 0 0-0.93001-0.93001h-2.49a0.93001 0.93001 0 0 0-0.93001 0.93001v19.15a0.93001 0.93001 0 0 0 0.93001 0.93001h11.4a0.93001 0.93001 0 0 0 0.95001-0.93001zm8.2501 0v-19.14a0.93001 0.93001 0 0 0-0.93001-0.93001h-2.49a0.93001 0.93001 0 0 0-0.93001 0.93001v19.14a0.93001 0.93001 0 0 0 0.93001 0.93001h2.49a0.93001 0.93001 0 0 0 0.93001-0.93001zm3 8.8801h-3.41a0.25 0.25 0 0 0-0.25001 0.24v0.47a0.24 0.24 0 0 0 0.25001 0.24h2.35l-2.41 3.08a0.56001 0.56001 0 0 0-0.19001 0.46v0.42a0.24 0.24 0 0 0 0.25001 0.24h3.41a0.23 0.23 0 0 0 0.24-0.24v-0.47a0.24 0.24 0 0 0-0.24-0.25h-2.39l2.48-3.07a0.53001 0.53001 0 0 0 0.15-0.41v-0.5a0.24 0.24 0 0 0-0.2-0.21zm4-0.11a2.21 2.21 0 0 0-2.24 2.36v0.67001a2.21 2.21 0 0 0 2.25 2.35 2.12 2.12 0 0 0 2-1.37 0.64001 0.64001 0 0 0 0-0.17 0.17 0.17 0 0 0-0.17-0.18h-0.67001a0.3 0.3 0 0 0-0.24 0.15 1 1 0 0 1-1 0.63001 1.14 1.14 0 0 1-1.13-1.23v-0.14h3.07a0.25 0.25 0 0 0 0.37-0.25v-0.48a2.2 2.2 0 0 0-2.19-2.34zm1.12 2.28h-2.24v-0.12a1.12 1.12 0 1 1 2.24 0z"
     fill="#ffffff"
     id="path8" />
</svg>
