<svg xmlns="http://www.w3.org/2000/svg" version="1.2" viewBox="0 0 218.31 196.54" height="262.053" width="291.08"><path d="m44.496 137.16-3.098-5.558c-1.011-1.813-1.382-3.008-1.382-3.008h-.118s.18 1.074.18 3.191v9.703h-3.285v-18.086h3.594l4.02 7.618c.8 1.503 1.046 2.332 1.046 2.332h.121s.215-.829 1.043-2.332l3.992-7.618h3.5v18.086h-3.28v-9.703c0-2.117.151-3.191.151-3.191h-.125s-.34 1.195-1.347 3.008l-3.106 5.558h-1.906M62.219 134.21h5.312l-1.168-3.374c-1.015-2.856-1.41-4.883-1.41-4.883h-.121s-.43 1.996-1.418 4.848Zm6.293 2.735h-7.215l-1.598 4.543h-3.406l6.57-18.086h4.207l6.57 18.086h-3.53l-1.598-4.543M89.973 137.988c-1.625 2.61-3.684 3.867-7.43 3.867-4.758 0-8.043-3.378-8.043-9.394s3.379-9.422 8.57-9.422c3.438 0 5.739 1.531 7 4.422l-3.105 1.531c-.676-2.027-2.024-3.101-4.055-3.101-3.16 0-5.004 2.52-5.004 6.601 0 4.051 1.66 6.45 4.946 6.45 2.027 0 3.41-.833 4.511-2.735l2.61 1.781M94.86 132.492c0 4.051 1.624 6.54 4.85 6.54 3.228 0 4.88-2.489 4.88-6.54 0-4.082-1.653-6.57-4.88-6.57-3.19 0-4.85 2.488-4.85 6.57Zm10.253 13.723c-4.207.062-6.418-1.903-7.34-4.543-3.957-.738-6.355-3.992-6.355-9.211 0-6.047 3.195-9.422 8.293-9.422 5.098 0 8.289 3.375 8.289 9.422 0 5.465-2.61 8.75-6.879 9.305 1.23 1.226 3.102 1.714 4.942 1.566l-.95 2.883M124.922 123.402v12.13c0 4.757-3.442 6.323-7.156 6.323-3.688 0-7.121-1.566-7.121-6.324v-12.129h3.285v11.239c0 3.039 1.226 4.515 3.836 4.515 2.64 0 3.867-1.476 3.867-4.484v-11.27h3.289M132.164 134.21h5.316l-1.167-3.374c-1.012-2.856-1.41-4.883-1.41-4.883h-.126s-.425 1.996-1.414 4.848Zm6.297 2.735h-7.215l-1.598 4.543h-3.41l6.575-18.086h4.207l6.57 18.086h-3.531l-1.598-4.543M149.059 131.754h3.097c2.055 0 3.07-.86 3.07-2.793 0-1.781-.984-2.793-3.07-2.793h-3.097Zm6.84 9.734c-.493-.46-.704-1.011-.852-1.75l-.715-2.976c-.488-1.938-1.437-2.305-3.07-2.305h-2.203v7.031h-3.29v-18.086h6.54c4.117 0 6.324 1.66 6.324 5.285 0 2.82-1.813 4.329-4.113 4.512v.059c1.69.246 2.609.984 3.097 2.828l.922 3.5c.188.703.465 1.32.953 1.902h-3.594M165.664 123.402v18.086h-3.281v-18.086h3.281M181.512 141.488h-11.489v-18.086h11.489v2.856h-8.2v4.762h7.247v2.792h-7.246v4.82h8.199v2.856M65.465 147.7h1.61v9.066c0 2.132-.345 3.543-1.02 4.226-.72.723-1.637 1.09-2.746 1.09-1.149 0-2.082-.39-2.782-1.168-.379-.414-.636-.937-.77-1.578-.132-.637-.206-1.656-.206-3.05v-8.587h1.472v-1.066h-5.367v1.066h1.614v9.047c0 2.215.468 3.832 1.402 4.86.933 1.027 2.41 1.542 4.422 1.542 1.957 0 3.406-.582 4.34-1.742.511-.633.843-1.289 1.007-1.969.16-.683.25-1.773.25-3.265v-8.473h1.606v-1.066h-4.832v1.066M82.652 154.41c0-1.168-.285-2.086-.859-2.754-.578-.672-1.375-1.004-2.387-1.004-.875 0-1.668.207-2.383.621-.707.418-1.34 1.04-1.878 1.872v-2.22h-3.766V152h1.61v9.668h-1.61v1.074h5.379v-1.074h-1.613v-7.523c.574-.625 1.16-1.098 1.746-1.41.582-.317 1.175-.473 1.765-.473.688 0 1.168.183 1.438.55.27.368.402 1.012.402 1.934v6.922h-1.605v1.074h5.379v-1.074h-1.618v-7.258M89.34 150.926h-3.766V152h1.606v9.668h-1.606v1.074h5.375v-1.074h-1.61v-10.742M89.34 146.633h-2.16v2.148h2.16v-2.148M99.742 152h1.613l-3.593 8.055L94.406 152h1.625v-1.074h-4.886V152h.949l4.511 10.875h1.079L102.53 152h.946v-1.074h-3.735V152M110.805 155.484h-4.903c.078-1.257.344-2.195.785-2.824.446-.629 1.07-.941 1.883-.941 1.489 0 2.235 1.164 2.235 3.492Zm-2.114-4.832c-1.527 0-2.773.567-3.742 1.692-.972 1.129-1.46 2.586-1.46 4.363 0 1.86.538 3.379 1.616 4.55 1.086 1.173 2.493 1.759 4.215 1.759 1.14 0 2.395-.27 3.754-.805v-1.61c-1.125.626-2.27.934-3.441.934-1.215 0-2.164-.437-2.848-1.32-.68-.88-1.023-2.094-1.023-3.653h7.312v-.406c0-1.77-.379-3.129-1.136-4.082-.754-.949-1.84-1.422-3.247-1.422M118.957 153.145v-2.22h-3.766V152h1.614v9.668h-1.614v1.074h5.375v-1.074h-1.609v-7.523c.992-1.075 1.945-1.61 2.871-1.61h.352v1.207h1.336v-2.953a1.851 1.851 0 0 0-.707-.137c-1.606 0-2.887.832-3.852 2.493M130.555 156.176l-1-.414c-.996-.407-1.668-.766-2.016-1.075a1.472 1.472 0 0 1-.52-1.16c0-.507.192-.937.575-1.285.386-.347.86-.523 1.426-.523.37 0 .742.066 1.125.203.378.133.773.336 1.171.605v1.36h1.34v-2.559c-.61-.23-1.215-.402-1.816-.512a9.867 9.867 0 0 0-1.778-.164c-1.175 0-2.148.313-2.914.938-.761.625-1.144 1.418-1.144 2.379 0 1.539 1.121 2.746 3.36 3.617l1.1.426c1.259.488 1.888 1.16 1.888 2.02 0 .566-.22 1.03-.653 1.382-.43.36-.988.535-1.68.535-.43 0-.87-.09-1.328-.273a6.24 6.24 0 0 1-1.418-.809v-1.344h-1.335v2.622a9.04 9.04 0 0 0 1.953.652 9.514 9.514 0 0 0 2.066.219c1.344 0 2.438-.332 3.277-.996.84-.665 1.258-1.524 1.258-2.575 0-.765-.219-1.39-.644-1.87-.434-.485-1.2-.95-2.293-1.4M138.883 146.633h-2.156v2.148h2.156v-2.148M138.883 150.926h-3.77V152h1.614v9.668h-1.614v1.074h5.38v-1.074h-1.61v-10.742M149.602 160.105h-1.176s-.016 1.192-1.074 1.606a1.633 1.633 0 0 1-.512.098c-.465 0-.813-.207-1.043-.621-.234-.415-.352-1.032-.352-1.852v-7.375h3.02v-1.035h-3.02v-2.68l-2.156.535v2.145h-1.61v1.035h1.61v7.094c0 1.363.281 2.367.86 3.004.578.64 1.44.957 2.48.957.168 0 .34-.02.504-.047 0 0 .054-.008.137-.028.03-.007.058-.011.09-.02a2.507 2.507 0 0 0 .374-.128c.059-.02.118-.047.172-.074.031-.012.067-.024.094-.04v-.007c.664-.34 1.48-1.059 1.602-2.567" style="stroke:none;fill-rule:nonzero;fill:#040606;fill-opacity:1"/><path d="M158.41 150.977v1.078h1.606l-3.582 8.043-3.344-8.043h1.62v-1.078h-4.89v1.078h.942l4.515 10.894a9.771 9.771 0 0 1-.586 1.16c-.402.668-.824 1.262-1.543 1.614a2.908 2.908 0 0 1-1.253.304c-.47 0-.93-.187-1.34-.402v-.988h-1.11v2.058c.184.125.602.223 1.024.293.582.102 1.187.149 1.773.086.91-.097 1.7-.465 2.332-1.12.457-.474.95-1.349 1.285-1.915.102-.16.16-.316.207-.469l.286-.644 4.847-10.871h.95v-1.078h-3.739" style="stroke:none;fill-rule:nonzero;fill:#040606;fill-opacity:1"/><path d="m115.754 75.734 6.789 3.922h.484l-.047.246 22.97 13.262V50.676l-30.196 17.433v7.625" style="stroke:none;fill-rule:nonzero;fill:#dc1c2c;fill-opacity:1"/><path d="m95.762 79.656 6.793-3.922V68.11l-30.2-17.433v42.488L95.367 79.88l-.05-.223h.445" style="stroke:none;fill-rule:nonzero;fill:#6a1a2d;fill-opacity:1"/><path d="m109.152 29.434 36.797 21.242V29.434Zm0 0" style="stroke:none;fill-rule:nonzero;fill:#dc1c2c;fill-opacity:1"/><path d="M72.355 29.434v21.242l36.797-21.242ZM124.27 85.598v2.62h-1.243c-1.175.684-1.949 1.848-2.28 3.665h-1.31l.16 2.894.716 13.192 25.636-14.805-22.969-13.262-1.28 5.696h2.57M122.543 79.656l-6.79-3.922v3.922Zm0 0" style="stroke:none;fill-rule:nonzero;fill:#6a1a2d;fill-opacity:1"/><path d="m96.629 85.598-1.262-5.72-23.012 13.286 25.637 14.805.875-16.086H97.56c-.332-1.817-1.094-2.98-2.282-3.664h-1.234v-2.621h2.586M102.555 75.734l-6.793 3.922h6.793Zm0 0" style="stroke:none;fill-rule:nonzero;fill:#dc1c2c;fill-opacity:1"/><path d="M109.988 55.578c.164 0 .325-.02.48-.058a1.92 1.92 0 0 0 .575-1.36 1.894 1.894 0 0 0-2.367-1.824 1.888 1.888 0 0 0 1.313 3.242M112.14 92.445c-5.32.067-6.82 3.305-6.82 3.305l-.312.664-.535 15.297 4.68 2.7 11.16-6.442-.715-13.192c-.09-.168-1.41-2.41-7.457-2.332" style="stroke:none;fill-rule:nonzero;fill:#fff;fill-opacity:1"/><path d="M94.043 85.598v2.62h1.234c1.188.684 1.95 1.848 2.282 3.665h1.308l-.875 16.086 6.48 3.742.536-15.297.312-.664s1.5-3.238 6.82-3.305c6.047-.078 7.368 2.164 7.458 2.332l-.16-2.894h1.308c.332-1.817 1.106-2.98 2.281-3.664h1.243v-2.621H94.043" style="stroke:none;fill-rule:nonzero;fill:#bdbcbc;fill-opacity:1"/><path d="M110.426 103.242c0-.476-.574-1.27-1.278-1.27-.699 0-1.253.794-1.265 1.27v3.297h2.543v-3.297" style="stroke:none;fill-rule:nonzero;fill:#bdbcbc;fill-opacity:1"/><path d="M104.29 65.797v1.871l4.862 2.805 4.871-2.809v-1.867h-9.734M109.152 73.379l-4.863 2.808v1.872h9.734V76.19l-4.87-2.812M115.754 64.215h.516a.79.79 0 0 1 .789.789.795.795 0 0 1-.79.793h-.515v2.312l30.195-17.433-36.797-21.242v22.84c1.04 0 1.891.847 1.891 1.886 0 .508-.207.973-.531 1.317a.085.085 0 0 0-.02.015c-.012.012-.015.02-.023.028.004-.004.011-.012.015-.02-.28.27-.464.64-.464 1.066 0 .504.25.954.628 1.23a6.609 6.609 0 0 1 5.106 6.419" style="stroke:none;fill-rule:nonzero;fill:#6a1a2d;fill-opacity:1"/><path d="M109.152 78.059h-4.863v-1.871l4.863-2.81h.004-.004v-2.905l-4.863-2.805v-1.871h2.145c-.145-.059-.254-.399-.254-.793 0-.438.132-.79.297-.79h.195c.004-3.64 1.11-6.593 2.48-6.593.516 0 1.016.063 1.493.176a1.535 1.535 0 0 1-.625-1.23c0-.415.175-.778.449-1.047-.156.039-.317.058-.48.058a1.888 1.888 0 0 1-1.313-3.242 1.886 1.886 0 0 0-.875 3.14c.293.27.484.653.484 1.09 0 .504-.246.957-.62 1.239a6.592 6.592 0 0 0-5.11 6.41h-.516a.787.787 0 0 0-.785.793c0 .433.348.793.785.789h.516v13.855h6.597V78.06" style="stroke:none;fill-rule:nonzero;fill:#bdbcbc;fill-opacity:1"/><path d="M109.152 70.473v2.906l4.871 2.808v1.868h-4.87v1.597H95.315l1.313 5.942h25.07l1.328-5.942h-7.273V65.797h.516c.433 0 .789-.36.789-.793a.79.79 0 0 0-.79-.79h-.515a6.607 6.607 0 0 0-6.602-6.593c-1.37 0-2.476 2.953-2.48 6.594h-.195c-.165 0-.297.351-.297.789 0 .394.11.734.254.793h7.59v1.863l-4.872 2.813" style="stroke:none;fill-rule:nonzero;fill:#fff;fill-opacity:1"/><path d="m104.29 70.11 3.124 1.808-3.133 1.812Zm0 0" style="stroke:none;fill-rule:nonzero;fill:#6a1a2d;fill-opacity:1"/><path d="m114.023 70.11-3.128 1.816 3.128 1.804Zm0 0" style="stroke:none;fill-rule:nonzero;fill:#dc1c2c;fill-opacity:1"/><path d="m122.848 52.473-2.817 2.601.278-3.816-3.79-.582 3.168-2.164-1.914-3.32 3.665 1.12 1.41-3.558 1.398 3.559 3.664-1.122-1.906 3.32 3.16 2.165-3.789.582.29 3.816-2.817-2.601" style="stroke:none;fill-rule:nonzero;fill:#fff;fill-opacity:1"/><path d="M102.04 65.797a.784.784 0 0 1-.786-.79c0-.437.348-.792.785-.792h.516a6.592 6.592 0 0 1 5.11-6.41c.374-.282.62-.735.62-1.239 0-.437-.191-.82-.484-1.09a1.886 1.886 0 0 1 1.352-3.203v-22.84L72.354 50.677l30.2 17.433v-2.312h-.516" style="stroke:none;fill-rule:nonzero;fill:#dc1c2c;fill-opacity:1"/><path d="M103.32 84.402h1.91l-.253-3.558h-2.11l.453 3.558M106.523 84.402h2.528v-3.558h-2.778l.25 3.558" style="stroke:none;fill-rule:nonzero;fill:#bdbcbc;fill-opacity:1"/><path d="M100.246 84.402h1.774l-.457-3.558H99.57l.676 3.558M97.586 84.402h1.34l-.672-3.558h-1.45l.782 3.558" style="stroke:none;fill-rule:nonzero;fill:#dc1c2c;fill-opacity:1"/><path d="M116.29 84.402h1.772l.672-3.558h-1.996l-.449 3.558M119.379 84.402h1.39l.786-3.558h-1.504l-.672 3.558" style="stroke:none;fill-rule:nonzero;fill:#6a1a2d;fill-opacity:1"/></svg>