<?xml version="1.0" encoding="UTF-8" standalone="no"?>
<svg
   xmlns:dc="http://purl.org/dc/elements/1.1/"
   xmlns:cc="http://creativecommons.org/ns#"
   xmlns:rdf="http://www.w3.org/1999/02/22-rdf-syntax-ns#"
   xmlns:svg="http://www.w3.org/2000/svg"
   xmlns="http://www.w3.org/2000/svg"
   id="svg99"
   version="1.2"
   viewBox="0 0 218.31 196.54"
   height="196.54pt"
   width="218.31pt">
  <metadata
     id="metadata105">
    <rdf:RDF>
      <cc:Work
         rdf:about="">
        <dc:format>image/svg+xml</dc:format>
        <dc:type
           rdf:resource="http://purl.org/dc/dcmitype/StillImage" />
        <dc:title></dc:title>
      </cc:Work>
    </rdf:RDF>
  </metadata>
  <defs
     id="defs103" />
  <g
     id="surface338">
    <path
       id="path2"
       d="M 44.496094 137.160156 L 41.398438 131.601562 C 40.386719 129.789062 40.015625 128.59375 40.015625 128.59375 L 39.898438 128.59375 C 39.898438 128.59375 40.078125 129.667969 40.078125 131.785156 L 40.078125 141.488281 L 36.792969 141.488281 L 36.792969 123.402344 L 40.386719 123.402344 L 44.40625 131.019531 C 45.207031 132.523438 45.453125 133.351562 45.453125 133.351562 L 45.574219 133.351562 C 45.574219 133.351562 45.789062 132.523438 46.617188 131.019531 L 50.609375 123.402344 L 54.109375 123.402344 L 54.109375 141.488281 L 50.828125 141.488281 L 50.828125 131.785156 C 50.828125 129.667969 50.980469 128.59375 50.980469 128.59375 L 50.855469 128.59375 C 50.855469 128.59375 50.515625 129.789062 49.507812 131.601562 L 46.402344 137.160156 L 44.496094 137.160156 "
       style=" stroke:none;fill-rule:nonzero;fill:rgb(1.713562%,2.252197%,2.304077%);fill-opacity:1;" />
    <path
       id="path4"
       d="M 62.21875 134.210938 L 67.53125 134.210938 L 66.363281 130.835938 C 65.347656 127.980469 64.953125 125.953125 64.953125 125.953125 L 64.832031 125.953125 C 64.832031 125.953125 64.402344 127.949219 63.414062 130.800781 Z M 68.511719 136.945312 L 61.296875 136.945312 L 59.699219 141.488281 L 56.292969 141.488281 L 62.863281 123.402344 L 67.070312 123.402344 L 73.640625 141.488281 L 70.109375 141.488281 L 68.511719 136.945312 "
       style=" stroke:none;fill-rule:nonzero;fill:rgb(1.713562%,2.252197%,2.304077%);fill-opacity:1;" />
    <path
       id="path6"
       d="M 89.972656 137.988281 C 88.347656 140.597656 86.289062 141.855469 82.542969 141.855469 C 77.785156 141.855469 74.5 138.476562 74.5 132.460938 C 74.5 126.445312 77.878906 123.039062 83.070312 123.039062 C 86.507812 123.039062 88.808594 124.570312 90.070312 127.460938 L 86.964844 128.992188 C 86.289062 126.964844 84.941406 125.890625 82.910156 125.890625 C 79.75 125.890625 77.90625 128.410156 77.90625 132.492188 C 77.90625 136.542969 79.566406 138.941406 82.851562 138.941406 C 84.878906 138.941406 86.261719 138.109375 87.363281 136.207031 L 89.972656 137.988281 "
       style=" stroke:none;fill-rule:nonzero;fill:rgb(1.713562%,2.252197%,2.304077%);fill-opacity:1;" />
    <path
       id="path8"
       d="M 94.859375 132.492188 C 94.859375 136.542969 96.484375 139.03125 99.710938 139.03125 C 102.9375 139.03125 104.589844 136.542969 104.589844 132.492188 C 104.589844 128.410156 102.9375 125.921875 99.710938 125.921875 C 96.519531 125.921875 94.859375 128.410156 94.859375 132.492188 Z M 105.113281 146.214844 C 100.90625 146.277344 98.695312 144.3125 97.773438 141.671875 C 93.816406 140.933594 91.417969 137.679688 91.417969 132.460938 C 91.417969 126.414062 94.613281 123.039062 99.710938 123.039062 C 104.808594 123.039062 108 126.414062 108 132.460938 C 108 137.925781 105.390625 141.210938 101.121094 141.765625 C 102.351562 142.992188 104.222656 143.480469 106.0625 143.332031 L 105.113281 146.214844 "
       style=" stroke:none;fill-rule:nonzero;fill:rgb(1.713562%,2.252197%,2.304077%);fill-opacity:1;" />
    <path
       id="path10"
       d="M 124.921875 123.402344 L 124.921875 135.53125 C 124.921875 140.289062 121.480469 141.855469 117.765625 141.855469 C 114.078125 141.855469 110.644531 140.289062 110.644531 135.53125 L 110.644531 123.402344 L 113.929688 123.402344 L 113.929688 134.640625 C 113.929688 137.679688 115.15625 139.15625 117.765625 139.15625 C 120.40625 139.15625 121.632812 137.679688 121.632812 134.671875 L 121.632812 123.402344 L 124.921875 123.402344 "
       style=" stroke:none;fill-rule:nonzero;fill:rgb(1.713562%,2.252197%,2.304077%);fill-opacity:1;" />
    <path
       id="path12"
       d="M 132.164062 134.210938 L 137.480469 134.210938 L 136.3125 130.835938 C 135.300781 127.980469 134.902344 125.953125 134.902344 125.953125 L 134.777344 125.953125 C 134.777344 125.953125 134.351562 127.949219 133.363281 130.800781 Z M 138.460938 136.945312 L 131.246094 136.945312 L 129.648438 141.488281 L 126.238281 141.488281 L 132.8125 123.402344 L 137.019531 123.402344 L 143.589844 141.488281 L 140.058594 141.488281 L 138.460938 136.945312 "
       style=" stroke:none;fill-rule:nonzero;fill:rgb(1.713562%,2.252197%,2.304077%);fill-opacity:1;" />
    <path
       id="path14"
       d="M 149.058594 131.753906 L 152.15625 131.753906 C 154.210938 131.753906 155.226562 130.894531 155.226562 128.960938 C 155.226562 127.179688 154.242188 126.167969 152.15625 126.167969 L 149.058594 126.167969 Z M 155.898438 141.488281 C 155.40625 141.027344 155.195312 140.476562 155.046875 139.738281 L 154.332031 136.761719 C 153.84375 134.824219 152.894531 134.457031 151.261719 134.457031 L 149.058594 134.457031 L 149.058594 141.488281 L 145.769531 141.488281 L 145.769531 123.402344 L 152.308594 123.402344 C 156.425781 123.402344 158.632812 125.0625 158.632812 128.6875 C 158.632812 131.507812 156.820312 133.015625 154.519531 133.199219 L 154.519531 133.257812 C 156.210938 133.503906 157.128906 134.242188 157.617188 136.085938 L 158.539062 139.585938 C 158.726562 140.289062 159.003906 140.90625 159.492188 141.488281 L 155.898438 141.488281 "
       style=" stroke:none;fill-rule:nonzero;fill:rgb(1.713562%,2.252197%,2.304077%);fill-opacity:1;" />
    <path
       id="path16"
       d="M 165.664062 123.402344 L 165.664062 141.488281 L 162.382812 141.488281 L 162.382812 123.402344 L 165.664062 123.402344 "
       style=" stroke:none;fill-rule:nonzero;fill:rgb(1.713562%,2.252197%,2.304077%);fill-opacity:1;" />
    <path
       id="path18"
       d="M 181.511719 141.488281 L 170.023438 141.488281 L 170.023438 123.402344 L 181.511719 123.402344 L 181.511719 126.257812 L 173.3125 126.257812 L 173.3125 131.019531 L 180.558594 131.019531 L 180.558594 133.8125 L 173.3125 133.8125 L 173.3125 138.632812 L 181.511719 138.632812 L 181.511719 141.488281 "
       style=" stroke:none;fill-rule:nonzero;fill:rgb(1.713562%,2.252197%,2.304077%);fill-opacity:1;" />
    <path
       id="path20"
       d="M 65.464844 147.699219 L 67.074219 147.699219 L 67.074219 156.765625 C 67.074219 158.898438 66.730469 160.308594 66.054688 160.992188 C 65.335938 161.714844 64.417969 162.082031 63.308594 162.082031 C 62.160156 162.082031 61.226562 161.691406 60.527344 160.914062 C 60.148438 160.5 59.890625 159.976562 59.757812 159.335938 C 59.625 158.699219 59.550781 157.679688 59.550781 156.285156 L 59.550781 147.699219 L 61.023438 147.699219 L 61.023438 146.632812 L 55.65625 146.632812 L 55.65625 147.699219 L 57.269531 147.699219 L 57.269531 156.746094 C 57.269531 158.960938 57.738281 160.578125 58.671875 161.605469 C 59.605469 162.632812 61.082031 163.148438 63.09375 163.148438 C 65.050781 163.148438 66.5 162.566406 67.433594 161.40625 C 67.945312 160.773438 68.277344 160.117188 68.441406 159.4375 C 68.601562 158.753906 68.691406 157.664062 68.691406 156.171875 L 68.691406 147.699219 L 70.296875 147.699219 L 70.296875 146.632812 L 65.464844 146.632812 L 65.464844 147.699219 "
       style=" stroke:none;fill-rule:nonzero;fill:rgb(1.713562%,2.252197%,2.304077%);fill-opacity:1;" />
    <path
       id="path22"
       d="M 82.652344 154.410156 C 82.652344 153.242188 82.367188 152.324219 81.792969 151.65625 C 81.214844 150.984375 80.417969 150.652344 79.40625 150.652344 C 78.53125 150.652344 77.738281 150.859375 77.023438 151.273438 C 76.316406 151.691406 75.683594 152.3125 75.144531 153.144531 L 75.144531 150.925781 L 71.378906 150.925781 L 71.378906 152 L 72.988281 152 L 72.988281 161.667969 L 71.378906 161.667969 L 71.378906 162.742188 L 76.757812 162.742188 L 76.757812 161.667969 L 75.144531 161.667969 L 75.144531 154.144531 C 75.71875 153.519531 76.304688 153.046875 76.890625 152.734375 C 77.472656 152.417969 78.066406 152.261719 78.65625 152.261719 C 79.34375 152.261719 79.824219 152.445312 80.09375 152.8125 C 80.363281 153.179688 80.496094 153.824219 80.496094 154.746094 L 80.496094 161.667969 L 78.890625 161.667969 L 78.890625 162.742188 L 84.269531 162.742188 L 84.269531 161.667969 L 82.652344 161.667969 L 82.652344 154.410156 "
       style=" stroke:none;fill-rule:nonzero;fill:rgb(1.713562%,2.252197%,2.304077%);fill-opacity:1;" />
    <path
       id="path24"
       d="M 89.339844 150.925781 L 85.574219 150.925781 L 85.574219 152 L 87.179688 152 L 87.179688 161.667969 L 85.574219 161.667969 L 85.574219 162.742188 L 90.949219 162.742188 L 90.949219 161.667969 L 89.339844 161.667969 L 89.339844 150.925781 "
       style=" stroke:none;fill-rule:nonzero;fill:rgb(1.713562%,2.252197%,2.304077%);fill-opacity:1;" />
    <path
       id="path26"
       d="M 89.339844 146.632812 L 87.179688 146.632812 L 87.179688 148.78125 L 89.339844 148.78125 L 89.339844 146.632812 "
       style=" stroke:none;fill-rule:nonzero;fill:rgb(1.713562%,2.252197%,2.304077%);fill-opacity:1;" />
    <path
       id="path28"
       d="M 99.742188 152 L 101.355469 152 L 97.761719 160.054688 L 94.40625 152 L 96.03125 152 L 96.03125 150.925781 L 91.144531 150.925781 L 91.144531 152 L 92.09375 152 L 96.605469 162.875 L 97.683594 162.875 L 102.53125 152 L 103.476562 152 L 103.476562 150.925781 L 99.742188 150.925781 L 99.742188 152 "
       style=" stroke:none;fill-rule:nonzero;fill:rgb(1.713562%,2.252197%,2.304077%);fill-opacity:1;" />
    <path
       id="path30"
       d="M 110.804688 155.484375 L 105.902344 155.484375 C 105.980469 154.226562 106.246094 153.289062 106.6875 152.660156 C 107.132812 152.03125 107.757812 151.71875 108.570312 151.71875 C 110.058594 151.71875 110.804688 152.882812 110.804688 155.210938 Z M 108.691406 150.652344 C 107.164062 150.652344 105.917969 151.21875 104.949219 152.34375 C 103.976562 153.472656 103.488281 154.929688 103.488281 156.707031 C 103.488281 158.566406 104.027344 160.085938 105.105469 161.257812 C 106.191406 162.429688 107.597656 163.015625 109.320312 163.015625 C 110.460938 163.015625 111.714844 162.746094 113.074219 162.210938 L 113.074219 160.601562 C 111.949219 161.226562 110.804688 161.535156 109.632812 161.535156 C 108.417969 161.535156 107.46875 161.097656 106.785156 160.214844 C 106.105469 159.335938 105.761719 158.121094 105.761719 156.5625 L 113.074219 156.5625 L 113.074219 156.15625 C 113.074219 154.386719 112.695312 153.027344 111.9375 152.074219 C 111.183594 151.125 110.097656 150.652344 108.691406 150.652344 "
       style=" stroke:none;fill-rule:nonzero;fill:rgb(1.713562%,2.252197%,2.304077%);fill-opacity:1;" />
    <path
       id="path32"
       d="M 118.957031 153.144531 L 118.957031 150.925781 L 115.191406 150.925781 L 115.191406 152 L 116.804688 152 L 116.804688 161.667969 L 115.191406 161.667969 L 115.191406 162.742188 L 120.566406 162.742188 L 120.566406 161.667969 L 118.957031 161.667969 L 118.957031 154.144531 C 119.949219 153.070312 120.902344 152.535156 121.828125 152.535156 L 122.179688 152.535156 L 122.179688 153.742188 L 123.515625 153.742188 L 123.515625 150.789062 C 123.285156 150.695312 123.050781 150.652344 122.808594 150.652344 C 121.203125 150.652344 119.921875 151.484375 118.957031 153.144531 "
       style=" stroke:none;fill-rule:nonzero;fill:rgb(1.713562%,2.252197%,2.304077%);fill-opacity:1;" />
    <path
       id="path34"
       d="M 130.554688 156.175781 L 129.554688 155.761719 C 128.558594 155.355469 127.886719 154.996094 127.539062 154.6875 C 127.1875 154.378906 127.019531 153.992188 127.019531 153.527344 C 127.019531 153.019531 127.210938 152.589844 127.59375 152.242188 C 127.980469 151.894531 128.453125 151.71875 129.019531 151.71875 C 129.390625 151.71875 129.761719 151.785156 130.144531 151.921875 C 130.523438 152.054688 130.917969 152.257812 131.316406 152.527344 L 131.316406 153.886719 L 132.65625 153.886719 L 132.65625 151.328125 C 132.046875 151.097656 131.441406 150.925781 130.839844 150.816406 C 130.242188 150.707031 129.648438 150.652344 129.0625 150.652344 C 127.886719 150.652344 126.914062 150.964844 126.148438 151.589844 C 125.386719 152.214844 125.003906 153.007812 125.003906 153.96875 C 125.003906 155.507812 126.125 156.714844 128.363281 157.585938 L 129.464844 158.011719 C 130.722656 158.5 131.351562 159.171875 131.351562 160.03125 C 131.351562 160.597656 131.132812 161.0625 130.699219 161.414062 C 130.269531 161.773438 129.710938 161.949219 129.019531 161.949219 C 128.589844 161.949219 128.148438 161.859375 127.691406 161.675781 C 127.230469 161.496094 126.761719 161.226562 126.273438 160.867188 L 126.273438 159.523438 L 124.9375 159.523438 L 124.9375 162.144531 C 125.566406 162.4375 126.222656 162.65625 126.890625 162.796875 C 127.5625 162.945312 128.246094 163.015625 128.957031 163.015625 C 130.300781 163.015625 131.394531 162.683594 132.234375 162.019531 C 133.074219 161.355469 133.492188 160.496094 133.492188 159.445312 C 133.492188 158.679688 133.273438 158.054688 132.847656 157.574219 C 132.414062 157.089844 131.648438 156.625 130.554688 156.175781 "
       style=" stroke:none;fill-rule:nonzero;fill:rgb(1.713562%,2.252197%,2.304077%);fill-opacity:1;" />
    <path
       id="path36"
       d="M 138.882812 146.632812 L 136.726562 146.632812 L 136.726562 148.78125 L 138.882812 148.78125 L 138.882812 146.632812 "
       style=" stroke:none;fill-rule:nonzero;fill:rgb(1.713562%,2.252197%,2.304077%);fill-opacity:1;" />
    <path
       id="path38"
       d="M 138.882812 150.925781 L 135.113281 150.925781 L 135.113281 152 L 136.726562 152 L 136.726562 161.667969 L 135.113281 161.667969 L 135.113281 162.742188 L 140.492188 162.742188 L 140.492188 161.667969 L 138.882812 161.667969 L 138.882812 150.925781 "
       style=" stroke:none;fill-rule:nonzero;fill:rgb(1.713562%,2.252197%,2.304077%);fill-opacity:1;" />
    <path
       id="path40"
       d="M 149.601562 160.105469 L 148.425781 160.105469 C 148.425781 160.105469 148.410156 161.296875 147.351562 161.710938 C 147.164062 161.773438 146.996094 161.808594 146.839844 161.808594 C 146.375 161.808594 146.027344 161.601562 145.796875 161.1875 C 145.5625 160.773438 145.445312 160.15625 145.445312 159.335938 L 145.445312 151.960938 L 148.464844 151.960938 L 148.464844 150.925781 L 145.445312 150.925781 L 145.445312 148.246094 L 143.289062 148.78125 L 143.289062 150.925781 L 141.679688 150.925781 L 141.679688 151.960938 L 143.289062 151.960938 L 143.289062 159.054688 C 143.289062 160.417969 143.570312 161.421875 144.148438 162.058594 C 144.726562 162.699219 145.589844 163.015625 146.628906 163.015625 C 146.796875 163.015625 146.96875 162.996094 147.132812 162.96875 C 147.132812 162.96875 147.1875 162.960938 147.269531 162.941406 C 147.300781 162.933594 147.328125 162.929688 147.359375 162.921875 C 147.433594 162.902344 147.515625 162.878906 147.609375 162.84375 C 147.652344 162.828125 147.695312 162.8125 147.734375 162.792969 C 147.792969 162.773438 147.851562 162.746094 147.90625 162.71875 C 147.9375 162.707031 147.972656 162.695312 148 162.679688 L 148 162.671875 C 148.664062 162.332031 149.480469 161.613281 149.601562 160.105469 "
       style=" stroke:none;fill-rule:nonzero;fill:rgb(1.713562%,2.252197%,2.304077%);fill-opacity:1;" />
    <path
       id="path42"
       d="M 158.410156 150.976562 L 158.410156 152.054688 L 160.015625 152.054688 L 156.433594 160.097656 L 153.089844 152.054688 L 154.710938 152.054688 L 154.710938 150.976562 L 149.820312 150.976562 L 149.820312 152.054688 L 150.761719 152.054688 L 155.277344 162.949219 C 155.105469 163.351562 154.910156 163.742188 154.691406 164.109375 C 154.289062 164.777344 153.867188 165.371094 153.148438 165.722656 C 152.765625 165.910156 152.324219 166.027344 151.894531 166.027344 C 151.425781 166.027344 150.964844 165.839844 150.554688 165.625 L 150.554688 164.636719 L 149.445312 164.636719 L 149.445312 166.695312 C 149.628906 166.820312 150.046875 166.917969 150.46875 166.988281 C 151.050781 167.089844 151.65625 167.136719 152.242188 167.074219 C 153.152344 166.976562 153.941406 166.609375 154.574219 165.953125 C 155.03125 165.480469 155.523438 164.605469 155.859375 164.039062 C 155.960938 163.878906 156.019531 163.722656 156.066406 163.570312 L 156.351562 162.925781 L 161.199219 152.054688 L 162.148438 152.054688 L 162.148438 150.976562 L 158.410156 150.976562 "
       style=" stroke:none;fill-rule:nonzero;fill:rgb(1.713562%,2.252197%,2.304077%);fill-opacity:1;" />
    <path
       id="path44"
       d="M 115.753906 75.734375 L 122.542969 79.65625 L 123.027344 79.65625 L 122.980469 79.902344 L 145.949219 93.164062 L 145.949219 50.675781 L 115.753906 68.109375 L 115.753906 75.734375 "
       style=" stroke:none;fill-rule:nonzero;fill:rgb(86.256409%,10.850525%,17.294312%);fill-opacity:1;" />
    <path
       id="path46"
       d="M 95.761719 79.65625 L 102.554688 75.734375 L 102.554688 68.109375 L 72.355469 50.675781 L 72.355469 93.164062 L 95.367188 79.878906 L 95.316406 79.65625 L 95.761719 79.65625 "
       style=" stroke:none;fill-rule:nonzero;fill:rgb(41.722107%,10.084534%,17.735291%);fill-opacity:1;" />
    <path
       id="path48"
       d="M 109.152344 29.433594 L 145.949219 50.675781 L 145.949219 29.433594 Z M 109.152344 29.433594 "
       style=" stroke:none;fill-rule:nonzero;fill:rgb(86.256409%,10.850525%,17.294312%);fill-opacity:1;" />
    <path
       id="path50"
       d="M 72.355469 29.433594 L 72.355469 50.675781 L 109.152344 29.433594 Z M 72.355469 29.433594 "
       style=" stroke:none;fill-rule:nonzero;fill:rgb(41.722107%,10.084534%,17.735291%);fill-opacity:1;" />
    <path
       id="path52"
       d="M 124.269531 85.597656 L 124.269531 88.21875 L 123.027344 88.21875 C 121.851562 88.902344 121.078125 90.066406 120.746094 91.882812 L 119.4375 91.882812 L 119.597656 94.777344 L 120.3125 107.96875 L 145.949219 93.164062 L 122.980469 79.902344 L 121.699219 85.597656 L 124.269531 85.597656 "
       style=" stroke:none;fill-rule:nonzero;fill:rgb(41.722107%,10.084534%,17.735291%);fill-opacity:1;" />
    <path
       id="path54"
       d="M 122.542969 79.65625 L 115.753906 75.734375 L 115.753906 79.65625 Z M 122.542969 79.65625 "
       style=" stroke:none;fill-rule:nonzero;fill:rgb(41.722107%,10.084534%,17.735291%);fill-opacity:1;" />
    <path
       id="path56"
       d="M 96.628906 85.597656 L 95.367188 79.878906 L 72.355469 93.164062 L 97.992188 107.96875 L 98.867188 91.882812 L 97.558594 91.882812 C 97.226562 90.066406 96.464844 88.902344 95.277344 88.21875 L 94.042969 88.21875 L 94.042969 85.597656 L 96.628906 85.597656 "
       style=" stroke:none;fill-rule:nonzero;fill:rgb(86.256409%,10.850525%,17.294312%);fill-opacity:1;" />
    <path
       id="path58"
       d="M 102.554688 75.734375 L 95.761719 79.65625 L 102.554688 79.65625 Z M 102.554688 75.734375 "
       style=" stroke:none;fill-rule:nonzero;fill:rgb(86.256409%,10.850525%,17.294312%);fill-opacity:1;" />
    <path
       id="path60"
       d="M 109.988281 55.578125 C 110.152344 55.578125 110.3125 55.558594 110.46875 55.519531 C 110.816406 55.175781 111.042969 54.691406 111.042969 54.160156 C 111.042969 53.121094 110.191406 52.273438 109.152344 52.273438 C 108.988281 52.273438 108.828125 52.296875 108.675781 52.335938 C 108.316406 52.679688 108.101562 53.160156 108.101562 53.691406 C 108.101562 54.730469 108.945312 55.578125 109.988281 55.578125 "
       style=" stroke:none;fill-rule:nonzero;fill:rgb(100%,100%,100%);fill-opacity:1;" />
    <path
       id="path62"
       d="M 112.140625 92.445312 C 106.820312 92.511719 105.320312 95.75 105.320312 95.75 L 105.007812 96.414062 L 104.472656 111.710938 L 109.152344 114.410156 L 120.3125 107.96875 L 119.597656 94.777344 C 119.507812 94.609375 118.1875 92.367188 112.140625 92.445312 "
       style=" stroke:none;fill-rule:nonzero;fill:rgb(100%,100%,100%);fill-opacity:1;" />
    <path
       id="path64"
       d="M 94.042969 85.597656 L 94.042969 88.21875 L 95.277344 88.21875 C 96.464844 88.902344 97.226562 90.066406 97.558594 91.882812 L 98.867188 91.882812 L 97.992188 107.96875 L 104.472656 111.710938 L 105.007812 96.414062 L 105.320312 95.75 C 105.320312 95.75 106.820312 92.511719 112.140625 92.445312 C 118.1875 92.367188 119.507812 94.609375 119.597656 94.777344 L 119.4375 91.882812 L 120.746094 91.882812 C 121.078125 90.066406 121.851562 88.902344 123.027344 88.21875 L 124.269531 88.21875 L 124.269531 85.597656 L 94.042969 85.597656 "
       style=" stroke:none;fill-rule:nonzero;fill:rgb(74.113464%,73.643494%,73.75946%);fill-opacity:1;" />
    <path
       id="path66"
       d="M 110.425781 103.242188 C 110.425781 102.765625 109.851562 101.972656 109.148438 101.972656 C 108.449219 101.972656 107.894531 102.765625 107.882812 103.242188 L 107.882812 106.539062 L 110.425781 106.539062 L 110.425781 103.242188 "
       style=" stroke:none;fill-rule:nonzero;fill:rgb(74.113464%,73.643494%,73.75946%);fill-opacity:1;" />
    <path
       id="path68"
       d="M 104.289062 65.796875 L 104.289062 67.667969 L 109.152344 70.472656 L 114.023438 67.664062 L 114.023438 65.796875 L 104.289062 65.796875 "
       style=" stroke:none;fill-rule:nonzero;fill:rgb(41.722107%,10.084534%,17.735291%);fill-opacity:1;" />
    <path
       id="path70"
       d="M 109.152344 73.378906 L 104.289062 76.1875 L 104.289062 78.058594 L 114.023438 78.058594 L 114.023438 76.191406 L 109.152344 73.378906 "
       style=" stroke:none;fill-rule:nonzero;fill:rgb(41.722107%,10.084534%,17.735291%);fill-opacity:1;" />
    <path
       id="path72"
       d="M 115.753906 64.214844 L 116.269531 64.214844 C 116.703125 64.214844 117.058594 64.566406 117.058594 65.003906 C 117.058594 65.4375 116.703125 65.796875 116.269531 65.796875 L 115.753906 65.796875 L 115.753906 68.109375 L 145.949219 50.675781 L 109.152344 29.433594 L 109.152344 52.273438 C 110.191406 52.273438 111.042969 53.121094 111.042969 54.160156 C 111.042969 54.667969 110.835938 55.132812 110.511719 55.476562 C 110.503906 55.480469 110.496094 55.488281 110.492188 55.492188 C 110.480469 55.503906 110.476562 55.511719 110.46875 55.519531 C 110.472656 55.515625 110.480469 55.507812 110.484375 55.5 C 110.203125 55.769531 110.019531 56.140625 110.019531 56.566406 C 110.019531 57.070312 110.269531 57.519531 110.648438 57.796875 C 113.566406 58.472656 115.746094 61.089844 115.753906 64.214844 "
       style=" stroke:none;fill-rule:nonzero;fill:rgb(41.722107%,10.084534%,17.735291%);fill-opacity:1;" />
    <path
       id="path74"
       d="M 109.152344 78.058594 L 104.289062 78.058594 L 104.289062 76.1875 L 109.152344 73.378906 L 109.15625 73.378906 L 109.152344 73.378906 L 109.152344 70.472656 L 104.289062 67.667969 L 104.289062 65.796875 L 106.433594 65.796875 C 106.289062 65.738281 106.179688 65.398438 106.179688 65.003906 C 106.179688 64.566406 106.3125 64.214844 106.476562 64.214844 L 106.671875 64.214844 C 106.675781 60.574219 107.78125 57.621094 109.152344 57.621094 C 109.667969 57.621094 110.167969 57.683594 110.644531 57.796875 C 110.269531 57.519531 110.019531 57.070312 110.019531 56.566406 C 110.019531 56.152344 110.195312 55.789062 110.46875 55.519531 C 110.3125 55.558594 110.152344 55.578125 109.988281 55.578125 C 108.945312 55.578125 108.101562 54.730469 108.101562 53.691406 C 108.101562 53.160156 108.316406 52.679688 108.675781 52.335938 C 107.863281 52.546875 107.265625 53.285156 107.265625 54.160156 C 107.265625 54.675781 107.46875 55.132812 107.800781 55.476562 C 108.09375 55.746094 108.285156 56.128906 108.285156 56.566406 C 108.285156 57.070312 108.039062 57.523438 107.664062 57.804688 C 104.738281 58.476562 102.5625 61.089844 102.554688 64.214844 L 102.039062 64.214844 C 101.601562 64.214844 101.253906 64.570312 101.253906 65.007812 C 101.253906 65.441406 101.601562 65.800781 102.039062 65.796875 L 102.554688 65.796875 L 102.554688 79.652344 L 109.152344 79.652344 L 109.152344 78.058594 "
       style=" stroke:none;fill-rule:nonzero;fill:rgb(74.113464%,73.643494%,73.75946%);fill-opacity:1;" />
    <path
       id="path76"
       d="M 109.152344 70.472656 L 109.152344 73.378906 L 114.023438 76.1875 L 114.023438 78.054688 L 109.152344 78.054688 L 109.152344 79.652344 L 95.316406 79.652344 L 96.628906 85.59375 L 121.699219 85.59375 L 123.027344 79.652344 L 115.753906 79.652344 L 115.753906 65.796875 L 116.269531 65.796875 C 116.703125 65.796875 117.058594 65.4375 117.058594 65.003906 C 117.058594 64.566406 116.703125 64.214844 116.269531 64.214844 L 115.753906 64.214844 C 115.746094 60.574219 112.792969 57.621094 109.152344 57.621094 C 107.78125 57.621094 106.675781 60.574219 106.671875 64.214844 L 106.476562 64.214844 C 106.3125 64.214844 106.179688 64.566406 106.179688 65.003906 C 106.179688 65.398438 106.289062 65.738281 106.433594 65.796875 L 114.023438 65.796875 L 114.023438 67.660156 L 109.152344 70.472656 "
       style=" stroke:none;fill-rule:nonzero;fill:rgb(100%,100%,100%);fill-opacity:1;" />
    <path
       id="path78"
       d="M 104.289062 70.109375 L 107.414062 71.917969 L 104.28125 73.730469 Z M 104.289062 70.109375 "
       style=" stroke:none;fill-rule:nonzero;fill:rgb(41.722107%,10.084534%,17.735291%);fill-opacity:1;" />
    <path
       id="path80"
       d="M 114.023438 70.109375 L 110.894531 71.925781 L 114.023438 73.730469 Z M 114.023438 70.109375 "
       style=" stroke:none;fill-rule:nonzero;fill:rgb(86.256409%,10.850525%,17.294312%);fill-opacity:1;" />
    <path
       id="path82"
       d="M 122.847656 52.472656 L 120.03125 55.074219 L 120.308594 51.257812 L 116.519531 50.675781 L 119.6875 48.511719 L 117.773438 45.191406 L 121.4375 46.3125 L 122.847656 42.753906 L 124.246094 46.3125 L 127.910156 45.191406 L 126.003906 48.511719 L 129.164062 50.675781 L 125.375 51.257812 L 125.664062 55.074219 L 122.847656 52.472656 "
       style=" stroke:none;fill-rule:nonzero;fill:rgb(100%,100%,100%);fill-opacity:1;" />
    <path
       id="path84"
       d="M 102.039062 65.796875 C 101.601562 65.800781 101.253906 65.441406 101.253906 65.007812 C 101.253906 64.570312 101.601562 64.214844 102.039062 64.214844 L 102.554688 64.214844 C 102.5625 61.089844 104.738281 58.476562 107.664062 57.804688 C 108.039062 57.523438 108.285156 57.070312 108.285156 56.566406 C 108.285156 56.128906 108.09375 55.746094 107.800781 55.476562 C 107.46875 55.132812 107.265625 54.675781 107.265625 54.160156 C 107.265625 53.285156 107.863281 52.546875 108.675781 52.335938 C 108.828125 52.296875 108.988281 52.273438 109.152344 52.273438 L 109.152344 29.433594 L 72.355469 50.675781 L 102.554688 68.109375 L 102.554688 65.796875 L 102.039062 65.796875 "
       style=" stroke:none;fill-rule:nonzero;fill:rgb(86.256409%,10.850525%,17.294312%);fill-opacity:1;" />
    <path
       id="path86"
       d="M 103.320312 84.402344 L 105.230469 84.402344 L 104.976562 80.84375 L 102.867188 80.84375 L 103.320312 84.402344 "
       style=" stroke:none;fill-rule:nonzero;fill:rgb(74.113464%,73.643494%,73.75946%);fill-opacity:1;" />
    <path
       id="path88"
       d="M 106.523438 84.402344 L 109.050781 84.402344 L 109.050781 80.84375 L 106.273438 80.84375 L 106.523438 84.402344 "
       style=" stroke:none;fill-rule:nonzero;fill:rgb(74.113464%,73.643494%,73.75946%);fill-opacity:1;" />
    <path
       id="path90"
       d="M 100.246094 84.402344 L 102.019531 84.402344 L 101.5625 80.84375 L 99.570312 80.84375 L 100.246094 84.402344 "
       style=" stroke:none;fill-rule:nonzero;fill:rgb(86.256409%,10.850525%,17.294312%);fill-opacity:1;" />
    <path
       id="path92"
       d="M 97.585938 84.402344 L 98.925781 84.402344 L 98.253906 80.84375 L 96.804688 80.84375 L 97.585938 84.402344 "
       style=" stroke:none;fill-rule:nonzero;fill:rgb(86.256409%,10.850525%,17.294312%);fill-opacity:1;" />
    <path
       id="path94"
       d="M 116.289062 84.402344 L 118.0625 84.402344 L 118.734375 80.84375 L 116.738281 80.84375 L 116.289062 84.402344 "
       style=" stroke:none;fill-rule:nonzero;fill:rgb(41.722107%,10.084534%,17.735291%);fill-opacity:1;" />
    <path
       id="path96"
       d="M 119.378906 84.402344 L 120.769531 84.402344 L 121.554688 80.84375 L 120.050781 80.84375 L 119.378906 84.402344 "
       style=" stroke:none;fill-rule:nonzero;fill:rgb(41.722107%,10.084534%,17.735291%);fill-opacity:1;" />
  </g>
</svg>
