<?xml version="1.0" encoding="UTF-8" standalone="no"?>
<svg
   xmlns:dc="http://purl.org/dc/elements/1.1/"
   xmlns:cc="http://creativecommons.org/ns#"
   xmlns:rdf="http://www.w3.org/1999/02/22-rdf-syntax-ns#"
   xmlns:svg="http://www.w3.org/2000/svg"
   xmlns="http://www.w3.org/2000/svg"
   viewBox="0 0 291.07999 262.05334"
   height="262.05334"
   width="291.07999"
   xml:space="preserve"
   id="svg2"
   version="1.1"><metadata
     id="metadata8"><rdf:RDF><cc:Work
         rdf:about=""><dc:format>image/svg+xml</dc:format><dc:type
           rdf:resource="http://purl.org/dc/dcmitype/StillImage" /><dc:title></dc:title></cc:Work></rdf:RDF></metadata><defs
     id="defs6" /><g
     transform="matrix(1.3333333,0,0,-1.3333333,0,262.05333)"
     id="g10"><g
       transform="scale(0.1)"
       id="g12"><path
         id="path14"
         style="fill:#ffffff;fill-opacity:1;fill-rule:nonzero;stroke:none"
         d="m 444.98,593.801 -30.996,55.59 c -10.117,18.109 -13.828,30.078 -13.828,30.078 h -1.191 c 0,0 1.797,-10.758 1.797,-31.938 V 550.52 h -32.813 v 180.839 h 35.918 l 40.215,-76.148 c 7.988,-15.039 10.43,-23.34 10.43,-23.34 h 1.23 c 0,0 2.168,8.301 10.449,23.34 l 39.903,76.148 h 35.019 V 550.52 h -32.851 v 97.011 c 0,21.18 1.543,31.938 1.543,31.938 h -1.25 c 0,0 -3.399,-11.969 -13.496,-30.078 l -31.036,-55.59 H 444.98" /><path
         id="path16"
         style="fill:#ffffff;fill-opacity:1;fill-rule:nonzero;stroke:none"
         d="m 622.188,623.281 h 53.105 l -11.66,33.77 c -10.137,28.551 -14.102,48.82 -14.102,48.82 h -1.23 c 0,0 -4.297,-19.961 -14.141,-48.492 z m 62.91,-27.332 H 612.969 L 596.992,550.52 H 562.93 l 65.703,180.839 h 42.051 L 736.387,550.52 h -35.293 l -15.996,45.429" /><path
         id="path18"
         style="fill:#ffffff;fill-opacity:1;fill-rule:nonzero;stroke:none"
         d="m 899.746,585.52 c -16.269,-26.09 -36.855,-38.688 -74.297,-38.688 -47.597,0 -80.449,33.789 -80.449,93.949 0,60.168 33.77,94.239 85.684,94.239 34.375,0 57.402,-15.34 70,-44.211 L 869.648,675.48 c -6.757,20.258 -20.253,31 -40.527,31 -31.621,0 -50.039,-25.179 -50.039,-66.019 0,-40.5 16.582,-64.473 49.434,-64.473 20.254,0 34.082,8.301 45.136,27.352 l 26.094,-17.82" /><path
         id="path20"
         style="fill:#ffffff;fill-opacity:1;fill-rule:nonzero;stroke:none"
         d="m 948.594,640.461 c 0,-40.5 16.25,-65.391 48.496,-65.391 32.27,0 48.81,24.891 48.81,65.391 0,40.84 -16.54,65.711 -48.81,65.711 -31.914,0 -48.496,-24.871 -48.496,-65.711 z M 1051.15,503.238 c -42.09,-0.629 -64.197,19.024 -73.416,45.434 -39.589,7.379 -63.535,39.918 -63.535,92.109 0,60.489 31.934,94.239 82.891,94.239 50.98,0 82.91,-33.75 82.91,-94.239 0,-54.652 -26.11,-87.5 -68.77,-93.031 12.29,-12.27 30.98,-17.168 49.41,-15.66 l -9.49,-28.852" /><path
         id="path22"
         style="fill:#ffffff;fill-opacity:1;fill-rule:nonzero;stroke:none"
         d="M 1249.2,731.359 V 610.07 c 0,-47.57 -34.38,-63.238 -71.54,-63.238 -36.86,0 -71.23,15.668 -71.23,63.238 v 121.289 h 32.85 V 618.98 c 0,-30.39 12.28,-45.14 38.38,-45.14 26.4,0 38.67,14.75 38.67,44.832 v 112.687 h 32.87" /><path
         id="path24"
         style="fill:#ffffff;fill-opacity:1;fill-rule:nonzero;stroke:none"
         d="m 1321.64,623.281 h 53.15 l -11.66,33.77 c -10.14,28.551 -14.11,48.82 -14.11,48.82 h -1.25 c 0,0 -4.27,-19.961 -14.14,-48.492 z m 62.95,-27.332 h -72.13 L 1296.5,550.52 h -34.1 l 65.71,180.839 h 42.07 L 1435.9,550.52 h -35.33 l -15.98,45.429" /><path
         id="path26"
         style="fill:#ffffff;fill-opacity:1;fill-rule:nonzero;stroke:none"
         d="m 1490.57,647.852 h 30.99 c 20.53,0 30.69,8.589 30.69,27.929 0,17.809 -9.83,27.949 -30.69,27.949 h -30.99 z M 1559,550.52 c -4.92,4.609 -7.05,10.121 -8.55,17.48 l -7.13,29.789 c -4.88,19.352 -14.39,23.051 -30.7,23.051 h -22.05 v -70.32 h -32.87 v 180.839 h 65.39 c 41.15,0 63.22,-16.578 63.22,-52.828 0,-28.222 -18.11,-43.281 -41.11,-45.121 v -0.601 c 16.89,-2.457 26.09,-9.829 30.99,-28.258 l 9.22,-35 c 1.84,-7.051 4.63,-13.211 9.53,-19.031 H 1559" /><path
         id="path28"
         style="fill:#ffffff;fill-opacity:1;fill-rule:nonzero;stroke:none"
         d="M 1656.66,731.359 V 550.52 h -32.83 v 180.839 h 32.83" /><path
         id="path30"
         style="fill:#ffffff;fill-opacity:1;fill-rule:nonzero;stroke:none"
         d="m 1815.1,550.52 h -114.85 v 180.839 h 114.85 v -28.55 h -81.97 v -47.598 h 72.46 v -27.93 h -72.46 v -48.203 h 81.97 V 550.52" /><path
         id="path32"
         style="fill:#ffffff;fill-opacity:1;fill-rule:nonzero;stroke:none"
         d="m 654.648,488.391 h 16.094 V 397.75 c 0,-21.352 -3.418,-35.449 -10.176,-42.27 -7.226,-7.242 -16.367,-10.89 -27.48,-10.89 -11.484,0 -20.82,3.879 -27.832,11.66 -3.789,4.16 -6.348,9.391 -7.676,15.801 -1.328,6.359 -2.07,16.558 -2.07,30.48 v 85.86 h 14.726 v 10.668 h -53.652 v -10.668 h 16.113 v -90.45 c 0,-22.14 4.688,-38.332 14.043,-48.609 9.336,-10.273 24.082,-15.434 44.219,-15.434 19.57,0 34.043,5.84 43.398,17.442 5.079,6.308 8.418,12.89 10.059,19.691 1.621,6.821 2.481,17.719 2.481,32.66 v 84.7 h 16.074 v 10.668 h -48.321 v -10.668" /><path
         id="path34"
         style="fill:#ffffff;fill-opacity:1;fill-rule:nonzero;stroke:none"
         d="m 826.523,421.281 c 0,11.699 -2.851,20.879 -8.593,27.559 -5.801,6.699 -13.731,10.039 -23.867,10.039 -8.77,0 -16.68,-2.07 -23.829,-6.231 -7.089,-4.16 -13.379,-10.386 -18.789,-18.707 v 22.207 h -37.656 v -10.757 h 16.113 V 348.73 h -16.113 v -10.769 h 53.77 v 10.769 h -16.114 v 75.211 c 5.743,6.27 11.621,10.981 17.442,14.118 5.859,3.152 11.777,4.711 17.656,4.711 6.895,0 11.68,-1.84 14.395,-5.489 2.714,-3.672 4.042,-10.14 4.042,-19.351 v -69.2 h -16.074 v -10.769 h 53.77 v 10.769 h -16.153 v 72.551" /><path
         id="path36"
         style="fill:#ffffff;fill-opacity:1;fill-rule:nonzero;stroke:none"
         d="m 893.379,456.148 h -37.656 v -10.757 h 16.093 V 348.73 h -16.093 v -10.769 h 53.769 v 10.769 h -16.113 v 107.418" /><path
         id="path38"
         style="fill:#ffffff;fill-opacity:1;fill-rule:nonzero;stroke:none"
         d="M 893.379,499.059 H 871.816 V 477.59 h 21.563 v 21.469" /><path
         id="path40"
         style="fill:#ffffff;fill-opacity:1;fill-rule:nonzero;stroke:none"
         d="m 997.441,445.391 h 16.099 l -35.942,-80.551 -33.516,80.551 h 16.231 v 10.757 h -48.887 v -10.757 h 9.512 l 45.117,-108.75 h 10.781 l 48.494,108.75 h 9.44 v 10.757 h -37.329 v -10.757" /><path
         id="path42"
         style="fill:#ffffff;fill-opacity:1;fill-rule:nonzero;stroke:none"
         d="m 1108.03,410.559 h -48.99 c 0.78,12.562 3.42,21.961 7.82,28.222 4.47,6.289 10.7,9.418 18.86,9.418 14.85,0 22.31,-11.64 22.31,-34.918 z m -21.12,48.32 c -15.25,0 -27.73,-5.66 -37.42,-16.93 -9.72,-11.289 -14.61,-25.84 -14.61,-43.629 0,-18.601 5.41,-33.769 16.19,-45.492 10.84,-11.719 24.91,-17.598 42.15,-17.598 11.37,0 23.91,2.7 37.54,8.071 v 16.09 c -11.25,-6.25 -22.73,-9.36 -34.43,-9.36 -12.15,0 -21.64,4.399 -28.48,13.207 -6.81,8.813 -10.23,20.953 -10.23,36.524 h 73.14 v 4.058 c 0,17.7 -3.79,31.309 -11.37,40.821 -7.57,9.5 -18.41,14.238 -32.48,14.238" /><path
         id="path44"
         style="fill:#ffffff;fill-opacity:1;fill-rule:nonzero;stroke:none"
         d="m 1189.57,433.941 v 22.207 h -37.66 v -10.757 h 16.12 V 348.73 h -16.12 v -10.769 h 53.77 v 10.769 h -16.11 v 75.211 c 9.92,10.739 19.47,16.11 28.73,16.11 h 3.5 V 427.98 h 13.36 v 29.54 c -2.31,0.91 -4.65,1.359 -7.07,1.359 -16.04,0 -28.89,-8.32 -38.52,-24.938" /><path
         id="path46"
         style="fill:#ffffff;fill-opacity:1;fill-rule:nonzero;stroke:none"
         d="m 1305.53,403.648 -9.98,4.122 c -9.96,4.082 -16.7,7.671 -20.14,10.742 -3.52,3.109 -5.23,6.968 -5.23,11.617 0,5.062 1.91,9.383 5.74,12.851 3.87,3.481 8.63,5.219 14.29,5.219 3.7,0 7.41,-0.668 11.25,-2.008 3.79,-1.351 7.72,-3.382 11.7,-6.082 v -13.57 h 13.42 v 25.582 c -6.13,2.289 -12.15,4.008 -18.18,5.098 -5.98,1.121 -11.9,1.66 -17.77,1.66 -11.78,0 -21.47,-3.117 -29.13,-9.391 -7.65,-6.226 -11.46,-14.16 -11.46,-23.769 0,-15.41 11.21,-27.481 33.59,-36.188 l 11.02,-4.261 c 12.58,-4.879 18.85,-11.598 18.85,-20.18 0,-5.68 -2.19,-10.309 -6.49,-13.84 -4.31,-3.578 -9.9,-5.34 -16.8,-5.34 -4.33,0 -8.73,0.879 -13.3,2.719 -4.61,1.812 -9.31,4.512 -14.16,8.082 v 13.461 h -13.37 v -26.231 c 6.3,-2.91 12.83,-5.121 19.51,-6.519 6.74,-1.473 13.57,-2.192 20.68,-2.192 13.44,0 24.39,3.321 32.79,9.961 8.38,6.661 12.58,15.239 12.58,25.758 0,7.641 -2.21,13.891 -6.48,18.692 -4.32,4.847 -11.96,9.5 -22.93,14.007" /><path
         id="path48"
         style="fill:#ffffff;fill-opacity:1;fill-rule:nonzero;stroke:none"
         d="m 1388.83,499.059 h -21.56 V 477.59 h 21.56 v 21.469" /><path
         id="path50"
         style="fill:#ffffff;fill-opacity:1;fill-rule:nonzero;stroke:none"
         d="m 1388.83,456.148 h -37.68 v -10.757 h 16.12 V 348.73 h -16.12 v -10.769 h 53.77 v 10.769 h -16.09 v 107.418" /><path
         id="path52"
         style="fill:#ffffff;fill-opacity:1;fill-rule:nonzero;stroke:none"
         d="m 1496,364.332 h -11.76 c 0,0 -0.14,-11.891 -10.72,-16.051 -1.86,-0.633 -3.56,-0.961 -5.14,-0.961 -4.63,0 -8.11,2.071 -10.43,6.192 -2.34,4.136 -3.48,10.308 -3.48,18.519 v 73.75 h 30.16 v 10.367 h -30.16 v 26.782 l -21.58,-5.34 v -21.442 h -16.09 v -10.367 h 16.09 v -70.922 c 0,-13.648 2.83,-23.668 8.61,-30.039 5.75,-6.41 14.4,-9.59 24.77,-9.59 1.7,0 3.4,0.211 5.06,0.489 v 0 c 0,0 0.55,0.082 1.37,0.269 0.31,0.063 0.6,0.121 0.89,0.203 0.73,0.168 1.57,0.43 2.52,0.778 0.41,0.14 0.86,0.293 1.23,0.492 0.59,0.211 1.16,0.469 1.74,0.738 0.3,0.141 0.63,0.25 0.92,0.41 v 0.063 c 6.66,3.398 14.8,10.578 16,25.66" /><path
         id="path54"
         style="fill:#ffffff;fill-opacity:1;fill-rule:nonzero;stroke:none"
         d="m 1584.12,455.641 v -10.782 h 16.02 l -35.82,-80.429 -33.44,80.429 h 16.23 v 10.782 h -48.89 v -10.782 h 9.4 l 45.17,-108.949 c -1.75,-4.039 -3.67,-7.949 -5.88,-11.621 -4.02,-6.66 -8.24,-12.609 -15.43,-16.109 -3.82,-1.899 -8.24,-3.071 -12.52,-3.071 -4.7,0 -9.31,1.879 -13.43,4.032 v 9.898 h -11.08 v -20.59 c 1.82,-1.25 6,-2.219 10.22,-2.949 5.82,-1.012 11.89,-1.48 17.75,-0.859 9.1,0.98 16.99,4.668 23.32,11.23 4.59,4.731 9.51,13.481 12.87,19.129 0.98,1.602 1.6,3.16 2.07,4.68 l 2.84,6.449 48.49,108.73 h 9.49 v 10.782 h -37.38" /><path
         id="path56"
         style="fill:#dc1c2c;fill-opacity:1;fill-rule:nonzero;stroke:none"
         d="m 1157.52,1208.07 67.91,-39.22 h 4.86 l -0.49,-2.47 229.69,-132.62 v 424.87 L 1157.52,1284.3 v -76.23" /><path
         id="path58"
         style="fill:#6a1a2d;fill-opacity:1;fill-rule:nonzero;stroke:none"
         d="m 957.598,1168.85 67.932,39.22 v 76.23 l -301.956,174.33 v -424.87 l 230.117,132.86 -0.527,2.23 h 4.434" /><path
         id="path60"
         style="fill:#dc1c2c;fill-opacity:1;fill-rule:nonzero;stroke:none"
         d="m 1091.54,1671.05 367.95,-212.42 v 212.42 z" /><path
         id="path62"
         style="fill:#6a1a2d;fill-opacity:1;fill-rule:nonzero;stroke:none"
         d="m 723.574,1671.05 v -212.42 l 367.966,212.42 z" /><path
         id="path64"
         style="fill:#6a1a2d;fill-opacity:1;fill-rule:nonzero;stroke:none"
         d="m 1242.68,1109.44 v -26.21 h -12.39 c -11.79,-6.85 -19.51,-18.51 -22.81,-36.65 h -13.1 l 1.58,-28.96 7.17,-131.901 256.36,148.041 -229.69,132.62 -12.81,-56.94 h 25.69" /><path
         id="path66"
         style="fill:#6a1a2d;fill-opacity:1;fill-rule:nonzero;stroke:none"
         d="m 1225.43,1168.85 -67.91,39.22 v -39.22 z" /><path
         id="path68"
         style="fill:#dc1c2c;fill-opacity:1;fill-rule:nonzero;stroke:none"
         d="m 966.289,1109.44 -12.598,57.18 -230.117,-132.86 256.367,-148.041 8.75,160.861 h -13.086 c -3.32,18.14 -10.976,29.8 -22.832,36.65 h -12.324 v 26.21 h 25.84" /><path
         id="path70"
         style="fill:#dc1c2c;fill-opacity:1;fill-rule:nonzero;stroke:none"
         d="m 1025.53,1208.07 -67.932,-39.22 h 67.932 z" /><path
         id="path72"
         style="fill:#ffffff;fill-opacity:1;fill-rule:nonzero;stroke:none"
         d="m 1099.88,1409.6 c 1.66,0 3.25,0.22 4.81,0.61 3.47,3.45 5.74,8.26 5.74,13.57 0,10.41 -8.5,18.87 -18.89,18.87 -1.64,0 -3.26,-0.2 -4.78,-0.6 -3.58,-3.44 -5.76,-8.26 -5.76,-13.55 0,-10.41 8.45,-18.9 18.88,-18.9" /><path
         id="path74"
         style="fill:#ffffff;fill-opacity:1;fill-rule:nonzero;stroke:none"
         d="m 1121.39,1040.96 c -53.17,-0.66 -68.19,-33.06 -68.19,-33.06 l -3.14,-6.65 -5.33,-152.941 46.81,-27.028 111.59,64.438 -7.17,131.901 c -0.9,1.7 -14.08,24.11 -74.57,23.34" /><path
         id="path76"
         style="fill:#bdbcbc;fill-opacity:1;fill-rule:nonzero;stroke:none"
         d="m 940.449,1109.44 v -26.21 h 12.324 c 11.856,-6.85 19.512,-18.51 22.832,-36.65 h 13.086 l -8.75,-160.861 64.789,-37.41 5.33,152.941 3.14,6.65 c 0,0 15.02,32.4 68.19,33.06 60.49,0.77 73.67,-21.64 74.57,-23.34 l -1.58,28.96 h 13.1 c 3.3,18.14 11.02,29.8 22.81,36.65 h 12.39 v 26.21 H 940.449" /><path
         id="path78"
         style="fill:#bdbcbc;fill-opacity:1;fill-rule:nonzero;stroke:none"
         d="m 1104.24,932.98 c 0,4.77 -5.74,12.7 -12.74,12.7 -7.01,0 -12.57,-7.93 -12.67,-12.7 v -32.96 h 25.41 v 32.96" /><path
         id="path80"
         style="fill:#6a1a2d;fill-opacity:1;fill-rule:nonzero;stroke:none"
         d="m 1042.89,1307.45 v -18.72 l 48.63,-28.07 48.71,28.1 v 18.69 h -97.34" /><path
         id="path82"
         style="fill:#6a1a2d;fill-opacity:1;fill-rule:nonzero;stroke:none"
         d="m 1091.52,1231.61 -48.63,-28.07 v -18.72 h 97.34 v 18.68 l -48.71,28.11" /><path
         id="path84"
         style="fill:#6a1a2d;fill-opacity:1;fill-rule:nonzero;stroke:none"
         d="m 1157.52,1323.26 h 5.18 c 4.33,0 7.87,-3.53 7.87,-7.9 0,-4.35 -3.54,-7.91 -7.87,-7.91 h -5.18 v -23.15 l 301.97,174.33 -367.95,212.42 v -228.4 c 10.39,0 18.89,-8.46 18.89,-18.87 0,-5.07 -2.09,-9.71 -5.33,-13.14 v 0 c -0.06,-0.04 -0.12,-0.12 -0.18,-0.18 -0.1,-0.09 -0.15,-0.18 -0.23,-0.25 0.04,0.04 0.1,0.11 0.15,0.18 -2.79,-2.7 -4.63,-6.41 -4.63,-10.66 0,-5.03 2.47,-9.53 6.27,-12.29 29.2,-6.78 51,-32.94 51.04,-64.18" /><path
         id="path86"
         style="fill:#bdbcbc;fill-opacity:1;fill-rule:nonzero;stroke:none"
         d="m 1091.52,1184.82 h -48.63 v 18.72 l 48.65,28.07 h 0.04 l -0.04,0.02 v 29.03 l -48.65,28.07 v 18.72 h 21.43 c -1.43,0.56 -2.52,3.96 -2.52,7.91 0,4.37 1.34,7.9 2.97,7.9 h 1.93 c 0.04,36.38 11.13,65.91 24.84,65.91 5.14,0 10.14,-0.62 14.92,-1.73 -3.78,2.76 -6.25,7.24 -6.25,12.29 0,4.15 1.76,7.78 4.46,10.47 -1.54,-0.38 -3.15,-0.6 -4.79,-0.6 -10.43,0 -18.88,8.49 -18.88,18.9 0,5.29 2.18,10.11 5.76,13.55 -8.13,-2.12 -14.12,-9.51 -14.12,-18.27 0,-5.12 2.05,-9.71 5.35,-13.14 2.93,-2.71 4.86,-6.53 4.86,-10.91 0,-5.05 -2.46,-9.55 -6.21,-12.37 -29.26,-6.72 -51.03,-32.86 -51.11,-64.12 h -5.14 c -4.39,0 -7.87,-3.53 -7.87,-7.91 0,-4.35 3.48,-7.93 7.87,-7.88 h 5.14 v -138.57 h 65.99 v 15.94" /><path
         id="path88"
         style="fill:#ffffff;fill-opacity:1;fill-rule:nonzero;stroke:none"
         d="m 1091.54,1260.68 v -29.05 l 48.69,-28.11 v -18.68 h -48.71 v -15.96 H 953.164 l 13.125,-59.41 h 250.701 l 13.3,59.41 h -72.77 v 138.57 h 5.18 c 4.33,0 7.87,3.56 7.87,7.91 0,4.37 -3.54,7.9 -7.87,7.9 h -5.18 c -0.04,36.38 -29.59,65.91 -65.98,65.91 -13.71,0 -24.8,-29.53 -24.84,-65.91 v 0 h -1.93 c -1.63,0 -2.97,-3.53 -2.97,-7.9 0,-3.95 1.09,-7.35 2.52,-7.91 h 75.91 v -18.67 l -48.69,-28.1" /><path
         id="path90"
         style="fill:#6a1a2d;fill-opacity:1;fill-rule:nonzero;stroke:none"
         d="m 1042.89,1264.29 31.25,-18.08 -31.33,-18.1 z" /><path
         id="path92"
         style="fill:#dc1c2c;fill-opacity:1;fill-rule:nonzero;stroke:none"
         d="m 1140.23,1264.32 -31.27,-18.19 31.27,-18.04 z" /><path
         id="path94"
         style="fill:#ffffff;fill-opacity:1;fill-rule:nonzero;stroke:none"
         d="m 1228.46,1440.66 -28.15,-26.01 2.76,38.18 -37.87,5.8 31.68,21.65 -19.15,33.19 36.65,-11.18 14.08,35.59 14,-35.59 36.66,11.18 -19.08,-33.19 31.6,-21.65 -37.89,-5.8 2.89,-38.18 -28.18,26.01" /><path
         id="path96"
         style="fill:#dc1c2c;fill-opacity:1;fill-rule:nonzero;stroke:none"
         d="m 1020.39,1307.45 c -4.39,-0.05 -7.87,3.53 -7.87,7.88 0,4.38 3.48,7.91 7.87,7.91 h 5.14 c 0.08,31.26 21.85,57.4 51.11,64.12 3.75,2.82 6.21,7.32 6.21,12.37 0,4.38 -1.93,8.2 -4.86,10.91 -3.3,3.43 -5.35,8.02 -5.35,13.14 0,8.76 5.99,16.15 14.12,18.27 1.52,0.4 3.14,0.6 4.78,0.6 v 228.4 L 723.574,1458.63 1025.53,1284.3 v 23.15 h -5.14" /><path
         id="path98"
         style="fill:#bdbcbc;fill-opacity:1;fill-rule:nonzero;stroke:none"
         d="m 1033.2,1121.39 h 19.09 l -2.54,35.57 h -21.06 l 4.51,-35.57" /><path
         id="path100"
         style="fill:#bdbcbc;fill-opacity:1;fill-rule:nonzero;stroke:none"
         d="m 1065.23,1121.39 h 25.26 v 35.57 h -27.76 l 2.5,-35.57" /><path
         id="path102"
         style="fill:#dc1c2c;fill-opacity:1;fill-rule:nonzero;stroke:none"
         d="m 1002.46,1121.39 h 17.72 l -4.54,35.57 h -19.956 l 6.776,-35.57" /><path
         id="path104"
         style="fill:#dc1c2c;fill-opacity:1;fill-rule:nonzero;stroke:none"
         d="m 975.859,1121.39 h 13.418 l -6.738,35.57 h -14.492 l 7.812,-35.57" /><path
         id="path106"
         style="fill:#6a1a2d;fill-opacity:1;fill-rule:nonzero;stroke:none"
         d="m 1162.91,1121.39 h 17.73 l 6.72,35.57 h -19.98 l -4.47,-35.57" /><path
         id="path108"
         style="fill:#6a1a2d;fill-opacity:1;fill-rule:nonzero;stroke:none"
         d="m 1193.77,1121.39 h 13.94 l 7.84,35.57 h -15.04 l -6.74,-35.57" /></g></g></svg>