<svg xmlns="http://www.w3.org/2000/svg" width="144" height="168.01" xml:space="preserve">
  <path fill="#008BB0" d="M0 .02v.35c0 78.14 0 129.75 71.84 167.55l.16.09.16-.09C144 130.28 144 78.59 144 .35V0L0 .02z"/>
  <path fill="#FFF" d="M72 167.21C143.17 129.83 143.29 78.42 143.29.7L.71.72C.71 78.34.82 129.68 72 167.21z"/>
  <path fill="#008BB0" d="M138.62 6.02v-.24L5.2 5.8v.24c0 2.14 0 4.28-.01 6.41-.05 29.67-.09 57.69 8.24 83.38 4.48 13.82 10.97 25.6 19.84 36.02 9.93 11.67 22.58 21.37 38.67 29.65l.11.06.11-.06c66.59-34.59 66.53-90.61 66.46-149.9V6.02z"/>
  <path fill="#FFF" d="m32.97 46.59 39.68-12.38 39.84 12.38z"/>
  <path fill="#FFF" d="M93.04 39.72V29.48H52.65v10.14l20-6.24zM67.67 21.64h10.08c.05-3.46-2.73-6.1-5.11-8.21-2.35 2.15-4.97 4.65-4.97 8.21m9.88.35H68c-4.82 1.08-8.74 3.71-10.62 7.13h30.79c-1.88-3.42-5.8-6.06-10.62-7.13zm-29.21 79.62c.42-.19.4.42.4.98v11.77c0 .9-.66 1.2-1.51 1.25l-1.92.08v.99c3.11-.03 4.26-.08 5.4-.08 1.17 0 2.29.05 4.71.08v-.99l-1.66-.08c-.84-.05-1.51-.34-1.51-1.25v-8.56c0-3.18.18-5.46.27-6.74l-.33-.28c-2.29.91-6 2.23-7.94 2.69-.04.56.08 1.15.37 1.86l3.72-1.72zm16.71 7.68c1.51.67 2.77 1.5 2.77 3.36 0 1.62-1.17 3.03-2.85 3.03-1.99 0-3.37-1.6-3.37-3.54 0-1.63.64-2.56 1.83-3.57l1.62.72zm-.08-3.63c-1.25-.54-2.55-1.26-2.55-2.86 0-1.51 1.09-2.36 2.55-2.36 1.73 0 2.74 1.22 2.74 2.89 0 1.07-.54 2-1.57 2.82l-1.17-.49zm.34-6.6c-3.61 0-5.63 2.01-5.63 4.94 0 1.91 1 3.22 2.65 4.09-1.7.75-3.11 2.37-3.11 4.31 0 2.28 1.62 4.65 5.35 4.65 3.4 0 6.17-2.39 6.17-5.87 0-2.71-1.87-4.06-3.3-4.58 1.49-.95 2.5-2.13 2.5-3.64 0-2.71-2.17-3.9-4.63-3.9m13.04 2.55c.42-.19.4.42.4.98v11.77c0 .9-.66 1.2-1.51 1.25l-1.92.08v.99c3.11-.03 4.26-.08 5.4-.08 1.17 0 2.29.05 4.72.08v-.99l-1.66-.08c-.85-.05-1.51-.34-1.51-1.25v-8.56c0-3.18.18-5.46.26-6.74l-.32-.28c-2.28.91-6 2.23-7.95 2.69-.02.56.08 1.15.38 1.86l3.71-1.72zm14.02 0c.42-.19.4.42.4.98v11.77c0 .9-.66 1.2-1.51 1.25l-1.91.08v.99c3.11-.03 4.26-.08 5.39-.08 1.17 0 2.29.05 4.72.08v-.99l-1.66-.08c-.85-.05-1.52-.34-1.52-1.25v-8.56c0-3.18.18-5.46.27-6.74l-.32-.28c-2.28.91-6 2.23-7.95 2.69-.03.56.08 1.15.38 1.86l3.71-1.72zm-2.29-29.07c-.57.01-1.17.03-1.79.04-1.54.04-3.15.08-4.57.08-1.22 0-2.47-.03-3.68-.07l-2.29-.06h-.21v2.07l2.34.09c1.38.05 2.12.28 2.12 1.31v5.22c-1.75.65-3.33.96-4.96.96-7.92 0-10.73-6.99-10.73-12.98 0-6.8 3.88-11.02 10.13-11.02 3.65 0 6.91 1.05 8.35 2.69l.2 3.42.01.18h1.95l.09-.81c.21-1.8.51-4.27.86-5.56l.03-.08-.32-.57-.06-.03c-4.13-1.7-8.01-1.93-11.26-1.93-8.2 0-16.48 4.4-16.48 14.23 0 9.33 6.25 15.13 16.31 15.13 3.8 0 7.71-.8 11.95-2.44l.13-.05v-6.78c0-.83.49-.97 1.92-1.26l.16-.03v-1.76l-.2.01zM54.94 58.67c.15-.3.45-.49 1.51-.58l1.69-.14v-1.9h-.21c-.85.02-1.6.04-2.28.07-.93.03-1.74.06-2.44.06-.69 0-1.51-.03-2.45-.06-.67-.02-1.4-.05-2.22-.06h-.14l-.05.13c-.18.41-.36.84-.54 1.29-.46 1.1-.93 2.24-1.45 3.3l-7.27 15-6.24-13.04c-.29-.62-.64-1.37-1.02-2.16-.73-1.54-1.55-3.29-2.04-4.39l-.06-.13h-.13c-.45.01-.9.03-1.36.04-2.29.08-4.71.09-7.03 0-.46-.01-.91-.03-1.37-.04h-.21v1.9l1.69.14c1.05.08 1.35.28 1.51.57.21.46.26 1.52.26 3.21v16.6c0 1.65-.04 2.76-.26 3.19-.16.31-.46.51-1.51.59l-1.69.14v1.9h.21c.49-.01.99-.03 1.49-.05 1.05-.04 2.13-.08 3.18-.08 1.05 0 2.11.04 3.14.08.5.02 1 .04 1.5.05h.21v-1.9l-1.7-.14c-1.04-.08-1.35-.28-1.51-.58-.22-.44-.26-1.55-.26-3.2V62.39l8.97 18.69.16.34c.48 1.03.93 2 1.29 3.02l.05.13h1.67l.05-.13c.54-1.36 1.34-3.12 2.43-5.37l8-16.65v16.04c0 1.65-.04 2.76-.26 3.19-.13.26-.57.4-1.5.46l-1.69.14v2.02l1.3-.03c1.48-.04 3.31-.09 5.25-.09 1.89 0 3.72.05 5.19.09l1.33.03v-2.02l-1.7-.14c-.93-.07-1.37-.21-1.51-.46-.22-.44-.26-1.55-.26-3.2v-16.6c.02-1.66.06-2.73.28-3.18zm66.1 0c.13-.25.58-.39 1.51-.46l1.71-.14v-2.01h-.21l-1.5.03c-1.45.04-3.11.08-4.87.08-1.79 0-3.44-.04-4.91-.08-.54-.01-1.04-.03-1.49-.03h-.21v2.01l1.7.14c.94.07 1.39.21 1.52.46.24.48.26 1.79.26 3.21v6.24c-.59.03-1.39.07-3.12.07h-6.01c-1.73 0-2.53-.04-3.12-.07v-6.24c0-1.48.02-2.74.26-3.21.13-.25.58-.39 1.53-.46l1.7-.14v-2.01h-.21l-1.51.03c-1.45.04-3.1.08-4.84.08-1.79 0-3.46-.04-4.92-.08-.53-.01-1.03-.03-1.49-.03h-.21v2.01l1.71.14c.93.07 1.39.21 1.51.46.24.46.26 1.73.26 3.2v16.6c0 1.48-.02 2.73-.26 3.21-.13.26-.56.39-1.52.47l-1.71.13v2.03l.92-.03c1.59-.04 3.56-.1 5.69-.1 2.07 0 4.04.06 5.62.1l.95.03v-2.03l-1.7-.13c-.96-.08-1.4-.21-1.53-.47-.24-.47-.26-1.73-.26-3.21v-7.54c.59-.04 1.39-.07 3.12-.07h6.01c1.73 0 2.53.03 3.12.07v7.54c0 1.42-.02 2.72-.26 3.21-.13.26-.57.39-1.53.47l-1.7.13v2.03l.93-.03c1.58-.05 3.56-.1 5.68-.1 2.09 0 4.06.06 5.64.1l.94.03v-2.03l-1.71-.13c-.95-.08-1.39-.21-1.51-.47-.25-.47-.27-1.73-.27-3.2v-16.6c.02-1.48.04-2.74.29-3.21z"/>
</svg>
