<?xml version="1.0" encoding="UTF-8"?>
<!DOCTYPE svg PUBLIC "-//W3C//DTD SVG 1.1//EN" "http://www.w3.org/Graphics/SVG/1.1/DTD/svg11.dtd">
<svg version="1.1" id="Layer_1" xmlns="http://www.w3.org/2000/svg" xmlns:xlink="http://www.w3.org/1999/xlink" x="0px" y="0px" width="144px" height="168.01px" viewBox="0 0 144 168.01" enable-background="new 0 0 144 168.01" xml:space="preserve">
<path fill="#008BB0" d="M0,0.02v0.35c0,78.14,0,129.75,71.84,167.55l0.16,0.09l0.16-0.09C144,130.28,144,78.59,144,0.35V0L0,0.02z"/>
<path fill="#FFFFFF" d="M72,167.21c71.17-37.38,71.29-88.79,71.29-166.51L0.71,0.72C0.71,78.34,0.82,129.68,72,167.21z"/>
<path fill="#008BB0" d="M138.62,6.02V5.78L5.2,5.8v0.24c0,2.14,0,4.28-0.01,6.41C5.14,42.12,5.1,70.14,13.43,95.83c4.48,13.82,10.97,25.6,19.84,36.02c9.93,11.67,22.58,21.37,38.67,29.65l0.11,0.06l0.11-0.06c66.59-34.59,66.53-90.61,66.46-149.9C138.62,9.74,138.62,7.88,138.62,6.02z"/>
<polygon id="Triangle" fill="#FFFFFF" points="32.97,46.59 72.65,34.21 112.49,46.59 "/>
<polygon id="Middle" fill="#FFFFFF" points="93.04,39.72 93.04,29.48 52.65,29.48 52.65,39.62 72.65,33.38 "/>
<path id="Point" fill="#FFFFFF" d="M67.67,21.64h10.08c0.05-3.46-2.73-6.1-5.11-8.21C70.29,15.58,67.67,18.08,67.67,21.64"/>
<path id="Dome" fill="#FFFFFF" d="M77.55,21.99H68c-4.82,1.08-8.74,3.71-10.62,7.13h30.79C86.29,25.7,82.37,23.06,77.55,21.99z"/>
<path fill="#FFFFFF" d="M48.34,101.61c0.42-0.19,0.4,0.42,0.4,0.98v11.77c0,0.9-0.66,1.2-1.51,1.25l-1.92,0.08v0.99c3.11-0.03,4.26-0.08,5.4-0.08c1.17,0,2.29,0.05,4.71,0.08v-0.99l-1.66-0.08c-0.84-0.05-1.51-0.34-1.51-1.25v-8.56c0-3.18,0.18-5.46,0.27-6.74l-0.33-0.28c-2.29,0.91-6,2.23-7.94,2.69c-0.04,0.56,0.08,1.15,0.37,1.86L48.34,101.61z"/>
<path fill="#FFFFFF" d="M65.05,109.29c1.51,0.67,2.77,1.5,2.77,3.36c0,1.62-1.17,3.03-2.85,3.03c-1.99,0-3.37-1.6-3.37-3.54c0-1.63,0.64-2.56,1.83-3.57L65.05,109.29z M64.97,105.66c-1.25-0.54-2.55-1.26-2.55-2.86c0-1.51,1.09-2.36,2.55-2.36c1.73,0,2.74,1.22,2.74,2.89c0,1.07-0.54,2-1.57,2.82L64.97,105.66z M65.31,99.06c-3.61,0-5.63,2.01-5.63,4.94c0,1.91,1,3.22,2.65,4.09c-1.7,0.75-3.11,2.37-3.11,4.31c0,2.28,1.62,4.65,5.35,4.65c3.4,0,6.17-2.39,6.17-5.87c0-2.71-1.87-4.06-3.3-4.58c1.49-0.95,2.5-2.13,2.5-3.64C69.94,100.25,67.77,99.06,65.31,99.06"/>
<path fill="#FFFFFF" d="M78.35,101.61c0.42-0.19,0.4,0.42,0.4,0.98v11.77c0,0.9-0.66,1.2-1.51,1.25l-1.92,0.08v0.99c3.11-0.03,4.26-0.08,5.4-0.08c1.17,0,2.29,0.05,4.72,0.08v-0.99l-1.66-0.08c-0.85-0.05-1.51-0.34-1.51-1.25v-8.56c0-3.18,0.18-5.46,0.26-6.74l-0.32-0.28c-2.28,0.91-6,2.23-7.95,2.69c-0.02,0.56,0.08,1.15,0.38,1.86L78.35,101.61z"/>
<path fill="#FFFFFF" d="M92.37,101.61c0.42-0.19,0.4,0.42,0.4,0.98v11.77c0,0.9-0.66,1.2-1.51,1.25l-1.91,0.08v0.99c3.11-0.03,4.26-0.08,5.39-0.08c1.17,0,2.29,0.05,4.72,0.08v-0.99l-1.66-0.08c-0.85-0.05-1.52-0.34-1.52-1.25v-8.56c0-3.18,0.18-5.46,0.27-6.74l-0.32-0.28c-2.28,0.91-6,2.23-7.95,2.69c-0.03,0.56,0.08,1.15,0.38,1.86L92.37,101.61z"/>
<path fill="#FFFFFF" d="M90.08,72.54c-0.57,0.01-1.17,0.03-1.79,0.04c-1.54,0.04-3.15,0.08-4.57,0.08c-1.22,0-2.47-0.03-3.68-0.07c-0.76-0.02-1.53-0.04-2.29-0.06l-0.21,0v2.07l2.34,0.09c1.38,0.05,2.12,0.28,2.12,1.31v5.22c-1.75,0.65-3.33,0.96-4.96,0.96c-7.92,0-10.73-6.99-10.73-12.98c0-6.8,3.88-11.02,10.13-11.02c3.65,0,6.91,1.05,8.35,2.69l0.2,3.42L85,64.47h1.95l0.09-0.81c0.21-1.8,0.51-4.27,0.86-5.56l0.03-0.08l-0.32-0.57l-0.06-0.03c-4.13-1.7-8.01-1.93-11.26-1.93c-8.2,0-16.48,4.4-16.48,14.23c0,9.33,6.25,15.13,16.31,15.13c3.8,0,7.71-0.8,11.95-2.44l0.13-0.05v-6.78c0-0.83,0.49-0.97,1.92-1.26l0.16-0.03v-1.76L90.08,72.54z"/>
<path fill="#FFFFFF" d="M54.94,58.67c0.15-0.3,0.45-0.49,1.51-0.58l1.69-0.14v-1.9l-0.21,0c-0.85,0.02-1.6,0.04-2.28,0.07c-0.93,0.03-1.74,0.06-2.44,0.06c-0.69,0-1.51-0.03-2.45-0.06c-0.67-0.02-1.4-0.05-2.22-0.06l-0.14,0l-0.05,0.13c-0.18,0.41-0.36,0.84-0.54,1.29c-0.46,1.1-0.93,2.24-1.45,3.3l-7.27,15l-6.24-13.04c-0.29-0.62-0.64-1.37-1.02-2.16c-0.73-1.54-1.55-3.29-2.04-4.39l-0.06-0.13l-0.13,0c-0.45,0.01-0.9,0.03-1.36,0.04c-2.29,0.08-4.71,0.09-7.03,0c-0.46-0.01-0.91-0.03-1.37-0.04l-0.21,0v1.9l1.69,0.14c1.05,0.08,1.35,0.28,1.51,0.57c0.21,0.46,0.26,1.52,0.26,3.21v16.6c0,1.65-0.04,2.76-0.26,3.19c-0.16,0.31-0.46,0.51-1.51,0.59l-1.69,0.14v1.9l0.21,0c0.49-0.01,0.99-0.03,1.49-0.05c1.05-0.04,2.13-0.08,3.18-0.08c1.05,0,2.11,0.04,3.14,0.08c0.5,0.02,1,0.04,1.5,0.05l0.21,0v-1.9l-1.7-0.14c-1.04-0.08-1.35-0.28-1.51-0.58c-0.22-0.44-0.26-1.55-0.26-3.2V62.39l8.97,18.69l0.16,0.34c0.48,1.03,0.93,2,1.29,3.02l0.05,0.13h1.67l0.05-0.13c0.54-1.36,1.34-3.12,2.43-5.37l8-16.65v16.04c0,1.65-0.04,2.76-0.26,3.19c-0.13,0.26-0.57,0.4-1.5,0.46l-1.69,0.14v2.02l1.3-0.03c1.48-0.04,3.31-0.09,5.25-0.09c1.89,0,3.72,0.05,5.19,0.09l1.33,0.03v-2.02l-1.7-0.14c-0.93-0.07-1.37-0.21-1.51-0.46c-0.22-0.44-0.26-1.55-0.26-3.2v-16.6C54.68,60.19,54.72,59.12,54.94,58.67z"/>
<path fill="#FFFFFF" d="M121.04,58.67c0.13-0.25,0.58-0.39,1.51-0.46l1.71-0.14v-2.01l-0.21,0c-0.46,0.01-0.96,0.02-1.5,0.03c-1.45,0.04-3.11,0.08-4.87,0.08c-1.79,0-3.44-0.04-4.91-0.08c-0.54-0.01-1.04-0.03-1.49-0.03l-0.21,0v2.01l1.7,0.14c0.94,0.07,1.39,0.21,1.52,0.46c0.24,0.48,0.26,1.79,0.26,3.21v6.24c-0.59,0.03-1.39,0.07-3.12,0.07h-6.01c-1.73,0-2.53-0.04-3.12-0.07v-6.24c0-1.48,0.02-2.74,0.26-3.21c0.13-0.25,0.58-0.39,1.53-0.46l1.7-0.14v-2.01l-0.21,0c-0.46,0.01-0.97,0.02-1.51,0.03c-1.45,0.04-3.1,0.08-4.84,0.08c-1.79,0-3.46-0.04-4.92-0.08c-0.53-0.01-1.03-0.03-1.49-0.03l-0.21,0v2.01l1.71,0.14c0.93,0.07,1.39,0.21,1.51,0.46c0.24,0.46,0.26,1.73,0.26,3.2v16.6c0,1.48-0.02,2.73-0.26,3.21c-0.13,0.26-0.56,0.39-1.52,0.47l-1.71,0.13v2.03l0.92-0.03c1.59-0.04,3.56-0.1,5.69-0.1c2.07,0,4.04,0.06,5.62,0.1l0.95,0.03v-2.03l-1.7-0.13c-0.96-0.08-1.4-0.21-1.53-0.47c-0.24-0.47-0.26-1.73-0.26-3.21v-7.54c0.59-0.04,1.39-0.07,3.12-0.07h6.01c1.73,0,2.53,0.03,3.12,0.07v7.54c0,1.42-0.02,2.72-0.26,3.21c-0.13,0.26-0.57,0.39-1.53,0.47l-1.7,0.13v2.03l0.93-0.03c1.58-0.05,3.56-0.1,5.68-0.1c2.09,0,4.06,0.06,5.64,0.1l0.94,0.03v-2.03l-1.71-0.13c-0.95-0.08-1.39-0.21-1.51-0.47c-0.25-0.47-0.27-1.73-0.27-3.2v-16.6C120.77,60.4,120.79,59.14,121.04,58.67z"/>
</svg>