<svg xmlns="http://www.w3.org/2000/svg" viewBox="0 0 1000 358.699538028169"><defs id="defs9472">
    <style id="style9470">.cls-1,.cls-2,.cls-3{fill:#006c66;}.cls-2{fill-rule:evenodd;}.cls-3{stroke:#006c66;stroke-miterlimit:3.86;}</style>
  </defs><defs><style>.minerva-base-style{}</style></defs><g transform="translate(0 0) scale(0.9523809523809523) translate(0 0)" style="fill: #006c66;"><title>minerva</title><path d="M105,0A105,105,0,1,0,210,105,105.1,105.1,0,0,0,105,0Zm0,207.1A102.1,102.1,0,1,1,207.1,105,102.2,102.2,0,0,1,105,207.1Z"/><path class="minerva-base-style" d="M166.6,97c-1.4-3.1-.5-5.1-.9-7.3s-2.7-7-4.3-10.8c-.7-1.7,3.8-1.3.4-7.6,0-.2,4.7-2,0-5.5a26.4,26.4,0,0,1-6-6.7,1,1,0,0,1,0-1.3c2.7-2.4,2.8-5.8-.1-7.5s-4.5,0-6.7,1.4c-.7.5-1.1.8-1.9.5L145.3,51c2.7-2.6,3.3-5.2,3.1-5.6s-4.6-1.3-10.2,1l-.4-.3c2.3-3.9,1-6.7.9-6.9h-.1A81,81,0,0,1,151,25.9h.1c.2-.3.3-.6-.2-.9l-1-.6A92.4,92.4,0,0,0,12.7,105c0,29.5,15,57.9,39.4,75.6a13.5,13.5,0,0,0,2.8,1.6A1.1,1.1,0,0,0,56,182l.3-.5a1,1,0,0,0,.3-.8c0-.7-.9-1.3-2.1-3a27.7,27.7,0,0,1-4.7-15.1,22.1,22.1,0,0,1,4.5-13.7c3.7,3.9,11.7,10.9,11.5,17.4s-6.9,6.8-5.4,12.2c.9,3.4,3.4,2,3.9,4.6.7,4.4,6.7,7.3,9.3,6.9.7-.1,1.2.4,2.4,1.7s6.2,1.6,8.2,1.2,4.1,1.4,8,.9,6.1-.9,8.2-.9,22.5-.3,36,1.8c2.4.4,3.1-.7,2.1-2.5-4.9-8.6-5.6-15.8-2.8-25,5,.4,12.2,1.7,21.6-4a11,11,0,0,0,5.1-9.5c-.1-2.1-1-4.7-.5-6.7s1.3-2.7,2.1-3.2c3.6-2.6,1-4.6.4-4.8a3.4,3.4,0,0,0,1.1-4.6c-.7-.7-2.7-6.2-.4-7.3s5.3-1.8,8.1-3.1a4.5,4.5,0,0,0,2.4-6C174.2,114.4,166.8,97.4,166.6,97ZM64.7,179.1c-.7.2-2.9.3-2.4-2.7s2.3-2.6,3.3-1.6S64.9,177.6,64.7,179.1Zm87-125.9c1.2-.8,2.5-1.1,3.3-.4,2.6,2.6-2.9,4.1-1.8,6.1a30.7,30.7,0,0,0,7.5,8.4c1.2,1,1.4,3.1-3.3,4.1s-23.6,5.9-33.6,16.5c-12.5,13.2-20.4,30.3-21.5,28s-3.6-2.8-3.2-3.5C117,81.6,145.1,57.3,151.7,53.2Zm8.2,21.7c-1,2.9-9.1,5.5-8.7,3.5s0-2.2.6-2.3,3.5-1.1,7.5-2.1C159.7,73.9,160.2,74.1,159.9,74.9Zm-20.6,5.3c-.2-1.2,8.5-4.1,8.8-3.3s-1.8,6-4.7,7-4.7.9-4.6.4A11,11,0,0,0,139.3,80.2ZM119,125.8c-4,2.5-6.2-2.2-6.8-3.1a3.7,3.7,0,0,1-.5-3.1c.3-1.4.5-3.3-.4-9.3-.4-2.7,5-9.2,6.3-10.4s3.1.6,3.2,2.6c.3,3.6-1.8,5.6-3.9,7.2s-3.1,4.4-2.6,5.1a1.5,1.5,0,0,0,1.9-.9c1.5-3.3,6-4.9,6.7-6.7s.3-4.4.2-5.6.9-1.2,1.6-1.1,1.4,1.4,1.8,2.7c2.9,7.5-4.3,12-5.5,13.8S122.1,123.9,119,125.8Zm6.1-29.1c-2.2,1.5-5.3-.5-4.7-1.4a43.7,43.7,0,0,1,11.5-11c3.4-2.1,3.8-2.3,4-1.1a10.6,10.6,0,0,1-2.6,7.5c-2.3,2.5-4.6,2.3-5.8,2.6S126.7,95.6,125.1,96.7Zm-19.3,25.6c-1-.2-1.4-2.1-1.2-2.9s3.1-5.2,4-6.4a.5.5,0,0,1,.8.3C110,117.4,109.4,123.1,105.8,122.3ZM138,48.2a17.7,17.7,0,0,1,7.5-1.6c.8.1-1.9,4.8-6.6,6.8s-8.5,2.5-8.9,2.3S134.1,49.9,138,48.2ZM54.7,126.5c-1.5-1.7-2.8-2.6-2.9-2.5a22.4,22.4,0,0,0-3.6,8.9A65.4,65.4,0,0,1,40.7,105C39.3,69.6,69,41.1,105.2,41.2a56.8,56.8,0,0,1,22.4,4.6,31.3,31.3,0,0,0-3.7,6.6c0-1.9-.5-3.4-.4-4.6s-5.1.9-9.7,8.3a19.9,19.9,0,0,0-2.2,5.3c-.1-2.8-.7-4.9-.9-4.9a16.1,16.1,0,0,0-8.5,8.8,22.4,22.4,0,0,0-1.1,3.4c-.2-1.9-.7-3.2-.9-3.2s-5.9,2.3-8.6,8.9A15.4,15.4,0,0,0,90.5,79c-.5-2.3-1.4-3.7-1.7-3.4-1.9,2.4-5.7,3.5-7.6,9.6a13.2,13.2,0,0,0-.7,4.2c-.8-2-2-3.2-2.3-3.2s-6.1,5.5-7,10.9a15.8,15.8,0,0,0,.2,5.8c-1.1-1.8-2.5-3-3.1-4.8-.9.5-5.7,5-5.8,10.7a19.7,19.7,0,0,0,.7,6.1c-1.6-2.9-3.8-4.2-4.1-4.1s-4,4.1-4.8,11.1A11.8,11.8,0,0,0,54.7,126.5Zm74.1-79.7c2.8-3.4,7.6-6.1,8.2-5.8s-.8,5.6-3.9,8.6-8.1,6.2-8.6,6.1S126.2,49.8,128.8,46.8Zm-9.3,13a21,21,0,0,0-5.6,6.4c-.5.9-1.9-5,1.7-10.6,2.2-3.5,6.6-6.6,6.5-6.2S124.2,56,119.5,59.8Zm-10.1,7.5c-3.4,5.1-3.6,3.3-7.3,8.3-.2.2-.2-6.5,1.1-9.4,2.1-4.7,5.7-7.4,6.2-7.5S111.3,64.5,109.4,67.3ZM98.3,77.4c-1.7,3-3.3,2.3-6.2,6.7-.3.4-1.1-3.6.7-9.1a12.6,12.6,0,0,1,5.9-6.9C99.3,68,100.4,73.8,98.3,77.4ZM88,88.1c-1.8,3.9-2.9,4-5,6.4-.3.4-1.8-3.7-.4-8.8s4-5.6,5.3-7S89.9,84,88,88.1Zm-8.4,6.6a10.3,10.3,0,0,1-.4,3c-1.3,4.3-3.9,6.2-5.3,8.1a15.7,15.7,0,0,1-1.6-5.8,15.2,15.2,0,0,1,5.2-11.2C78.3,88.8,79.6,92,79.6,94.7Zm-8.5,12.8A14.9,14.9,0,0,1,66,118.3a17.7,17.7,0,0,1-2.2-7.6c-.2-6.3,2.4-8.5,3.6-9.7C67.9,102.8,71.1,104.2,71.1,107.5ZM59,113.8c1.8.9,3.9,3.4,4.1,8.2s-3.2,8.7-4.6,9.4c-.9-3.7-2.6-4.4-2.6-8A18,18,0,0,1,59,113.8Zm7.3,12.5c4.6-2,9.6-1.7,9.8-1.5s-1.5,5.9-5.9,8.2-9.5,2.7-10,2.1S61.7,128.3,66.3,126.3Zm-.4-3.4c.3-1.5,3-6.5,7.1-8.3h0a18.4,18.4,0,0,1,9.4-1.5c.5.2-1.7,5.6-5.8,7.6S70.1,121.6,65.9,122.9Zm6.9-11.8c.2-.4,3.5-6.4,7.4-8.2a17.5,17.5,0,0,1,8.9-1.4c.3.1-1.8,5.4-6.2,7.6S72.6,111.6,72.8,111.1Zm8.9-11.9c-.3-.2,4.4-6.4,8.4-8.3a15.6,15.6,0,0,1,8.4-1c.3.3-1.9,5.5-6.5,7.5A24.2,24.2,0,0,1,81.7,99.2ZM92.4,87.4c-.2-.2,3.4-6.3,7.4-7.9s7.7-.1,8.9,0-1.3,4.5-6.6,6.4S93.1,87.7,92.4,87.4Zm12-11.4c.1-.3,4.1-5.9,8.1-7.3a16.4,16.4,0,0,1,9.2-.2c.5.2-2.8,5-7.7,6.5S104.3,76.3,104.4,76Zm12.1-9.9c-.5-.3,4.3-5.7,8.2-7.2a18,18,0,0,1,8.3-1c.3.2-2.5,4.9-7.1,6.7S117.1,66.5,116.5,66.1ZM50.2,175.3C28.6,158.1,15.6,132.1,15.6,105A89.3,89.3,0,0,1,146.4,25.8a.4.4,0,0,1,.1.7,97.3,97.3,0,0,0-10.2,11.4,73.1,73.1,0,0,0-31.3-7A74.3,74.3,0,0,0,30.9,105a72.1,72.1,0,0,0,17.9,48.2,23.1,23.1,0,0,0-1.9,9.4A25.6,25.6,0,0,0,50.2,175.3Zm.2-24.8h-.1A69.2,69.2,0,0,1,33.9,105,71.2,71.2,0,0,1,105,33.9a70.1,70.1,0,0,1,29.6,6.4,22.6,22.6,0,0,0-4.1,2.6A63.1,63.1,0,0,0,105,37.8,67.3,67.3,0,0,0,37.8,105c0,16.1,5,30.2,14.8,42C52.1,147.9,51.3,149.1,50.4,150.5Zm3.5-5.6c-1.3-1.2-4.1-4.3-4.4-8.3V136c0-4.3,1.9-8.6,2.4-9s5.3,3.3,5.4,8.7A14.4,14.4,0,0,1,53.9,144.9Zm8-7.2c3.9-1.8,9.6-1.4,9.3-1.1s-1.8,5.8-6.2,8a12.1,12.1,0,0,1-8.7,1.3C58.6,143.3,58.1,139.5,61.9,137.7Zm5.2,46.5c-.6-2.7-.4-6.3.5-7.3s4.9-1.2,5-.1-1.1,5.4.3,10.2C72.6,187.7,68.3,187.4,67.1,184.2Zm.3-11.1c-.3-2,1.6-3.9,1.6-8.2s-6.6-12.6-11.1-17.3a19.5,19.5,0,0,0,7.9-1.9c6.6-3.1,7.9-10.1,8.1-10.4a11,11,0,0,0-3.8-.4l.8-.4c6.4-3.5,8.1-11,7.8-11.1a17,17,0,0,0-4-.3l2-.7c6.8-2.7,8.7-10.3,8.5-10.6a16.1,16.1,0,0,0-3.5-.4l1.9-.8c6.2-3.1,8.4-10.1,8.1-10.3a10.5,10.5,0,0,0-3.3-.4,23.7,23.7,0,0,0,4.5-1.5c6.7-2.9,8.9-9.3,8.6-9.6a10.9,10.9,0,0,0-3-.5,34.5,34.5,0,0,0,4.4-1.3c6.6-2.2,9.2-8.5,8.8-8.6l-3.7-.8a24.5,24.5,0,0,0,6.6-1.3c7.1-2.4,9.6-6.7,9.8-8.6a6,6,0,0,0-2.3-.8,29.3,29.3,0,0,0,4.7-1.2c6.6-2.7,9.4-9.3,9.6-9.8a29.3,29.3,0,0,0,3.9-1.6l1.9-.9,1.6,1.1c1,.6,1.4.8.9,1.2C122,75,105,99.5,97.6,111.3c-.2.4-.6.3-1.3.3-7.9-.6-12.4,8.9-8.9,17.8-.4,1.8-4.2,5.3-4.5,5.5s-1,1.4.3,1.3,4.2-3.2,5.4-4.5c.4.6,2.2,2,1.3,2.8A63.6,63.6,0,0,1,76,145c-2.6,1.2,4.2,2.1,15.7-8.3.7-.6,1.5,2.4,2.5,3.7-2,6.5,2.9,19.1,2.1,23a2.8,2.8,0,0,1-2.8,2.7c-11.4.3-12.5-.3-18.3,1.4-2.7.8-2,2.6-.1,2.1s4.6-1.5,16.9-.7c3.1.1,6.5-.6,6.5-5.7s-3.6-18.4-2.4-20.3a6.9,6.9,0,0,0,3.5,1.4c-.2,4.5,7,19,3.8,27-1.2,3-6.4,2.7-15.4,1.8C72.7,171.6,67.7,174.9,67.4,173.1Zm35.1,9.9c-5.9,2-8.3-4.9-7.3-6.4s4.4,1,7.3-.9S106,181.8,102.5,183Zm-27,4.3c-.8-3.7-1.1-10,.4-11.5s4.9-.9,4.8.2c-.3,4.3-2.1,9.2,1.2,14.1C83.2,192,76.7,192.3,75.5,187.3Zm11.4,4.2c-1.6-.4-6-7.4-2.4-15.8.3-.8,5.8-.3,6.8,0s-.8,6.8,6.8,9.8C98.8,185.8,98,194.3,86.9,191.5Zm47.2-23.3c-2.5,8.8-3.8,12.3,0,21.9.5,1.3.9,2.3-.2,2.1-7.7-1.4-9.4-2.6-33.7-.6-1.7.2.6-3.4.3-5.8,2.2-.3,5.8-1.3,6.5-4.9s-2.1-7.6-1.8-8.2c3.5-6.7-.2-14.1-3.1-26.6-.3-1.2.4-1.7.9-1.1,15.6,16.9,25.5,20.2,30.9,21.8C134.4,167,134.3,167.6,134.1,168.2ZM174,122.1c-3.3,2.9-8.3,3.1-10.3,4.9s-1.5,2.5-.4,5.2,1.1,1.7-1.1,2.3-4.1,5.8-8.8,4.9c-1.8-.3-.5.8.2.9,2.6.3,3.7-.5,4.6-1.4s2.2-2.4,3.6-2.9,2.9-.5,3,.6-1.9,2.1-2.7,2.5c1,.5,3.9,1.9,1.4,3.6s-4.6-.5-4.9-.7-1.7-.2-1.3.3,5.2,1.3,4.5,2.2c-3.5,4.7-.6,7.5-1.7,12.3s-7.7,7.5-12.8,8.4c-17.4,3.1-34.3-11.6-44.2-22.8.9-2.1.8-4.8-.1-3.8s-.7,2.4-2.8,2.9c-3.9,1-5.7-5.9-6.9-7.1-4.8-4.7-6.7-11.4-3.9-17.3s9-4.7,11.4-1.1,1.7,7,3.4,8.3,4.8.2,5.4,0,1.7,4.3,8,4.1,5.9-10.7,6.9-11.6c8.6-8.4,4.2-15.9,2.6-17.6s1-3.6,1.5-3.7a13,13,0,0,0,9.4-7.7s8.4-.2,11.4-6.2c.8-1.6,3.3,1.5,8.9-2.9a.8.8,0,0,1,1.4.3c3.7,8.9,5.2,11.3,4.9,15.8s8.7,21.5,9.4,23.1S174.8,121.3,174,122.1Z"/><path class="minerva-base-style" d="M153.8,90c-4.9.2-10.6,6.2-12.4,7s-1.3,1.5-.2,1.1,5.9-4.7,10.7-6.4,3.6,1.8,5,1.6S156.6,89.9,153.8,90Z"/><path class="minerva-base-style" d="M154.9,94.8c-.4.1.4,2.2-1.7,2.3-4.6.3-8.3,4.7-11.1,6a12.9,12.9,0,0,1-3.8,1.4.3.3,0,0,0,.1.6c11.7,1.6,16.2,1.1,16.3.7s-.6-1.2-.4-1.7a11.3,11.3,0,0,0,.1-5.5c-.2-.8,1.8-.3,1.8-1.3S155.6,94.7,154.9,94.8Zm-1.8,9.3c-.2.9-5.5.5-8.3.2-.7,0-1.8-.1.3-1.4s4.1-2.8,7.2-3.4a.8.8,0,0,1,.8.6A10.6,10.6,0,0,1,153.1,104.1Z"/><path class="minerva-base-style" d="M168.4,120.8c-.9,0-4.5,1.6-5.9,2.5s-4.4,2.7-4.2-.8c.1-1.3.9-4.4.9-5.3s-1-.7-1.1,0a36.9,36.9,0,0,1-.7,5.3c-.4,1.8,1.2,4,3.6,2.7s4.8-2.9,7.3-3.4C168.9,121.7,169,120.8,168.4,120.8Z"/><path class="minerva-base-style" d="M100.5,133.6c-.7-.3-.5,1.2-1.4,1s-.2-1.3-1.8-3-2.8-1.2-4.3-3.6-.3-12,3.1-10.8,1.6,5,1,8,2.5,2.8,2.8,2.1-1.1-.9-1.4-1.9,3.5-7.6-1.8-9.4c-3.8-1.3-6.4,3.6-5.9,8.9a8,8,0,0,0,5.1,7.1c2.3.8.6,4,3.7,4C101,136,101.3,133.9,100.5,133.6Z"/><path class="minerva-base-style" d="M131.3,33.4c.2.1.3,0,.5-.1l6.5-8.3a.5.5,0,0,0-.2-.6L137,24a.4.4,0,0,0-.5.1L130,32.4c-.2.2-.1.5.2.6Z"/><path class="minerva-base-style" d="M119.2,30l1.1.3a.5.5,0,0,0,.5-.3l3.8-9.4a.4.4,0,0,0-.3-.6l-1.2-.2h-.3l-3.9,9.6A.4.4,0,0,0,119.2,30Z"/><path class="minerva-base-style" d="M105.8,28.7h1.1c.2.1.4-.1.4-.3l1-10a.5.5,0,0,0-.4-.5h-1.1c-.3,0-.4.2-.5.4l-.9,10A.4.4,0,0,0,105.8,28.7Z"/><path class="minerva-base-style" d="M92.8,29.7l1.1-.2c.2,0,.4-.2.3-.4l-1.9-9.9c0-.2-.2-.4-.4-.3H90.7c-.2.1-.4.3-.3.5l1.9,9.9C92.3,29.6,92.5,29.7,92.8,29.7Z"/><path class="minerva-base-style" d="M79.4,32.8l.5.2,1.1-.4a.4.4,0,0,0,.3-.6l-4.6-9a.4.4,0,0,0-.5-.2l-1,.3a.4.4,0,0,0-.3.6Z"/><path class="minerva-base-style" d="M67,38.5c.1.2.3.2.5.1l1-.6a.4.4,0,0,0,.1-.6l-6.7-7.7c-.2-.2-.4-.2-.5-.1l-1,.6c-.3.1-.3.4-.1.6Z"/><path class="minerva-base-style" d="M55.4,46.7c.2.1.4.1.5-.1l.9-.7a.5.5,0,0,0,0-.7l-8.5-5.9h-.5l-.9.8a.5.5,0,0,0,0,.7Z"/><path class="minerva-base-style" d="M45.4,57.1a.4.4,0,0,0,.4-.2l.8-.9c.2-.2.1-.5-.2-.6l-9.8-3.8c-.2-.1-.4-.1-.5.1l-.7.9a.4.4,0,0,0,.2.7Z"/><path class="minerva-base-style" d="M26.8,67.8l10.5,1.5c.2,0,.4-.1.4-.3l.6-1a.4.4,0,0,0-.3-.6L27.5,65.9l-.5.2a5.4,5.4,0,0,1-.5,1.1A.4.4,0,0,0,26.8,67.8Z"/><path class="minerva-base-style" d="M21.1,83.7l10.7-1a.3.3,0,0,0,.3-.3,7.6,7.6,0,0,0,.4-1.1.4.4,0,0,0-.4-.6l-10.8,1-.4.3-.3,1.2C20.6,83.5,20.8,83.8,21.1,83.7Z"/><path class="minerva-base-style" d="M29.2,96.5c0-.4.1-.9.1-1.3s-.2-.5-.5-.4L18.4,98.4c-.2.1-.3.2-.3.4s-.1.8-.1,1.2a.4.4,0,0,0,.6.4l10.3-3.6A.3.3,0,0,0,29.2,96.5Z"/><path class="minerva-base-style" d="M28.9,110.8v-1.3a.5.5,0,0,0-.7-.4l-9.4,6.3c-.2,0-.2.2-.2.4s.1.8.1,1.2a.5.5,0,0,0,.7.3l9.4-6.2C28.9,111,29,110.9,28.9,110.8Z"/><path class="minerva-base-style" d="M31.3,125l-.3-1.3a.4.4,0,0,0-.7-.2L22.6,132c-.1.1-.2.3-.1.4s.3.8.4,1.2a.4.4,0,0,0,.7.2l7.6-8.4C31.3,125.3,31.3,125.2,31.3,125Z"/><path class="minerva-base-style" d="M35.2,137.7,29.8,148c-.1.1,0,.3,0,.4l.7,1.2a.4.4,0,0,0,.7-.1l5.4-10.2c0-.1.1-.2,0-.4l-.6-1.2A.5.5,0,0,0,35.2,137.7Z"/><path class="minerva-base-style" d="M42.9,149.3c-.2-.3-.7-.2-.7.1l-2.9,12c-.1.2,0,.3,0,.4l1,1a.4.4,0,0,0,.7-.1l2.8-11.9c.1-.1,0-.2,0-.3Z"/></g><rect x="220" y="0" width="2.65" height="200" style="fill: #666666"/><g transform="translate(242.65 20) scale(1.1764705882352942) translate(0 0)"><title id="title9474">mpib-desktop-de</title><path style="fill:#006c66" id="path9562" d="m 30.48,64.36 24.24,0.12 c 0,-14.17 -9.76,-24.46 -23.16,-24 h -1.08 z m 126.06,51.59 a 7,7 0 0 1 6.72,7 6.8,6.8 0 0 1 -6.79,6.81 6.69,6.69 0 0 1 -0.93,-0.06 V 136 H 20.29 v -7.55 a 6.53,6.53 0 1 0 0,-12.76 V 91.59 H 0 L 20.53,30.49 V 0 h 136 l -0.75,0.39 V 30.87 L 135.26,92 h 20.29 v 24.11 a 6.69,6.69 0 0 1 0.99,-0.16 z" class="cls-1"/><path style="fill:#006c66" id="path9564" d="m 299.78,64.36 24.24,0.12 c 0,-14.17 -9.76,-24.46 -23.16,-24 h -1.08 z m 126.06,51.59 a 7,7 0 0 1 6.72,7 6.8,6.8 0 0 1 -6.8,6.81 6.72,6.72 0 0 1 -0.92,-0.06 V 136 H 289.59 v -7.55 a 6.53,6.53 0 1 0 0,-12.76 V 91.59 H 269.3 l 20.53,-61.1 V 0 h 136 l -0.75,0.39 V 30.87 L 404.56,92 h 20.29 v 24.11 a 6.69,6.69 0 0 1 0.99,-0.16 z" class="cls-1"/><path style="fill:#006c66" id="path9566" d="m 166,65.71 24.24,0.12 c 0,-14.17 -9.76,-24.46 -23.16,-24 H 166 Z" class="cls-1"/><path style="fill:#006c66" id="path9568" d="m 433.09,65.71 24.24,0.12 c 0,-14.17 -9.76,-24.46 -23.16,-24 h -1.08 z" class="cls-1"/></g><g transform="translate(0 187.26159019267607)"><g transform="translate(0 87.50798727211269)" style="fill: #006c66;"><path d="M4.859-54L19.516-54L33.500-14.837L47.406-54L62.125-54L62.125 0L50.875 0L50.875-14.760L52-40.248L37.313 0L29.609 0L14.953-40.202L16.078-14.760L16.078 0L4.859 0L4.859-54ZM114.359 0L110.594-10.922L90.922-10.922L87.188 0L75.266 0L95.516-54L105.922-54L126.297 0L114.359 0ZM100.719-40.357L93.953-20L107.563-20L100.719-40.357ZM149.125-54L159.344-35.380L169.547-54L182.438-54L166.594-27.225L182.844 0L169.797 0L159.344-18.915L148.875 0L135.828 0L152.078-27.225L136.234-54L149.125-54ZM210.156-28L210.156-19.297L189.109-19.297L189.109-28L210.156-28ZM247.906-18.906L238.078-18.906L238.078 0L226.859 0L226.859-54L248.094-54Q254.219-54 258.875-51.768Q263.531-49.536 266.039-45.429Q268.547-41.322 268.547-36.064L268.547-36.064Q268.547-28.100 263.070-23.503Q257.594-18.906 247.906-18.906L247.906-18.906ZM238.078-44.922L238.078-28L248.094-28Q252.547-28 254.883-30.075Q257.219-32.149 257.219-36.004L257.219-36.004Q257.219-39.968 254.859-42.406Q252.500-44.844 248.359-44.922L248.359-44.922L238.078-44.922ZM295.078-54L295.078-9.016L318.891-9.016L318.891 0L283.859 0L283.859-54L295.078-54ZM368.359 0L364.594-10.922L344.922-10.922L341.188 0L329.266 0L349.516-54L359.922-54L380.297 0L368.359 0ZM354.719-40.357L347.953-20L361.563-20L354.719-40.357ZM437.125-54L437.125 0L425.906 0L404.078-35.535L404.078 0L392.859 0L392.859-54L404.078-54L425.938-18.403L425.938-54L437.125-54ZM486.375-17.875L497.594-17.875Q496.953-9.094 491.102-4.047Q485.250 1 475.688 1L475.688 1Q465.219 1 459.219-6.057Q453.219-13.113 453.219-25.427L453.219-25.427L453.219-28.760Q453.219-36.631 455.984-42.616Q458.750-48.600 463.891-51.800Q469.031-55 475.828-55L475.828-55Q485.250-55 491.008-49.953Q496.766-44.906 497.656-35.797L497.656-35.797L486.453-35.797Q486.031-41.063 483.508-43.438Q480.984-45.813 475.828-45.813L475.828-45.813Q470.219-45.813 467.438-41.781Q464.656-37.749 464.578-29.294L464.578-29.294L464.578-25.176Q464.578-16.329 467.250-12.243Q469.922-8.156 475.688-8.156L475.688-8.156Q480.875-8.156 483.438-10.531Q486-12.906 486.375-17.875L486.375-17.875ZM543.891 0L529.906-21.659L524.078-15.426L524.078 0L512.859 0L512.859-54L524.078-54L524.078-29.519L529.016-36.233L542.875-54L556.672-54L537.344-30.016L557.234 0L543.891 0ZM583.156-28L583.156-19.297L562.109-19.297L562.109-28L583.156-28ZM611.781-54L611.781 0L600.563 0L600.563-54L611.781-54ZM674.125-54L674.125 0L662.906 0L641.078-35.535L641.078 0L629.859 0L629.859-54L641.078-54L662.938-18.403L662.938-54L674.125-54ZM720.078-14.044L720.078-14.044Q720.078-17.223 717.836-18.930Q715.594-20.637 709.766-22.531Q703.938-24.426 700.531-26.257L700.531-26.257Q691.266-31.264 691.266-39.776L691.266-39.776Q691.266-44.188 693.750-47.654Q696.234-51.120 700.891-53.060Q705.547-55 711.344-55L711.344-55Q717.172-55 721.734-52.888Q726.297-50.775 728.820-46.918Q731.344-43.061 731.344-38.164L731.344-38.164L720.125-38.164Q720.125-41.910 717.766-43.994Q715.406-46.078 711.156-46.078L711.156-46.078Q707.031-46.078 704.750-44.330Q702.469-42.582 702.469-39.729L702.469-39.729Q702.469-37.063 705.148-35.268Q707.828-33.473 713.016-31.893L713.016-31.893Q722.594-29.015 726.969-24.745Q731.344-20.475 731.344-14.125L731.344-14.125Q731.344-7.055 725.992-3.028Q720.641 1 711.594 1L711.594 1Q705.313 1 700.156-1.300Q695-3.600 692.289-7.606Q689.578-11.611 689.578-16.900L689.578-16.900L700.828-16.900Q700.828-7.859 711.594-7.859L711.594-7.859Q715.594-7.859 717.836-9.488Q720.078-11.116 720.078-14.044ZM787.828-54L787.828-44.922L771.156-44.922L771.156 0L759.938 0L759.938-44.922L743.500-44.922L743.500-54L787.828-54ZM813.781-54L813.781 0L802.563 0L802.563-54L813.781-54ZM871.828-54L871.828-44.922L855.156-44.922L855.156 0L843.938 0L843.938-44.922L827.500-44.922L827.500-54L871.828-54ZM915.797-54L927.063-54L927.063-18.268Q927.063-9.358 921.469-4.179Q915.875 1 906.203 1L906.203 1Q896.656 1 891.055-4.031Q885.453-9.062 885.344-17.863L885.344-17.863L885.344-54L896.547-54L896.547-18.212Q896.547-12.888 899.109-10.452Q901.672-8.016 906.203-8.016L906.203-8.016Q915.656-8.016 915.797-17.916L915.797-17.916L915.797-54ZM984.828-54L984.828-44.922L968.156-44.922L968.156 0L956.938 0L956.938-44.922L940.500-44.922L940.500-54L984.828-54Z"/></g><g transform="translate(0 158.18724361014085)" style="fill: #006c66;"><path d="M12.563 0L6.969 0L6.969-28.688L1.813-28.688L1.813-33L6.969-33L6.969-36.264Q6.969-41.403 9.781-44.202Q12.594-47 17.719-47L17.719-47Q19.656-47 21.563-46.484L21.563-46.484L21.250-41.953Q19.844-42.219 18.234-42.219L18.234-42.219Q15.516-42.219 14.039-40.697Q12.563-39.176 12.563-36.314L12.563-36.314L12.563-33L19.531-33L19.531-28.688L12.563-28.688L12.563 0ZM48.516 0L48.391-2.927Q45.141 1 38.828 1L38.828 1Q33.609 1 30.875-2.105Q28.141-5.209 28.109-11.275L28.109-11.275L28.109-33L33.688-33L33.688-11.359Q33.688-3.750 39.734-3.750L39.734-3.750Q46.125-3.750 48.250-8.636L48.250-8.636L48.250-33L53.828-33L53.828 0L48.516 0ZM31.047-41.172L31.047-41.172Q31.047-42.531 31.875-43.453Q32.703-44.375 34.336-44.375Q35.969-44.375 36.813-43.453Q37.656-42.531 37.656-41.172Q37.656-39.813 36.813-38.906Q35.969-38 34.336-38Q32.703-38 31.875-38.906Q31.047-39.813 31.047-41.172ZM44.031-41.133L44.031-41.133Q44.031-42.483 44.859-43.413Q45.688-44.344 47.320-44.344Q48.953-44.344 49.797-43.413Q50.641-42.483 50.641-41.133Q50.641-39.784 49.797-38.892Q48.953-38 47.320-38Q45.688-38 44.859-38.892Q44.031-39.784 44.031-41.133ZM81.016-32.578L81.016-27.391Q79.750-27.609 78.266-27.609L78.266-27.609Q72.781-27.609 70.813-22.967L70.813-22.967L70.813 0L65.234 0L65.234-33L70.656-33L70.750-28.660Q73.500-33 78.547-33L78.547-33Q80.172-33 81.016-32.578L81.016-32.578ZM122.344 0L107.109 0L107.109-44L121.469-44Q128.625-44 132.234-41.004Q135.844-38.007 135.844-32.141L135.844-32.141Q135.844-29.026 134.094-26.622Q132.344-24.219 129.328-22.906L129.328-22.906Q132.891-21.916 134.961-19.153Q137.031-16.390 137.031-12.567L137.031-12.567Q137.031-6.702 133.195-3.351Q129.359 0 122.344 0L122.344 0ZM122.563-20.344L112.906-20.344L112.906-4.734L122.469-4.734Q126.516-4.734 128.859-6.807Q131.203-8.879 131.203-12.516L131.203-12.516Q131.203-20.344 122.563-20.344L122.563-20.344ZM112.906-39.219L112.906-25L121.656-25Q125.453-25 127.734-26.932Q130.016-28.865 130.016-32.189L130.016-32.189Q130.016-35.879 127.906-37.549Q125.797-39.219 121.469-39.219L121.469-39.219L112.906-39.219ZM153.297-33L153.297 0L147.703 0L147.703-33L153.297-33ZM147.250-42.156L147.250-42.156Q147.250-43.516 148.086-44.453Q148.922-45.391 150.547-45.391Q152.172-45.391 153.023-44.453Q153.875-43.516 153.875-42.156Q153.875-40.797 153.023-39.898Q152.172-39 150.547-39Q148.922-39 148.086-39.898Q147.250-40.797 147.250-42.156ZM170.297-46L170.297 0L164.703 0L164.703-46L170.297-46ZM180.875-15.859L180.875-16.282Q180.875-23.826 184.438-28.413Q188-33 193.766-33L193.766-33Q199.500-33 202.844-29.064L202.844-29.064L202.844-46L208.438-46L208.438 0L203.297 0L203.031-3.125Q199.672 1 193.703 1L193.703 1Q188.031 1 184.453-3.673Q180.875-8.347 180.875-15.859L180.875-15.859ZM186.453-15.639L186.453-15.639Q186.453-10.063 188.750-6.907Q191.047-3.750 195.094-3.750L195.094-3.750Q200.406-3.750 202.844-8.540L202.844-8.540L202.844-23.617Q200.344-28.266 195.156-28.266L195.156-28.266Q191.047-28.266 188.750-25.077Q186.453-21.889 186.453-15.639ZM239.516 0L239.391-2.927Q236.141 1 229.828 1L229.828 1Q224.609 1 221.875-2.105Q219.141-5.209 219.109-11.275L219.109-11.275L219.109-33L224.688-33L224.688-11.359Q224.688-3.750 230.734-3.750L230.734-3.750Q237.125-3.750 239.250-8.636L239.250-8.636L239.250-33L244.828-33L244.828 0L239.516 0ZM256.234-33L261.516-33L261.688-28.334Q265.438-33 271.469-33L271.469-33Q281.828-33 281.922-21.421L281.922-21.421L281.922 0L276.344 0L276.344-21.424Q276.313-24.922 274.727-26.594Q273.141-28.266 269.781-28.266L269.781-28.266Q267.063-28.266 265.008-26.834Q262.953-25.402 261.813-23.065L261.813-23.065L261.813 0L256.234 0L256.234-33ZM290.906-16.282L290.906-16.282Q290.906-23.951 294.438-28.476Q297.969-33 303.797-33L303.797-33Q309.766-33 313.125-28.766L313.125-28.766L313.391-33L318.500-33L318.500-0.781Q318.500 5.628 314.742 9.314Q310.984 13 304.641 13L304.641 13Q301.109 13 297.727 11.523Q294.344 10.046 292.563 7.474L292.563 7.474L295.453 4.184Q299.047 8.438 304.250 8.438L304.250 8.438Q308.328 8.438 310.602 6.195Q312.875 3.953 312.875-0.134L312.875-0.134L312.875-2.889Q309.531 1 303.734 1L303.734 1Q298 1 294.453-3.642Q290.906-8.284 290.906-16.282ZM296.516-15.639L296.516-15.639Q296.516-10.095 298.781-6.922Q301.047-3.750 305.125-3.750L305.125-3.750Q310.406-3.750 312.875-8.571L312.875-8.571L312.875-23.570Q310.313-28.266 305.188-28.266L305.188-28.266Q301.109-28.266 298.813-25.077Q296.516-21.889 296.516-15.639ZM348.250-8.306L348.250-8.306Q348.250-10.583 346.547-11.840Q344.844-13.096 340.602-14.007Q336.359-14.918 333.867-16.188Q331.375-17.458 330.180-19.215Q328.984-20.971 328.984-23.402L328.984-23.402Q328.984-27.433 332.383-30.216Q335.781-33 341.063-33L341.063-33Q346.625-33 350.078-30.133Q353.531-27.266 353.531-22.797L353.531-22.797L347.922-22.797Q347.922-25.094 345.969-26.758Q344.016-28.422 341.063-28.422L341.063-28.422Q338.016-28.422 336.297-27.084Q334.578-25.746 334.578-23.589L334.578-23.589Q334.578-21.543 336.172-20.512Q337.766-19.480 341.953-18.540Q346.141-17.600 348.734-16.299Q351.328-14.999 352.578-13.165Q353.828-11.332 353.828-8.700L353.828-8.700Q353.828-4.312 350.328-1.656Q346.828 1 341.250 1L341.250 1Q337.313 1 334.297-0.391Q331.281-1.781 329.578-4.273Q327.875-6.766 327.875-9.656L327.875-9.656L333.453-9.656Q333.609-6.859 335.703-5.211Q337.797-3.563 341.250-3.563L341.250-3.563Q344.422-3.563 346.336-4.850Q348.250-6.138 348.250-8.306ZM372.563 0L366.969 0L366.969-28.688L361.813-28.688L361.813-33L366.969-33L366.969-36.264Q366.969-41.403 369.781-44.202Q372.594-47 377.719-47L377.719-47Q379.656-47 381.563-46.484L381.563-46.484L381.250-41.953Q379.844-42.219 378.234-42.219L378.234-42.219Q375.516-42.219 374.039-40.697Q372.563-39.176 372.563-36.314L372.563-36.314L372.563-33L379.531-33L379.531-28.688L372.563-28.688L372.563 0ZM386.750-15.922L386.750-16.314Q386.750-21.128 388.633-24.978Q390.516-28.828 393.883-30.914Q397.250-33 401.578-33L401.578-33Q408.250-33 412.367-28.366Q416.484-23.732 416.484-16.031L416.484-16.031L416.484-15.639Q416.484-10.856 414.656-7.053Q412.828-3.250 409.438-1.125Q406.047 1 401.641 1L401.641 1Q394.984 1 390.867-3.642Q386.750-8.284 386.750-15.922L386.750-15.922ZM392.359-15.639L392.359-15.639Q392.359-10.174 394.883-6.868Q397.406-3.563 401.641-3.563L401.641-3.563Q405.891-3.563 408.398-6.915Q410.906-10.268 410.906-16.314L410.906-16.314Q410.906-21.716 408.352-25.069Q405.797-28.422 401.578-28.422L401.578-28.422Q397.438-28.422 394.898-25.116Q392.359-21.811 392.359-15.639ZM441.016-32.578L441.016-27.391Q439.750-27.609 438.266-27.609L438.266-27.609Q432.781-27.609 430.813-22.967L430.813-22.967L430.813 0L425.234 0L425.234-33L430.656-33L430.750-28.660Q433.500-33 438.547-33L438.547-33Q440.172-33 441.016-32.578L441.016-32.578ZM468.250-8.306L468.250-8.306Q468.250-10.583 466.547-11.840Q464.844-13.096 460.602-14.007Q456.359-14.918 453.867-16.188Q451.375-17.458 450.180-19.215Q448.984-20.971 448.984-23.402L448.984-23.402Q448.984-27.433 452.383-30.216Q455.781-33 461.063-33L461.063-33Q466.625-33 470.078-30.133Q473.531-27.266 473.531-22.797L473.531-22.797L467.922-22.797Q467.922-25.094 465.969-26.758Q464.016-28.422 461.063-28.422L461.063-28.422Q458.016-28.422 456.297-27.084Q454.578-25.746 454.578-23.589L454.578-23.589Q454.578-21.543 456.172-20.512Q457.766-19.480 461.953-18.540Q466.141-17.600 468.734-16.299Q471.328-14.999 472.578-13.165Q473.828-11.332 473.828-8.700L473.828-8.700Q473.828-4.312 470.328-1.656Q466.828 1 461.250 1L461.250 1Q457.313 1 454.297-0.391Q451.281-1.781 449.578-4.273Q447.875-6.766 447.875-9.656L447.875-9.656L453.453-9.656Q453.609-6.859 455.703-5.211Q457.797-3.563 461.250-3.563L461.250-3.563Q464.422-3.563 466.336-4.850Q468.250-6.138 468.250-8.306ZM496.328-3.563L496.328-3.563Q499.328-3.563 501.555-5.375Q503.781-7.188 504.031-9.906L504.031-9.906L509.313-9.906Q509.156-7.094 507.375-4.563Q505.594-2.031 502.625-0.516Q499.656 1 496.328 1L496.328 1Q489.656 1 485.719-3.470Q481.781-7.939 481.781-15.702L481.781-15.702L481.781-16.643Q481.781-21.426 483.531-25.159Q485.281-28.891 488.555-30.946Q491.828-33 496.297-33L496.297-33Q501.797-33 505.438-29.711Q509.078-26.422 509.313-21.172L509.313-21.172L504.031-21.172Q503.781-24.344 501.625-26.383Q499.469-28.422 496.297-28.422L496.297-28.422Q492.047-28.422 489.703-25.336Q487.359-22.250 487.359-16.424L487.359-16.424L487.359-15.372Q487.359-9.687 489.688-6.625Q492.016-3.563 496.328-3.563ZM523.813-46L523.813-28.489Q527.531-33 533.469-33L533.469-33Q543.828-33 543.922-21.421L543.922-21.421L543.922 0L538.344 0L538.344-21.424Q538.313-24.922 536.727-26.594Q535.141-28.266 531.781-28.266L531.781-28.266Q529.063-28.266 527.008-26.834Q524.953-25.402 523.813-23.065L523.813-23.065L523.813 0L518.234 0L518.234-46L523.813-46ZM574.516 0L574.391-2.927Q571.141 1 564.828 1L564.828 1Q559.609 1 556.875-2.105Q554.141-5.209 554.109-11.275L554.109-11.275L554.109-33L559.688-33L559.688-11.359Q559.688-3.750 565.734-3.750L565.734-3.750Q572.125-3.750 574.250-8.636L574.250-8.636L574.250-33L579.828-33L579.828 0L574.516 0ZM591.234-33L596.516-33L596.688-28.334Q600.438-33 606.469-33L606.469-33Q616.828-33 616.922-21.421L616.922-21.421L616.922 0L611.344 0L611.344-21.424Q611.313-24.922 609.727-26.594Q608.141-28.266 604.781-28.266L604.781-28.266Q602.063-28.266 600.008-26.834Q597.953-25.402 596.813-23.065L596.813-23.065L596.813 0L591.234 0L591.234-33ZM626.906-16.282L626.906-16.282Q626.906-23.951 630.438-28.476Q633.969-33 639.797-33L639.797-33Q645.766-33 649.125-28.766L649.125-28.766L649.391-33L654.500-33L654.500-0.781Q654.500 5.628 650.742 9.314Q646.984 13 640.641 13L640.641 13Q637.109 13 633.727 11.523Q630.344 10.046 628.563 7.474L628.563 7.474L631.453 4.184Q635.047 8.438 640.250 8.438L640.250 8.438Q644.328 8.438 646.602 6.195Q648.875 3.953 648.875-0.134L648.875-0.134L648.875-2.889Q645.531 1 639.734 1L639.734 1Q634 1 630.453-3.642Q626.906-8.284 626.906-16.282ZM632.516-15.639L632.516-15.639Q632.516-10.095 634.781-6.922Q637.047-3.750 641.125-3.750L641.125-3.750Q646.406-3.750 648.875-8.571L648.875-8.571L648.875-23.570Q646.313-28.266 641.188-28.266L641.188-28.266Q637.109-28.266 634.813-25.077Q632.516-21.889 632.516-15.639Z"/></g></g></svg>