<svg xmlns="http://www.w3.org/2000/svg" viewBox="0 0 1000 358.7"><defs id="defs9472"><style id="style9470">.cls-1{fill:#fff}</style></defs><g transform="scale(.95238)" style="fill:#fff"><path d="M105 0a105 105 0 1 0 105 105A105.1 105.1 0 0 0 105 0Zm0 207.1A102.1 102.1 0 1 1 207.1 105 102.2 102.2 0 0 1 105 207.1Z"/><path class="minerva-base-style" d="M166.6 97c-1.4-3.1-.5-5.1-.9-7.3s-2.7-7-4.3-10.8c-.7-1.7 3.8-1.3.4-7.6 0-.2 4.7-2 0-5.5a26.4 26.4 0 0 1-6-6.7 1 1 0 0 1 0-1.3c2.7-2.4 2.8-5.8-.1-7.5s-4.5 0-6.7 1.4c-.7.5-1.1.8-1.9.5l-1.8-1.2c2.7-2.6 3.3-5.2 3.1-5.6s-4.6-1.3-10.2 1l-.4-.3c2.3-3.9 1-6.7.9-6.9h-.1A81 81 0 0 1 151 25.9h.1c.2-.3.3-.6-.2-.9l-1-.6A92.4 92.4 0 0 0 12.7 105c0 29.5 15 57.9 39.4 75.6a13.5 13.5 0 0 0 2.8 1.6 1.1 1.1 0 0 0 1.1-.2l.3-.5a1 1 0 0 0 .3-.8c0-.7-.9-1.3-2.1-3a27.7 27.7 0 0 1-4.7-15.1 22.1 22.1 0 0 1 4.5-13.7c3.7 3.9 11.7 10.9 11.5 17.4s-6.9 6.8-5.4 12.2c.9 3.4 3.4 2 3.9 4.6.7 4.4 6.7 7.3 9.3 6.9.7-.1 1.2.4 2.4 1.7s6.2 1.6 8.2 1.2 4.1 1.4 8 .9 6.1-.9 8.2-.9 22.5-.3 36 1.8c2.4.4 3.1-.7 2.1-2.5-4.9-8.6-5.6-15.8-2.8-25 5 .4 12.2 1.7 21.6-4a11 11 0 0 0 5.1-9.5c-.1-2.1-1-4.7-.5-6.7s1.3-2.7 2.1-3.2c3.6-2.6 1-4.6.4-4.8a3.4 3.4 0 0 0 1.1-4.6c-.7-.7-2.7-6.2-.4-7.3s5.3-1.8 8.1-3.1a4.5 4.5 0 0 0 2.4-6c-1.4-3.6-8.8-20.6-9-21ZM64.7 179.1c-.7.2-2.9.3-2.4-2.7s2.3-2.6 3.3-1.6-.7 2.8-.9 4.3Zm87-125.9c1.2-.8 2.5-1.1 3.3-.4 2.6 2.6-2.9 4.1-1.8 6.1a30.7 30.7 0 0 0 7.5 8.4c1.2 1 1.4 3.1-3.3 4.1s-23.6 5.9-33.6 16.5c-12.5 13.2-20.4 30.3-21.5 28s-3.6-2.8-3.2-3.5c17.9-30.8 46-55.1 52.6-59.2Zm8.2 21.7c-1 2.9-9.1 5.5-8.7 3.5s0-2.2.6-2.3 3.5-1.1 7.5-2.1c.4-.1.9.1.6.9Zm-20.6 5.3c-.2-1.2 8.5-4.1 8.8-3.3s-1.8 6-4.7 7-4.7.9-4.6.4a11 11 0 0 0 .5-4.1ZM119 125.8c-4 2.5-6.2-2.2-6.8-3.1a3.7 3.7 0 0 1-.5-3.1c.3-1.4.5-3.3-.4-9.3-.4-2.7 5-9.2 6.3-10.4s3.1.6 3.2 2.6c.3 3.6-1.8 5.6-3.9 7.2s-3.1 4.4-2.6 5.1a1.5 1.5 0 0 0 1.9-.9c1.5-3.3 6-4.9 6.7-6.7s.3-4.4.2-5.6.9-1.2 1.6-1.1 1.4 1.4 1.8 2.7c2.9 7.5-4.3 12-5.5 13.8s1.1 6.9-2 8.8Zm6.1-29.1c-2.2 1.5-5.3-.5-4.7-1.4a43.7 43.7 0 0 1 11.5-11c3.4-2.1 3.8-2.3 4-1.1a10.6 10.6 0 0 1-2.6 7.5c-2.3 2.5-4.6 2.3-5.8 2.6s-.8 2.3-2.4 3.4Zm-19.3 25.6c-1-.2-1.4-2.1-1.2-2.9s3.1-5.2 4-6.4a.5.5 0 0 1 .8.3c.6 4.1 0 9.8-3.6 9ZM138 48.2a17.7 17.7 0 0 1 7.5-1.6c.8.1-1.9 4.8-6.6 6.8s-8.5 2.5-8.9 2.3 4.1-5.8 8-7.5Zm-83.3 78.3c-1.5-1.7-2.8-2.6-2.9-2.5a22.4 22.4 0 0 0-3.6 8.9 65.4 65.4 0 0 1-7.5-27.9C39.3 69.6 69 41.1 105.2 41.2a56.8 56.8 0 0 1 22.4 4.6 31.3 31.3 0 0 0-3.7 6.6c0-1.9-.5-3.4-.4-4.6s-5.1.9-9.7 8.3a19.9 19.9 0 0 0-2.2 5.3c-.1-2.8-.7-4.9-.9-4.9a16.1 16.1 0 0 0-8.5 8.8 22.4 22.4 0 0 0-1.1 3.4c-.2-1.9-.7-3.2-.9-3.2s-5.9 2.3-8.6 8.9a15.4 15.4 0 0 0-1.1 4.6c-.5-2.3-1.4-3.7-1.7-3.4-1.9 2.4-5.7 3.5-7.6 9.6a13.2 13.2 0 0 0-.7 4.2c-.8-2-2-3.2-2.3-3.2s-6.1 5.5-7 10.9a15.8 15.8 0 0 0 .2 5.8c-1.1-1.8-2.5-3-3.1-4.8-.9.5-5.7 5-5.8 10.7a19.7 19.7 0 0 0 .7 6.1c-1.6-2.9-3.8-4.2-4.1-4.1s-4 4.1-4.8 11.1a11.8 11.8 0 0 0 .4 4.6Zm74.1-79.7c2.8-3.4 7.6-6.1 8.2-5.8s-.8 5.6-3.9 8.6-8.1 6.2-8.6 6.1 1.7-5.9 4.3-8.9Zm-9.3 13a21 21 0 0 0-5.6 6.4c-.5.9-1.9-5 1.7-10.6 2.2-3.5 6.6-6.6 6.5-6.2s2.1 6.6-2.6 10.4Zm-10.1 7.5c-3.4 5.1-3.6 3.3-7.3 8.3-.2.2-.2-6.5 1.1-9.4 2.1-4.7 5.7-7.4 6.2-7.5s1.9 5.8 0 8.6ZM98.3 77.4c-1.7 3-3.3 2.3-6.2 6.7-.3.4-1.1-3.6.7-9.1a12.6 12.6 0 0 1 5.9-6.9c.6-.1 1.7 5.7-.4 9.3ZM88 88.1c-1.8 3.9-2.9 4-5 6.4-.3.4-1.8-3.7-.4-8.8s4-5.6 5.3-7 2 5.3.1 9.4Zm-8.4 6.6a10.3 10.3 0 0 1-.4 3c-1.3 4.3-3.9 6.2-5.3 8.1a15.7 15.7 0 0 1-1.6-5.8 15.2 15.2 0 0 1 5.2-11.2c.8 0 2.1 3.2 2.1 5.9Zm-8.5 12.8a14.9 14.9 0 0 1-5.1 10.8 17.7 17.7 0 0 1-2.2-7.6c-.2-6.3 2.4-8.5 3.6-9.7.5 1.8 3.7 3.2 3.7 6.5ZM59 113.8c1.8.9 3.9 3.4 4.1 8.2s-3.2 8.7-4.6 9.4c-.9-3.7-2.6-4.4-2.6-8a18 18 0 0 1 3.1-9.6Zm7.3 12.5c4.6-2 9.6-1.7 9.8-1.5s-1.5 5.9-5.9 8.2-9.5 2.7-10 2.1 1.5-6.8 6.1-8.8Zm-.4-3.4c.3-1.5 3-6.5 7.1-8.3a18.4 18.4 0 0 1 9.4-1.5c.5.2-1.7 5.6-5.8 7.6s-6.5.9-10.7 2.2Zm6.9-11.8c.2-.4 3.5-6.4 7.4-8.2a17.5 17.5 0 0 1 8.9-1.4c.3.1-1.8 5.4-6.2 7.6s-10.3 2.5-10.1 2Zm8.9-11.9c-.3-.2 4.4-6.4 8.4-8.3a15.6 15.6 0 0 1 8.4-1c.3.3-1.9 5.5-6.5 7.5a24.2 24.2 0 0 1-10.3 1.8Zm10.7-11.8c-.2-.2 3.4-6.3 7.4-7.9s7.7-.1 8.9 0-1.3 4.5-6.6 6.4-9 1.8-9.7 1.5Zm12-11.4c.1-.3 4.1-5.9 8.1-7.3a16.4 16.4 0 0 1 9.2-.2c.5.2-2.8 5-7.7 6.5s-9.7 1.3-9.6 1Zm12.1-9.9c-.5-.3 4.3-5.7 8.2-7.2a18 18 0 0 1 8.3-1c.3.2-2.5 4.9-7.1 6.7s-8.8 1.9-9.4 1.5ZM50.2 175.3c-21.6-17.2-34.6-43.2-34.6-70.3a89.3 89.3 0 0 1 130.8-79.2.4.4 0 0 1 .1.7 97.3 97.3 0 0 0-10.2 11.4 73.1 73.1 0 0 0-31.3-7A74.3 74.3 0 0 0 30.9 105a72.1 72.1 0 0 0 17.9 48.2 23.1 23.1 0 0 0-1.9 9.4 25.6 25.6 0 0 0 3.3 12.7Zm.2-24.8h-.1A69.2 69.2 0 0 1 33.9 105 71.2 71.2 0 0 1 105 33.9a70.1 70.1 0 0 1 29.6 6.4 22.6 22.6 0 0 0-4.1 2.6 63.1 63.1 0 0 0-25.5-5.1A67.3 67.3 0 0 0 37.8 105c0 16.1 5 30.2 14.8 42-.5.9-1.3 2.1-2.2 3.5Zm3.5-5.6c-1.3-1.2-4.1-4.3-4.4-8.3v-.6c0-4.3 1.9-8.6 2.4-9s5.3 3.3 5.4 8.7a14.4 14.4 0 0 1-3.4 9.2Zm8-7.2c3.9-1.8 9.6-1.4 9.3-1.1s-1.8 5.8-6.2 8a12.1 12.1 0 0 1-8.7 1.3c2.3-2.6 1.8-6.4 5.6-8.2Zm5.2 46.5c-.6-2.7-.4-6.3.5-7.3s4.9-1.2 5-.1-1.1 5.4.3 10.2c-.3.7-4.6.4-5.8-2.8Zm.3-11.1c-.3-2 1.6-3.9 1.6-8.2s-6.6-12.6-11.1-17.3a19.5 19.5 0 0 0 7.9-1.9c6.6-3.1 7.9-10.1 8.1-10.4a11 11 0 0 0-3.8-.4l.8-.4c6.4-3.5 8.1-11 7.8-11.1a17 17 0 0 0-4-.3l2-.7c6.8-2.7 8.7-10.3 8.5-10.6a16.1 16.1 0 0 0-3.5-.4l1.9-.8c6.2-3.1 8.4-10.1 8.1-10.3a10.5 10.5 0 0 0-3.3-.4 23.7 23.7 0 0 0 4.5-1.5c6.7-2.9 8.9-9.3 8.6-9.6a10.9 10.9 0 0 0-3-.5 34.5 34.5 0 0 0 4.4-1.3c6.6-2.2 9.2-8.5 8.8-8.6l-3.7-.8a24.5 24.5 0 0 0 6.6-1.3c7.1-2.4 9.6-6.7 9.8-8.6a6 6 0 0 0-2.3-.8 29.3 29.3 0 0 0 4.7-1.2c6.6-2.7 9.4-9.3 9.6-9.8a29.3 29.3 0 0 0 3.9-1.6l1.9-.9 1.6 1.1c1 .6 1.4.8.9 1.2C122 75 105 99.5 97.6 111.3c-.2.4-.6.3-1.3.3-7.9-.6-12.4 8.9-8.9 17.8-.4 1.8-4.2 5.3-4.5 5.5s-1 1.4.3 1.3 4.2-3.2 5.4-4.5c.4.6 2.2 2 1.3 2.8A63.6 63.6 0 0 1 76 145c-2.6 1.2 4.2 2.1 15.7-8.3.7-.6 1.5 2.4 2.5 3.7-2 6.5 2.9 19.1 2.1 23a2.8 2.8 0 0 1-2.8 2.7c-11.4.3-12.5-.3-18.3 1.4-2.7.8-2 2.6-.1 2.1s4.6-1.5 16.9-.7c3.1.1 6.5-.6 6.5-5.7s-3.6-18.4-2.4-20.3a6.9 6.9 0 0 0 3.5 1.4c-.2 4.5 7 19 3.8 27-1.2 3-6.4 2.7-15.4 1.8-15.3-1.5-20.3 1.8-20.6 0Zm35.1 9.9c-5.9 2-8.3-4.9-7.3-6.4s4.4 1 7.3-.9 3.5 6.1 0 7.3Zm-27 4.3c-.8-3.7-1.1-10 .4-11.5s4.9-.9 4.8.2c-.3 4.3-2.1 9.2 1.2 14.1 1.3 1.9-5.2 2.2-6.4-2.8Zm11.4 4.2c-1.6-.4-6-7.4-2.4-15.8.3-.8 5.8-.3 6.8 0s-.8 6.8 6.8 9.8c.7.3-.1 8.8-11.2 6Zm47.2-23.3c-2.5 8.8-3.8 12.3 0 21.9.5 1.3.9 2.3-.2 2.1-7.7-1.4-9.4-2.6-33.7-.6-1.7.2.6-3.4.3-5.8 2.2-.3 5.8-1.3 6.5-4.9s-2.1-7.6-1.8-8.2c3.5-6.7-.2-14.1-3.1-26.6-.3-1.2.4-1.7.9-1.1 15.6 16.9 25.5 20.2 30.9 21.8.5.2.4.8.2 1.4Zm39.9-46.1c-3.3 2.9-8.3 3.1-10.3 4.9s-1.5 2.5-.4 5.2 1.1 1.7-1.1 2.3-4.1 5.8-8.8 4.9c-1.8-.3-.5.8.2.9 2.6.3 3.7-.5 4.6-1.4s2.2-2.4 3.6-2.9 2.9-.5 3 .6-1.9 2.1-2.7 2.5c1 .5 3.9 1.9 1.4 3.6s-4.6-.5-4.9-.7-1.7-.2-1.3.3 5.2 1.3 4.5 2.2c-3.5 4.7-.6 7.5-1.7 12.3s-7.7 7.5-12.8 8.4c-17.4 3.1-34.3-11.6-44.2-22.8.9-2.1.8-4.8-.1-3.8s-.7 2.4-2.8 2.9c-3.9 1-5.7-5.9-6.9-7.1-4.8-4.7-6.7-11.4-3.9-17.3s9-4.7 11.4-1.1 1.7 7 3.4 8.3 4.8.2 5.4 0 1.7 4.3 8 4.1 5.9-10.7 6.9-11.6c8.6-8.4 4.2-15.9 2.6-17.6s1-3.6 1.5-3.7a13 13 0 0 0 9.4-7.7s8.4-.2 11.4-6.2c.8-1.6 3.3 1.5 8.9-2.9a.8.8 0 0 1 1.4.3c3.7 8.9 5.2 11.3 4.9 15.8s8.7 21.5 9.4 23.1.8 3.4 0 4.2Z"/><path class="minerva-base-style" d="M153.8 90c-4.9.2-10.6 6.2-12.4 7s-1.3 1.5-.2 1.1 5.9-4.7 10.7-6.4 3.6 1.8 5 1.6-.3-3.4-3.1-3.3ZM154.9 94.8c-.4.1.4 2.2-1.7 2.3-4.6.3-8.3 4.7-11.1 6a12.9 12.9 0 0 1-3.8 1.4.3.3 0 0 0 .1.6c11.7 1.6 16.2 1.1 16.3.7s-.6-1.2-.4-1.7a11.3 11.3 0 0 0 .1-5.5c-.2-.8 1.8-.3 1.8-1.3s-.6-2.6-1.3-2.5Zm-1.8 9.3c-.2.9-5.5.5-8.3.2-.7 0-1.8-.1.3-1.4s4.1-2.8 7.2-3.4a.8.8 0 0 1 .8.6 10.6 10.6 0 0 1 0 4ZM168.4 120.8c-.9 0-4.5 1.6-5.9 2.5s-4.4 2.7-4.2-.8c.1-1.3.9-4.4.9-5.3s-1-.7-1.1 0a36.9 36.9 0 0 1-.7 5.3c-.4 1.8 1.2 4 3.6 2.7s4.8-2.9 7.3-3.4c.6-.1.7-1 .1-1ZM100.5 133.6c-.7-.3-.5 1.2-1.4 1s-.2-1.3-1.8-3-2.8-1.2-4.3-3.6-.3-12 3.1-10.8 1.6 5 1 8 2.5 2.8 2.8 2.1-1.1-.9-1.4-1.9 3.5-7.6-1.8-9.4c-3.8-1.3-6.4 3.6-5.9 8.9a8 8 0 0 0 5.1 7.1c2.3.8.6 4 3.7 4 1.4 0 1.7-2.1.9-2.4ZM131.3 33.4c.2.1.3 0 .5-.1l6.5-8.3a.5.5 0 0 0-.2-.6L137 24a.4.4 0 0 0-.5.1l-6.5 8.3c-.2.2-.1.5.2.6ZM119.2 30l1.1.3a.5.5 0 0 0 .5-.3l3.8-9.4a.4.4 0 0 0-.3-.6l-1.2-.2h-.3l-3.9 9.6a.4.4 0 0 0 .3.6ZM105.8 28.7h1.1c.2.1.4-.1.4-.3l1-10a.5.5 0 0 0-.4-.5h-1.1c-.3 0-.4.2-.5.4l-.9 10a.4.4 0 0 0 .4.4ZM92.8 29.7l1.1-.2c.2 0 .4-.2.3-.4l-1.9-9.9c0-.2-.2-.4-.4-.3h-1.2c-.2.1-.4.3-.3.5l1.9 9.9c0 .3.2.4.5.4ZM79.4 32.8l.5.2 1.1-.4a.4.4 0 0 0 .3-.6l-4.6-9a.4.4 0 0 0-.5-.2l-1 .3a.4.4 0 0 0-.3.6ZM67 38.5c.1.2.3.2.5.1l1-.6a.4.4 0 0 0 .1-.6l-6.7-7.7c-.2-.2-.4-.2-.5-.1l-1 .6c-.3.1-.3.4-.1.6ZM55.4 46.7c.2.1.4.1.5-.1l.9-.7a.5.5 0 0 0 0-.7l-8.5-5.9h-.5l-.9.8a.5.5 0 0 0 0 .7ZM45.4 57.1a.4.4 0 0 0 .4-.2l.8-.9c.2-.2.1-.5-.2-.6l-9.8-3.8c-.2-.1-.4-.1-.5.1l-.7.9a.4.4 0 0 0 .2.7ZM26.8 67.8l10.5 1.5c.2 0 .4-.1.4-.3l.6-1a.4.4 0 0 0-.3-.6l-10.5-1.5-.5.2a5.4 5.4 0 0 1-.5 1.1.4.4 0 0 0 .3.6ZM21.1 83.7l10.7-1a.3.3 0 0 0 .3-.3 7.6 7.6 0 0 0 .4-1.1.4.4 0 0 0-.4-.6l-10.8 1-.4.3-.3 1.2c0 .3.2.6.5.5ZM29.2 96.5c0-.4.1-.9.1-1.3s-.2-.5-.5-.4l-10.4 3.6c-.2.1-.3.2-.3.4s-.1.8-.1 1.2a.4.4 0 0 0 .6.4l10.3-3.6a.3.3 0 0 0 .3-.3ZM28.9 110.8v-1.3a.5.5 0 0 0-.7-.4l-9.4 6.3c-.2 0-.2.2-.2.4s.1.8.1 1.2a.5.5 0 0 0 .7.3l9.4-6.2c.1-.1.2-.2.1-.3ZM31.3 125l-.3-1.3a.4.4 0 0 0-.7-.2l-7.7 8.5c-.1.1-.2.3-.1.4s.3.8.4 1.2a.4.4 0 0 0 .7.2l7.6-8.4c.1-.1.1-.2.1-.4ZM35.2 137.7 29.8 148c-.1.1 0 .3 0 .4l.7 1.2a.4.4 0 0 0 .7-.1l5.4-10.2c0-.1.1-.2 0-.4l-.6-1.2a.5.5 0 0 0-.8 0ZM42.9 149.3c-.2-.3-.7-.2-.7.1l-2.9 12c-.1.2 0 .3 0 .4l1 1a.4.4 0 0 0 .7-.1l2.8-11.9c.1-.1 0-.2 0-.3Z"/></g><path style="fill:#999" d="M220 0h2.65v200H220z"/><g transform="translate(242.65 20) scale(1.17647)"><path style="fill:#fff" id="path9562" d="m30.48 64.36 24.24.12c0-14.17-9.76-24.46-23.16-24h-1.08zm126.06 51.59a7 7 0 0 1 6.72 7 6.8 6.8 0 0 1-6.79 6.81 6.69 6.69 0 0 1-.93-.06v6.3H20.29v-7.55a6.53 6.53 0 1 0 0-12.76v-24.1H0l20.53-61.1V0h136l-.75.39v30.48L135.26 92h20.29v24.11a6.69 6.69 0 0 1 .99-.16z" class="cls-1"/><path style="fill:#fff" id="path9564" d="m299.78 64.36 24.24.12c0-14.17-9.76-24.46-23.16-24h-1.08zm126.06 51.59a7 7 0 0 1 6.72 7 6.8 6.8 0 0 1-6.8 6.81 6.72 6.72 0 0 1-.92-.06v6.3H289.59v-7.55a6.53 6.53 0 1 0 0-12.76v-24.1H269.3l20.53-61.1V0h136l-.75.39v30.48L404.56 92h20.29v24.11a6.69 6.69 0 0 1 .99-.16z" class="cls-1"/><path style="fill:#fff" id="path9566" d="m166 65.71 24.24.12c0-14.17-9.76-24.46-23.16-24H166Z" class="cls-1"/><path style="fill:#fff" id="path9568" d="m433.09 65.71 24.24.12c0-14.17-9.76-24.46-23.16-24h-1.08z" class="cls-1"/></g><path d="M4.859-54h14.657L33.5-14.837 47.406-54h14.719V0h-11.25v-14.76L52-40.248 37.313 0h-7.704L14.953-40.202l1.125 25.442V0H4.859v-54Zm109.5 54-3.765-10.922H90.922L87.188 0H75.266l20.25-54h10.406l20.375 54h-11.938Zm-13.64-40.357L93.953-20h13.61l-6.844-20.357ZM149.125-54l10.219 18.62L169.547-54h12.891l-15.844 26.775L182.844 0h-13.047l-10.453-18.915L148.875 0h-13.047l16.25-27.225L136.234-54h12.891Zm61.031 26v8.703h-21.047V-28h21.047Zm37.75 9.094h-9.828V0h-11.219v-54h21.235q6.125 0 10.781 2.232 4.656 2.232 7.164 6.339t2.508 9.365q0 7.964-5.477 12.561-5.476 4.597-15.164 4.597Zm-9.828-26.016V-28h10.016q4.453 0 6.789-2.075 2.336-2.074 2.336-5.929 0-3.964-2.36-6.402-2.359-2.438-6.5-2.516h-10.281Zm57-9.078v44.984h23.813V0h-35.032v-54h11.219Zm73.281 54-3.765-10.922h-19.672L341.188 0h-11.922l20.25-54h10.406l20.375 54h-11.938Zm-13.64-40.357L347.953-20h13.61l-6.844-20.357ZM437.125-54V0h-11.219l-21.828-35.535V0h-11.219v-54h11.219l21.86 35.597V-54h11.187Zm49.25 36.125h11.219q-.641 8.781-6.492 13.828Q485.25 1 475.688 1q-10.469 0-16.469-7.057-6-7.056-6-19.37v-3.333q0-7.871 2.765-13.856 2.766-5.984 7.907-9.184 5.14-3.2 11.937-3.2 9.422 0 15.18 5.047 5.758 5.047 6.648 14.156h-11.203q-.422-5.266-2.945-7.641-2.524-2.375-7.68-2.375-5.609 0-8.39 4.032-2.782 4.032-2.86 12.487v4.118q0 8.847 2.672 12.933 2.672 4.087 8.438 4.087 5.187 0 7.75-2.375 2.562-2.375 2.937-7.344ZM543.891 0l-13.985-21.659-5.828 6.233V0h-11.219v-54h11.219v24.481l4.938-6.714L542.875-54h13.797l-19.328 23.984L557.234 0h-13.343Zm39.265-28v8.703h-21.047V-28h21.047Zm28.625-26V0h-11.218v-54h11.218Zm62.344 0V0h-11.219l-21.828-35.535V0h-11.219v-54h11.219l21.86 35.597V-54h11.187Zm45.953 39.956q0-3.179-2.242-4.886-2.242-1.707-8.07-3.601-5.828-1.895-9.235-3.726-9.265-5.007-9.265-13.519 0-4.412 2.484-7.878t7.141-5.406Q705.547-55 711.344-55q5.828 0 10.39 2.112 4.563 2.113 7.086 5.97 2.524 3.857 2.524 8.754h-11.219q0-3.746-2.359-5.83-2.36-2.084-6.61-2.084-4.125 0-6.406 1.748-2.281 1.748-2.281 4.601 0 2.666 2.679 4.461 2.68 1.795 7.868 3.375 9.578 2.878 13.953 7.148t4.375 10.62q0 7.07-5.352 11.097Q720.641 1 711.594 1q-6.281 0-11.438-2.3-5.156-2.3-7.867-6.306-2.711-4.005-2.711-9.294h11.25q0 9.041 10.766 9.041 4 0 6.242-1.629 2.242-1.628 2.242-4.556ZM787.828-54v9.078h-16.672V0h-11.218v-44.922H743.5V-54h44.328Zm25.953 0V0h-11.218v-54h11.218Zm58.047 0v9.078h-16.672V0h-11.218v-44.922H827.5V-54h44.328Zm43.969 0h11.266v35.732q0 8.91-5.594 14.089T906.203 1q-9.547 0-15.148-5.031-5.602-5.031-5.711-13.832V-54h11.203v35.788q0 5.324 2.562 7.76 2.563 2.436 7.094 2.436 9.453 0 9.594-9.9V-54Zm69.031 0v9.078h-16.672V0h-11.218v-44.922H940.5V-54h44.328Z" transform="translate(0 274.77)" style="fill:#fff"/><path d="M12.563 0H6.969v-28.688H1.813V-33h5.156v-3.264q0-5.139 2.812-7.938Q12.594-47 17.719-47q1.937 0 3.844.516l-.313 4.531q-1.406-.266-3.016-.266-2.718 0-4.195 1.522-1.476 1.521-1.476 4.383V-33h6.968v4.312h-6.968V0Zm35.953 0-.125-2.927Q45.141 1 38.828 1q-5.219 0-7.953-3.105-2.734-3.104-2.766-9.17V-33h5.579v21.641q0 7.609 6.046 7.609 6.391 0 8.516-4.886V-33h5.578V0h-5.312ZM31.047-41.172q0-1.359.828-2.281.828-.922 2.461-.922t2.477.922q.843.922.843 2.281t-.843 2.266q-.844.906-2.477.906t-2.461-.906q-.828-.907-.828-2.266Zm12.984.039q0-1.35.828-2.28.829-.931 2.461-.931 1.633 0 2.477.931.844.93.844 2.28 0 1.349-.844 2.241-.844.892-2.477.892-1.632 0-2.461-.892-.828-.892-.828-2.241Zm36.985 8.555v5.187q-1.266-.218-2.75-.218-5.485 0-7.453 4.642V0h-5.579v-33h5.422l.094 4.34Q73.5-33 78.547-33q1.625 0 2.469.422ZM122.344 0h-15.235v-44h14.36q7.156 0 10.765 2.996 3.61 2.997 3.61 8.863 0 3.115-1.75 5.519-1.75 2.403-4.766 3.716 3.563.99 5.633 3.753t2.07 6.586q0 5.865-3.836 9.216Q129.359 0 122.344 0Zm.219-20.344h-9.657v15.61h9.563q4.047 0 6.39-2.073 2.344-2.072 2.344-5.709 0-7.828-8.64-7.828Zm-9.657-18.875V-25h8.75q3.797 0 6.078-1.932 2.282-1.933 2.282-5.257 0-3.69-2.11-5.36-2.109-1.67-6.437-1.67h-8.563ZM153.297-33V0h-5.594v-33h5.594Zm-6.047-9.156q0-1.36.836-2.297.836-.938 2.461-.938t2.476.938q.852.937.852 2.297 0 1.359-.852 2.258-.851.898-2.476.898t-2.461-.898q-.836-.899-.836-2.258ZM170.297-46V0h-5.594v-46h5.594Zm10.578 30.141v-.423q0-7.544 3.563-12.131Q188-33 193.766-33q5.734 0 9.078 3.936V-46h5.594V0h-5.141l-.266-3.125Q199.672 1 193.703 1q-5.672 0-9.25-4.673-3.578-4.674-3.578-12.186Zm5.578.22q0 5.576 2.297 8.732 2.297 3.157 6.344 3.157 5.312 0 7.75-4.79v-15.077q-2.5-4.649-7.688-4.649-4.109 0-6.406 3.189-2.297 3.188-2.297 9.438ZM239.516 0l-.125-2.927Q236.141 1 229.828 1q-5.219 0-7.953-3.105-2.734-3.104-2.766-9.17V-33h5.579v21.641q0 7.609 6.046 7.609 6.391 0 8.516-4.886V-33h5.578V0h-5.312Zm16.718-33h5.282l.172 4.666Q265.438-33 271.469-33q10.359 0 10.453 11.579V0h-5.578v-21.424q-.031-3.498-1.617-5.17-1.586-1.672-4.946-1.672-2.718 0-4.773 1.432-2.055 1.432-3.195 3.769V0h-5.579v-33Zm34.672 16.718q0-7.669 3.532-12.194Q297.969-33 303.797-33q5.969 0 9.328 4.234l.266-4.234h5.109V-.781q0 6.409-3.758 10.095Q310.984 13 304.641 13q-3.532 0-6.914-1.477-3.383-1.477-5.164-4.049l2.89-3.29q3.594 4.254 8.797 4.254 4.078 0 6.352-2.243 2.273-2.242 2.273-6.329v-2.755Q309.531 1 303.734 1 298 1 294.453-3.642q-3.547-4.642-3.547-12.64Zm5.61.643q0 5.544 2.265 8.717 2.266 3.172 6.344 3.172 5.281 0 7.75-4.821V-23.57q-2.562-4.696-7.687-4.696-4.079 0-6.375 3.189-2.297 3.188-2.297 9.438Zm51.734 7.333q0-2.277-1.703-3.534-1.703-1.256-5.945-2.167-4.243-.911-6.735-2.181t-3.687-3.027q-1.196-1.756-1.196-4.187 0-4.031 3.399-6.814Q335.781-33 341.063-33q5.562 0 9.015 2.867 3.453 2.867 3.453 7.336h-5.609q0-2.297-1.953-3.961-1.953-1.664-4.906-1.664-3.047 0-4.766 1.338-1.719 1.338-1.719 3.495 0 2.046 1.594 3.077 1.594 1.032 5.781 1.972 4.188.94 6.781 2.241 2.594 1.3 3.844 3.134 1.25 1.833 1.25 4.465 0 4.388-3.5 7.044Q346.828 1 341.25 1q-3.937 0-6.953-1.391-3.016-1.39-4.719-3.882-1.703-2.493-1.703-5.383h5.578q.156 2.797 2.25 4.445 2.094 1.648 5.547 1.648 3.172 0 5.086-1.287 1.914-1.288 1.914-3.456ZM372.563 0h-5.594v-28.688h-5.156V-33h5.156v-3.264q0-5.139 2.812-7.938Q372.594-47 377.719-47q1.937 0 3.844.516l-.313 4.531q-1.406-.266-3.016-.266-2.718 0-4.195 1.522-1.476 1.521-1.476 4.383V-33h6.968v4.312h-6.968V0Zm14.187-15.922v-.392q0-4.814 1.883-8.664 1.883-3.85 5.25-5.936T401.578-33q6.672 0 10.789 4.634t4.117 12.335v.392q0 4.783-1.828 8.586t-5.218 5.928Q406.047 1 401.641 1q-6.657 0-10.774-4.642-4.117-4.642-4.117-12.28Zm5.609.283q0 5.465 2.524 8.771 2.523 3.305 6.758 3.305 4.25 0 6.757-3.352 2.508-3.353 2.508-9.399 0-5.402-2.554-8.755-2.555-3.353-6.774-3.353-4.14 0-6.68 3.306-2.539 3.305-2.539 9.477Zm48.657-16.939v5.187q-1.266-.218-2.75-.218-5.485 0-7.453 4.642V0h-5.579v-33h5.422l.094 4.34Q433.5-33 438.547-33q1.625 0 2.469.422ZM468.25-8.306q0-2.277-1.703-3.534-1.703-1.256-5.945-2.167-4.243-.911-6.735-2.181t-3.687-3.027q-1.196-1.756-1.196-4.187 0-4.031 3.399-6.814Q455.781-33 461.063-33q5.562 0 9.015 2.867 3.453 2.867 3.453 7.336h-5.609q0-2.297-1.953-3.961-1.953-1.664-4.906-1.664-3.047 0-4.766 1.338-1.719 1.338-1.719 3.495 0 2.046 1.594 3.077 1.594 1.032 5.781 1.972 4.188.94 6.781 2.241 2.594 1.3 3.844 3.134 1.25 1.833 1.25 4.465 0 4.388-3.5 7.044Q466.828 1 461.25 1q-3.937 0-6.953-1.391-3.016-1.39-4.719-3.882-1.703-2.493-1.703-5.383h5.578q.156 2.797 2.25 4.445 2.094 1.648 5.547 1.648 3.172 0 5.086-1.287 1.914-1.288 1.914-3.456Zm28.078 4.743q3 0 5.227-1.812 2.226-1.813 2.476-4.531h5.282q-.157 2.812-1.938 5.343-1.781 2.532-4.75 4.047Q499.656 1 496.328 1q-6.672 0-10.609-4.47-3.938-4.469-3.938-12.232v-.941q0-4.783 1.75-8.516 1.75-3.732 5.024-5.787Q491.828-33 496.297-33q5.5 0 9.141 3.289 3.64 3.289 3.875 8.539h-5.282q-.25-3.172-2.406-5.211t-5.328-2.039q-4.25 0-6.594 3.086-2.344 3.086-2.344 8.912v1.052q0 5.685 2.329 8.747 2.328 3.062 6.64 3.062ZM523.813-46v17.511Q527.531-33 533.469-33q10.359 0 10.453 11.579V0h-5.578v-21.424q-.031-3.498-1.617-5.17-1.586-1.672-4.946-1.672-2.718 0-4.773 1.432-2.055 1.432-3.195 3.769V0h-5.579v-46h5.579Zm50.703 46-.125-2.927Q571.141 1 564.828 1q-5.219 0-7.953-3.105-2.734-3.104-2.766-9.17V-33h5.579v21.641q0 7.609 6.046 7.609 6.391 0 8.516-4.886V-33h5.578V0h-5.312Zm16.718-33h5.282l.172 4.666Q600.438-33 606.469-33q10.359 0 10.453 11.579V0h-5.578v-21.424q-.031-3.498-1.617-5.17-1.586-1.672-4.946-1.672-2.718 0-4.773 1.432-2.055 1.432-3.195 3.769V0h-5.579v-33Zm35.672 16.718q0-7.669 3.532-12.194Q633.969-33 639.797-33q5.969 0 9.328 4.234l.266-4.234h5.109V-.781q0 6.409-3.758 10.095Q646.984 13 640.641 13q-3.532 0-6.914-1.477-3.383-1.477-5.164-4.049l2.89-3.29q3.594 4.254 8.797 4.254 4.078 0 6.352-2.243 2.273-2.242 2.273-6.329v-2.755Q645.531 1 639.734 1 634 1 630.453-3.642q-3.547-4.642-3.547-12.64Zm5.61.643q0 5.544 2.265 8.717 2.266 3.172 6.344 3.172 5.281 0 7.75-4.821V-23.57q-2.562-4.696-7.687-4.696-4.079 0-6.375 3.189-2.297 3.188-2.297 9.438Z" transform="translate(0 345.449)" style="fill:#fff"/></svg>