<?xml version="1.0" encoding="UTF-8" standalone="no"?>
<svg
   xmlns:dc="http://purl.org/dc/elements/1.1/"
   xmlns:cc="http://creativecommons.org/ns#"
   xmlns:rdf="http://www.w3.org/1999/02/22-rdf-syntax-ns#"
   xmlns:svg="http://www.w3.org/2000/svg"
   xmlns="http://www.w3.org/2000/svg"
   xmlns:sodipodi="http://sodipodi.sourceforge.net/DTD/sodipodi-0.dtd"
   xmlns:inkscape="http://www.inkscape.org/namespaces/inkscape"
   viewBox="0 0 36 51.946667"
   height="51.946667"
   width="36"
   xml:space="preserve"
   id="svg2"
   version="1.1"
   sodipodi:docname="Nyu_stacked_black.svg"
   inkscape:version="0.92.5 (2060ec1f9f, 2020-04-08)"><sodipodi:namedview
     pagecolor="#ffffff"
     bordercolor="#666666"
     borderopacity="1"
     objecttolerance="10"
     gridtolerance="10"
     guidetolerance="10"
     inkscape:pageopacity="0"
     inkscape:pageshadow="2"
     inkscape:window-width="3840"
     inkscape:window-height="2136"
     id="namedview845"
     showgrid="false"
     inkscape:zoom="18.124358"
     inkscape:cx="50.277005"
     inkscape:cy="25.256067"
     inkscape:window-x="0"
     inkscape:window-y="0"
     inkscape:window-maximized="1"
     inkscape:current-layer="g14" /><metadata
     id="metadata8"><rdf:RDF><cc:Work
         rdf:about=""><dc:format>image/svg+xml</dc:format><dc:type
           rdf:resource="http://purl.org/dc/dcmitype/StillImage" /></cc:Work></rdf:RDF></metadata><defs
     id="defs6"><clipPath
       id="clipPath20"
       clipPathUnits="userSpaceOnUse"><path
         id="path18"
         d="M 0,389.566 V 0 h 270 v 389.566 z" /></clipPath></defs><g
     transform="matrix(1.3333333,0,0,-1.3333333,0,51.946667)"
     id="g10"><g
       transform="scale(0.1)"
       id="g12"><g
         id="g14"><g
           clip-path="url(#clipPath20)"
           id="g16"><path
             id="path22"
             style="fill:#ffffff;fill-opacity:1;fill-rule:nonzero;stroke:none"
             d="m 60.5859,132.684 h 147.832 V 371.122 H 60.5859 Z" /><path
             id="path24"
             style="fill:#57068c;fill-opacity:1;fill-rule:nonzero;stroke:none"
             d="m 118.977,248.734 c -27.6879,16.524 -24.9145,40.094 -13.45,57.422 0.254,0.383 0.325,0.969 0.254,1.672 -0.469,4.129 -4.969,14.555 -6.8474,17.371 -0.4961,0.746 -0.9063,0.688 -0.9375,0.172 -0.1445,-4.719 -5.5352,-16.535 -13.7383,-30.117 -8.7305,-14.527 -8.7617,-45.938 34.5972,-47.164 0.403,-0.028 0.52,0.383 0.122,0.644 z m 7.402,1.227 c -16.555,35.336 16.531,58.16 21.941,63.109 0.762,0.7 0.559,1.348 0.567,2.133 0,11.109 -6.36,29.141 -8.438,31.707 -0.304,0.402 -0.554,0.227 -0.676,-0.164 -2.839,-11 -17.898,-27.324 -20.918,-30.922 -25.5542,-30.351 -19.6948,-48.844 6.965,-66.297 0.332,-0.207 0.762,0.024 0.559,0.434 z m 5.391,1.492 c 7.82,37.5 38.328,38.414 41.05,45.527 4.27,11.082 -3.523,30.77 -5.515,33.114 -0.196,0.234 -0.457,0.086 -0.559,-0.125 -4.18,-9.106 -10.867,-17.735 -15.777,-21.703 -6.899,-5.571 -33.403,-25.223 -19.848,-56.836 0.18,-0.379 0.539,-0.297 0.649,0.023 z m 5.425,-3.262 c 49.387,-1.777 52.903,43.243 53.11,60.098 0,0.973 -0.469,1.055 -0.735,0.383 -1.433,-3.516 -7.871,-16.078 -25.691,-23.695 -15.899,-6.844 -25.481,-22.332 -27.133,-36.247 -0.074,-0.347 0.207,-0.523 0.449,-0.539 z m 11.223,-16.859 v 11.34 h -38.965 v -11.34 h 38.965 z m -22.773,-80.219 c 0.324,-1.875 4.406,-2.812 5.339,0 l 9.438,74.813 h -22.949 l 8.172,-74.813 z M 269.98,119.57 H 0 V 389.566 H 269.98 V 119.57" /><path
             id="path26"
             style="fill:#57068c;fill-opacity:1;fill-rule:nonzero;stroke:none"
             d="M 0,92.8711 H 18.543 L 61.3984,36.582 V 92.8711 H 81.2383 V 1.44531 H 64.1328 L 19.8516,59.5703 V 1.44531 H 0 V 92.8711" /><path
             id="path28"
             style="fill:#57068c;fill-opacity:1;fill-rule:nonzero;stroke:none"
             d="M 126.445,37.5 91.3203,92.8711 h 23.4917 l 21.829,-36.6992 22.199,36.6992 h 22.859 L 146.562,37.8906 V 1.44531 H 126.445 V 37.5" /><path
             id="path30"
             style="fill:#57068c;fill-opacity:1;fill-rule:nonzero;stroke:none"
             d="m 190.332,40.6328 v 52.2383 h 20.106 V 41.1602 c 0,-14.9102 7.445,-22.6055 19.738,-22.6055 12.265,0 19.707,7.4492 19.707,21.9609 V 92.8711 H 270 V 41.2891 C 270,13.5938 254.453,0 229.902,0 c -24.558,0 -39.57,13.7109 -39.57,40.6328" /></g></g></g></g></svg>