<svg xmlns="http://www.w3.org/2000/svg" height="51.947" width="36" xml:space="preserve">
  <defs>
    <clipPath id="a" clipPathUnits="userSpaceOnUse">
      <path d="M0 389.566V0h270v389.566z"/>
    </clipPath>
  </defs>
  <g clip-path="url(#a)" transform="matrix(.13333 0 0 -.13333 0 51.947)">
    <path style="fill:#fff;fill-opacity:1;fill-rule:nonzero;stroke:none" d="M60.586 132.684h147.832v238.438H60.586Z"/>
    <path style="fill:#57068c;fill-opacity:1;fill-rule:nonzero;stroke:none" d="M118.977 248.734c-27.688 16.524-24.915 40.094-13.45 57.422.254.383.325.969.254 1.672-.469 4.129-4.969 14.555-6.847 17.371-.496.746-.907.688-.938.172-.144-4.719-5.535-16.535-13.738-30.117-8.73-14.527-8.762-45.938 34.597-47.164.403-.028.52.383.122.644zm7.402 1.227c-16.555 35.336 16.531 58.16 21.941 63.109.762.7.559 1.348.567 2.133 0 11.109-6.36 29.141-8.438 31.707-.304.402-.554.227-.676-.164-2.839-11-17.898-27.324-20.918-30.922-25.554-30.351-19.695-48.844 6.965-66.297.332-.207.762.024.559.434zm5.391 1.492c7.82 37.5 38.328 38.414 41.05 45.527 4.27 11.082-3.523 30.77-5.515 33.114-.196.234-.457.086-.559-.125-4.18-9.106-10.867-17.735-15.777-21.703-6.899-5.571-33.403-25.223-19.848-56.836.18-.379.539-.297.649.023zm5.425-3.262c49.387-1.777 52.903 43.243 53.11 60.098 0 .973-.469 1.055-.735.383-1.433-3.516-7.871-16.078-25.691-23.695-15.899-6.844-25.481-22.332-27.133-36.247-.074-.347.207-.523.449-.539zm11.223-16.859v11.34h-38.965v-11.34h38.965zm-22.773-80.219c.324-1.875 4.406-2.812 5.339 0l9.438 74.813h-22.949l8.172-74.813zM269.98 119.57H0v269.996h269.98V119.57M0 92.871h18.543l42.855-56.289v56.29h19.84V1.444H64.133L19.852 59.57V1.445H0v91.426M126.445 37.5 91.32 92.871h23.492l21.829-36.7 22.199 36.7h22.859l-35.137-54.98V1.445h-20.117V37.5m63.887 3.133V92.87h20.106V41.16c0-14.911 7.445-22.606 19.738-22.606 12.265 0 19.707 7.449 19.707 21.96V92.87H270V41.29C270 13.594 254.453 0 229.902 0c-24.558 0-39.57 13.71-39.57 40.633"/>
  </g>
</svg>
