<?xml version="1.0" encoding="UTF-8" standalone="no"?>
<!-- Created with Inkscape (http://www.inkscape.org/) -->

<svg
   xmlns:dc="http://purl.org/dc/elements/1.1/"
   xmlns:cc="http://creativecommons.org/ns#"
   xmlns:rdf="http://www.w3.org/1999/02/22-rdf-syntax-ns#"
   xmlns:svg="http://www.w3.org/2000/svg"
   xmlns="http://www.w3.org/2000/svg"
   xmlns:sodipodi="http://sodipodi.sourceforge.net/DTD/sodipodi-0.dtd"
   xmlns:inkscape="http://www.inkscape.org/namespaces/inkscape"
   id="svg3004"
   version="1.1"
   inkscape:version="0.48.5 r10040"
   width="246"
   height="87"
   xml:space="preserve"
   sodipodi:docname="logo_uni_swps_podstawowe_q (1).svg"><metadata
     id="metadata3010"><rdf:RDF><cc:Work
         rdf:about=""><dc:format>image/svg+xml</dc:format><dc:type
           rdf:resource="http://purl.org/dc/dcmitype/StillImage" /><dc:title></dc:title></cc:Work></rdf:RDF></metadata><defs
     id="defs3008"><clipPath
       clipPathUnits="userSpaceOnUse"
       id="clipPath3018"><path
         d="m 0,170.08 283.46,0 L 283.46,0 0,0 0,170.08 z"
         id="path3020"
         inkscape:connector-curvature="0" /></clipPath></defs><sodipodi:namedview
     pagecolor="#ffffff"
     bordercolor="#666666"
     borderopacity="1"
     objecttolerance="10"
     gridtolerance="10"
     guidetolerance="10"
     inkscape:pageopacity="0"
     inkscape:pageshadow="2"
     inkscape:window-width="1855"
     inkscape:window-height="1056"
     id="namedview3006"
     showgrid="false"
     inkscape:zoom="2.8284271"
     inkscape:cx="129.32594"
     inkscape:cy="113.09363"
     inkscape:window-x="1505"
     inkscape:window-y="24"
     inkscape:window-maximized="1"
     inkscape:current-layer="g3012"
     showborder="true" /><g
     id="g3012"
     inkscape:groupmode="layer"
     inkscape:label="logo_uni_swps_podstawowe_q (1)"
     transform="matrix(1.25,0,0,-1.25,0,86.999994)"><g
       id="g3014"
       transform="matrix(0.80328564,0,0,0.80328564,-15.45128,-32.881893)"><g
         id="g3016"
         clip-path="url(#clipPath3018)"><g
           id="g3022"
           transform="translate(53.3042,124.8716)"><path
             d="m 0,0 2.376,0 0,-13.664 c 0,-5.776 -1.353,-8.912 -7.855,-8.912 -5.346,0 -7.921,2.278 -7.921,7.658 l 0,10.561 c 0,2.971 -0.396,2.872 -3.3,3.234 l 0,0.727 6.931,0.759 0,-13.631 c 0,-3.63 -0.066,-7.756 4.719,-7.756 4.786,0 5.05,3.135 5.05,6.997 L 0,0 z"
             style="fill:#2f404d;fill-opacity:1;fill-rule:nonzero;stroke:none"
             id="path3024"
             inkscape:connector-curvature="0" /></g><g
           id="g3026"
           transform="translate(74.3911,102.6592)"><path
             d="m 0,0 -10.892,18.78 -0.066,0 0,-18.78 -2.079,0 0,17.988 c 0,3.102 -0.495,2.97 -3.3,3.498 l 0,0.726 6.963,0 10.397,-17.954 0.066,0 0,17.954 2.079,0 L 3.168,0 0,0 z"
             style="fill:#2f404d;fill-opacity:1;fill-rule:nonzero;stroke:none"
             id="path3028"
             inkscape:connector-curvature="0" /></g><g
           id="g3030"
           transform="translate(83.3647,102.6592)"><path
             d="m 0,0 0,17.855 c 0,3.004 -0.429,2.872 -3.301,3.235 l 0,0.726 L 3.63,22.575 3.63,0 0,0 z"
             style="fill:#2f404d;fill-opacity:1;fill-rule:nonzero;stroke:none"
             id="path3032"
             inkscape:connector-curvature="0" /></g><g
           id="g3034"
           transform="translate(110.5259,102.6592)"><path
             d="m 0,0 -5.743,17.591 -0.066,0 L -10.892,0 l -3.069,0 -4.191,17.988 c -0.66,2.904 -0.891,2.97 -3.73,3.498 l 0,0.726 5.974,0 4.357,-17.987 0.066,0 5.214,17.987 2.278,0 5.94,-17.987 0.067,0 3.63,17.987 2.146,0 L 3.136,0 0,0 z"
             style="fill:#2f404d;fill-opacity:1;fill-rule:nonzero;stroke:none"
             id="path3036"
             inkscape:connector-curvature="0" /></g><g
           id="g3038"
           transform="translate(122.9312,102.6592)"><path
             d="m 0,0 0,17.724 c 0,3.168 -0.033,3.267 -3.136,3.762 l 0,0.726 15.81,0 0.098,-4.884 -0.923,0 c 0,2.475 -1.222,3.333 -3.565,3.333 l -2.575,0 c -1.518,0 -2.079,-0.033 -2.079,-1.716 l 0,-6.568 3.994,0 c 1.881,0 2.409,0.858 2.707,2.541 l 0.923,0 0,-6.931 -0.923,0 c 0,1.848 -0.793,2.839 -2.707,2.839 l -3.994,0 0,-7.361 C 3.63,1.65 4.026,1.551 5.709,1.551 l 3.664,0 c 2.245,0 2.806,1.122 2.971,3.235 l 0.924,0 L 13.169,0 0,0 z"
             style="fill:#2f404d;fill-opacity:1;fill-rule:nonzero;stroke:none"
             id="path3040"
             inkscape:connector-curvature="0" /></g><g
           id="g3042"
           transform="translate(146.3623,114.4751)"><path
             d="m 0,0 c 2.871,0 5.148,1.056 5.148,4.291 0,3.267 -1.683,4.554 -4.818,4.554 -2.377,0 -2.212,-0.891 -2.212,-2.97 L -1.882,0 0,0 z m 6.007,-11.816 -5.842,10.265 -2.047,0 0,-10.265 -3.63,0 0,17.724 c 0,3.168 0,3.3 -3.135,3.762 l 0,0.726 8.482,0 c 3.993,0 8.944,-0.858 8.944,-5.908 0,-3.333 -1.915,-4.95 -5.05,-5.446 l 6.073,-10.858 -3.795,0 z"
             style="fill:#2f404d;fill-opacity:1;fill-rule:nonzero;stroke:none"
             id="path3044"
             inkscape:connector-curvature="0" /></g><g
           id="g3046"
           transform="translate(158.4717,105.8276)"><path
             d="m 0,0 c 1.815,-1.056 4.158,-1.98 6.304,-1.98 2.509,0 4.126,1.221 4.126,3.861 0,5.347 -10.727,4.852 -10.727,11.816 0,4.291 3.73,5.71 7.426,5.71 1.782,0 3.531,-0.264 5.281,-0.595 l 0,-2.441 c -1.782,0.858 -3.928,1.484 -5.908,1.484 -1.981,0 -3.168,-1.221 -3.168,-3.201 0,-5.083 10.727,-4.62 10.727,-11.684 0,-4.917 -4.028,-6.502 -8.285,-6.502 -1.948,0 -3.895,0.397 -5.776,0.859 L 0,0 z"
             style="fill:#2f404d;fill-opacity:1;fill-rule:nonzero;stroke:none"
             id="path3048"
             inkscape:connector-curvature="0" /></g><g
           id="g3050"
           transform="translate(181.6387,102.6592)"><path
             d="m 0,0 0,10.363 -5.313,8.912 c -1.057,1.782 -1.717,1.914 -3.631,2.211 l 0,0.726 6.138,0 5.612,-9.736 5.775,9.736 2.112,0 L 3.631,10.363 3.631,0 0,0 z"
             style="fill:#2f404d;fill-opacity:1;fill-rule:nonzero;stroke:none"
             id="path3052"
             inkscape:connector-curvature="0" /></g><g
           id="g3054"
           transform="translate(200.3818,102.6592)"><path
             d="m 0,0 0,20.661 -2.277,0 c -2.508,0 -3.367,-0.726 -3.565,-3.234 l -0.924,0 0.132,4.785 16.899,0 0.131,-4.884 -0.923,0 c 0,2.574 -1.122,3.333 -3.598,3.333 l -2.244,0 L 3.631,0 0,0 z"
             style="fill:#2f404d;fill-opacity:1;fill-rule:nonzero;stroke:none"
             id="path3056"
             inkscape:connector-curvature="0" /></g><g
           id="g3058"
           transform="translate(214.8682,102.6592)"><path
             d="m 0,0 0,17.724 c 0,3.168 -0.032,3.267 -3.135,3.762 l 0,0.726 15.809,0 0.099,-4.884 -0.924,0 c 0,2.475 -1.221,3.333 -3.565,3.333 l -2.574,0 c -1.518,0 -2.079,-0.033 -2.079,-1.716 l 0,-6.568 3.993,0 c 1.882,0 2.41,0.858 2.707,2.541 l 0.924,0 0,-6.931 -0.924,0 c 0,1.848 -0.792,2.839 -2.707,2.839 l -3.993,0 0,-7.361 C 3.631,1.65 4.027,1.551 5.71,1.551 l 3.664,0 c 2.244,0 2.805,1.122 2.97,3.235 l 0.925,0 L 13.169,0 0,0 z"
             style="fill:#2f404d;fill-opacity:1;fill-rule:nonzero;stroke:none"
             id="path3060"
             inkscape:connector-curvature="0" /></g><g
           id="g3062"
           transform="translate(236.5498,102.6592)"><path
             d="m 0,0 0,20.661 -2.277,0 c -2.508,0 -3.367,-0.726 -3.565,-3.234 l -0.924,0 0.132,4.785 16.899,0 0.131,-4.884 -0.923,0 c 0,2.574 -1.122,3.333 -3.598,3.333 l -2.244,0 L 3.631,0 0,0 z"
             style="fill:#2f404d;fill-opacity:1;fill-rule:nonzero;stroke:none"
             id="path3064"
             inkscape:connector-curvature="0" /></g><g
           id="g3066"
           transform="translate(71.6282,75.9941)"><path
             d="m 0,0 c 0.013,0.791 -0.033,1.681 -0.108,2.467 -0.1,1.061 -0.291,2.05 -0.534,3.092 -0.205,0.87 -0.195,1.878 -0.445,2.723 -0.248,0.849 -0.479,1.12 -1.261,1.523 -1.039,0.536 -2.818,0.456 -3.086,1.879 -0.059,0.31 -0.077,0.506 0,0.746 0.115,0.364 0.369,0.218 0.478,0.447 0.423,0.903 -0.01,2.812 -0.273,3.751 -0.439,1.579 -1.245,2.314 -2.984,2.147 -0.341,-0.035 -1.317,-0.311 -1.621,-0.43 -0.289,-0.119 -0.803,-0.423 -0.94,-0.708 -0.17,-0.354 0.083,-0.465 0.066,-0.633 -0.019,-0.26 -0.086,-0.533 -0.066,-0.804 0.044,-0.722 0.093,-0.633 0.161,-1.018 0.107,-0.605 -0.422,-1.217 -0.312,-1.692 0.067,-0.281 0.489,-0.156 0.536,-0.256 0.186,-0.41 0.269,-0.993 0.386,-1.445 0.176,-0.692 0.635,-0.147 1.076,-0.24 0.331,-0.069 0.535,-0.736 0.491,-1.111 -0.045,-0.387 -1.834,-1.364 -2.481,-1.98 -0.769,-0.735 -0.359,-1.401 -0.432,-2.128 -0.139,-1.393 -0.208,-2.537 -0.327,-3.928 -0.143,-1.657 -0.334,-3.355 -0.361,-4.614 -0.019,-0.768 0.057,-3.597 -0.721,-3.411 -0.401,0.099 -1.035,2.708 -1.262,3.961 -0.197,1.099 -0.593,3.354 -0.674,4.386 -0.031,0.415 0.071,1.2 0.033,1.669 -0.099,1.237 -0.42,1.684 -1.158,2.588 -0.288,0.355 -0.52,0.779 -0.71,1.233 -0.006,0.009 -0.009,0.018 -0.013,0.028 -0.053,0.127 -0.101,0.256 -0.148,0.387 0.014,0.045 0.128,-0.064 0.213,-0.168 0.853,-1.039 -0.106,0.443 -0.317,1.128 -0.212,0.684 -0.455,1.949 -0.921,3.561 -0.466,1.613 -1.09,2.195 -1.824,2.535 -0.733,0.34 -1.908,-0.012 -2.304,-0.214 -0.532,-0.275 -1.018,-0.914 -1.102,-1.075 -0.085,-0.164 -0.012,-0.233 0.087,-0.356 0.097,-0.124 0.036,-0.205 -0.047,-0.655 -0.06,-0.318 0.038,-0.512 0.066,-0.778 0.031,-0.264 -0.352,-1.074 -0.26,-1.217 0.16,-0.249 0.281,-0.146 0.379,-0.335 0.197,-0.367 0.169,-0.859 0.184,-1.051 0.031,-0.389 0.406,-0.394 0.75,-0.355 0.162,-0.003 0.336,0.041 0.503,0.041 0.283,-0.049 0.573,-0.448 0.622,-0.79 0.119,-0.83 -0.035,-1.135 -0.083,-1.465 -0.019,-0.112 -0.069,-0.281 -0.133,-0.461 -0.895,-1.404 -2.612,-3.142 -2.716,-4.231 -0.085,-0.923 0.387,-1.481 0.518,-1.967 0.212,-0.782 0.439,-1.561 0.113,-2.567 -0.28,-0.854 -0.726,-1.563 -1.122,-2.374 -0.252,-0.521 -0.402,-1.222 -0.691,-1.731 -0.077,-0.133 -0.148,-0.271 -0.219,-0.41 -0.214,-0.415 -0.429,-0.842 -0.742,-1.187 -0.202,-0.222 -0.487,-0.38 -0.553,-0.698 -0.049,-0.231 0.056,-1.104 -0.322,-1.384 -0.311,-0.236 -0.792,-0.881 -0.917,-1.068 -0.387,-0.574 -0.838,-1.079 -1.383,-1.545 -0.289,-0.248 -0.682,-0.805 -1.1,-0.885 -0.123,-0.023 -0.718,0.066 -0.251,0.634 0.126,0.151 0.385,0.356 0.526,0.503 0.228,0.237 0.182,0.393 0.053,0.637 -0.181,0.347 -0.234,0.472 -0.277,0.915 -0.031,0.32 -0.545,0.116 -0.727,0.358 -0.079,0.103 -0.292,0.69 -0.357,0.831 -0.248,0.551 -1.058,0.881 -1.65,0.689 -0.445,-0.145 -1.204,-0.587 -1.487,-0.848 -0.499,-0.463 -0.745,-0.965 -0.869,-1.573 -0.118,-0.57 -0.07,-1.434 0.216,-1.952 0.465,-0.847 2.251,-1.486 2.558,-1.522 0.001,-0.057 -0.141,-0.146 -0.211,-0.641 -0.165,-1.156 0.246,-3.97 0.303,-4.491 0.082,-0.774 0.265,-1.97 0.303,-2.261 0.152,-1.173 0.455,-1.019 0.51,-1.289 0.182,-0.88 0.236,-1.604 0.206,-2.543 -0.041,-1.442 -0.077,-2.099 -0.141,-2.934 -0.037,-0.456 -0.337,-1.961 0.381,-2.122 0.613,-0.132 1.496,-0.469 2.094,-0.644 0.623,-0.176 0.899,0.901 0.338,1.126 0.581,-0.232 1.697,-0.913 1.905,-0.254 0.339,1.067 -1.125,1.012 -1.065,1.853 0.055,0.881 0.483,2.303 0.657,3.475 0.125,0.81 0.106,1.768 0.092,2.685 -0.029,1.712 -0.228,2.77 -0.353,3.617 -0.092,0.628 -0.334,1.853 -0.431,2.475 -0.196,1.282 0.02,2.682 0.461,3.177 0.44,0.498 1.62,1.949 2.06,3.19 0.162,0.462 0.211,0.455 0.425,0.693 l 0.003,0.003 c 0.222,0.242 0.208,0.489 0.559,1.134 0.263,0.489 0.417,0.916 0.738,1.378 -0.119,-0.167 -0.136,-0.996 -0.135,-1.214 0,-0.382 0.243,-2.886 -0.19,-4.78 -0.241,-1.07 -1.044,-4.112 -0.719,-4.578 0.062,-0.089 0.526,-0.187 1.219,-0.283 0.115,-0.656 0.325,-2.015 0.369,-2.478 0.146,-1.477 0.199,-2.542 0.514,-3.914 0.196,-0.857 0.75,-2.64 0.834,-3.422 0.066,-0.633 -0.077,-1.161 -0.359,-1.603 -0.369,-0.569 -1.516,-0.708 -2.419,-1.181 -0.492,-0.257 -0.29,-0.987 1.198,-0.874 0.897,0.068 1.221,0.136 2.1,0.34 0.878,0.204 1.639,0.613 1.353,1.351 -0.116,0.302 -0.33,0.958 -0.362,1.491 -0.032,0.536 0.01,2.167 0.046,2.98 0.033,0.78 -0.063,2.623 -0.092,3.455 -0.057,1.881 -0.269,3.142 -0.012,3.545 0.274,-0.02 0.548,-0.039 0.823,-0.054 0.271,-0.413 0.335,-1.288 0.405,-2.282 0.067,-0.91 0.106,-1.862 0.296,-2.912 0.167,-0.929 0.435,-2.638 0.514,-3.571 0.209,-2.597 0.895,-3.302 1.315,-3.745 0.608,-0.643 1.12,-1.054 1.968,-1.005 0.965,0.056 0.469,0.87 -0.852,2.428 -0.43,0.509 -0.519,0.893 -0.743,1.727 -0.174,0.64 0.072,3.03 0.216,4.249 0.107,0.897 0.18,2.268 0.193,3.743 10e-4,0.205 -0.017,0.841 0.062,1.265 0.705,0.013 1.173,0.066 1.219,0.17 0.109,0.254 -0.089,1.209 -0.15,1.504 -0.28,1.332 -0.637,2.163 -0.804,3.503 -0.282,2.288 0.524,4.385 0.062,7.161 -0.26,1.566 -1.087,3.187 -1.065,4.779 0.017,1.338 0.05,2.074 0.409,1.287 0.283,-0.619 0.314,-0.923 0.541,-1.661 0.331,-1.067 0.895,-2.643 1.168,-3.56 0.194,-0.66 0.528,-1.607 0.586,-2.525 0.055,-0.914 0.507,-1.505 0.955,-1.7 0.238,-0.103 0.802,-0.085 1.039,-0.042 0.345,0.063 0.758,0.452 0.944,0.887 0.286,0.67 0.326,0.389 0.465,1.295 0.06,-0.959 0.065,-1.668 0.064,-2.381 l -0.004,0 c -0.049,-0.713 -0.025,-1.522 0.033,-2.363 0.002,-0.053 0.002,-0.096 0.005,-0.149 0,-0.011 0.007,-0.023 0.008,-0.035 0.174,-2.302 0.597,-4.814 0.597,-6.28 0,-2.046 0.318,-7.803 0.318,-9.187 0,-1.381 0.362,-2.225 -0.902,-2.947 -1.263,-0.721 -2.646,-1.789 -0.962,-1.819 1.684,-0.03 2.525,0.376 3.188,0.618 0.663,0.239 2.052,0.007 2.09,0.434 0.072,0.836 0.164,5.339 -0.046,7.684 -0.208,2.346 -0.27,5.203 -0.09,6.375 0.181,1.174 0.382,1.725 0.456,1.425 0.146,-0.584 0.209,-0.599 0.309,-2.006 0.085,-1.134 0.624,-4.802 0.563,-6.035 -0.06,-1.232 -0.089,-4.66 0.061,-5.532 0.151,-0.871 0.151,-1.834 0.271,-2.106 0.12,-0.27 0.434,-0.373 0.595,-0.622 0.174,-0.274 0.628,-0.507 1.198,-0.704 0.542,-0.186 1.936,-0.147 1.756,0.814 -0.181,0.964 -0.601,1.113 -0.722,1.474 -0.121,0.362 0.312,4.12 0.332,5.578 0.017,1.416 -0.228,6.351 -0.228,8.395 0,2.045 0.196,6.357 0.196,6.959 0,0 -10e-4,10e-4 -10e-4,0.002 0.047,0.291 0.1,0.61 0.162,1.095 0.177,1.353 -0.152,2.012 0.635,3.004 C 0.486,-3.872 -0.033,-1.784 0,0"
             style="fill:#2f404d;fill-opacity:1;fill-rule:evenodd;stroke:none"
             id="path3068"
             inkscape:connector-curvature="0" /></g><g
           id="g3070"
           transform="translate(81.7933,47.8232)"><path
             d="m 0,0 c -0.807,0.397 -0.864,0.426 -1.019,0.761 -0.094,0.195 -0.42,0.43 -0.571,0.547 -0.015,0.589 0.098,3.219 0.103,4.347 0.003,0.701 -0.087,2.335 -0.244,2.97 0.266,0.491 0.821,2.311 0.958,2.784 0,0 0.73,3.181 0.741,4.264 0.02,1.247 -0.366,2.801 0.232,3.169 0.846,0.524 0.954,0.813 0.797,1.675 -0.142,0.819 -0.355,2.794 -0.4,3.626 -0.1,1.896 -0.561,5.924 -0.86,7.247 -0.372,1.648 -0.855,3.015 -1.166,3.369 -0.293,0.324 -0.723,0.468 -1.009,0.804 -0.33,0.384 -0.096,0.576 -0.306,0.98 -0.085,0.161 -0.313,0.25 -0.399,0.383 -0.092,0.14 -0.095,0.336 -0.105,0.51 -0.029,0.45 0.095,0.353 0.382,0.525 0.364,0.217 0.389,0.616 0.423,0.995 0.029,0.326 0.136,0.533 0.241,0.832 0.235,0.679 0.063,1.18 0.046,1.87 -0.02,0.589 0.117,0.909 0.083,1.488 -0.1,1.85 -4.489,2.152 -5.322,-0.164 -0.154,-0.428 0.093,-3.353 0.235,-3.727 0.26,-0.694 0.903,-0.985 0.624,-1.865 -0.132,-0.398 -0.2,-0.332 -0.513,-0.575 -0.51,-0.392 -0.079,-0.924 -0.539,-1.342 -2.5,-2.296 -1.765,-7.975 -1.491,-11.504 0.117,-1.508 0.447,-4.605 0.877,-5.516 0.307,-0.639 0.543,0.149 0.9,-0.31 0.441,-0.557 -0.35,-5.057 0,-6.85 -1.584,-4.523 -2.94,-13.189 -2.381,-14.289 0.189,-0.376 0.888,-0.367 1.66,-0.525 1.014,-0.212 2.419,-0.475 3.334,-0.359 0.091,0.011 0.46,0.079 0.542,0.26 0.178,0.391 0.028,1.071 -0.912,1.461 -0.338,0.139 -1.125,0.489 -1.182,0.924 -0.081,0.596 0.057,3.837 0.696,4.833 -0.029,-0.333 0.49,-1.697 0.387,-2.744 -0.057,-0.595 -0.092,-2.285 0.188,-2.512 0.234,-0.187 4.113,-0.378 5.765,-0.37 0.435,0.004 1.114,0.067 1.169,0.417 C 2.093,-0.853 0.945,-0.461 0,0"
             style="fill:#2f404d;fill-opacity:1;fill-rule:evenodd;stroke:none"
             id="path3072"
             inkscape:connector-curvature="0" /></g><g
           id="g3074"
           transform="translate(89.1048,57.9326)"><path
             d="m 0,0 c 0.122,-0.816 -0.031,-3.724 0.042,-4.487 0.117,-1.221 0.299,-2.654 0.303,-3.746 0.003,-1.15 -0.108,-2.027 -0.151,-2.324 -0.049,-0.349 -0.116,-0.629 -0.116,-0.629 0,0 -0.224,0.252 -0.607,1.477 -0.241,0.774 -0.377,2.341 -0.42,3.341 -0.038,0.945 -0.044,2.743 0.02,3.568 0.093,1.173 0.073,1.616 0.223,2.599 0.017,0.108 0.031,0.271 0.044,0.467 C -0.447,0.263 -0.23,0.261 -0.013,0.262 -0.013,0.148 -0.008,0.057 0,0 m -3.769,12.105 c -0.313,1.551 -0.153,4.999 -0.098,5.415 0.105,0.814 0.536,-1.633 0.599,-2.232 0.095,-0.88 -0.431,-3.527 -0.501,-3.183 M 3.94,9.341 c -0.563,2.888 -0.867,6.622 -0.873,7.283 -0.011,1.059 0.719,1.685 0.409,3.18 -0.12,0.571 -0.487,0.97 -0.518,1.466 -0.022,0.358 -0.02,1.516 -0.247,2.07 -0.228,0.553 -0.803,0.93 -1.435,0.919 -0.641,-0.014 -1.284,0.066 -1.547,0.251 -0.215,0.151 -0.484,1.223 -0.248,1.568 0.123,0.181 1.453,-0.03 1.48,0.223 0.106,0.962 0.222,4.316 -0.93,5.536 -0.36,0.382 -1.305,0.593 -1.732,0.584 -3.213,-0.055 -2.482,-6.049 -2.332,-6.271 0.139,-0.212 1.016,0.014 1.073,-0.155 0.106,-0.318 0.023,-0.712 -0.117,-1.057 -0.167,-0.412 -0.612,-1.127 -1.748,-1.459 -0.985,-0.288 -1.193,-1.008 -1.294,-2.204 -0.056,-0.66 0.228,-7.434 0.621,-10.003 0.252,-1.663 0.802,-3.53 0.898,-4.729 0.117,-1.423 -0.253,-5.492 -0.046,-5.716 0.15,-0.164 0.609,-0.289 1.246,-0.38 0.01,-2.154 -0.03,-3.934 0.336,-5.639 0.355,-1.656 0.693,-2.753 0.971,-4.104 0.184,-0.886 -0.362,-2.511 0.046,-2.856 0.304,-0.256 2.438,-1.429 3.513,-0.983 0.309,0.128 0.08,0.765 0.08,0.765 0,0 0.599,-0.469 1.456,-0.53 0.856,-0.058 1.192,0.109 1.122,0.431 -0.156,0.714 -1.708,1.255 -1.917,1.55 -0.206,0.295 -0.417,0.885 -0.269,2.774 0.149,1.891 0.503,3.19 0.503,4.49 0,1.298 -0.119,2.539 0,3.308 0.024,0.148 0.055,0.398 0.09,0.701 1.302,0.099 2.292,0.275 2.416,0.517 0.199,0.387 -0.64,6.597 -1.007,8.47"
             style="fill:#2f404d;fill-opacity:1;fill-rule:evenodd;stroke:none"
             id="path3076"
             inkscape:connector-curvature="0" /></g><g
           id="g3078"
           transform="translate(200.3118,68.624)"><path
             d="m 0,0 -3.43,0 0,14.512 c 0,3.034 0.463,3.958 3.76,3.958 6.465,0 9.368,-1.979 9.368,-8.839 C 9.698,2.903 6.531,0 0,0 m 3.564,21.57 -17.387,0 -3.195,0 -1.092,0 -7.257,-35.95 -0.133,0 -11.872,35.95 -4.552,0 -10.423,-35.95 -0.132,0 -8.707,35.95 c -3.841,0.354 -10.948,0.785 -16.916,0.726 -7.388,-0.071 -14.842,-2.836 -14.842,-11.411 0,-13.919 21.438,-12.93 21.438,-23.616 0,-5.277 -3.231,-7.717 -8.245,-7.717 -4.288,0 -8.972,1.846 -12.599,3.958 l 0,-5.343 c 3.759,-0.925 7.651,-1.717 11.542,-1.717 8.51,0 16.559,3.168 16.559,12.995 0,14.118 -21.439,13.194 -21.439,23.352 0,3.958 2.844,6.604 6.801,6.604 3.728,0 10.662,-0.401 12.031,-2.268 0.437,-0.908 0.769,-2.174 1.184,-4.006 l 8.378,-35.95 6.135,0 10.157,35.158 0.132,0 11.478,-35.158 6.267,0 8.835,42.161 c 3.576,-0.13 3.604,-0.697 3.604,-6.739 l 0,-35.422 7.256,0 0,19.723 c 9.763,0 20.382,-0.593 20.382,12.467 0,8.113 -5.672,12.203 -13.388,12.203"
             style="fill:#2f404d;fill-opacity:1;fill-rule:nonzero;stroke:none"
             id="path3080"
             inkscape:connector-curvature="0" /></g><g
           id="g3082"
           transform="translate(225.4827,81.4209)"><path
             d="m 0,0 c 0,3.958 2.375,6.398 6.333,6.398 3.958,0 8.245,-1.252 11.809,-2.967 l 0,4.882 C 14.645,8.972 11.149,9.499 7.587,9.499 0.198,9.499 -7.254,6.663 -7.254,-1.912 c 0,-13.919 21.437,-12.93 21.437,-23.616 0,-5.277 -3.232,-7.717 -8.246,-7.717 -4.287,0 -8.97,1.847 -12.599,3.958 l 0,-5.343 c 3.761,-0.925 7.653,-1.717 11.544,-1.717 8.511,0 16.557,3.168 16.557,12.995 C 21.439,-9.234 0,-10.158 0,0"
             style="fill:#2f404d;fill-opacity:1;fill-rule:nonzero;stroke:none"
             id="path3084"
             inkscape:connector-curvature="0" /></g></g></g></g></svg>