<svg xmlns="http://www.w3.org/2000/svg" width="246" height="87" xml:space="preserve">
  <defs>
    <clipPath clipPathUnits="userSpaceOnUse" id="a">
      <path d="M0 170.08h283.46V0H0v170.08z"/>
    </clipPath>
  </defs>
  <g clip-path="url(#a)" transform="matrix(1.0041 0 0 -1.0041 -19.314 128.102)">
    <path d="M0 0h2.376v-13.664c0-5.776-1.353-8.912-7.855-8.912-5.346 0-7.921 2.278-7.921 7.658v10.561c0 2.971-.396 2.872-3.3 3.234v.727l6.931.759v-13.631c0-3.63-.066-7.756 4.719-7.756 4.786 0 5.05 3.135 5.05 6.997V0z" style="fill:#2f404d;fill-opacity:1;fill-rule:nonzero;stroke:none" transform="translate(53.304 124.872)"/>
    <path d="m0 0-10.892 18.78h-.066V0h-2.079v17.988c0 3.102-.495 2.97-3.3 3.498v.726h6.963L1.023 4.258h.066v17.954h2.079V0H0z" style="fill:#2f404d;fill-opacity:1;fill-rule:nonzero;stroke:none" transform="translate(74.391 102.66)"/>
    <path d="M0 0v17.855c0 3.004-.429 2.872-3.301 3.235v.726l6.931.759V0H0z" style="fill:#2f404d;fill-opacity:1;fill-rule:nonzero;stroke:none" transform="translate(83.365 102.66)"/>
    <path d="m0 0-5.743 17.591h-.066L-10.892 0h-3.069l-4.191 17.988c-.66 2.904-.891 2.97-3.73 3.498v.726h5.974l4.357-17.987h.066l5.214 17.987h2.278l5.94-17.987h.067l3.63 17.987H7.79L3.136 0H0z" style="fill:#2f404d;fill-opacity:1;fill-rule:nonzero;stroke:none" transform="translate(110.526 102.66)"/>
    <path d="M0 0v17.724c0 3.168-.033 3.267-3.136 3.762v.726h15.81l.098-4.884h-.923c0 2.475-1.222 3.333-3.565 3.333H5.709c-1.518 0-2.079-.033-2.079-1.716v-6.568h3.994c1.881 0 2.409.858 2.707 2.541h.923V7.987h-.923c0 1.848-.793 2.839-2.707 2.839H3.63V3.465c0-1.815.396-1.914 2.079-1.914h3.664c2.245 0 2.806 1.122 2.971 3.235h.924L13.169 0H0z" style="fill:#2f404d;fill-opacity:1;fill-rule:nonzero;stroke:none" transform="translate(122.931 102.66)"/>
    <path d="M0 0c2.871 0 5.148 1.056 5.148 4.291 0 3.267-1.683 4.554-4.818 4.554-2.377 0-2.212-.891-2.212-2.97V0H0zm6.007-11.816L.165-1.551h-2.047v-10.265h-3.63V5.908c0 3.168 0 3.3-3.135 3.762v.726h8.482c3.993 0 8.944-.858 8.944-5.908 0-3.333-1.915-4.95-5.05-5.446l6.073-10.858H6.007z" style="fill:#2f404d;fill-opacity:1;fill-rule:nonzero;stroke:none" transform="translate(146.362 114.475)"/>
    <path d="M0 0c1.815-1.056 4.158-1.98 6.304-1.98 2.509 0 4.126 1.221 4.126 3.861 0 5.347-10.727 4.852-10.727 11.816 0 4.291 3.73 5.71 7.426 5.71 1.782 0 3.531-.264 5.281-.595v-2.441c-1.782.858-3.928 1.484-5.908 1.484-1.981 0-3.168-1.221-3.168-3.201 0-5.083 10.727-4.62 10.727-11.684 0-4.917-4.028-6.502-8.285-6.502-1.948 0-3.895.397-5.776.859V0z" style="fill:#2f404d;fill-opacity:1;fill-rule:nonzero;stroke:none" transform="translate(158.472 105.828)"/>
    <path d="M0 0v10.363l-5.313 8.912c-1.057 1.782-1.717 1.914-3.631 2.211v.726h6.138l5.612-9.736 5.775 9.736h2.112L3.631 10.363V0H0z" style="fill:#2f404d;fill-opacity:1;fill-rule:nonzero;stroke:none" transform="translate(181.639 102.66)"/>
    <path d="M0 0v20.661h-2.277c-2.508 0-3.367-.726-3.565-3.234h-.924l.132 4.785h16.899l.131-4.884h-.923c0 2.574-1.122 3.333-3.598 3.333H3.631V0H0z" style="fill:#2f404d;fill-opacity:1;fill-rule:nonzero;stroke:none" transform="translate(200.382 102.66)"/>
    <path d="M0 0v17.724c0 3.168-.032 3.267-3.135 3.762v.726h15.809l.099-4.884h-.924c0 2.475-1.221 3.333-3.565 3.333H5.71c-1.518 0-2.079-.033-2.079-1.716v-6.568h3.993c1.882 0 2.41.858 2.707 2.541h.924V7.987h-.924c0 1.848-.792 2.839-2.707 2.839H3.631V3.465c0-1.815.396-1.914 2.079-1.914h3.664c2.244 0 2.805 1.122 2.97 3.235h.925L13.169 0H0z" style="fill:#2f404d;fill-opacity:1;fill-rule:nonzero;stroke:none" transform="translate(214.868 102.66)"/>
    <path d="M0 0v20.661h-2.277c-2.508 0-3.367-.726-3.565-3.234h-.924l.132 4.785h16.899l.131-4.884h-.923c0 2.574-1.122 3.333-3.598 3.333H3.631V0H0z" style="fill:#2f404d;fill-opacity:1;fill-rule:nonzero;stroke:none" transform="translate(236.55 102.66)"/>
    <path d="M0 0c.013.791-.033 1.681-.108 2.467-.1 1.061-.291 2.05-.534 3.092-.205.87-.195 1.878-.445 2.723-.248.849-.479 1.12-1.261 1.523-1.039.536-2.818.456-3.086 1.879-.059.31-.077.506 0 .746.115.364.369.218.478.447.423.903-.01 2.812-.273 3.751-.439 1.579-1.245 2.314-2.984 2.147-.341-.035-1.317-.311-1.621-.43-.289-.119-.803-.423-.94-.708-.17-.354.083-.465.066-.633-.019-.26-.086-.533-.066-.804.044-.722.093-.633.161-1.018.107-.605-.422-1.217-.312-1.692.067-.281.489-.156.536-.256.186-.41.269-.993.386-1.445.176-.692.635-.147 1.076-.24.331-.069.535-.736.491-1.111-.045-.387-1.834-1.364-2.481-1.98-.769-.735-.359-1.401-.432-2.128-.139-1.393-.208-2.537-.327-3.928-.143-1.657-.334-3.355-.361-4.614-.019-.768.057-3.597-.721-3.411-.401.099-1.035 2.708-1.262 3.961-.197 1.099-.593 3.354-.674 4.386-.031.415.071 1.2.033 1.669-.099 1.237-.42 1.684-1.158 2.588-.288.355-.52.779-.71 1.233-.006.009-.009.018-.013.028a8.138 8.138 0 0 0-.148.387c.014.045.128-.064.213-.168.853-1.039-.106.443-.317 1.128-.212.684-.455 1.949-.921 3.561-.466 1.613-1.09 2.195-1.824 2.535-.733.34-1.908-.012-2.304-.214-.532-.275-1.018-.914-1.102-1.075-.085-.164-.012-.233.087-.356.097-.124.036-.205-.047-.655-.06-.318.038-.512.066-.778.031-.264-.352-1.074-.26-1.217.16-.249.281-.146.379-.335.197-.367.169-.859.184-1.051.031-.389.406-.394.75-.355.162-.003.336.041.503.041.283-.049.573-.448.622-.79.119-.83-.035-1.135-.083-1.465a3.105 3.105 0 0 0-.133-.461c-.895-1.404-2.612-3.142-2.716-4.231-.085-.923.387-1.481.518-1.967.212-.782.439-1.561.113-2.567-.28-.854-.726-1.563-1.122-2.374-.252-.521-.402-1.222-.691-1.731a8.872 8.872 0 0 1-.219-.41c-.214-.415-.429-.842-.742-1.187-.202-.222-.487-.38-.553-.698-.049-.231.056-1.104-.322-1.384-.311-.236-.792-.881-.917-1.068a7.588 7.588 0 0 0-1.383-1.545c-.289-.248-.682-.805-1.1-.885-.123-.023-.718.066-.251.634.126.151.385.356.526.503.228.237.182.393.053.637-.181.347-.234.472-.277.915-.031.32-.545.116-.727.358-.079.103-.292.69-.357.831-.248.551-1.058.881-1.65.689-.445-.145-1.204-.587-1.487-.848-.499-.463-.745-.965-.869-1.573-.118-.57-.07-1.434.216-1.952.465-.847 2.251-1.486 2.558-1.522.001-.057-.141-.146-.211-.641-.165-1.156.246-3.97.303-4.491.082-.774.265-1.97.303-2.261.152-1.173.455-1.019.51-1.289.182-.88.236-1.604.206-2.543a53.884 53.884 0 0 0-.141-2.934c-.037-.456-.337-1.961.381-2.122.613-.132 1.496-.469 2.094-.644.623-.176.899.901.338 1.126.581-.232 1.697-.913 1.905-.254.339 1.067-1.125 1.012-1.065 1.853.055.881.483 2.303.657 3.475.125.81.106 1.768.092 2.685-.029 1.712-.228 2.77-.353 3.617-.092.628-.334 1.853-.431 2.475-.196 1.282.02 2.682.461 3.177.44.498 1.62 1.949 2.06 3.19.162.462.211.455.425.693l.003.003c.222.242.208.489.559 1.134.263.489.417.916.738 1.378-.119-.167-.136-.996-.135-1.214 0-.382.243-2.886-.19-4.78-.241-1.07-1.044-4.112-.719-4.578.062-.089.526-.187 1.219-.283.115-.656.325-2.015.369-2.478.146-1.477.199-2.542.514-3.914.196-.857.75-2.64.834-3.422.066-.633-.077-1.161-.359-1.603-.369-.569-1.516-.708-2.419-1.181-.492-.257-.29-.987 1.198-.874.897.068 1.221.136 2.1.34.878.204 1.639.613 1.353 1.351-.116.302-.33.958-.362 1.491-.032.536.01 2.167.046 2.98.033.78-.063 2.623-.092 3.455-.057 1.881-.269 3.142-.012 3.545.274-.02.548-.039.823-.054.271-.413.335-1.288.405-2.282.067-.91.106-1.862.296-2.912.167-.929.435-2.638.514-3.571.209-2.597.895-3.302 1.315-3.745.608-.643 1.12-1.054 1.968-1.005.965.056.469.87-.852 2.428-.43.509-.519.893-.743 1.727-.174.64.072 3.03.216 4.249.107.897.18 2.268.193 3.743.001.205-.017.841.062 1.265.705.013 1.173.066 1.219.17.109.254-.089 1.209-.15 1.504-.28 1.332-.637 2.163-.804 3.503-.282 2.288.524 4.385.062 7.161-.26 1.566-1.087 3.187-1.065 4.779.017 1.338.05 2.074.409 1.287.283-.619.314-.923.541-1.661.331-1.067.895-2.643 1.168-3.56.194-.66.528-1.607.586-2.525.055-.914.507-1.505.955-1.7.238-.103.802-.085 1.039-.042.345.063.758.452.944.887.286.67.326.389.465 1.295.06-.959.065-1.668.064-2.381h-.004c-.049-.713-.025-1.522.033-2.363.002-.053.002-.096.005-.149 0-.011.007-.023.008-.035.174-2.302.597-4.814.597-6.28 0-2.046.318-7.803.318-9.187 0-1.381.362-2.225-.902-2.947-1.263-.721-2.646-1.789-.962-1.819 1.684-.03 2.525.376 3.188.618.663.239 2.052.007 2.09.434.072.836.164 5.339-.046 7.684-.208 2.346-.27 5.203-.09 6.375.181 1.174.382 1.725.456 1.425.146-.584.209-.599.309-2.006.085-1.134.624-4.802.563-6.035-.06-1.232-.089-4.66.061-5.532.151-.871.151-1.834.271-2.106.12-.27.434-.373.595-.622.174-.274.628-.507 1.198-.704.542-.186 1.936-.147 1.756.814-.181.964-.601 1.113-.722 1.474-.121.362.312 4.12.332 5.578.017 1.416-.228 6.351-.228 8.395 0 2.045.196 6.357.196 6.959l-.001.002c.047.291.1.61.162 1.095.177 1.353-.152 2.012.635 3.004C.486-3.872-.033-1.784 0 0" style="fill:#2f404d;fill-opacity:1;fill-rule:evenodd;stroke:none" transform="translate(71.628 75.994)"/>
    <path d="M0 0c-.807.397-.864.426-1.019.761-.094.195-.42.43-.571.547-.015.589.098 3.219.103 4.347.003.701-.087 2.335-.244 2.97.266.491.821 2.311.958 2.784 0 0 .73 3.181.741 4.264.02 1.247-.366 2.801.232 3.169.846.524.954.813.797 1.675-.142.819-.355 2.794-.4 3.626-.1 1.896-.561 5.924-.86 7.247-.372 1.648-.855 3.015-1.166 3.369-.293.324-.723.468-1.009.804-.33.384-.096.576-.306.98-.085.161-.313.25-.399.383-.092.14-.095.336-.105.51-.029.45.095.353.382.525.364.217.389.616.423.995.029.326.136.533.241.832.235.679.063 1.18.046 1.87-.02.589.117.909.083 1.488-.1 1.85-4.489 2.152-5.322-.164-.154-.428.093-3.353.235-3.727.26-.694.903-.985.624-1.865-.132-.398-.2-.332-.513-.575-.51-.392-.079-.924-.539-1.342-2.5-2.296-1.765-7.975-1.491-11.504.117-1.508.447-4.605.877-5.516.307-.639.543.149.9-.31.441-.557-.35-5.057 0-6.85-1.584-4.523-2.94-13.189-2.381-14.289.189-.376.888-.367 1.66-.525 1.014-.212 2.419-.475 3.334-.359.091.011.46.079.542.26.178.391.028 1.071-.912 1.461-.338.139-1.125.489-1.182.924-.081.596.057 3.837.696 4.833-.029-.333.49-1.697.387-2.744-.057-.595-.092-2.285.188-2.512.234-.187 4.113-.378 5.765-.37.435.004 1.114.067 1.169.417C2.093-.853.945-.461 0 0" style="fill:#2f404d;fill-opacity:1;fill-rule:evenodd;stroke:none" transform="translate(81.793 47.823)"/>
    <path d="M0 0c.122-.816-.031-3.724.042-4.487.117-1.221.299-2.654.303-3.746a16.552 16.552 0 0 0-.151-2.324c-.049-.349-.116-.629-.116-.629s-.224.252-.607 1.477c-.241.774-.377 2.341-.42 3.341-.038.945-.044 2.743.02 3.568.093 1.173.073 1.616.223 2.599.017.108.031.271.044.467.215-.003.432-.005.649-.004C-.013.148-.008.057 0 0m-3.769 12.105c-.313 1.551-.153 4.999-.098 5.415.105.814.536-1.633.599-2.232.095-.88-.431-3.527-.501-3.183M3.94 9.341c-.563 2.888-.867 6.622-.873 7.283-.011 1.059.719 1.685.409 3.18-.12.571-.487.97-.518 1.466-.022.358-.02 1.516-.247 2.07-.228.553-.803.93-1.435.919-.641-.014-1.284.066-1.547.251-.215.151-.484 1.223-.248 1.568.123.181 1.453-.03 1.48.223.106.962.222 4.316-.93 5.536-.36.382-1.305.593-1.732.584-3.213-.055-2.482-6.049-2.332-6.271.139-.212 1.016.014 1.073-.155.106-.318.023-.712-.117-1.057-.167-.412-.612-1.127-1.748-1.459-.985-.288-1.193-1.008-1.294-2.204-.056-.66.228-7.434.621-10.003.252-1.663.802-3.53.898-4.729.117-1.423-.253-5.492-.046-5.716.15-.164.609-.289 1.246-.38.01-2.154-.03-3.934.336-5.639.355-1.656.693-2.753.971-4.104.184-.886-.362-2.511.046-2.856.304-.256 2.438-1.429 3.513-.983.309.128.08.765.08.765s.599-.469 1.456-.53c.856-.058 1.192.109 1.122.431-.156.714-1.708 1.255-1.917 1.55-.206.295-.417.885-.269 2.774.149 1.891.503 3.19.503 4.49 0 1.298-.119 2.539 0 3.308.024.148.055.398.09.701 1.302.099 2.292.275 2.416.517.199.387-.64 6.597-1.007 8.47" style="fill:#2f404d;fill-opacity:1;fill-rule:evenodd;stroke:none" transform="translate(89.105 57.933)"/>
    <path d="M0 0h-3.43v14.512c0 3.034.463 3.958 3.76 3.958 6.465 0 9.368-1.979 9.368-8.839C9.698 2.903 6.531 0 0 0m3.564 21.57H-18.11l-7.257-35.95h-.133l-11.872 35.95h-4.552l-10.423-35.95h-.132l-8.707 35.95c-3.841.354-10.948.785-16.916.726-7.388-.071-14.842-2.836-14.842-11.411 0-13.919 21.438-12.93 21.438-23.616 0-5.277-3.231-7.717-8.245-7.717-4.288 0-8.972 1.846-12.599 3.958v-5.343c3.759-.925 7.651-1.717 11.542-1.717 8.51 0 16.559 3.168 16.559 12.995 0 14.118-21.439 13.194-21.439 23.352 0 3.958 2.844 6.604 6.801 6.604 3.728 0 10.662-.401 12.031-2.268.437-.908.769-2.174 1.184-4.006l8.378-35.95h6.135l10.157 35.158h.132l11.478-35.158h6.267l8.835 42.161c3.576-.13 3.604-.697 3.604-6.739v-35.422h7.256V-3.1c9.763 0 20.382-.593 20.382 12.467 0 8.113-5.672 12.203-13.388 12.203" style="fill:#2f404d;fill-opacity:1;fill-rule:nonzero;stroke:none" transform="translate(200.312 68.624)"/>
    <path d="M0 0c0 3.958 2.375 6.398 6.333 6.398s8.245-1.252 11.809-2.967v4.882c-3.497.659-6.993 1.186-10.555 1.186-7.389 0-14.841-2.836-14.841-11.411 0-13.919 21.437-12.93 21.437-23.616 0-5.277-3.232-7.717-8.246-7.717-4.287 0-8.97 1.847-12.599 3.958v-5.343c3.761-.925 7.653-1.717 11.544-1.717 8.511 0 16.557 3.168 16.557 12.995C21.439-9.234 0-10.158 0 0" style="fill:#2f404d;fill-opacity:1;fill-rule:nonzero;stroke:none" transform="translate(225.483 81.42)"/>
  </g>
</svg>
