<svg version="1.1" class="logo-tpt logo-tp logo-tp-fond-couleur" xmlns="http://www.w3.org/2000/svg" xmlns:xlink="http://www.w3.org/1999/xlink" x="0px" y="0px" viewBox="0 0 174.8 175.5" style="enable-background:new 0 0 174.8 175.5;" xml:space="preserve"><style type="text/css">.st0h{fill:#FFFFFF;}.st1h{fill:#BF1238;}.st2h{fill:#C6C6C6;}</style><rect y="0.1" class="st0h" width="174.7" height="175.5"></rect><g><g><g><g><g><g><g><g><g><rect x="5.8" y="5.7" width="163.3" height="112.4"></rect><g><path class="st1h" d="M169,168.9l-0.1-43.2h-7.3c-0.8,1-0.2,5.6-2.6,6.5c-7.8-1.8-0.7-2.7-3.4-6.5c-0.3,0-3.5,0-3.9,0c0.4,0,1.7,1.6-0.3,3.3c-2.7,18.1,2.3,25.5-0.3,39.8L169,168.9z"></path><g><path class="st1h" d="M52.2,139.1c2.9-1.4,3-4.5,3.1-6.5c-0.9-1-4.4-1.1-5.8-0.8c-1.9,1.6-0.3,4.5-1.4,6.4C48.9,139.9,50.9,138.7,52.2,139.1z"></path><path class="st1h" d="M69,160.6l0.9,0.3c0.8,0.2,1.9,0.2,2.7-0.2c-0.2-0.6-0.5-1.1-0.9-1.6C70.8,159.5,69.8,160,69,160.6z"></path><path class="st1h" d="M79.9,149.3c-2.1,0.1-3.8,3.1-5.6,1.8c1-2.9,3.3-5.3,4.3-8.1c1.7-3.9,4.5-12.3,3.3-17.3h-7.9c-2.6,0.7-0.7,7.4-3.3,7.9c-0.7-1.8-0.5-4-2.6-7.8h-4.3c0.3,2.9-0.1,3-0.3,3.3c-1.5,0.1-1.3-2.2-3.2-1c-1.6-0.3-2.1,2.3-3.8,1.8c-0.6-1.4-2.2-3.2-4-2.1c1.6,3.3,9.3,4.7,5.6,10.2c-0.7,1.6-0.2,3.9-2.1,4.7c-3.5-0.9-6.7-2.3-10.2-3.1c0.4,1.3-0.6,3.1-0.2,4.4c3.7,0.5,4.8,4.3,8,5.5c0.7,0.5,1,1.1,0.8,1.9c-2.2,0.9-4.6-1-6.7-1.9c-0.5,0.2-0.2,0.7-0.3,1.1c1.9,2.3,8.1,1.3,6.1,6c-1.7,3.9-1.3,10.2-7.2,10.8c-0.5,1.2,0.9,1.1,1.3,1.6c5,0.5,10.2-4.3,14.4-0.3c1.4,0,3.2-0.9,4.3,0.3h12.6c2.4-4.6,0.5-7.5,0.8-11.7c0.3-1.1-2.9-2.2-5.4-1.6c-0.4-0.3-0.2-0.9-0.2-1.4c1.6-1.9,8.1,0.9,6.7-3.6C80.7,150.3,80.7,149.4,79.9,149.3z M53.2,144.6h-1.1c-1.6-0.6-5-1.4-5.1-3.2c2.1,0.6,4.1,1.7,6.2,2.4V144.6z M67.5,131.1l-0.4,4.5c-0.2,0.7-0.7,2.1-2,1.6c-1.5,0.4-0.7-1.5-0.9-2.2C65.6,133.9,66,131.4,67.5,131.1z M67.6,144.3c-1.3,0.9-3.4,0.6-4.8,0.3c0.4-0.6,0.5-1.2,0.5-1.9c0.9-0.7,1.9-2.3,3.5-1.8C67.4,141.8,67.7,143,67.6,144.3z M61.7,131.7c0.1-1.7,2.1-1,3.3-1.5l0.2,0.7c-1,0.8-1.8,2.5-3.5,1.9V131.7z M61.4,149.8c2,0.4,4.1-1.1,5.6,0.5c-0.7,1.4-0.7,3.7-3,2.4c-1-0.8-3.3-0.4-3.2-2.4L61.4,149.8z M59,130.4c0.4-0.6,0.9-1.7,1.9-1.3c-0.1,0.9-0.5,2.5-1.9,1.8V130.4z M57.5,147.7c1.3-0.7,3.1-0.6,2.8,1.8h-2.1C57.8,149.1,57.2,148.6,57.5,147.7z M52.6,146.8c0.4-0.7,1.2-0.3,1.7-0.4c0.2,1.6,2.7-0.4,1.7,1.7h-0.3C54.7,148.7,52.9,148.1,52.6,146.8z M55.5,164.8c-1.8-3.2,0.3-8.5,0.8-11.5c0.4-0.4,0.9-1,1.6-0.8c0.5,1.7-1.9,2.8-0.3,4.2c1.7-0.5,3.9,1,5.6-0.3c-0.9-1.4-2.7-0.7-4-1.3v-0.8l3.8-0.2c0.6,0.8,3.3,1.6,2.7,3.1C63.2,160.7,58.9,162.7,55.5,164.8z M72.6,160.6c0.7,1.7,0.8,3.9-0.1,5.2l-8.6,0.3v-1.1c1.5-2,3.2-3.4,5-4.5l-1.7-0.5c-2.4-1.7,3.3-4.1,4.2-4.7l2.3,3.7C73.7,159.9,73.2,160.4,72.6,160.6z M69.2,141c-1.8-4.7,4.6-6.6,7.1-9.5l3.3,1.8c-0.4,3.2-6.2,3.8-5.9,7.3c0.6,0.5,1.1,1.4,1.9,1.6c0.3,0.9-0.4,1.4-1,1.9C72.2,145.2,70.8,142.6,69.2,141z"></path></g><g><path class="st1h" d="M18.2,130.4c-7.9-0.5-12.1,0.3-12.3,0.3v6.3h1.5c1.8,0.5,3,0.6,4.8,0.6c6.6,0.7,12.2-0.3,18.8-0.7c-0.7-0.2-1.5-0.4-2.2-0.4c-1.1-0.8-1.8-1.4-1.6-2.7c1.7-1.9,4.9-0.3,7-1.4c1.8,0.7,0.6,2.7,1,3.9c-0.2,0.3-0.4,0.3-0.6,0.5c2,0,4.2,0,6.5,0.3v-6.5C31.4,129.9,24.5,130.8,18.2,130.4z"></path><path class="st1h" d="M92.4,128.2c3.2,0.8,6.5,1.2,9.9,1.3v-3.8H88.2c0,3-2.3,7.2-2.3,7.2c1.2,0,2.5,0.1,3.5,0.6v0.8c-1.2-0.3-2.3-0.4-3.5-0.5v12.3h1.6c0.1,0.3,0.4,0.4,0.3,0.8l-0.3,0.6h-1.6v1.5c0.5,0,1.1,0.2,1.6,0c0,0.1,0.1,0.1,0.1,0.2c0.7,0.1,1.3,1.1,2.2,0.6v0.8h-1.6c-0.3,0-0.7-0.1-1-0.4c-0.4,0.2-0.8,0.2-1.2,0.2v1.1c1.2-0.5,2.9,0.1,4.1,0.1c0.1,0.3,0.4,0.4,0.3,0.8l-0.3,0.6c-1.2-0.5-2.8-0.2-4.1-0.3v9.5c0.4,0.1,0.9,0.2,1.2,0.3c0.1,0.4,0.5,0.6,0.5,1c-0.5,0.3-1.1,0.4-1.7,0.2v5.3h16.4v-5.3c-0.6,0.1-2.2,0.2-2.7-0.1c0-0.4,1.6-3.8,2.1-3.8l0.6-7.1c-1.3,0.1-2.8-0.1-4.1,0.3l-0.3-0.6c-0.1-0.4,0.2-0.5,0.3-0.8c1.2-0.1,2.8-0.6,4.1-0.1v-1.1c-0.7,0.1-1.4-0.1-1.9-0.6c0-0.4,0.2-0.5,0.3-0.8c0.5,0.1,1,0,1.5,0v-1.5h-1.5l-0.3-0.6c0-0.4,0.2-0.5,0.3-0.8h1.5v-12.3c-1.2,0.1-2.4,0.2-3.5,0.5v-0.8c1.1-0.5,2.3-0.6,3.5-0.6v-2.4c-2.9-0.2-5.8-0.5-8.6-0.7c-0.7-0.4-1.7-0.3-2.2-1C91.8,128.3,92.1,128.2,92.4,128.2z M101.3,137.3v2.4c-1.1-0.1-2.5,0.4-3.5-0.4C98.2,137.5,100.1,137.7,101.3,137.3z M87.9,135.6h2.2v0.8h-2.2V135.6z M91.4,138.8c-0.9,0.7-2.1,1-3.1,1.1l-0.6-2C88.8,137.7,91,137.2,91.4,138.8z M86.6,157.4v-0.8h2.8v0.8H86.6z M98.9,166.4c-1,2.3-2.8,0.6-4,0c-1-0.4-1.9,2.6-2.8,0.4c0-0.5,0.2-0.7,0.3-1.1C94.7,164.1,97,165.4,98.9,166.4z M96.6,147.8h-4.1v-1.5h4.1V147.8z M95.8,153.6v2.2c-0.7-0.1-1.7,0.4-2.2-0.4C93.8,153.7,95.1,153.8,95.8,153.6z M94.4,135.9c0.6,0.4,1.8,0.5,1.2,2.1c-0.7,0.7-1.3-1.1-2-1.3L94.4,135.9z M94.3,132.8l-1.2,1.3c-0.5,0-1.3-1.4-1.4-2C92,131.7,94.1,132.3,94.3,132.8z M96.4,158.9v1.9c-2.5,0.9-4.9,3.7-7.7,2.4v-1.7c1.1-0.5,2.4,1,3.3-1.4C93.6,160.3,94.9,158,96.4,158.9z M91.8,143.4c-1.4,0.4-3.2,0.7-4.5-0.2c0.7-1.5,2.2-0.6,3.3-0.8C90.9,142.9,91.7,142.4,91.8,143.4z"></path></g><g><path class="st1h" d="M19.6,128.4c7,0,14.7-0.6,21.7-0.1v-2.7H5.9c0,1.1,0,2.8,0,2.8C10.3,127.8,15.8,128.4,19.6,128.4z"></path><path class="st1h" d="M14.1,141.3c-2,0-4.1-1.9-6.1-2.6H7l-1,0.2l0,30h35.4v-30.4C32.1,137.5,24.1,142,14.1,141.3z"></path></g><path class="st1h" d="M147.1,148.7c-2.1-5,2.6-21.7-5-23.1c-0.8-0.1-1.5,0.2-2.2,0.8c1.3,1,2.3,2.4,2.6,4c-1.8,3.9-5.5-0.9-8,0.4v3.2c-1,0.9-1.8,2-3.3,1.6c-0.9-1-2.1-1.7-1.6-3.2c0.9-1.9,3-1.2,4.3-2c0,0-0.1-0.1-0.1-0.1c-2.5-0.6-2.2-4.6-6.5-4.6h-8.2c-3.8,1.2-8.5,3.3-12.8,0l0.8,5.4l0.5,1.8l0,1.6l1.9,1.7l-2,1.7l0.7,4.1c1.5,0.4,3.1,0.5,3.2,1.9c-0.3,2.3-2,4.9-2,7.2c-0.1,2.9,1.5,14.8,1.5,17.7c1.6-0.1,9-0.4,10.6-1.2c0,0.1,2.1,1.2,2.1,1.2c2.7,0.3,6.1,0.9,5.3-3.7L127,153c-2.3-6.3,1.9-7.8,3.3-7.9l1.1,1c-0.4,1.2-0.6,2.4-0.7,3.6c0.3,0.5,0.5,1,0.4,1.7c0.1,0.7-0.1,1.2-0.4,1.5c0.4,5.7,3.2,10.6,3.2,16.1l7.1,0l2.6-2l-0.5-5l0.3-4.8l-0.2-8.8c1.1,0.3,2.2,0.6,3.4,1L147.1,148.7z M111.6,134.8c-1.4-1.2-2.3-2.6-1.9-4.5c0.9-2.1,3.9-1.4,5.1-0.5c1,1.4,2.7,3.1,0,3.8C115.1,136.9,112.7,136.4,111.6,134.8z M119.7,162.7V160l-2-1.9l-0.9-2.9c-1-4.4,0.1-9.5,0.9-11.2c0,0,0,0-0.1,0.1c-0.7-0.2-1.9,0.4-2.4-0.5c0.7-1.1-0.3-2.8,0.8-3.7c0.8-0.2,2.8-0.1,3.3,0.5c-0.1,0.9-0.1,2.2-0.9,3.1c0.8-0.2,1.8,0,2.4,0.6c-0.2,8.5,0.6,14.2,1.3,21.9L119.7,162.7z M124.6,133.6c0.4,1.7-2,2.1-2.9,2.2c-1-0.5-2.3-2.5-1.6-4.1c0.7-0.7,1.2-1.5,2.5-1.2C123.2,131.5,125.1,132,124.6,133.6z M128.9,139.7c-0.3,1.2-1.8,2.7-3.8,2.3c-1-0.7-0.6-2.1-0.9-3.1c0.2-0.7,2.4-1.3,3.2-1.1C127.9,138.3,129.2,138.9,128.9,139.7z M131.9,141.9c0.4-0.6,2-1.4,2.8-1.3c0.9,0.4,1.5,2,1.1,3.2c-0.1,0.9-1.1,0.7-1.9,0.7C133,144.2,131.6,143.2,131.9,141.9z M137.2,161.3c-0.9,1-0.6,5.4-2.8,3.1c-2.3-6,0.8-10.1,1.3-15.4c1.3-1.4,2.8-2,3.6-1.6c0.2,0,1.3,2.7,1.5,2.7c0.3,3.7-2,3.8,0.2,9.9C140.5,161.1,137.9,160.6,137.2,161.3z M142.2,145.5c-0.8-0.1-2.6-0.2-2.8-1.4c-0.2-1.3-0.3-3,2.5-2.5C144.1,142.2,144.9,145.1,142.2,145.5z"></path></g></g></g></g></g><g><g><g><g><path class="st2h" d="M100.3,79.2c1.1-0.1,3.6-0.1,5.1,0c2.8,0.2,4,1.8,4,3.8c0,2.6-2,4.5-5.6,4.7c-1.2,0.1-2.6,0.1-3.5,0V79.2z M100.3,88.9c0.9,0,3.2,0.2,4.8-0.1c5-0.8,7.5-2.4,7.5-6c0-3.5-2.2-4.8-9.1-4.8h-6.3v20.1c0.5,0,1-0.1,1.5-0.1c0.5,0,1,0,1.5,0.1V88.9z"></path><path class="st2h" d="M122.4,91.5c0,0.8,0,1.3-0.1,2.1c-0.3,1.8-1.7,3.9-4.1,4c-2,0.1-3-1.5-2.8-2.9c0.3-3.3,1.6-2.8,5.5-4l1.5-0.5V91.5z M122.4,89.5l-0.6,0.2c-1.3,0.5-1.3,0.4-3.6,0.9c-2.8,0.6-5.6,0.9-5.8,4.1c-0.1,2,2,3.5,4.4,3.6c2.3,0.1,4.6-0.9,5.4-2.8V98h4.6v-0.5h-1.6v-8.8c0-2.3-0.4-4.5-5.4-4.7c-1.4-0.1-1.7,0.1-2.7,0.2c-1.1,0.2-2.2,0.5-3,0.8v4.2h0.7l0.8-1.8c0.7-1.5,1.4-3.2,3.8-2.9c2.5,0.2,2.9,1.6,2.9,3V89.5z"></path><path class="st2h" d="M135.4,98h-6.9v-0.5h1.7V84.9h-1.8v-0.6h4.4v2.9c0.2-1,1.8-3,4.3-3c0.7,0,1.4,0.2,2.1,0.5v5h-0.7l-0.9-2.3c-0.6-1.6-1.1-2.7-2.1-2.2c-2.6,1.2-2.3,4.2-2.3,7v5.3h2.2V98z"></path><path class="st2h" d="M141.2,98v-0.5h1.7V84.9h-1.6v-0.6h4.6v13.2h1.6V98H141.2z M146,81.1c0,0.9-0.9,1.5-1.9,1.5c-0.9,0-1.8-0.7-1.8-1.5c0-0.8,0.8-1.5,1.8-1.5C145.1,79.6,146,80.3,146,81.1z"></path><path class="st2h" d="M158.8,87.5c-0.7-2.1-1.4-3-3.4-3c-1.7,0-3.9,0.6-4,2.3c-0.1,1.5,1.8,2.2,3.6,2.7c3,0.9,6.4,1.7,6.3,4.5c-0.1,2.6-2.7,4.5-6.3,4.5c-2,0-4.4-0.7-5.2-1.2v-4.5h0.7l0.8,2.3c0.9,2.6,1.9,2.6,3.4,2.7c2.2,0.2,4.6-0.7,4.8-2.5c0.3-2.2-3.2-2.7-5.4-3.4c-1.6-0.5-4.6-1.3-4.6-3.9c0-3,3.9-4,6-4c1.7,0,3.8,0.6,4.5,0.9V89h-0.7L158.8,87.5z"></path></g></g></g><g><path class="st0h" d="M30.2,53.6h-6.4V72c0,0.8-0.7,1.5-1.5,1.5h-0.7c-0.8,0-1.5-0.6-1.5-1.5V53.6h-6.4c-0.8,0-1.5-0.5-1.5-1.4v-0.5c0-0.8,0.7-1.4,1.5-1.4h16.4c0.8,0,1.5,0.5,1.5,1.4v0.5C31.6,53.1,31,53.6,30.2,53.6z"></path><path class="st0h" d="M50.9,73.4H36c-0.8,0-1.4-0.6-1.4-1.4V51.7c0-0.8,0.6-1.4,1.4-1.4h14.2c0.8,0,1.5,0.5,1.5,1.4v0.5c0,0.8-0.6,1.4-1.5,1.4h-12v6.7h11.1c0.8,0,1.5,0.5,1.5,1.4v0.5c0,0.8-0.6,1.4-1.5,1.4H38.2v6.6h12.7c0.8,0,1.5,0.5,1.5,1.4v0.5C52.4,72.9,51.7,73.4,50.9,73.4z"></path><path class="st0h" d="M71.2,73.4H56.1V51.8c0-0.8,0.6-1.5,1.5-1.5h0.7c0.8,0,1.5,0.6,1.5,1.5v18.3h11.5c0.8,0,1.5,0.5,1.5,1.4v0.5C72.6,72.9,72,73.4,71.2,73.4z"></path><path class="st0h" d="M91.3,73.4h-15c-0.8,0-1.4-0.6-1.4-1.4V51.7c0-0.8,0.6-1.4,1.4-1.4h14.2c0.8,0,1.5,0.5,1.5,1.4v0.5c0,0.8-0.6,1.4-1.5,1.4h-12v6.7h11.1c0.8,0,1.5,0.5,1.5,1.4v0.5c0,0.8-0.6,1.4-1.5,1.4H78.6v6.6h12.7c0.8,0,1.5,0.5,1.5,1.4v0.5C92.8,72.9,92.1,73.4,91.3,73.4z"></path><path class="st0h" d="M111.3,73.4h-9.5c-3,0-5.3-2.6-5.3-5.5V55.8c0-3,2.5-5.4,5.5-5.4h8.7c0.8,0,1.5,0.5,1.5,1.4v0.5c0,0.8-0.6,1.4-1.5,1.4h-7.5c-2.3,0-3.2,1.4-3.2,3.2v10.4c0,2.3,1.5,3,3.3,3h8c0.8,0,1.5,0.5,1.5,1.4v0.5C112.8,72.9,112.1,73.4,111.3,73.4z"></path><path class="st0h" d="M129.5,73.4h-7.9c-3,0-5.4-2.5-5.4-5.4V55.7c0-3,2.6-5.3,5.6-5.3h7.5c3,0,5.6,2.4,5.6,5.3V68C134.9,70.9,132.5,73.4,129.5,73.4z M131.3,56.3c0-1.5-1.2-2.7-2.7-2.7h-6.2c-1.5,0-2.7,1.2-2.7,2.7v11.2c0,1.5,1.2,2.7,2.6,2.7h6.2c1.5,0,2.7-1.2,2.7-2.7V56.3z"></path><path class="st0h" d="M159.4,73.4h-0.7c-0.8,0-1.5-0.6-1.5-1.5V56.6l-4.9,6.8c-0.4,0.6-0.8,1.1-1.6,1.1h-0.5c-0.7,0-1.1-0.5-1.6-1.1l-4.9-6.8V72c0,0.8-0.7,1.5-1.5,1.5h-0.7c-0.8,0-1.5-0.6-1.5-1.5V51.7c0-0.8,0.5-1.4,1.4-1.4h0.9c0.6,0,1.2,0.6,1.5,1.1l6.5,9.2l6.6-9.2c0.3-0.5,0.8-1.1,1.5-1.1h0.9c0.8,0,1.4,0.6,1.4,1.4V72C160.9,72.8,160.2,73.4,159.4,73.4z"></path></g></g></g></g></g></g></g></svg>