<svg class="logo-tpt logo-tp logo-tp-fond-couleur" xmlns="http://www.w3.org/2000/svg" viewBox="0 0 174.8 175.5" style="enable-background:new 0 0 174.8 175.5" xml:space="preserve">
  <style>
    .st0h{fill:#fff}.st1h{fill:#bf1238}
  </style>
  <path class="st0h" d="M0 .1h174.7v175.5H0z"/>
  <path d="M5.8 5.7h163.3v112.4H5.8z"/>
  <path class="st1h" d="m169 168.9-.1-43.2h-7.3c-.8 1-.2 5.6-2.6 6.5-7.8-1.8-.7-2.7-3.4-6.5h-3.9c.4 0 1.7 1.6-.3 3.3-2.7 18.1 2.3 25.5-.3 39.8l17.9.1zM52.2 139.1c2.9-1.4 3-4.5 3.1-6.5-.9-1-4.4-1.1-5.8-.8-1.9 1.6-.3 4.5-1.4 6.4.8 1.7 2.8.5 4.1.9zM69 160.6l.9.3c.8.2 1.9.2 2.7-.2-.2-.6-.5-1.1-.9-1.6-.9.4-1.9.9-2.7 1.5z"/>
  <path class="st1h" d="M79.9 149.3c-2.1.1-3.8 3.1-5.6 1.8 1-2.9 3.3-5.3 4.3-8.1 1.7-3.9 4.5-12.3 3.3-17.3H74c-2.6.7-.7 7.4-3.3 7.9-.7-1.8-.5-4-2.6-7.8h-4.3c.3 2.9-.1 3-.3 3.3-1.5.1-1.3-2.2-3.2-1-1.6-.3-2.1 2.3-3.8 1.8-.6-1.4-2.2-3.2-4-2.1 1.6 3.3 9.3 4.7 5.6 10.2-.7 1.6-.2 3.9-2.1 4.7-3.5-.9-6.7-2.3-10.2-3.1.4 1.3-.6 3.1-.2 4.4 3.7.5 4.8 4.3 8 5.5.7.5 1 1.1.8 1.9-2.2.9-4.6-1-6.7-1.9-.5.2-.2.7-.3 1.1 1.9 2.3 8.1 1.3 6.1 6-1.7 3.9-1.3 10.2-7.2 10.8-.5 1.2.9 1.1 1.3 1.6 5 .5 10.2-4.3 14.4-.3 1.4 0 3.2-.9 4.3.3h12.6c2.4-4.6.5-7.5.8-11.7.3-1.1-2.9-2.2-5.4-1.6-.4-.3-.2-.9-.2-1.4 1.6-1.9 8.1.9 6.7-3.6-.1-.4-.1-1.3-.9-1.4zm-26.7-4.7h-1.1c-1.6-.6-5-1.4-5.1-3.2 2.1.6 4.1 1.7 6.2 2.4v.8zm14.3-13.5-.4 4.5c-.2.7-.7 2.1-2 1.6-1.5.4-.7-1.5-.9-2.2 1.4-1.1 1.8-3.6 3.3-3.9zm.1 13.2c-1.3.9-3.4.6-4.8.3.4-.6.5-1.2.5-1.9.9-.7 1.9-2.3 3.5-1.8.6.9.9 2.1.8 3.4zm-5.9-12.6c.1-1.7 2.1-1 3.3-1.5l.2.7c-1 .8-1.8 2.5-3.5 1.9v-1.1zm-.3 18.1c2 .4 4.1-1.1 5.6.5-.7 1.4-.7 3.7-3 2.4-1-.8-3.3-.4-3.2-2.4l.6-.5zM59 130.4c.4-.6.9-1.7 1.9-1.3-.1.9-.5 2.5-1.9 1.8v-.5zm-1.5 17.3c1.3-.7 3.1-.6 2.8 1.8h-2.1c-.4-.4-1-.9-.7-1.8zm-4.9-.9c.4-.7 1.2-.3 1.7-.4.2 1.6 2.7-.4 1.7 1.7h-.3c-1 .6-2.8 0-3.1-1.3zm2.9 18c-1.8-3.2.3-8.5.8-11.5.4-.4.9-1 1.6-.8.5 1.7-1.9 2.8-.3 4.2 1.7-.5 3.9 1 5.6-.3-.9-1.4-2.7-.7-4-1.3v-.8l3.8-.2c.6.8 3.3 1.6 2.7 3.1-2.5 3.5-6.8 5.5-10.2 7.6zm17.1-4.2c.7 1.7.8 3.9-.1 5.2l-8.6.3V165c1.5-2 3.2-3.4 5-4.5l-1.7-.5c-2.4-1.7 3.3-4.1 4.2-4.7l2.3 3.7c0 .9-.5 1.4-1.1 1.6zM69.2 141c-1.8-4.7 4.6-6.6 7.1-9.5l3.3 1.8c-.4 3.2-6.2 3.8-5.9 7.3.6.5 1.1 1.4 1.9 1.6.3.9-.4 1.4-1 1.9-2.4 1.1-3.8-1.5-5.4-3.1zm-51-10.6c-7.9-.5-12.1.3-12.3.3v6.3h1.5c1.8.5 3 .6 4.8.6 6.6.7 12.2-.3 18.8-.7-.7-.2-1.5-.4-2.2-.4-1.1-.8-1.8-1.4-1.6-2.7 1.7-1.9 4.9-.3 7-1.4 1.8.7.6 2.7 1 3.9-.2.3-.4.3-.6.5 2 0 4.2 0 6.5.3v-6.5c-9.7-.7-16.6.2-22.9-.2zm74.2-2.2c3.2.8 6.5 1.2 9.9 1.3v-3.8H88.2c0 3-2.3 7.2-2.3 7.2 1.2 0 2.5.1 3.5.6v.8c-1.2-.3-2.3-.4-3.5-.5v12.3h1.6c.1.3.4.4.3.8l-.3.6h-1.6v1.5c.5 0 1.1.2 1.6 0 0 .1.1.1.1.2.7.1 1.3 1.1 2.2.6v.8h-1.6c-.3 0-.7-.1-1-.4-.4.2-.8.2-1.2.2v1.1c1.2-.5 2.9.1 4.1.1.1.3.4.4.3.8l-.3.6c-1.2-.5-2.8-.2-4.1-.3v9.5c.4.1.9.2 1.2.3.1.4.5.6.5 1-.5.3-1.1.4-1.7.2v5.3h16.4v-5.3c-.6.1-2.2.2-2.7-.1 0-.4 1.6-3.8 2.1-3.8l.6-7.1c-1.3.1-2.8-.1-4.1.3l-.3-.6c-.1-.4.2-.5.3-.8 1.2-.1 2.8-.6 4.1-.1v-1.1c-.7.1-1.4-.1-1.9-.6 0-.4.2-.5.3-.8.5.1 1 0 1.5 0v-1.5h-1.5l-.3-.6c0-.4.2-.5.3-.8h1.5v-12.3c-1.2.1-2.4.2-3.5.5v-.8c1.1-.5 2.3-.6 3.5-.6v-2.4c-2.9-.2-5.8-.5-8.6-.7-.7-.4-1.7-.3-2.2-1 .3-.5.6-.6.9-.6zm8.9 9.1v2.4c-1.1-.1-2.5.4-3.5-.4.4-1.8 2.3-1.6 3.5-2zm-13.4-1.7h2.2v.8h-2.2v-.8zm3.5 3.2c-.9.7-2.1 1-3.1 1.1l-.6-2c1.1-.2 3.3-.7 3.7.9zm-4.8 18.6v-.8h2.8v.8h-2.8zm12.3 9c-1 2.3-2.8.6-4 0-1-.4-1.9 2.6-2.8.4 0-.5.2-.7.3-1.1 2.3-1.6 4.6-.3 6.5.7zm-2.3-18.6h-4.1v-1.5h4.1v1.5zm-.8 5.8v2.2c-.7-.1-1.7.4-2.2-.4.2-1.7 1.5-1.6 2.2-1.8zm-1.4-17.7c.6.4 1.8.5 1.2 2.1-.7.7-1.3-1.1-2-1.3l.8-.8zm-.1-3.1-1.2 1.3c-.5 0-1.3-1.4-1.4-2 .3-.4 2.4.2 2.6.7zm2.1 26.1v1.9c-2.5.9-4.9 3.7-7.7 2.4v-1.7c1.1-.5 2.4 1 3.3-1.4 1.6.2 2.9-2.1 4.4-1.2zm-4.6-15.5c-1.4.4-3.2.7-4.5-.2.7-1.5 2.2-.6 3.3-.8.3.5 1.1 0 1.2 1zm-72.2-15c7 0 14.7-.6 21.7-.1v-2.7H5.9v2.8c4.4-.6 9.9 0 13.7 0zm-5.5 12.9c-2 0-4.1-1.9-6.1-2.6H7l-1 .2v30h35.4v-30.4c-9.3-1-17.3 3.5-27.3 2.8zm133 7.4c-2.1-5 2.6-21.7-5-23.1-.8-.1-1.5.2-2.2.8 1.3 1 2.3 2.4 2.6 4-1.8 3.9-5.5-.9-8 .4v3.2c-1 .9-1.8 2-3.3 1.6-.9-1-2.1-1.7-1.6-3.2.9-1.9 3-1.2 4.3-2l-.1-.1c-2.5-.6-2.2-4.6-6.5-4.6h-8.2c-3.8 1.2-8.5 3.3-12.8 0l.8 5.4.5 1.8v1.6l1.9 1.7-2 1.7.7 4.1c1.5.4 3.1.5 3.2 1.9-.3 2.3-2 4.9-2 7.2-.1 2.9 1.5 14.8 1.5 17.7 1.6-.1 9-.4 10.6-1.2 0 .1 2.1 1.2 2.1 1.2 2.7.3 6.1.9 5.3-3.7L127 153c-2.3-6.3 1.9-7.8 3.3-7.9l1.1 1c-.4 1.2-.6 2.4-.7 3.6.3.5.5 1 .4 1.7.1.7-.1 1.2-.4 1.5.4 5.7 3.2 10.6 3.2 16.1h7.1l2.6-2-.5-5 .3-4.8-.2-8.8c1.1.3 2.2.6 3.4 1l.5-.7zm-35.5-13.9c-1.4-1.2-2.3-2.6-1.9-4.5.9-2.1 3.9-1.4 5.1-.5 1 1.4 2.7 3.1 0 3.8.3 3.3-2.1 2.8-3.2 1.2zm8.1 27.9V160l-2-1.9-.9-2.9c-1-4.4.1-9.5.9-11.2l-.1.1c-.7-.2-1.9.4-2.4-.5.7-1.1-.3-2.8.8-3.7.8-.2 2.8-.1 3.3.5-.1.9-.1 2.2-.9 3.1.8-.2 1.8 0 2.4.6-.2 8.5.6 14.2 1.3 21.9l-2.4-3.3zm4.9-29.1c.4 1.7-2 2.1-2.9 2.2-1-.5-2.3-2.5-1.6-4.1.7-.7 1.2-1.5 2.5-1.2.6 1 2.5 1.5 2 3.1zm4.3 6.1c-.3 1.2-1.8 2.7-3.8 2.3-1-.7-.6-2.1-.9-3.1.2-.7 2.4-1.3 3.2-1.1.5.5 1.8 1.1 1.5 1.9zm3 2.2c.4-.6 2-1.4 2.8-1.3.9.4 1.5 2 1.1 3.2-.1.9-1.1.7-1.9.7-.9-.3-2.3-1.3-2-2.6zm5.3 19.4c-.9 1-.6 5.4-2.8 3.1-2.3-6 .8-10.1 1.3-15.4 1.3-1.4 2.8-2 3.6-1.6.2 0 1.3 2.7 1.5 2.7.3 3.7-2 3.8.2 9.9-.5 1.1-3.1.6-3.8 1.3zm5-15.8c-.8-.1-2.6-.2-2.8-1.4-.2-1.3-.3-3 2.5-2.5 2.2.6 3 3.5.3 3.9z"/>
  <path d="M100.3 79.2c1.1-.1 3.6-.1 5.1 0 2.8.2 4 1.8 4 3.8 0 2.6-2 4.5-5.6 4.7-1.2.1-2.6.1-3.5 0v-8.5zm0 9.7c.9 0 3.2.2 4.8-.1 5-.8 7.5-2.4 7.5-6 0-3.5-2.2-4.8-9.1-4.8h-6.3v20.1c.5 0 1-.1 1.5-.1s1 0 1.5.1v-9.2zm22.1 2.6c0 .8 0 1.3-.1 2.1-.3 1.8-1.7 3.9-4.1 4-2 .1-3-1.5-2.8-2.9.3-3.3 1.6-2.8 5.5-4l1.5-.5v1.3zm0-2-.6.2c-1.3.5-1.3.4-3.6.9-2.8.6-5.6.9-5.8 4.1-.1 2 2 3.5 4.4 3.6 2.3.1 4.6-.9 5.4-2.8V98h4.6v-.5h-1.6v-8.8c0-2.3-.4-4.5-5.4-4.7-1.4-.1-1.7.1-2.7.2-1.1.2-2.2.5-3 .8v4.2h.7l.8-1.8c.7-1.5 1.4-3.2 3.8-2.9 2.5.2 2.9 1.6 2.9 3v2zm13 8.5h-6.9v-.5h1.7V84.9h-1.8v-.6h4.4v2.9c.2-1 1.8-3 4.3-3 .7 0 1.4.2 2.1.5v5h-.7l-.9-2.3c-.6-1.6-1.1-2.7-2.1-2.2-2.6 1.2-2.3 4.2-2.3 7v5.3h2.2v.5zm5.8 0v-.5h1.7V84.9h-1.6v-.6h4.6v13.2h1.6v.5h-6.3zm4.8-16.9c0 .9-.9 1.5-1.9 1.5-.9 0-1.8-.7-1.8-1.5s.8-1.5 1.8-1.5 1.9.7 1.9 1.5zm12.8 6.4c-.7-2.1-1.4-3-3.4-3-1.7 0-3.9.6-4 2.3-.1 1.5 1.8 2.2 3.6 2.7 3 .9 6.4 1.7 6.3 4.5-.1 2.6-2.7 4.5-6.3 4.5-2 0-4.4-.7-5.2-1.2v-4.5h.7l.8 2.3c.9 2.6 1.9 2.6 3.4 2.7 2.2.2 4.6-.7 4.8-2.5.3-2.2-3.2-2.7-5.4-3.4-1.6-.5-4.6-1.3-4.6-3.9 0-3 3.9-4 6-4 1.7 0 3.8.6 4.5.9V89h-.7l-.5-1.5z" style="fill:#c6c6c6"/>
  <path class="st0h" d="M30.2 53.6h-6.4V72c0 .8-.7 1.5-1.5 1.5h-.7c-.8 0-1.5-.6-1.5-1.5V53.6h-6.4c-.8 0-1.5-.5-1.5-1.4v-.5c0-.8.7-1.4 1.5-1.4h16.4c.8 0 1.5.5 1.5 1.4v.5c0 .9-.6 1.4-1.4 1.4zm20.7 19.8H36c-.8 0-1.4-.6-1.4-1.4V51.7c0-.8.6-1.4 1.4-1.4h14.2c.8 0 1.5.5 1.5 1.4v.5c0 .8-.6 1.4-1.5 1.4h-12v6.7h11.1c.8 0 1.5.5 1.5 1.4v.5c0 .8-.6 1.4-1.5 1.4H38.2v6.6h12.7c.8 0 1.5.5 1.5 1.4v.5c0 .8-.7 1.3-1.5 1.3zm20.3 0H56.1V51.8c0-.8.6-1.5 1.5-1.5h.7c.8 0 1.5.6 1.5 1.5v18.3h11.5c.8 0 1.5.5 1.5 1.4v.5c-.2.9-.8 1.4-1.6 1.4zm20.1 0h-15c-.8 0-1.4-.6-1.4-1.4V51.7c0-.8.6-1.4 1.4-1.4h14.2c.8 0 1.5.5 1.5 1.4v.5c0 .8-.6 1.4-1.5 1.4h-12v6.7h11.1c.8 0 1.5.5 1.5 1.4v.5c0 .8-.6 1.4-1.5 1.4h-11v6.6h12.7c.8 0 1.5.5 1.5 1.4v.5c0 .8-.7 1.3-1.5 1.3zm20 0h-9.5c-3 0-5.3-2.6-5.3-5.5V55.8c0-3 2.5-5.4 5.5-5.4h8.7c.8 0 1.5.5 1.5 1.4v.5c0 .8-.6 1.4-1.5 1.4h-7.5c-2.3 0-3.2 1.4-3.2 3.2v10.4c0 2.3 1.5 3 3.3 3h8c.8 0 1.5.5 1.5 1.4v.5c0 .7-.7 1.2-1.5 1.2zm18.2 0h-7.9c-3 0-5.4-2.5-5.4-5.4V55.7c0-3 2.6-5.3 5.6-5.3h7.5c3 0 5.6 2.4 5.6 5.3V68c0 2.9-2.4 5.4-5.4 5.4zm1.8-17.1c0-1.5-1.2-2.7-2.7-2.7h-6.2c-1.5 0-2.7 1.2-2.7 2.7v11.2c0 1.5 1.2 2.7 2.6 2.7h6.2c1.5 0 2.7-1.2 2.7-2.7V56.3zm28.1 17.1h-.7c-.8 0-1.5-.6-1.5-1.5V56.6l-4.9 6.8c-.4.6-.8 1.1-1.6 1.1h-.5c-.7 0-1.1-.5-1.6-1.1l-4.9-6.8V72c0 .8-.7 1.5-1.5 1.5h-.7c-.8 0-1.5-.6-1.5-1.5V51.7c0-.8.5-1.4 1.4-1.4h.9c.6 0 1.2.6 1.5 1.1l6.5 9.2 6.6-9.2c.3-.5.8-1.1 1.5-1.1h.9c.8 0 1.4.6 1.4 1.4V72c.2.8-.5 1.4-1.3 1.4z"/>
</svg>
