<svg xmlns="http://www.w3.org/2000/svg" version="1.2" viewBox="0 0 169.76 59.71" height="79.613" width="226.347">
  <defs>
    <clipPath id="a">
      <path d="M149 0h20.762v21H149Zm0 0"/>
    </clipPath>
    <clipPath id="b">
      <path d="M0 12h49v47.71H0Zm0 0"/>
    </clipPath>
  </defs>
  <g clip-path="url(#a)">
    <path d="M159.648 1.992a8.044 8.044 0 0 0-3.472.793 8.048 8.048 0 0 0-4.156 4.602 8.045 8.045 0 0 0 .316 6.195 8.03 8.03 0 0 0 4.605 4.156 8.018 8.018 0 0 0 6.192-.316c4.039-1.918 5.762-6.762 3.844-10.797a8.04 8.04 0 0 0-4.606-4.156 8.091 8.091 0 0 0-2.723-.477Zm.012 18.227c-1.14 0-2.285-.196-3.39-.59a10.025 10.025 0 0 1-5.743-5.188c-2.394-5.03-.246-11.074 4.79-13.468 5.03-2.391 11.074-.243 13.468 4.789 2.39 5.035.242 11.078-4.789 13.472a10.115 10.115 0 0 1-4.336.985" style="stroke:none;fill-rule:nonzero;fill:#4d7bc7;fill-opacity:1"/>
  </g>
  <path d="M159.652 6.422c-.539 0-1.078.117-1.578.36a3.682 3.682 0 0 0-1.742 4.902 3.683 3.683 0 0 0 4.902 1.742 3.653 3.653 0 0 0 1.887-2.09 3.643 3.643 0 0 0-.14-2.813 3.69 3.69 0 0 0-3.328-2.102Zm.012 9.363a5.689 5.689 0 0 1-5.144-3.242 5.696 5.696 0 0 1 2.695-7.574 5.646 5.646 0 0 1 4.344-.223 5.669 5.669 0 0 1 3.23 2.918 5.646 5.646 0 0 1 .223 4.344 5.642 5.642 0 0 1-2.918 3.23 5.672 5.672 0 0 1-2.43.547" style="stroke:none;fill-rule:nonzero;fill:#234ea8;fill-opacity:1"/>
  <g clip-path="url(#b)">
    <path d="M26.598 50.602a6.595 6.595 0 0 1-3.516.992c-2.285 0-4.09-.809-5.41-2.434-1.324-1.62-1.985-3.695-1.985-6.219 0-1.683.344-3.171 1.036-4.464.691-1.293 1.757-2.254 3.203-2.887 1.441-.63 3.246-.883 5.41-.766.598.063 1.2.106 1.8.137.165.008.298.047.454.062V47.45c0 .801.05 1.555.133 2.285a7.352 7.352 0 0 1-1.125.868Zm21.816.453c-2.16 1.023-3.652 1.035-4.46.047-.813-.997-1.22-2.961-1.22-5.91v-17.04c0-4.746-1.41-8.52-4.234-11.312-2.828-2.797-7.246-4.195-13.258-4.195-2.644 0-5.875.285-9.691.855-3.817.574-7.77 1.34-11.856 2.3v13.345h.45c4.207-3.426 8.175-6.325 11.902-8.7 3.726-2.375 6.492-3.562 8.297-3.562 1.203 0 2.043.765 2.523 2.297.48 1.535.723 4.164.723 7.89v5.075c-.223-.086-.442-.172-.68-.25a28.325 28.325 0 0 0-4.144-1.036c-1.414-.238-2.75-.363-4.012-.363-3.309-.18-6.402.317-9.29 1.488-2.882 1.172-5.183 2.918-6.894 5.23C.855 39.528 0 42.189 0 45.192c0 2.47.555 4.813 1.668 7.036 1.113 2.222 2.781 4.027 5.004 5.41 2.223 1.383 4.867 2.074 7.933 2.074 2.883 0 5.41-.586 7.575-1.758 2.164-1.172 3.86-2.586 5.093-4.238.364-.488.672-.965.954-1.434.48 1.633 1.222 3.032 2.246 4.184 1.925 2.16 4.597 3.246 8.027 3.246 2.941 0 5.3-.781 7.074-2.348 1.774-1.558 2.781-3.574 3.024-6.039l-.184-.27" style="stroke:none;fill-rule:nonzero;fill:#4d7bc7;fill-opacity:1"/>
  </g>
  <path d="M100.887 57.547c-.719-2.707-1.29-5.05-1.711-7.035-.422-1.985-.633-4.114-.633-6.399v-16.41c0-4.746-1.41-8.445-4.238-11.09-2.825-2.644-6.371-3.968-10.637-3.968-3.91 0-7.23 1.066-9.961 3.203-1.91 1.488-3.422 3.18-4.555 5.062v-7.723H51.57v.36l.27.992c.722 2.703 1.277 5.047 1.668 7.031.39 1.985.586 4.117.586 6.403v16.14c0 2.285-.196 4.414-.586 6.399-.39 1.984-.946 4.328-1.668 7.035l-.27.992v.36h20.196v-.36l-.27-.992c-.723-2.707-1.293-5.05-1.715-7.035-.418-1.985-.629-4.114-.629-6.399V24.035c2.496-1.453 4.875-2.191 7.121-2.191 2.106.058 3.832.718 5.188 1.984 1.352 1.262 2.027 3.242 2.027 5.945v14.34c0 2.285-.195 4.414-.586 6.399-.39 1.984-.949 4.328-1.668 7.035l-.273.992v.36h20.2v-.36l-.274-.992" style="stroke:none;fill-rule:nonzero;fill:#4d7bc7;fill-opacity:1"/>
  <path d="M133.39 12.512c-2.617.812-4.792 2.238-6.538 4.281-1.399 1.64-2.594 3.566-3.606 5.746v-9.352h-17.582v.36l.27.992c.722 2.703 1.28 5.047 1.668 7.031.394 1.985.59 4.117.59 6.403v16.14c0 2.285-.196 4.414-.59 6.399-.387 1.984-.946 4.328-1.668 7.035l-.27.992v.36h20.195v-.36l-.27-.992c-.718-2.707-1.292-5.05-1.71-7.035-.422-1.985-.633-4.114-.633-6.399V24.805c1.777-1.063 3.567-1.59 5.367-1.567 2.13.032 4.13.59 5.992 1.668 1.864 1.082 3.547 2.469 5.051 4.149h.45l2.347-16.047c-3.43-1.14-6.45-1.309-9.062-.496" style="stroke:none;fill-rule:nonzero;fill:#f03c36;fill-opacity:1"/>
</svg>
