<svg xmlns="http://www.w3.org/2000/svg" width="600" height="600" viewBox="0 0 211.632 211.632">
  <path fill-rule="evenodd" clip-rule="evenodd" fill="#FEBA35" d="M105.86 211.632c55.924 0 102.016-43.719 105.772-98.559V98.585C207.875 43.605 161.784 0 105.86 0 47.582 0 0 47.494 0 105.842c0 58.181 47.582 105.79 105.86 105.79z"/>
  <path fill-rule="evenodd" clip-rule="evenodd" fill="#01804E" d="M106.071 208.811c56.876 0 103.268-46.348 103.268-102.968 0-56.753-46.392-103.021-103.268-103.021C49.275 2.821 2.839 49.089 2.839 105.842c0 56.621 46.436 102.969 103.232 102.969z"/>
  <path fill-rule="evenodd" clip-rule="evenodd" fill="#FEBA35" d="M106.239 187.348c45.369 0 82.218-36.886 82.218-81.849 0-45.166-36.85-81.963-82.218-81.963-45.201 0-82.087 36.797-82.087 81.963 0 44.962 36.886 81.849 82.087 81.849z"/>
  <path fill-rule="evenodd" clip-rule="evenodd" fill="#0C2577" d="M105.516 26.057c6.79-.08 13.668.758 20.334 2.319 6.79 1.685 13.245 4.294 18.545 7.24 6.454 3.581 11.887 7.373 17.573 12.839 5.732 5.767 9.895 11.243 13.157 16.93 3.695 6.058 6.79 13.43 8.571 21.296 1.701 6.948 2.125 13.897 2.045 20.59-.344 8.632-1.913 16.922-5.008 25.254-2.849 7.751-6.243 13.853-10.573 19.621-3.817 5.387-9.338 11.031-14.858 15.449-.512.211-.846.547-1.27.846-6.032 4.629-11.976 7.874-19.268 10.942-7.944 3.034-16.64 4.93-24.707 5.354-9.083.546-18.21-.512-27.337-3.245-8.024-2.531-14.938-5.891-20.757-9.771-5.388-3.783-10.987-8.545-15.996-14.188-5.097-6.014-8.659-11.578-11.842-18.306-3.395-6.825-5.943-15.326-6.922-22.91-1.014-9.338-.512-18.474 1.402-27.53.211-1.049.423-1.896.723-2.821 2.037-7.875 5.308-15.158 8.915-21.216 3.607-6.023 7.636-11.243 13.456-16.843 5.723-5.255 11.455-9.215 17.565-12.583 6.579-3.368 14.435-6.234 22.283-7.786 4.842-.926 9.428-1.137 13.969-1.481z"/>
  <path fill-rule="evenodd" clip-rule="evenodd" d="M104.458 31.833c4.241 0 9.206 1.684 12.389 4.118.979 2.53 1.702 5.264 2.337 7.663.847 2.61 1.058 5.476 1.701 8.298 1.271 5.264.927 11.578 4.965 15.238-1.278.334-3.06-1.049-4.038-1.764-1.146-.847-1.358-2.028-1.993-2.743-.723 1.349-.512 3.792-2.416 4.841-.635.379-1.401.591-2.037.802 0 .124-.088.211-.088.424l1.914.97c2.716-1.182 5.599-.555 8.446-1.182 2.761.547 5.433-1.561 7.849-.087 1.993-1.049 4.118-.547 5.521.634 1.058.926 1.781 1.896 1.992 3.369-.211.625-.3 1.261-.423 1.561-1.146 1.049-3.184.838-4.753.626-2.76.97-5.943-.503-9.127.335-2.337-.211-4.241.511-6.666-.414-2.205.714-4.242.838-6.234 0-1.402.838-3.315 1.261-4.797.203-.511-.203-.723-.626-1.279-.75-1.481.123-2.927 1.172-4.541.547-1.781 1.261-4.33.625-5.6-.547-1.702.547-3.606 1.472-5.599.547-1.278.838-3.104 1.138-4.797.502-2.125-.847-4.542 1.182-6.667-.3-1.49.511-3.06.211-4.33-.547-1.614-1.049-2.548-2.813-2.337-4.497.723-1.605 2.76-1.394 4.118-1.27 3.906 1.561 7.09-1.261 10.908.211 2.037-.547 4.118-1.138 5.608.211 1.27-.547 2.672-.635 4.03-.423 2.337 1.058 5.008-.547 6.702 1.27 2.637-1.816 6.11-.555 9.003-1.394l.936-1.014-1.147-3.281c-.132-.087-.211-.211-.423-.211-1.067 1.808-2.893 4.216-5.308 4.418.088-1.975-.556-4.083-1.491-5.679-1.146 2.231-2.627 4.753-5.388 5.344h-1.27l.635-4.294c-2.249 1.058-4.585 3.501-7.769 2.23.212-.546.979-.414 1.402-.837 2.548-3.915 4.665-7.998 7.09-12.001 1.481-2.522 1.905-6.102.547-8.712-1.693-2.231-4.797-2.654-7.337-2.531-1.067.211-1.279.724-1.569 1.685-.132.423-.132.511-.132.847 0 .291-.3.211-.511.211-1.27-1.605-2.328-3.871-1.481-6.313.546-1.685 1.904-2.399 3.606-2.822 1.914 0 3.907.08 5.6-.334l.855-1.896 3.394-1.262z"/>
  <path fill-rule="evenodd" clip-rule="evenodd" fill="#FFF" d="M105.516 32.379c.935.203 1.702.203 2.628.503 3.315.837 6.711 1.808 8.191 4.126 0 .079-.123.291-.123.291l1.613 4.417c-.123.088-.211.088-.344.088 0 1.261.855 2.733 1.19 4.126 1.781 6.402 1.569 13.553 4.63 19.453-2.125-.758-3.061-2.954-3.906-4.762-.089 0-.212 0-.3.124-.336 1.984-.424 4.638-2.249 5.979-.212.133-.512.424-.635.547l-2.76-6.86c-.3-.08-.423.335-.512.635 0 2.654-1.614 4.629-3.606 6.225 0 0-.211 0-.335-.123 0-2.398-1.358-4.63-2.425-6.402 0-.124-.124-.124-.335-.124-.379 1.808-1.146 3.704-2.504 4.762-.635.715-1.49 1.129-2.337 1.552l.512-5.767c-.088-.123-.211-.335-.423-.335l-.935 1.685c-1.702.97-3.183 2.522-5.432 2.733 2.46-2.61 3.395-6.313 5.511-9.047 1.279-2.398 2.681-4.797 3.527-7.328l-.556-2.107c.432-.414.979.088 1.402.088 0-.088.088-.088.212-.291-.97-1.058-2.116-2.24-3.307-3.501-.723-.625-1.358-1.138-1.993-1.552 1.693-.3 3.395.625 4.542 1.473.423-.424-.211-1.059-.423-1.473-2.972-1.561-6.878-1.685-10.062-.723-.767.511-1.19.925-1.358 1.772-1.067-1.182-1.067-3.034-.423-4.506.423-1.261 1.438-1.685 2.504-2.107 2.972.423 6.579-1.049 8.615 1.349.635 2.019 1.693 3.157 2.628 4.717 0 .758-.847.971-1.146 1.261 0 0-.124.124-.124.335.335.423 1.058.088 1.27-.211.635-.547.723-1.262.423-1.887-.723-1.472-1.481-2.743-1.993-4.215.635-.212.935.758 1.57.847.211 0 .132-.211.132-.424h.803c.132-.502-.635-.502-1.014-.714.211-.547 1.014-1.261 1.649-1.472h2.037c.423.211.723.211 1.067.079l.424-.625c0-.088 0-.212-.133-.3-.935 0-1.905.423-2.76.087-1.781-.087-3.351-1.472-4.621-.087-.635.211-1.067.211-1.613.087l-.635-.634c0-.08 0-.212.123-.291.848-1.182 2.638-1.27 4.119-1.473z"/>
  <path fill-rule="evenodd" clip-rule="evenodd" d="M101.187 36.585c.3.212.847.502 1.058 1.049 0 .088-.124.088-.211.212-.423-.124-.847-.335-.97-.838v-.547l.123.124zm15.872 7.029 1.191 1.772 1.146 5.052-2.417-6.947.08.123zm-4.453 2.61-.089 1.394s-.211.211-.423.08l.423-1.473h.089v-.001zm5.519 4.63.424 4.505-.511-4.708.087.203zm-7.3.343-.133.714c-.079.123-.211.123-.291 0-.212-.3.08-.424.212-.847l.212.133zm8.482 2.098.724 2.911-.724-3.034v.123zm-14.303 2.409-.846 2.186c-.124 0-.335.335-.635.124v-1.049c0-.424.423-.132.724-.335.335-.3.335-.511.635-.925.122-.134.122-.001.122-.001zm6.878.837-.846 2.108c-.345 0-.133-.424-.212-.635.079-.124.212-.211.424-.424l.511-1.049h.123zm7.002 1.349c.089.335.212.759.212 1.05-.424-.079-.212-.714-.336-1.05h.124z"/>
  <path fill-rule="evenodd" clip-rule="evenodd" fill="#FFF" d="M135.912 68.71c1.693.211 2.963 1.261 3.818 2.654.335.838.423 1.685 0 2.31-1.358.502-3.395.3-4.753-.423-.979-.837-1.825-2.098-3.184-1.887-.212.079-.433.079-.3.414l2.839 2.398c-2.839-.291-4.029-3.024-5.934-4.708 1.058-.758 2.751-.635 3.941-.211 1.658.714 2.505 2.61 4.418 2.733 0-.123.123-.123.212-.334l-2.338-2.319c.214-.416.849-.504 1.281-.627zm-50.298.123c1.993.088 3.818 1.138 5.088 2.734.846.847 1.357 1.772 2.715 1.561.344-.088.423-.211.635-.291l-3.686-3.368c.635-.635 1.825-.547 2.76-.424 1.27.838 2.54 2.399 3.262 3.792-1.27.715-3.051 1.473-4.629.626-.634-.335-1.181-.838-1.904-1.049l-.555.291c.344.634.855.97 1.402 1.27-.847.838-2.249.335-3.095.123-2.125-1.181-2.425-3.157-3.907-4.417l1.914-.848zm39.813.714c1.481.212 2.539 1.182 3.395 2.108.547.758.847 1.181 1.271 1.808-1.482.511-3.483.714-4.886-.124-1.138-1.049-2.204-2.318-3.818-2.107-.079.133-.211.212-.291.335 0 .088 0 .211.08.3 1.19.211 2.125 1.182 2.892 2.107-.979.626-2.257-.088-3.104-.511-1.058-.838-2.416-2.099-2.716-2.945 1.781-.838 4.329-1.261 5.688.088 1.27 1.261 2.125 2.099 3.738 2.443 0-.01.213-.344.08-.424-1.271-.423-2.205-1.896-3.184-2.743.132-.335.555-.202.855-.335zm-16.004 0c2.547-.079 3.73 2.319 5.732 3.289.211 0 .334-.132.334-.344l-1.904-2.61c1.059-.546 2.54.424 3.395 1.058.724.926 1.358 1.473 1.781 2.311-1.058.846-2.636 1.059-3.905.512-1.271-.3-1.914-1.984-3.396-1.896-.133.123-.344.211-.344.211-.079 0-.079.211-.079.335.423.423 1.146.635 1.569 1.472-.724.635-1.914.291-2.761-.123-1.48-.724-2.336-1.984-3.482-3.369.511-.846 2.002-.846 3.06-.846zm-12.822-.211c2.672-.211 4.25 1.685 6.287 3.078.212 0 .503-.124.635-.335l-1.613-1.896c.423-.635 1.481-.088 2.037 0 .935.758 1.781 1.596 2.628 2.522-.714.758-2.205.847-3.474.758-1.402-.424-1.914-1.385-3.395-1.385-.556 0 0 .547.211.626.635.634 1.146.847 1.693 1.393-.547.503-1.27 0-1.905-.211-1.702-.97-2.76-2.521-3.95-4.003-.088-.336.555-.336.846-.547zm-20.757-.079c2.972-.335 4.541 2.31 6.798 3.58.079 0 .212 0 .291-.132l-2.205-3.025c1.57 0 2.628 1.261 3.483 2.522.124.502.335.634.635.925 0 0 0 .211-.088.335-2.46 1.058-4.374-.414-6.235-1.173-.132 0-.211.124-.211.335l.502.926c-.635.546-1.481 0-2.328-.212-.855-.634-1.702-1.472-1.79-2.398 0-.634 0-1.181.3-1.472l.848-.211z"/>
  <path fill-rule="evenodd" clip-rule="evenodd" fill="#FEBA35" d="m139.518 76.708 7.637.211c.212 7.874-.212 16.419-.212 24.708-.634 9.559.3 18.985-2.204 28.376-1.825 7.743-4.886 15.538-8.492 21.728-2.037 3.157-4.118 5.802-6.154 8.624-4.03 5.141-9.851 10.528-15.237 14.611-3.096 1.975-5.644 4.294-9.127 5.264-6.155-3.289-11.12-7.795-16.851-13.138-5.732-5.812-9.929-11.155-13.324-16.922-3.818-6.102-6.366-14.099-8.192-21.56-.211-1.049-.423-2.099-.511-2.945-1.49-9.762-.935-19.196-.935-28.791-.124-6.693.088-13.35.211-19.955l73.391-.211z"/>
  <path fill-rule="evenodd" clip-rule="evenodd" fill="#01804E" d="m131.917 79.362 8.782.079c-3.095 3.581-7.759 7.787-11.243 11.155-3.183 3.034-6.878 6.693-10.149 9.647-4.876 4.964-10.396 9.762-14.638 14.735 0 .079 0 .203.124.291l3.995 1.181c-3.783 6.058-9.083 11.234-12.61 17.213l3.739.635-14.303 21.64c.079.124.212.124.291.124l26.701-26.604c-1.49-.926-3.818-.503-5.6-.847 4.109-5.043 9.841-10.185 14.726-15.237 1.358-1.552 2.84-2.945 4.242-4.294-.768-.97-2.461-.546-3.606-.97l22.661-21.719v.838c-.29 10.062-.29 19.955-.846 29.849-.212 8.298-2.416 16.586-5.599 24.461-3.104 7.371-7.003 12.838-11.764 18.606-4.577 5.563-10.908 10.528-16.208 14.064-1.614.759-2.972 2.319-4.885 2.319-6.155-3.245-11.331-7.663-16.93-13.227-5.229-5.556-9.771-11.155-12.742-17.425-3.263-6.648-6.367-15.025-7.081-22.609-1.191-7.028-.644-13.765-.644-20.581 0-1.896 0-3.712.088-5.396l.344-18.06 63.155.132z"/>
  <path fill-rule="evenodd" clip-rule="evenodd" fill="#FEBA35" d="m83.7 81.214.088.123.758 3.66c.088 0 .212 0 .3-.203l2.249-2.954c.635.344.088 1.27-.124 1.817-.432.714-1.146 1.261-1.146 2.098 1.27.512 1.993-1.173 3.262-1.384l-1.27 2.654c0 .079.124.203.212.203l3.729-.961c.432.203-.124.961-.211 1.172l-3.183.926c-.124.132-.124.211-.124.344l3.95 1.128-3.183 1.182c.423.847 1.569 2.107 2.839 2.53-1.481.794-2.548-.97-3.906-.97-.124.123-.124.123-.211.335l2.204 3.245-3.263-1.984c-.211 0-.211.167-.344.379l1.067 3.58c-.211.335-.855-.211-1.146-.635-.635-.714-.344-1.896-.979-2.522h-.423L83.7 99.396l-.767-4.295h-.291l-1.825 4.003c-.855-1.393.335-2.742.758-3.915 0-.299-.211-.423-.547-.511l-3.06 2.107 1.49-3.157c.124-.08 0-.211-.088-.291l-3.95.926c-.423-.212.132-.635.132-.847l3.263-1.552c0-.133 0-.211-.08-.344l-3.527-.838 2.972-.925c-.3-.759-1.481-1.809-2.416-2.231-.556-.088-.846.123-1.278.123 0-.123 0-.211.088-.334.635-.635 1.914-.635 2.76-.291.546.291.846.502 1.402.714.211 0 .291-.088.423-.3l-1.702-2.857 3.06 1.596c.211-1.261.723-3.068-.211-4.206.299-.211.846.291 1.058.714.511.971.211 2.02.723 2.654.124.08.211.08.344 0l1.269-4.125z"/>
  <path fill-rule="evenodd" clip-rule="evenodd" fill="#01804E" d="M110.904 85.543c-.423.299-.715.512-1.27.926l-1.358-.926c.847-2.522 1.693-3.571 2.628 0zm2.892 2.531c-.344-.211-.855-.335-1.49-.335-.212-.511-.336-1.269-.547-1.896 2.884-1.684 4.154-1.472 2.037 2.231zm-6.366-2.231-.424 2.107-1.279.203c-1.692-2.61-1.269-4.629 1.703-2.31zm1.481 1.05c-.334.211-.767.635-1.058.97.079-.547.079-1.182.291-1.596.221.123.432.414.767.626zm2.548.846c-.556-.3-.979-.635-1.19-.846.212-.211.635-.423.847-.503.133.291.211.838.343 1.349zm-2.036.626c.766-.08 1.269.132 1.693.847.556.626.344 1.808-.212 2.31-.423.547-1.569.547-2.205.133-.846-.547-1.058-1.394-.635-2.443.301-.503.847-.715 1.359-.847zm4.03.212c-.08.335-.423.758-.636.97-.088-.211-.211-.758-.3-1.181.424.131.636.131.936.211zm2.46 2.443c-.635.3-1.27.502-1.825.714-.291-.414-.635-1.138-.935-1.552l.935-1.394c.978.124 4.249 1.05 1.825 2.232zm-8.907-2.311c0 .29-.132.837-.132 1.261-.423-.424-.635-.847-.723-1.182 0 0 .635-.079.855-.079zm-.767 1.552c-.935.123-1.146 1.058-.812 1.684-4.453-.837-3.606-1.975 0-2.945.301.635.512.838.812 1.261zm6.49.423c.088.123.512.971.644 1.182-.343.079-.644.203-.979.203v-.961c.123 0 .212-.301.335-.424zm-5.644.635v.837c-.3 0-.423 0-1.014-.087.591-.124.803-.547.803-.961l.211.211zm6.579 1.05c2.125 2.821 1.702 5.053-1.781 2.31.212-.626.424-1.34.512-2.099.422 0 .846-.088 1.269-.211zm-8.024.334 1.446.088c0 .547.212 1.473.423 2.187-3.139 2.311-3.686.626-1.869-2.275zm3.148.089c.211.335.335.415.635.838-.512.547-1.058.847-1.359.926-.132-.211-.423-1.137-.423-1.764h1.147zm2.971-.089c-.088.503-.3 1.262-.511 1.641-.133-.079-.768-.626-1.06-.794.08-.211.292-.344.636-.758l.935-.089zm-1.914 1.262c.344.211.979.802 1.271 1.014-1.271 3.995-1.904 3.581-2.839.335.722-.547 1.057-.97 1.568-1.349zm-25.422 17.3c.212 0 .335.132.335.344-.124.292-.335-.211-.423-.344h.088zm-1.067 1.393c.132.212.132 0 .212.212-.212.423-.291-.212-.212-.212zm0 1.261c0 .212.212.423.132.715-.132.423-.132-.292-.344.132.001-.335.212-.546.212-.847zm0 1.474.132.925c.211.132.3-.079.423-.079.423.079-.423 0-.124.211-.088.08-.3.08-.432 0v-1.057h.001zm1.191 1.684v.3c0-.088-.211-.3-.124-.512l.124.212zm-2.116 0c0 .087 0 .3-.22.423.087.211-.001-.635.22-.423zm1.058.087v.627c.08.211.423 0 .423-.08.088 0 .211.212.211.292-.124.211-.555.211-.767.132l-.08-1.058.213.087z"/>
  <path fill-rule="evenodd" clip-rule="evenodd" fill="#FEBA35" d="M124.069 115.604c.847.714 1.693 1.35 2.416 1.984 0 .123 0 .203-.088.203l-2.884-1.261c.124-.291.336-.715.556-.926zm4.242-2.311c0 1.049.088 2.187.211 3.237h-.344l-.926-3.025c.291-.132.714-.132 1.059-.212zm2.416.291c-.424 1.05-.847 2.019-1.147 3.077-.123 0-.211 0-.334-.131l.423-3.157c.334 0 .767.132 1.058.211zm2.037 1.262c-.759.758-1.614 1.604-2.328 2.318 0-.087-.133-.087-.221-.211l1.702-2.733c.3.123.635.414.847.626zm1.358 1.816c-.97.415-1.993.838-2.972 1.341 0-.079-.079-.211-.079-.292l2.504-2.019c.212.335.424.626.547.97zm.51 2.187c-1.058 0-2.08 0-3.271.124v-.335l3.185-.846c-.001.343.086.757.086 1.057zm-.211 2.107a63.913 63.913 0 0 0-3.061-.925v-.344l3.271.211c.001.335-.086.714-.21 1.058zm-1.058 1.888c-.811-.627-1.657-1.261-2.504-2.019.079 0 .079-.08.212-.212l2.839 1.393c-.123.291-.335.635-.547.838zm-1.781 1.472c-.511-.961-.935-1.808-1.489-2.733l.211-.212 2.249 2.398c-.336.212-.636.424-.971.547zm-2.213.723c-.123-1.058-.123-2.107-.212-3.157.089 0 .212-.088.3-.088l.979 3.034c-.344.123-.768.211-1.067.211zm-2.117-.211c.212-.926.503-1.984.847-2.945h.3l-.221 3.157c-.29-.001-.714-.089-.926-.212zm-2.257-1.059c.768-.837 1.49-1.552 2.126-2.31.132 0 .211 0 .344.124l-1.49 2.733c-.337-.123-.636-.335-.98-.547zm-1.482-1.764c.979-.546 1.914-.969 2.884-1.393a.493.493 0 0 0 .212.212l-2.46 2.019c-.212-.202-.423-.626-.636-.838zm-.635-2.107c1.059-.079 2.037-.211 3.184-.292v.292l-2.972 1.058c-.088-.344-.212-.723-.212-1.058zm.124-2.187c1.066.292 1.992.635 3.06.926v.211l-3.184-.088c0-.414 0-.837.124-1.049zm2.972-3.703c.423.97.935 1.896 1.357 2.857-.079.088-.079.088-.211.212l-2.126-2.522c.345-.124.644-.424.98-.547z"/>
  <path fill-rule="evenodd" clip-rule="evenodd" fill="#01804E" d="M82.21 118.761h.088l-.3.715v-.715h.212zm2.337 0h.088c.211.211.211.512.124.846-.335-.131-.335-.423-.423-.635-.001-.123-.001-.211.211-.211zm-1.191.299.132.547c.08.212.211 0 .423 0 0 .424-.768.08-1.191.212-.291-.212.133-.212.212 0 .132 0 .211 0 .344-.212v-.635l.08.088zm-.846 1.262c0 .211-.212.211-.3.423 0 .211 0 .292.22.292l3.262.123-4.541.088c0-.088.212-.088.3-.088l.979-.837h.08v-.001zm1.702 1.895s.211 0 .335.08c0 .344-.423.211-.423 0l.088-.08zm-2.637.212.423.626c0 .088 0 .211-.124.299 0 .212-.3.335-.511.124l.212-1.049zm1.781 0v.714c0 .424.344 0 .644.335-.211.291-.855.088-1.279.088.212 0 .423 0 .423-.3l.132-.837h.08zm1.826.212c.088.203.211.502.088.838-.088.088-.088.088-.3.088-.124-.088-.124-.088-.124-.3l.335-.758v.132h.001zm-2.751 1.552.211.123v1.481h-1.19l.846-1.684.133.08zm1.781 0c.635.123.847.846 1.182 1.472l-2.117.212c-.344-.423 0-.926-.132-1.349.344-.212 0 .723.212.926 0 .211.132.423.344.344.423-.423 0-1.058.3-1.604l.211-.001zm-2.848.123c0 .088 0 .3-.212.423 0-.124 0-.211.088-.423h.124z"/>
  <path fill-rule="evenodd" clip-rule="evenodd" fill="#FEBA35" d="M126.609 125.797c1.357 0 2.76 0 4.038.08.08 0 .08.212 0 .212l-4.162-.089c-.088-.123 0-.335.124-.203zm.934.626 2.337.088 1.402 11.446 2.839.344c.211 0 .511.203.211.292h-11.03c-.089 0-.089-.212 0-.212l2.248-.212 1.57-11.746h.423z"/>
  <path fill-rule="evenodd" clip-rule="evenodd" fill="#01804E" d="m129.157 127.058.089.838h-.424v-.838h.335zm-1.482 0-1.278 10.82c-.123.079-.212.423-.423.079l1.357-10.899h.344zm.636 0v.715h-.423l.078-.715h.345zm1.481 0 .088.838h-.212l-.088-.838h.212zm-45.245-.635h.723c.556.3-.211.846-.423 1.138-.3-.211-.511-.503-.635-1.049 0 0 .211-.089.335-.089zm-2.972.089h.512c.211.212-.088.546-.212.758h-.211c-.088-.211-.212-.211-.3-.546 0-.089 0-.212.211-.212zm1.781.212c.132.211.132.626.132.961 0 .212.08.212.211 0l.088-.203c.211-.132.211.203.423.291 0 0 0 .211-.088.334h-.847c0-.334-.211-.969.08-1.472v.089h.001zm-2.416.334.423.838c-.124.211-.423.211-.635.088l.088-1.049.124.123zm1.781.292v.635c0 .123-.211.211-.423.123l.344-.758h.079zm3.105.335s-.133.212-.212.3c-.432-.001.079-.635.212-.3zm43.42.925.123.424h-.423v-.424h.3zm.634 0 .767 7.248-.211.124-.856-7.372h.3zm-49.151.212-.124.547v-.626l.124.079zm1.358-.212c.124 0 .344 0 .423.132.344.211.211.714.132 1.138-.132.211-.432.334-.644.211-.335-.3-.423-.926-.211-1.349.088.001.088.001.3-.132zm2.037.133.723.079c.124.212.635.759.423 1.27h-1.146c-.423-.3-.423-.926-.211-1.349h.211zm1.49 0h.212c.079.211.291.502.212.838-.345-.212-.424-.546-.644-.838h.22zm-2.258.211v.291c-.08-.08 0-.291-.08-.423l.08.132zm44.822.714-.079 6.314c-.133.211-.556.088-.847.088l.503-6.279c.133-.123.423-.123.423-.123zm.856 0h.335l.512 6.102c0 .502-.724.212-1.059.3-.088-1.773 0-4.171 0-6.402h.212zm-44.399 1.05h1.058c.345.423-.299.846-.634 1.262-.423-.203-.423-.715-.635-1.129-.001-.001-.001-.212.211-.133zm-3.395.132v.626c-.088.3-.212-.124-.3-.335.088-.088.088-.291.3-.291zm1.614.291c.211.211.079.758.211 1.05 0 .131.079.334.291.334.344-.203.132-.837.212-1.173.432-.211.644.627.979 1.05l-2.249.335c-.088-.124-.211-.212-.3-.415l.644-1.269.212.088zm-2.548.336-.212 1.048.079-1.172.133.124zm6.022.299v.626c-.08.123-.291.211-.635.123-.079-.415.345-.546.423-.961l.212.212zm-1.693 1.261s.124 0 .335.123l.935 1.641-1.905.211c-.211 0-.211-.292-.3-.503-.132-.123-.211-.123-.344-.211-.08 0-.212 0-.291.211-.211 0-.211.211-.344.503l-1.993.124c-.556-.547.3-1.173.512-1.596l.335.969c.088.08.212.08.423.08l.855-.626c.079-.088.291.124.502.124.344-.124.132-.546.212-.838.222-.212.645-.089 1.068-.212zm1.403.123h.291c.212.3.132.926.212 1.349l-.714-1.261c-.001.001-.001-.211.211-.088zm-5.944.168-.3 1.058.167-1.137.133.079z"/>
  <path fill-rule="evenodd" clip-rule="evenodd" fill="#01804E" d="M82.21 133.249c.088 0 .3-.088.511 0 0 .211-.423.292-.723.503v-.503h.212zm-1.605 2.398h1.826c.502.335.291 1.261.211 1.808l-1.19.635c-.088 0-.211 0-.3-.132-.211-.714-1.058-1.341-.635-2.311h.088zm3.395 0 1.059.124c.124.502.335 1.138-.088 1.685-.211.211-.758.211-.97 0 0-.212-.211-.212-.3-.547l.212-1.138.087-.124zm-4.33.335-.087.926v-1.05l.087.124zm48.296.635s0 .415-.078.503c-.133.124-.424 0-.768-.088-.089-.124.132-.546.132-.415h.714zm.98 0h.847c.088.292.088.503 0 .503h-.847c-.124 0-.124 0-.124-.088 0-.212-.088-.415.124-.415zm1.781 0 .132 1.262h-.344s-.079-1.059 0-1.262c0-.131.132 0 .132 0h.08zm-44.822-.344.847-.079c.344.503.132 1.049.22 1.685-.22.211-.432.079-.723.079-.635-.211-.423-1.049-.423-1.685h.079zm1.825 0h1.702l.079 1.059-.211.626-1.482-.08-.211-1.605h.123zm39.522 1.393h.503c.211 0 .211.212.133.503h-.636c-.344 0-.344-.291-.221-.503h.221zm1.57 0h1.059c.212.08 0 .08 0 .424h-1.271c-.088-.132 0-.424.212-.424zm-18.421 4.718h.715c.133.123.133.211.133.415 0 .132.078.132.211.132l.724-.635-1.067 2.734-2.417.088c-.555-.211.088-.635-.123-.926l-1.702 2.187c-.088 0-.3-.079-.511-.211 0 0-.124-.079-.124-.211.211-.926 1.191-2.099 2.249-2.61.211 0 .211.088.3.211l1.481-1.261.131.087zm2.972 1.887h.424l1.992 2.107-.847 1.896-.511.502c0 .132.3.212.3.424-.088 0-.221.123-.3.123l.212 1.685c.299.211.723.088 1.059.211.511 0 .3-.335.211-.626.089 0 .423 0 .423-.211-.123-.335-.547-.212-.758-.547.424-.3 1.401-.715 2.037-.3l-.636 1.896-2.336.088c-.345.414 0 1.049-.212 1.596-.133.502-.768.212-1.19.088v-3.58c.132-.3.423-.088.767-.211.424 0 .08-.292 0-.292-.635-.344-1.066-.344-1.49-.423-.334 0-.334-.132-.211-.211l1.701.211.724-2.187c.124-.132.335-.132.424-.344-.09-.713-.937-1.684-1.783-1.895z"/>
  <path fill-rule="evenodd" clip-rule="evenodd" fill="#FFF" d="M108.788 145.875h.635-.635z"/>
  <path fill-rule="evenodd" clip-rule="evenodd" fill="#01804E" d="m108.064 146.59 2.628.211-.211 4.083c-.08.212-.292 0-.512.212-.212.123-.335.211-.423.546l.512.503v1.182c.131.079.211.079.343.423l.212 2.945-.212-1.808c0-.3-.432-.088-.432 0-.124 1.261-.635 2.23-.635 3.368.511.415.935-.846 1.702-.423l-.556.758c0 .079 0 .211.211.291.133.124.345.124.424 0 .211 0 .211-.291.432-.423h5.432c.291.132.291-.203.424-.415.079-.088.3 0 .511-.088l.971-.969c0-.08 0-.212-.124-.292h-.511c-1.271-1.685-.847-4.127-.336-6.102.212-.424.212-.758.547-.847.089-.124.3-.124.424.088 0 .211-.335.124-.424.334-1.269 1.35-.635 3.369-.635 5.133 0 .211.424.211.635.211.212.132 0 .335.089.547.335.423 1.058.211 1.569.299.212 0 .335-.088.212-.299l-.724-.335c-.3-.211.301-.423.088-.837-.088-.088-.299-.088-.511-.212-.211-.088-.211-.423-.088-.634 0-.08.088-.08.3-.08.123.08 0 .203 0 .415l.846.423c.212-.124.3-.335.424-.635.089-.547-.424-.758-.335-1.261-.212-.547-.812-.547-1.234-.758-.424 0-.547.211-.971.547a.204.204 0 0 0-.212-.212l.547-1.049h1.059a.558.558 0 0 1 .176.423l.759.292h1.146c.344 0 .212.211.423.423.345 0 .433-.291.556-.635-.123-.079-.123-.291 0-.502l.089 1.975c-.212.344-.212-.415-.512-.415-.424.547-.847 1.808-.556 2.654 0 .079-.079.203-.212.291l-.723.124v.211l1.357-.124c.133.124-.079.335 0 .547 0 .423.133-.423.221 0l.424-.635-2.426 5.767-19.611-.961c-.714-.423-.08-1.437 0-2.274.221-.335.221-.335.344-.547l2.849-.926c.211 0 .335-.131.123-.344-.123-.079-.344-.079-.423-.079v-3.078c0-.626-.635-.211-1.067-.211l-.335.758s-.211 0-.211-.123c-.423-1.05-.423-2.399.335-3.245-.211.3-.546.723-.335 1.137l1.27.424.767-.503c.088-.211.212-.211.3-.546.123-.211.423-.211.758-.423l.723-3.872c.344-.334 1.058-.423 1.49-.132v1.896c0 .212.08.344.291.132l.423-2.319h.131z"/>
  <path fill-rule="evenodd" clip-rule="evenodd" fill="#01804E" d="m116.635 147.093.768.846c0 .124-.211.335-.211.547 0 .079.211.079.211.423h-1.49c-.211-.132.212-.211.212-.344.211-.291-.123-.414-.212-.626l.723-1.059v.213h-.001zm-16.93 4.215c.211 0 .291-.088.502 0 0 .335-.291.335-.635.211-.078.001.001-.299.133-.211z"/>
  <path fill-rule="evenodd" clip-rule="evenodd" d="m104.881 151.52-.088.96.088-.96z"/>
  <path fill-rule="evenodd" clip-rule="evenodd" fill="#01804E" d="M101.063 151.934h.124l.088 2.32c-.855-.211-.423-1.261-.512-1.896 0-.424.088-.503.3-.503v.079zm15.361.212c.132.132.344.132.423.211l.132 1.393-2.124.211c-.124 0-.212.08-.345.203l.645 2.407c-.089.203-.089.335-.424.416-.088.131-.3-.08-.433 0l-.635.546h-.634c-.213-.546-.513-1.173-.636-1.808l.335-.714c0-.211-.212-.335-.423-.423l2.337-.759c.212-.079.299-.211.512-.502 0-.124-.089-.423-.213-.547.124-.087.124-.3.336-.3l1.058-.334h.089zm-17.275.211h.767c.423 0 .291.423.212.846 0 0-.132.124-.212.203-.211-.079-.423-.079-.556-.203l-.299-.846h.088z"/>
  <path fill-rule="evenodd" clip-rule="evenodd" fill="#01804E" d="M115.702 154.676h.934c.344 0 .424.415.344.759-.344.291-.854-.132-1.277-.132-.213-.08-.336-.415-.124-.626h.123v-.001z"/>
  <path fill-rule="evenodd" clip-rule="evenodd" d="M82.642 86.267c4.242-1.138 7.513 5.467 1.781 7.786 1.905-.925 3.095-2.733 2.672-4.717-.423-1.597-1.913-3.069-4.453-3.069z"/>
  <path fill-rule="evenodd" clip-rule="evenodd" fill="#FEBA35" d="M125.974 118.002v.211c-.424-.079-.768-.211-1.059-.291 0-.132 0-.335.212-.335l.847.415zm.723-.925-.088.087c-.335-.211-.635-.423-.847-.634 0-.08.088-.292.3-.292l.635.839zm1.058-.627-.212.08c-.079-.292-.291-.627-.423-.927 0-.123.211-.211.344-.123l.291.97zm1.279-.211h-.212c0-.335-.088-.635-.088-1.058.088 0 .3-.124.423.088l-.123.97zm1.058.423-.212-.131c.212-.292.335-.627.423-.927.133-.123.344 0 .344.212l-.555.846zm.979.626-.212-.124c.291-.211.502-.502.723-.714.124 0 .336.08.212.291l-.723.547zm.511 1.058-.088-.211c.3-.132.635-.344.935-.424.124 0 .212.212.124.292l-.971.343zm.124 1.05v-.211h1.059c.088.088.088.292 0 .292l-1.059-.081zm-.212 1.137v-.211c.424.079.724.211 1.059.291 0 .132 0 .344-.212.344l-.847-.424zm-.767.838.211-.123c.212.211.556.423.768.635 0 .123-.124.334-.345.203l-.634-.715zm-.935.634.211-.123c.212.334.3.626.512.961-.079.088-.212.211-.423.088l-.3-.926zm-1.058.08.212.131v1.05c-.124 0-.212.088-.336-.124l.124-1.057zm-1.191-.203.212.123c-.08.292-.212.715-.291 1.05-.212 0-.344 0-.433-.211l.512-.962zm-.934-.634.088.123c-.212.3-.423.635-.635.846-.212 0-.3-.131-.3-.334l.847-.635zm-.635-.926v.079c-.336.211-.635.344-.847.555-.212-.131-.212-.211-.212-.344l1.059-.29zm-.212-1.138v.211c-.335 0-.768 0-1.059.08-.132-.08-.132-.292 0-.416l1.059.125zm1.781-1.473 1.067-.423-.088.926-.344.212-.635-.715zm1.403-.423 1.057.423-.634.715-.423-.212v-.926zm1.269.635.432 1.049h-.979l-.088-.335.635-.714zm.512 1.473-.512 1.005-.635-.714.088-.291h1.059zm-.847 1.349-.934.414v-.926l.3-.202.634.714zm-1.481.291-.935-.424.714-.581.344.079-.123.926zm-1.578-2.064.431-1.049.714.714-.211.335h-.934zm.3 1.35-.3-1.05h.934l.133.415-.767.635zm1.19-1.473.423-.212.423.212.089.335-.212.423-.3.08-.423-.08-.133-.423.133-.335zm6.745.838v-.08l-1.357-.211v-.123l1.357-.088v-.212l4.586-.335c.088.547 0 1.182-.124 1.685l-4.462-.636zm0-.926 4.586-.335-.124-.212-4.462.335v.212zm0 1.349 4.462.502v-.211l-4.462-.503v.212z"/>
  <path fill-rule="evenodd" clip-rule="evenodd" fill="#01804E" d="M127.888 128.61v.344h.29v-.344h-.29z"/>
  <path fill-rule="evenodd" clip-rule="evenodd" fill="#FEBA35" d="M84.212 109.29H82.51v1.262h-.423l-.088.088v1.473l.3.212-1.146 8.077h-.423l-.211.211v.344l.088.503v.335l.212.211h.124l-2.205 15.026h-1.067c-1.058-.124-.758.926-.758.926h.547c0-.211.088-.211.088-.292.124-.211.211-.123 1.19-.211 0 .088.08.291-.132.291h-.635v.758h12.187v-3.069h-2.76l-1.569-13.43h.291l.132-.123.08-.512v-.211l.132-.334-.132-.08v-.211l-.212-.132h-.502l-1.067-7.954.212-.123h.211l.212-.212v-1.349l-.124-.211h-.723l-.124-.124v-1.139h-.003z"/>
  <path fill-rule="evenodd" clip-rule="evenodd" fill="#01804E" d="M82.854 109.59v.626l.291-.423v-.203h-.291zm1.146 0v.626l-.432-.423v-.203H84zm-.935.838.291-.503h.133l.3.503v.123h-.724v-.123zm-.767.547h.212v-.212h-.212v.212zm2.461 0h.211v-.212h-.211v.212zm-.547 0h.211v-.212h-.211v.212zm-.423 1.049H84v-.203h-.211v.203zm0-1.049H84v-.212h-.211v.212zm-.433 1.049h.212v-.203h-.212v.203zm-.502 0h.211v-.203h-.211v.203zm-.133-1.049h.212v-.212h-.212v.212zm.424 0h.423v-.212h-.423v.212z"/>
  <path fill-rule="evenodd" clip-rule="evenodd" fill="#01804E" d="M82.298 111.186h2.672v.838h-.547v-.415l-.088-.212h-1.904v.081h-.133v-.292zm.847 1.138h.423v.547h.221v-.213H84v.503h-1.358v-.29h.212v.079h.291v-.626zm0 1.049h.423v1.261h.221v-.503l.211.212.124.503H82.51l.132-.415h.291l-.079.203h.291v-1.261zm0 1.684h.423v1.182h.221v-.547H84l.335.626v.212H82.51v-.212l.211-.291h.133v.291h.291v-1.261zm0 1.684h.423v1.261h.221v-.838h.123l.511.838v.212h-1.992v-.212l.29-.502h.133v.502h.291v-1.261zm0 1.808h.423v1.138h.221v-.627h.123l.423.627v.211h-2.037v-.211l.423-.627h.133v.627h.291v-1.138zm0 3.456h.423v1.349h.221v-.634h.123l.423.634v.213h-1.904v-.213l.29-.51h.133v.635h.291v-1.474zm-.635-8.632h.344v.423l-.212.424h-.211l.079-.847zm1.702 0h-.3v.423l.3.635.211-.088-.211-.97zm-1.914 1.684h.556v.124l-.556.846h-.088l.088-.97zm-.211 1.684h.555v.212l-.643.97h-.124l.212-1.182zm-.212 1.808h.767v.088l-.767 1.261h-.211l.211-1.349zm2.548-3.492H84v.124l.423.846h.124l-.124-.97zm.336 1.684h-.635v.212l.635.97h.088l-.088-1.182zm.088 1.808H84v.088l.759 1.261h.3l-.212-1.349zm-3.907 2.276h.212v-.213h-.212v.213zm1.57 0h.344v-.213h-.344v.213zm.846 0h.212v-.213h-.212v.213zm.556 0h.212v-.213h-.212v.213zm1.914 0h.29v-.213h-.29v.213z"/>
  <path fill-rule="evenodd" clip-rule="evenodd" fill="#01804E" d="M82.854 120.11h-.644l-.211.212.211.079v.344h-.211l-.124-.133-.211.133.123.08-.123.131h-.847l.123.627h.088l.124-.335h4.541v.546h.212l.133-.838H82.21v-.131h.088l.133-.08-.133-.133v-.211h.556v-.291z"/>
  <path fill-rule="evenodd" clip-rule="evenodd" fill="#01804E" d="M83.145 120.401h.423v-.291h-.423v.291zm.644-.291h.758l.212.212-.124.079v.211h.124v.213h-.424v-.213h.088v-.211h-.634v-.291zm1.181.291h.212v-.291h-.212v.291zm-3.606 1.604h.211l.635.927v.211l-.335.424h-.723l.212-1.562zm.846 0-.123.08.344.556h.079l.211-.424v-.212h-.511zm1.702 0v.212l.423.503h.088l.424-.635v-.08h-.935zm.723 1.138.547-.926h.212l.087 1.35h-.634l-.212-.213v-.211zm-3.695 2.019.212-1.049.088-.212h.335l.089.08-.636 1.181h-.088zm4.753-.123-.079-1.058-.133-.08h-.422v.08l.555 1.181.079-.123zm-3.483-1.138h.511l.133.08.079 1.684h.212v-1.684l.132-.08h.212l.079.08v1.684h.221v-1.684l.123-.08h.635l1.146 1.764v.212h-4.665v-.212l1.182-1.764zm-1.693 4.206.212-1.684h.088l.758 1.262v.211l-.123.211h-.935zm.635-1.895v.088l.635 1.05h.088l.635-1.05v-.088h-1.358zm.847 1.895v-.211l.722-1.172h.133l.079 1.172h.212V126.3l.132-.088h.212l.079.088v1.596h.221v-1.049h.123l.635 1.049v.211h-2.548zM84 126.423v-.211h1.826v.211l-.856 1.262h-.123L84 126.423zm1.27 1.561.556-.926h.079l.133 1.049h-.768v-.123zm-4.753.423-.211 1.385h.079l.344-.547v-.211l.211-.291.3-.212v-.124h-.723zm.847 1.596v-.837h-.124l-.212.415-.088.422h.424zm.423-1.596-.212.203.212 1.393h1.067l-.133-.123v-.212l.133-.087v-1.174h-1.067zm1.781 0v.962h-.423v-.962h.423zm.344 0v1.596h1.781v-.211l-.846-1.385h-.935zm1.358 0v.124l.846 1.349h.133l-.133-1.473h-.846zm-4.33 2.02v.714l.3.635h.124l.088-1.349h-.512zm.935 0v.503h.124l.211-.424v-.079h-.335zm-1.993 1.975.212-1.684h.212l.211.423-.211 1.261h-.424zm.847 0 .088-.626h.123l.212.415-.124.211h-.299zm1.146 0v-.503l.767-1.26h.212l.291.291v1.392h.344v-1.392l.3-.212h.123l.935 1.604v.08h-2.972zm2.337-1.975v.079l.847 1.473h.211l.846-1.473v-.079h-1.904zm1.269 1.975v-.08l.768-1.269h.211l.08 1.349h-1.059zm-5.599.335-.423 2.196h.211l.291-.758.345-1.438h-.424zm.723 0-.088.512.3-.3v-.212h-.212zm-.432 2.196v-.212l1.191-1.984h.088v1.138l.123.211.089.089.123.123h.3l.123-.123.221-.089.079-.211.132-.124.079-.211h.424v.335h.344v-1.138h1.57l1.19 1.984v.212H83.7v-.424h-.132v-.334l-.079-.089h-.212l-.132.089-.08.211h-.132v.547h-2.76z"/>
  <path fill-rule="evenodd" clip-rule="evenodd" fill="#01804E" d="M81.875 132.737v1.014h.124l.211-.088v-.123l.221-.212.079-.079.211-.089h.133l.211-.123h.08v-.3h-1.27zm3.739 0 1.137 2.196h.133l-.344-2.196h-.926zm-6.155 2.487-.22 1.808h.22l.335-.547-.124-1.261h-.211zm.714 0v.634l.212.547.344.415.088.423.123.212v.291h1.147v-.08h-.088v-.334h.511v-.3h.423v-1.596l-.212-.212h-2.548zm2.972.423h.211v1.385h-.211v-1.385zm.555 1.385v-1.596l.089-.212h3.183l.212 2.522h-1.279v-.291l-.212-.123v-1.561h1.058v-.335h-1.569v.335h.088v1.561H84v-.3h-.3zm3.819-1.261.211 1.975h1.993v-1.975h-2.204zm-8.36 1.975h.511v-.291h-.511v.291z"/>
  <path fill-rule="evenodd" clip-rule="evenodd" fill="#FEBA35" d="M99.705 159.094v2.107c0 .292.079.626.423.626 6.878.088 13.668.212 20.537.423.432 0 .644-.211.855-.635l1.992-5.467v-1.984c0-.123 0-.203-.211-.203h-.512v-.344h.423c.089 0 .3-.211.424-.415v-.423c.089.124.3 0 .432-.087v-.212c.08-.123.291-.123.424-.334h.291l.132-.212v-.202l-.132-.088h-.503l-.212-.211h-.343a.612.612 0 0 0-.213-.423c-.088 0-.088-.335-.211-.335l-.212-.079s-.3 0-.512.079c-.123.124 0 .212-.211.212 0 0-.212 0-.212.124-.133.088 0-.124-.133.3l-.211.124h-1.271c-.088-.124-.088-.212-.3-.212l-.211-.123-.123-.424v-.211c0-.714-.213-1.552-1.235-1.552 0-.423-.123-.846-.759-.97 0-.212 0-.502-.088-.714-.123-.212-.344-.212-.556-.212-.078-.132 0-.334-.078-.423 0-.212-.345-.212-.557-.212-.079-.211-.211-.291-.423-.423-.088-.292 0-.415-.088-.714-.423-.626-1.183-1.385-1.27-1.808-.124-.088-.212-.502-.345-.635-.503-.626-.847-.838-1.058-.926 0-.211-.08-.334-.08-.547l-.22-.211c-.424-.415-.97 0-1.183.547 0 0-.211-.123-.211-.203 0-.423-.088-.758-.212-.846-.221-.423-.644-.423-.935 0-.344.211-.344.714-.344 1.261-.512.088-.846.3-1.146.635-.124 0-.212.088-.335.088-2.548 1.049-3.995 2.857-4.206 7.998l-.979.714h-.926c-.132-.423-.221-1.058-.767-1.058h-.935c-.344.132-.635.635-.635.97h-1.278c-.423.088-.758.846-.758 1.561 0 .626.423 1.385.758 1.385l1.067.088c.079.335.423.969.846.969h.847c.423-.131.934-.334.855-1.181h.291v2.945l-3.051 1.684c-.127.128-.206.207-.206.419z"/>
  <path fill-rule="evenodd" clip-rule="evenodd" fill="#01804E" d="M99.149 151.52c-.846.335-.423 2.099-.088 2.099h.935c-.08-.211-.08-.714-.08-.925h-.979c-.088-.212-.088-.759.124-.838h.211v.079l-.124.132v.08h.767c0-.08 0-.212.212-.292 0-.123 0-.211.079-.335-.078 0-.933-.088-1.057 0zm1.614-.3h.423l.088-.211.211-.211.124-.124.212-.079v-.132h-.759l-.088.132h.088c-.087.078-.21.29-.299.625zm-.344.846h.555c-.123.627-.211 1.764.423 2.61l-.546.124c-.511-.547-.643-2.231-.432-2.734zm2.037-.758h-.423c-.211 0-.547.97-.211 1.261l1.146-.088v1.27h-1.358v.211h.723v.203c0 .211-.088.3-.088.423 0 .088-.124.211-.211.211v-.124c-.847-.088-.758-2.107-.635-2.945.211-.845.722-1.348 1.057-.422z"/>
  <path fill-rule="evenodd" clip-rule="evenodd" fill="#01804E" d="M102.033 151.731c-.124 0-.124.123 0 .202h.935c0-.079 0-.202.132-.202h-1.067zm1.702.123v-.211l.723-.546h.124v.758h-.212l-.123.079h.211v.132h-.088v.08h.212v.334h-.979v3.668l.132.124h.723l.124.088v.758h-.547v-.211h.124l.088-.211v-.211h-.088c-.124.087-.212.211-.335.423v.211h-.432l-.08-.131v-4.841c0-.212.211-.212.211 0h.512v-.08h-.211v-.132h.211v-.079h-.3v-.002z"/>
  <path fill-rule="evenodd" clip-rule="evenodd" fill="#01804E" d="M104.247 156.061h.335v-.335h-.335v.335zm0-.97v-2.187c0-.211.335-.211.335 0v2.187h-.335zm.211 2.319h-1.279c-.079-.088-.291-.211-.291 0l-2.125 1.182v.079h3.906v-1.138c0-.123-.087-.123-.211-.123zm-4.25 1.472s-.079.124 0 .212h.212c.132 0 .132 0 .211.124v.211h-.502v1.226c0 .123.211.211.211.211h1.27v.203h-1.27c-.211 0-.211 0-.211.132v.211l20.626.415c.343 0 .423-.415.423-.547h-.292c-2.125 0-4.329 0-6.587-.079 0 0-.079-.132 0-.132h6.587c.212 0 .292 0 .292-.203v-1.349c0-.3-.212-.423-.423-.423l-15.327-.088c-1.693-.124-3.395-.124-5.22-.124z"/>
  <path fill-rule="evenodd" clip-rule="evenodd" fill="#01804E" d="M115.702 161.281h.087v-.291h-.087v.291zm.933 0h.212v-.291h-.212v.291zm.557.132h.29v-.423h-.29v.423zm.511-.132h.123v-.291h-.123v.291zm-1.491 0h.123v-.291h-.123v.291zm-.299 0h.088v-.291h-.088v.291zm5.396-1.472v.97c0 .291.212.088.291-.123l1.613-4.506c.089-.299.089-.502.089-.714.123-.424-.212-.344-.212-.132v.132l-1.49 3.236c-.079.211-.079.423-.079.547v.802s-.133.124-.133 0v-.211c0-.081-.079-.081-.079-.001zm-8.792-1.429c1.702 0 3.271.079 4.965.079.133 0 .344 0 .556-.292h-.423c-.212.088-.345-.211 0-.123v-.088h.088c0-.423.423-.211.335 0h.212c.3-.423 1.146-1.385 1.569-1.896h1.913c.291-.124.424-.124.424-.211 0 0 .423-.627.723-1.261v-.124c-.088 0-.088-.088-.088-.088 0-.123.088-.123.212-.211 0 0 .211 0 .211.088.089 0 0 0 0 .123 0 .088 0 .212-.123.212v.088l-1.781 3.704c-.132.291-.344.423-.644.423h-8.994c-.345 0-.212-.344.088-.423h.757z"/>
  <path fill-rule="evenodd" clip-rule="evenodd" fill="#FFF" d="M119.908 157.745h-.213v.088h.336v-.088h-.123z"/>
  <path fill-rule="evenodd" clip-rule="evenodd" fill="#01804E" d="M108.276 143.222c-.768.335-1.826 1.393-2.549 2.734-.088.344-.211.555.212.423v.132h-.08v.08h1.146c0-.212.211-.423.424-.291.211-1.393.634-2.319 1.058-2.866.212-.212.001-.424-.211-.212zm-.132 1.605c.221-.759.644-1.481.979-1.817.088-.292.423-.503.634-.714.088-.123.212 0 .301.088 0 .123 0 .415.211.415h.635v.343c.345 0 .345 0 .345-.344 0-.203.634-.838.935-.626.123.123-.301.626-.424.837-.212.211-.433 1.058-.511 1.261-.212.424-.133 1.182-.636 1.182h-.555v.088h-.213v-.088h-1.569c-.345 0-.423 0-.212-.546l.08-.079z"/>
  <path fill-rule="evenodd" clip-rule="evenodd" fill="#01804E" d="M110.401 142.296h.503v.088h.133v.211h-.768v-.299h.132zm.848-.635.078.088c.133.123-.078.211.133.211h.088v.124c-.088.088-.088.211-.221.211-.078.088-.078-.123-.078-.123v-.088h-.133l-.079-.212v-.123h.079v-.088h.133zm.078-.838c-.29-.211-.502.502-.423.926 0 0 0 .123-.079.123h-.133c-.079-.211 0-1.173.212-1.173 0 0 .212-.211.345-.088 0 0 .078-.124.078 0v.212zm1.279 1.05h.211v-.335h-.211v.335zm.211.3c-.3.211-.511.546-.723.837-.124.211-.212.547-.335.758-.088.088-.088.423-.088.423.088-.124.088-.211.088-.335.123-.088.211-.299.211-.299.124-.211.636-1.173.847-1.173.213-.088.124-.211 0-.211zm-7.601 5.264c-.547 3.448-.335 6.728-.212 10.308 0 .211 0 .3.212.3h.644c.08 0 .211 0 .211-.088 0-.123.08-.123.08-.123.088 0 .212 0 .212.211-.124.123 0 .123 0 0h.088v-.211h.124v.334a.327.327 0 0 0 .211.088c.221-1.138.432-2.407.645-3.245 0 0 .079-.335.079-.423h.132c.079.847.079 2.53.503 2.822l.132.123v.088c-.423.124-.979.423-1.059.838l-.132.132h-.423v-.132c-.212.132-.088.344.123.344v-.132l3.827.132.079-.132c.133-.079 0-.211 0-.211-.079 0 0-.079 0-.079h.133c.212 0 .502-.335.502-.635h-.714c-.132.088-.555.211-.768.511v.203h-.722v-.079c.088-.212 0-.335.088-.547v-.212h-.3s0-.088.088-.088h.124c.088-.123.088-.123.211-.123v-.211h.088v1.058h.123a20.04 20.04 0 0 1 .643-3.668h.212c0 .847.08 1.772.212 2.733 0 .088.079 0 .079 0-.079-1.261-.079-2.434-.211-3.783h-.423c-.213-.132-.301-.423-.424-.846h.123c.088.087.088.299.212.423h.22v-.97l-.131-.08h-.301l-.123.08v.132h-.088v-.759c0-.088.088-.211.088-.211.335-.3.767-.211.767 0v.211h.08c.132-3.457.132-4.083.211-4.639v-.202h-.211l-.212.123h-.635l-.088-.123h-1.181s-.221-.088-.433-.088c-.079 0-.291 0-.291.088-.132 0-.211.123-.211.334-.133.926-.212 2.522-.212 3.872 0 .124 0 .124.212.212.29-.088.501.635.423.837-.133.212 0 .847 0 1.059 0 .211.211.626-.212.626-.211-.079-.556-.626-.635-.838 0-.211-.344-1.261 0-1.684-.132-.847-.132-2.32.079-3.369 0-.291.212-.714-.3-.714v-.132h.221v-.079h-1.146v.079h.211v.132h-.344c-.21-.001-.422.079-.51.423z"/>
  <path fill-rule="evenodd" clip-rule="evenodd" fill="#01804E" d="M107.509 151.643h-.291c-.132 0-.132.211 0 .211h.291l.132-.123c0-.088-.132-.088-.132-.088zm-.212-.335-.08.124.08.088h.212v-.212h-.212zm.212.626h-.291c-.132.345.08 1.182.291 1.27.132 0 .132-.211.132-.299a.775.775 0 0 1 0-.758v-.08c0-.001 0-.133-.132-.133zm3.183-6.059h-2.628c-.344 0-.211.212-.132.212h2.681c.079.001.079-.131.079-.212z"/>
  <path fill-rule="evenodd" clip-rule="evenodd" fill="#FEBA35" d="M109.634 152.569v-.089.089z"/>
  <path fill-rule="evenodd" clip-rule="evenodd" fill="#01804E" d="M109.845 151.52h.124v-.088h-.124v.088zm-.088.334h.301v-.123h-.301v.123zm14.392 0c-.212 0-.08.211-.08.211h.715c.132-.132.211-.132.211-.132 0-.079-.079-.079-.211-.079h-.635zm-.724.212v.414h.301v-.334c0-.08 0-.08-.089-.08h-.212zm.301-.423c-.089 0-.089.088-.089.088v.123h.212v-.211h-.123zm-.636-.635h-.3c-.335.3-.212 2.398 0 2.531.088 0 0 .079.088.079h.212c-.212-.415-.3-1.887 0-2.398v-.212zm-.722.089v.123h-.124v.088h.124v.124h.088v-.335h-.088zm.722.969h.123v-.132h-.123v.132zm-2.848-.969h-.635c0-.088.088-.3-.088-.212v.212h-.123c-.212 0-.3.837-.212 1.049h.635s.089.132.089.334c0 0 0 .212-.089.212v.634c.089.079.212.079.212 0v-1.049c.211-.132.088-.132.211-.132h1.914c.212 0 .3-.292-.133-.292h-1.781l-.211-.211v-.211c.088-.212.423-.212.511-.124l-.088-.088-.212-.122z"/>
  <path fill-rule="evenodd" clip-rule="evenodd" fill="#01804E" d="M120.031 154.676h1.49c.211 0 .211 0 .291-.211l.432-1.473c0-.212-.512-.212-.512-.088 0 .211-.344.211-.344.088.133-.212-.211-.212-.211-.088 0 0 0 .211-.08.211h-.132v-.212c0-.124-.512 0-.512 0-.123 0-.123.088-.123.211-.212.291-.423 1.049-.512 1.349-.124.211-.124.211 0 .211h.213v.002z"/>
  <path fill-rule="evenodd" clip-rule="evenodd" fill="#FFF" d="M121.388 154.165h-.723v.088h.856v-.088h-.133z"/>
  <path fill-rule="evenodd" clip-rule="evenodd" fill="#01804E" d="M120.331 152.693h1.825l.088-.124s0 .124 0 0h.124v-.088l-.124-.123h-1.702c-.088 0-.088 0-.211.123h-.089v.088l.089.124zm-.423 2.318h1.904v.08h.132v.131l.079.424c0 .079-.079.079-.211.079h-1.781c-.212 0-.212 0-.212-.211v-.292c0-.131 0-.211.089-.211zm.123-4.003c-.123-.335-.212-.415-.336-.547v-.211h-.088v.132c-.3-.547-.935-.759-1.27 0-.3.626-.512 1.764-.512 2.733v.714h.212v-.079h.212v.211h-.124v.08h-.3s.088.211.088.334v.088h.124l.212-.211h.088v.335l-.088.088v.124h-.212c0 .211.088.423.088.635h.124l.088-.132c0-.08 0 0 0 0l.123-.08v-.131h.089v-.08h.123v.502c-.123 0-.123.132-.123.132h-.089l-.123.079c.123.212.636.635 1.059.212v-.088h.211s0 .088-.088.088c0 .211-.123.335-.212.423-.758.838-1.604-.511-1.692-1.138-.423-1.604-.345-3.58.211-5.053.3-.969 1.147-1.261 1.781-.546.088.124.212.335.301.546l.123.212v.628z"/>
  <path fill-rule="evenodd" clip-rule="evenodd" fill="#01804E" d="M118.973 152.146c-.089-.292 0-.926.211-1.049 0-.088 0-.212-.088-.088h-.123c-.213.088-.301 1.138-.213 1.138l.213-.001zm-.301-.926v-.211h-.123v.088h-.089c-.123.123-.123.423-.123.423v.124h.123l.212-.424zm-.212.634h-.335c-.088.079-.088.503-.088.714 0 0 .088 0 .088.124h.335v-.838c0-.123 0 0 0 0zm1.059.503c.088 0 0 0 0 .123h.088-.423v-.123h.335zm-.847 0v.211h.301v-.211h-.301zm0 .423h.212v-.087h-.212v.087zm0 .336v.088h.088v.124h.213v-.124h-.089v-.088h-.212zm.512.423v.926c0 .124 0 .211.123.211.212 0 .3 0 .3-.088.088-.124.212-.546.088-.626-.088 0-.176-.423-.299-.423v-.132h-.212v.132zm.423.079c.088.132.088.132.212.211v.132s.089 0 .089-.132c-.089-.211-.089-.291-.213-.291h-.088v.08zm-.847 1.605v.212c0 .079 0 .211-.088.291v.124h.212v-.758h-.124v.131zm.424-.212v.424c0 .079.123.079.123.079h.089c0-.079.123-.079.123-.079v-.546h-.212l-.123.122zm-4.674 3.157 1.614-1.049h.211l.221.292v.546h.212v-.635c-.133-.123-.133-.334-.212-.415-.132 0-.344 0-.555.08l-1.782 1.058v.123h.291z"/>
  <path fill-rule="evenodd" clip-rule="evenodd" fill="#01804E" d="m115.702 157.745-.424.3v.123h.3c.124 0 .124-.123.124-.123v-.088h.087l.124-.123v-.088c0-.124-.124-.124-.124-.124h-.087v.123zm2.423-.626v.292c0 .123 0 .123.124.123 0 .088 0 .088 0 0h.088v-.211l-.088-.203c.001-.001.001-.001-.124-.001zm-5.731-1.605c.212.97.547 1.685.847 2.442h.212v-.211c-.212-.212-.724-1.896-.847-2.31l-.089-.132v-.08c-.123.08-.123.08-.211.08 0 .132.088.211.088.211zm.335-.291c.088.715.644 1.896.935 2.611h.133c.211-.088.291-.212.291-.3v-.123c-.424-.838-.715-1.685-.847-2.522 0 0 0-.088-.088-.088-.123 0-.424.088-.424.211v.211zm.644-.423c0 .292.635 2.319.926 2.61h.133v-.088c-.424-.837-.768-1.675-.847-2.646-.132 0-.132.124-.212.124zm-1.067 2.822c0 .124.088.335.088.423h.212v-.211h-.089v-.088c-.123-.124-.123-.423-.123-.546h-.088v.422zm.511 0h-.088v.212h.212v-.212h-.124z"/>
  <path fill-rule="evenodd" clip-rule="evenodd" fill="#01804E" d="M113.664 154.676c.133.759.556 1.896.768 2.311l.079.131v-.211c-.291-.547-.635-1.604-.635-2.231-.079 0-.079-.088-.079-.088l-.133.088z"/>
  <path fill-rule="evenodd" clip-rule="evenodd" fill="#01804E" d="M114.007 154.376c.08 1.349.503 2.108.848 2.742l.211.08.089-.08.123-.131v-.291h.088v.079h.123v-.079c-.211-.547-.634-1.473-.758-2.231v-.211h-.088l-.133.123v.088c-.079 0-.079-.211-.291-.211.212-.088.512-.211.723-.292v-.211h-.211c-.724.211-1.146.415-2.125.626h-.512c-.212 0-.124.423 0 .3l.423.124c.636-.211.855-.335 1.279-.423.079-.002.211-.002.211-.002zm3.185.089h-1.826v.212h.336v.124h-.124v.088h-.089v.123h1.914v-.123l-.133-.088h-.635v-.124h.635v-.212h-.078zm-1.703.758 1.781-.131s0 .131.133.131v.08h-2.037v-.08h.123zm1.781.212-.935.079h-.123v.132h.98c.078 0 .078 0 .211-.132h-.133v-.079zm-1.992-3.369 1.701-.132h.213v.132h.078-.078v.08h-.213v.132h.213v.202h-.213v.088h-.132.132v.124h.08c.133 0 .133-.124.133 0v.087h-.345v.124h.345v.212h-.133v.088c.133 0 .133 0 .133.124v.501s-.133.132-.213.132l-1.49.08h-.123v-.08h-.088v-.132h-.123v-.211h-.089c-.124 0-.124-.079-.124-.079v-.132h.213v-.203h-.089v-.088h-.124.124l.089-.124v-.088h-.213v-.124h-.087v-.087h.211v-.124h-.124v-.211h.847v-.079h-.634v-.132h-.089v-.08h.212zm1.569-1.058v.211c0 .088 0 .212.132.212v-.212h.08v-.335h-.08l-.132.124zm-.212.424v-.212l.133-.123v-.088c0-.124 0-.124-.133-.124-.079 0-.079 0-.079.124 0 0-.132.088-.132.211v.212h.211zm-.846-.124s.124 0 .124-.088v-.123s.089 0 .089-.088h-.089a.203.203 0 0 0-.211.211v.212h.087v-.124zm-.3.124v-.212l.089-.123c0-.088 0-.088-.089-.088-.123 0-.123 0-.123.088-.088.123-.088.335 0 .335h.123zm-.334 0v-.335s.123 0 0 0h-.089v.335h.089zm2.115-.424c-.078 0-.078 0-.078.088v.335h.078c.133 0 .133-.124.133-.124v-.211l.079-.088c0-.124-.079-.124-.079-.124-.133.001-.133.124-.133.124z"/>
  <path fill-rule="evenodd" clip-rule="evenodd" fill="#01804E" d="m116.212 151.432.123-.124v-.211s0-.088.089-.088v-.211h.846c.212 0 .556-.547.133-.75-.211-.211-1.067-.635-1.49-.723h-.424v.424c.089 0 .089.088.089.088.335.211 1.058.547 1.27.547v.079h.132c0 .132-.132.132-.132.132h-.079c-.212-.132-.556-.211-.767-.344h-.424v.211c.124.132.124.211.211.211 0 0 .124.124.213.124h.123v.211s.088 0 0 0v.088l-.123.123v.212h.21v.001zm.123-2.231h1.146c.133.123.221.123.344.211.088 0 .088 0 .088.123 0 .212-.088.3-.088.424h-.211c-.133 0-.133-.124-.133-.124-.079-.088-.29-.212-.503-.3-.132 0-.555-.211-.644-.211v-.123h.001zm-1.18 1.26-.089.132v.203h.212c.088 0 .088 0 .088-.124v-.079l-.088-.132h-.123zm2.671-1.975c0 .079.088.079.088.211.124 0 .124.079.124.079.088 0 .088.132.088.212 0 .131.124.131.124.211 0 .123.088 0 .211 0v-.211c0-.292 0-.292-.123-.424 0-.079-.088-.203-.212-.203 0-.088-.088-.088-.212-.088h-.088v.213zm-2.337.423h1.914c.079 0 .3 0 .3-.132 0-.079-.088-.079-.088-.211h-.345c-.078 0-.078-.079-.211-.079h-1.481v.079h-.212v.343h.123zm.089-.758c-.089 0-.089.123-.089.123h.089s0 .088.124 0v-.123h-.124zm.124-.511a.204.204 0 0 0-.213.211v.088h.3c.124 0 .213.124.213.212 0 .123.123.211.123.211h.854c.08 0 .08-.088.08-.088v-.211h.133v-.124c0-.088 0-.299-.213-.423h-.344l.133-.079h.211v-.132l-.132-.079h-1.145v.079c.087 0 .211.132.211.132v-.132h.089c.211.132.634.335.767.547h-.133s-.211-.124-.3-.211h-.634v-.001zm1.78-.335c0 .132.133.132.133.132v.503s.088.124 0 .124v.088c-.133 0-.133-.088-.133-.088h-.079c0-.124 0-.423-.133-.547v-.079s.133 0 .133-.132c.079-.001.079.131.079-.001zm-1.147-.794c-.123 0-.123.08-.123.08h-.088v.422c-.123 0-.123 0-.123-.132-.089 0-.089-.079-.089-.079 0-.123.089-.123.089-.211l.123-.08h.088v-.132.132h.123zm.433-.133c-.212 0-.344.132-.433.3 0 .202 0 .334.221.334h.212c.079-.132.079-.334 0-.423v-.211h.079-.079zm-2.125 3.369c0 .088-.133.212-.133.3v1.05h.221v-.088h.211v.423c-.087 0-.087.088-.087.088h-.345v1.888c-.079.132 0 0-.079 0h-.133v-.079c0-.124 0 0 0 0h-.079v.211l-.132.079h-.212c-.079 0-.079-.079-.079-.211v-.203c-.133-.211-.133-.299-.133-.511h-.079v.846s0 .079 0 0c-.212-.97-.212-2.531-.132-3.289v-.715c0-.211.132-.211.132 0v2.945h.079v-.749s.133 0 .133-.088h.211c.08 0 .08 0 .08.088h.211v-.723h-.079c-.132 0-.132 0-.132.088h-.291v-.088l-.133-.124c0-.291.133-1.35.133-1.473h.291c.132 0 .132 0 .132.123v.088h.079v.124h.133v-.212h.212v.212zm-1.613-.212v1.984c0 .626 0 1.473.123 2.099 0 .132.22.132.22 0 0-.415-.132-.838-.132-1.261V149.2h-.088l-.123.123v.212zm2.248-5.679c-.423-.299-1.271-.846-1.481-.846-.556 0-.344.335-.133.335.635 0 1.702.846 2.125 1.349-.3-.423-.511-.714-.511-.838zm.088 2.1-1.49-1.764c-.079-.124-.212-.124-.423-.124h-.512c-.212 0-.335.335 0 .335h.432c.08 0 .291.079.424.211l1.358 1.473v.079c.123 0 0 .132-.089 0h-.335s0 .132-.088.132c-.212.502-.636 1.428-.636 2.187 0 0 .291.079.424.079 0-.079.212-.079.212 0 0 .132 0 .132.088.132.124 0 .124-.132.124-.132.211-.925.634-1.764.934-2.055 0-.211 0-.344.213-.344v-.291h-.213v.08c-.087.002-.3.002-.423.002zm-1.068-1.976h-.211v.212h.211v-.212zm-.634-.211h-.079v.088h.291v-.088h-.212z"/>
  <path fill-rule="evenodd" clip-rule="evenodd" fill="#01804E" d="m113.373 144.695-.132.132-.088.079c0 .124-.123.124-.123.124v.3h.423v-.088h.132v-.124l.079-.088v-.203h-.079l-.132-.132h-.08z"/>
  <path fill-rule="evenodd" clip-rule="evenodd" fill="#FFF" stroke="#01804E" stroke-width=".318" stroke-miterlimit="2.613" d="M114.007 145.33h-.132v.123h.212v-.123h-.08z"/>
  <path fill-rule="evenodd" clip-rule="evenodd" fill="#01804E" d="M113.03 145.664c.123.211 0 .088.123.088h.088v.123h.132v-.334h-.22v.123h-.123zm-.213-.123-.088.123v.088h.212v-.088l-.124-.123s0 .123 0 0zm-.088.547s-.123.079 0 .079c.088 0 .424.132.512 0v-.079h-.512zm-.123.423v.08h.424v-.08h-.424zm-.089.502c.089.08.3 0 .424 0v-.132h-.124v-.079h-.211v.079h-.089v.132zm0 .424v.503h.3v-.088h.124v-.414h-.124v-.132h-.3v.131zm-.334.415v.088h-.213v-.212c.124-1.64.336-2.187.424-2.698v-.124s0-.079.123-.079c.089 0 .089 0 .089.079-.212.547-.423 2.107-.423 2.946zm-.089.51h.512c.547 0 1.613.415 2.249.627l.211.211c0 .211 0 .211-.124.211-.644-.211-1.357-.503-1.789-.635h-1.059c-.212.001-.335-.414 0-.414zm-.124 1.05c0 1.473 0 2.734.124 4.338v.079c-.124 0-.124 0-.124-.079-.088-1.393-.088-2.954-.088-4.338v-.088c.088 0 .088 0 .088.088z"/>
  <path fill-rule="evenodd" clip-rule="evenodd" fill="#01804E" d="M114.007 142.931c-.555-.212-.767 0-1.19.502-.847 1.181-1.146 3.077-1.27 5.476-.088 3.871.423 7.998.423 8.413 0 .088 0 .088-.088.088-.123 0-.211.123-.211 0-.124 0-.124-.088-.124-.292-.299-3.289-.432-6.11-.299-9.267.078-.838.211-2.522.722-3.66.336-.547.759-1.393 1.402-1.596.212-.088.715.123.847.203.079.133 0 .345-.212.133zm-1.701-1.27c-.123.211.3.3.211 0-.123-.203.089-.335.212-.335.088-.079.212 0 .212-.079.089-.132-.212-.335-.635-.132-.123 0-.212.132-.336.211.547-.212.547 0 .336.335z"/>
  <path fill-rule="evenodd" clip-rule="evenodd" fill="#FEBA35" d="M118.973 159.429h.634v.088h-.634c-.089.001-.089-.088 0-.088zm.935 0v.088h.978c.08 0 .08-.088 0-.088h-.978zm-18.721-.211h3.818c.088 0 .212 0 .212-.124h.935c.212 0 .212.124.212.335v.088l-.124 1.349c0 .124 0 .203-.088.203h-.512v-.079c.088 0 .3 0 .3-.124.132 0 .132 0 .132-.088v-1.261c0-.088 0-.088-.132-.088h-4.876c-.001 0-.089-.211.123-.211z"/>
  <path fill-rule="evenodd" clip-rule="evenodd" fill="#FEBA35" d="M105.216 161.069h.3v-.079h-.3v.079zm-.423-.079h-.758c-.088 0-.088.079 0 .079h.758v-.079zm2.213-.335v-.847c-.132 0-.132-.08-.132-.08v-.211c0-.088.132-.212.211-.212h2.337v.124h.123v.212h.088v-.212h.123v.088h.088v-.212h-.088v-.088h-.123l-2.76-.124c-.211 0-.3 0-.3.211v1.561c-.124.124.088.203.088.203h1.825c.088 0 .088-.079-.123-.079l-1.067-.124c-.211.001-.29.001-.29-.21z"/>
  <path fill-rule="evenodd" clip-rule="evenodd" fill="#FEBA35" d="M109.546 159.729h.088v.714h-.088v-.714zm-.335 1.261h-.3v.079h.934v-.203h-.211v.124h-.423zm1.27-1.261.132 1.05v.088h.079c0 .124.133.124.212.124h.212v.211h-.847v-.132h-.08v-1.852h.715c.133 0 .133.088 0 .088-.291 0-.423.212-.423.423zm.635-.423h.211v-.088h-.211v.088zm9.338-2.319v-.212h.088v-.079h.124v.291h-.212zm-.212 0v-.291h-.211l-.123.079v.132l.123.08h.211zm-.723.635h.3c.089-.088.3 0 .3 0 .123.124.123.212.123.212 0 .123-.211.123-.211.123h-.424l-.088-.123v-.212zm-10.82-12.504h.088c.123 0 .211-.088.211-.088v-.335c-.088 0-.211 0-.211.132v.079h-.088c-.123 0 0 .212 0 .212zm1.49-.088h.08l.132-.124v-.079l.08-.132c0-.212-.08-.08-.08-.08-.132-.132-.212 0-.132.08 0 .132-.08.132-.211.132-.089 0 0 .203.131.203zm-.555-2.099c-.088 0-.088.079-.088.079v.132h.211l.088-.132s0-.079-.088-.079h-.123zm-1.358 4.585h-.212v.124h.3v-.124h.123v-.29h-.211v.079l.088.132h-.088v.079zm1.481-.079h-.123v.203h.211l.124-.124v-.079h.089v-.211h-.213v.079l-.088.132zm-1.693 3.157-.132.079v.124h.433v-.124l.123-.079c0-.132-.123-.132-.123-.132h-.088c-.001.132-.133.132-.213.132zm1.482 0c-.123 0-.211 0-.211.079v.124h.299v-.124h.123v-.079s.088-.132 0-.132v-.079c-.123 0-.123.211-.123.211h-.088zm-1.27 3.571h-.212v.088c.08.123.301.123.301 0 .123 0 .211-.088.211-.088v-.203h-.211v.203h-.089zm1.358-.123h-.088l-.123.123h.123v.088h.211v-.088h.212v-.203h-.212v.08h-.123zm-1.358 2.107h.089v-.299h-.089v.299zm1.27.123h.088v-.211h-.088v.211zm10.996-3.156-.423 1.049c0 .211-.088.3.123.3h1.067c.079 0 .291 0 .423-.088l.212-1.261c-.132.291-.212.502-.344.714h-.503c-.343 0-.343-.079-.343-.291l-.089-.423h-.123zm-4.33-.838h.344-.132c0 .079-.089.079-.089.079l-.123-.079zm-.299.626h.212v.088h-.336v-.088h.124z"/>
  <path fill-rule="evenodd" clip-rule="evenodd" fill="#01804E" d="M119.908 157.745h-.213v.088h.336v-.088h-.123zm1.48-3.58h-.723v.088h.856v-.088h-.133z"/>
  <path fill-rule="evenodd" clip-rule="evenodd" fill="#FEBA35" d="M109.123 98.303c-.044 0-.08-.044-.168-.088-.088-.035-.132-.079-.211-.123-.088-.123-.167-.211-.256-.335-.088-.087-.123-.167-.168-.255-.132-.247-.211-.503-.343-.793-.045-.044-.08-.133-.08-.301-.044-.044-.177-.547-.256-.758 0-.079-.044-.167-.088-.29 0 0-.044-.044-.044-.088h-.123c-.423.3-.468.3-.512.334a.899.899 0 0 1-.211.132c-.468.247-.468.247-.512.292-.167.044-.255.088-.935.334-.335.044-.335.044-.423.044h-.256c-.079 0-.167-.044-.291-.079-.044-.044-.133-.088-.212-.132-.044-.035-.088-.079-.176-.123a1.371 1.371 0 0 1-.124-.212c-.088-.167-.088-.167-.088-.255 0-.246 0-.458-.044-.67.044-.167.044-.291.088-.424.044-.123.088-.211.132-.334 0-.124.035-.211.035-.335.044-.044.044-.044.211-.423.177-.379.344-.758.556-1.093v-.08s-.044 0-.044-.044c-.044 0-.044 0-.08-.044-.3-.043-.644-.087-.935-.167-.044 0-.088 0-.132-.044-.635-.123-.635-.123-1.19-.255a3.336 3.336 0 0 1-.247-.123c-.467-.247-.467-.247-.511-.247l-.088-.088a.93.93 0 0 0-.256-.211c-.044-.08-.079-.168-.123-.255 0-.036-.044-.08-.044-.168v-.458c.044-.044.044-.123.088-.167a.706.706 0 0 1 .167-.256l.124-.08v-.044c.388-.3.388-.3.644-.467.212-.08.423-.168.635-.247.759-.3.759-.3 1.226-.467h.088a1.02 1.02 0 0 1 .3-.08l.502-.132c.044-.044.044-.044.088-.044 0-.035 0-.035.044-.079-.133-.167-.212-.335-.3-.502-.044-.088-.08-.167-.168-.211a6.373 6.373 0 0 0-.255-.547c-.124-.3-.255-.547-.379-.847-.044-.168-.132-.335-.176-.547 0-.044-.035-.124-.035-.211v-.459c.035-.132.035-.211.079-.334l.256-.256c.043-.044.132-.044.211-.088.133-.036.256-.036.423-.08h.344c.123 0 .255 0 .379.044.423.124.423.124.635.168.044 0 .132-.044.211-.044h.211c.044 0 .132.044.177.044.123.079.211.123.291.211.088.123.088.123.177.334l.335.247h.088c.044-.035.044-.079.079-.167.132-.291.221-.591.344-.882 0-.044.044-.088.088-.124.035-.132.123-.299.211-.467.08-.124.08-.168.211-.379.291-.335.291-.335.468-.458a.74.74 0 0 1 .211-.132c.044-.035.124-.035.212-.079h.255c.123.044.255.079.378.123.089.044.124.088.213.123.044.044.087.088.167.177.088.08.176.167.256.291a.878.878 0 0 1 .132.211c.079.167.212.379.291.547.045.123.088.291.133.424.043.079.079.211.167.29 0 .124.045.212.089.335l.034.044c.045 0 .089 0 .133.044.335-.211.335-.211.767-.468.036-.035.124-.035.38-.211.211-.079.424-.167.635-.247.044-.044.212-.132.256-.167.088 0 .123-.044.167-.044h.344c.124.044.291.044.424.079.167.088.167.132.212.132.044.044.123.08.167.168.045.079.132.167.212.256.044.203.044.203.089.291v.502c-.045.088-.045.167-.045.256-.088.211-.124.458-.211.714-.089.167-.089.167-.124.292-.3.634-.344.758-.433.935-.034.035-.034.123-.079.167-.044.079-.088.123-.088.203v.088l.044.044c.379.079.803.211 1.19.291.336.132.636.256.97.379.256.133.344.167.389.167.079.088.167.132.255.211.036 0 .036 0 .168.124a.752.752 0 0 0 .212.3c0 .079.044.167.088.255v.247c0 .044-.044.132-.044.167-.044.088-.088.212-.167.299-.044.036-.089.124-.133.168-.044.079-.124.123-.212.211-.212.123-.467.247-.679.414-.379.132-.379.132-.511.211-.336.088-.336.088-.38.132h-.044c-.336.124-.724.203-1.103.335-.044 0-.044 0-.088.044v.035c.044.088.088.212.132.3.168.247.212.379.291.502.133.256.256.503.345.759.043.087.123.167.167.255 0 .035.044.123.044.211.045.036.045.08.089.123 0 .08.043.168.043.292.036.088.08.211.168.335.044.3.044.3.079.467v.168c-.079.379-.079.379-.123.423-.088.08-.167.167-.256.292-.211.088-.211.088-.379.167h-.512c-.088 0-.168 0-.255-.035-.168-.044-.301-.088-.468-.132-.468-.212-.468-.212-.636-.292-.3-.167-.3-.211-.847-.502-.044-.044-.044-.044-.299-.177-.045 0-.089 0-.168-.035-.044.079-.044.079-.088.247a10.47 10.47 0 0 0-.123.546c-.044.167-.089.3-.177.467-.079.211-.079.211-.212.591-.123.211-.212.458-.291.67-.044.044-.088.124-.177.211-.123.168-.123.168-.291.292l-.087.088c-.168.044-.168.044-.301.124-.123 0-.247.044-.379.044-.083-.002-.162-.002-.25-.002zm.167-.459c-.036-.044-.124-.044-.211-.044-.036-.044-.124-.132-.168-.211-.043-.044-.087-.124-.167-.167-.088-.212-.167-.379-.256-.591-.044-.088-.088-.167-.211-.547-.044-.167-.088-.335-.168-.502-.044-.133-.088-.211-.132-.344-.045-.123-.045-.203-.08-.335v-.247c.714-.556 1.058-.846 1.182-.97.133-.088.211-.167.3-.256.044-.044.132-.08.167-.123h.088c.167.123.335.291.511.423.044 0 .044.036.08.08h.044c.423.379.423.379.556.502v.38c-.089.379-.212.758-.3 1.182 0 0 0 .044-.044.088 0 .079-.045.167-.045.246-.078.168-.123.301-.211.503a2.654 2.654 0 0 1-.212.468c-.123.167-.123.167-.123.211-.089.044-.133.08-.168.167-.044 0-.044 0-.088.044a1.02 1.02 0 0 0-.344.043zm-4.286-1.94c-.167 0-.291-.044-.467-.044-.035-.043-.079-.043-.124-.079-.044-.044-.088-.133-.167-.177a.556.556 0 0 0-.088-.246v-.212c.044-.167.088-.334.124-.547.132-.3.3-.634.432-.97.291-.546.291-.546.59-1.049.124-.167.124-.167.168-.255.044 0 .088 0 .132-.044.423.044.846.044 1.27.044.044 0 .044.044.088.044.044.044.044.079.08.123.043.335.088.714.131 1.094.08.379.08.379.124.635 0 .167.044.29.044.423 0 .035-.044.035-.044.08-.08.132-.08.132-.379.334-.467.256-.467.256-.679.424-.132.088-.256.123-.379.211a6.269 6.269 0 0 0-.344.124c-.124.043-.212.043-.3.088l-.212-.001zm9.215-.123c-.088 0-.212-.044-.299-.044l-1.015-.378c-.045-.044-.045-.044-.556-.335-.167-.088-.335-.211-.512-.3-.044 0-.044-.044-.044-.044h-.035c-.044-.035-.088-.08-.133-.124V94.3c.045-.247.089-.458.133-.714 0-.036 0-.079.035-.123.044-.044.132-.088.176-.168.045-.044.045-.044.08-.088.044-.079.089-.167.133-.247 0-.088-.044-.168-.044-.256a1.671 1.671 0 0 1-.257-.29v-.133c.044-.036.044-.036.133-.08.291 0 .547-.044.846-.087.045 0 .045-.044.124-.044h.345c.043.044.078.087.167.132.088.168.167.291.256.459.211.335.379.679.591 1.014.044.079.088.167.132.291.079.256.212.511.291.802.044.124.044.256.089.379v.379c0 .044-.045.079-.045.079-.044.044-.079.044-.123.088s-.133.044-.177.088h-.291zm-6.41-1.482-.044-.035a.761.761 0 0 1-.079-.3c-.044-.379-.088-.626-.132-.882 0-.124-.044-.292-.044-.459v-.132c0-.044.044-.079.044-.123h.723c.167.079.211.123.256.123.167.168.335.335.511.503.036.044.036.044.036.088v.088c-.08.123-.168.247-.291.335-.132.167-.3.291-.423.458-.434.258-.434.258-.557.336zm2.972-.37c-.045-.044-.133-.088-.212-.132 0-.044 0-.044-.044-.079h-.044c-.168-.168-.336-.3-.512-.468 0-.044 0-.079-.035-.167.035-.044.035-.088.079-.124.089-.088.132-.168.212-.256.176-.079.3-.211.423-.378h.344c0 .044 0 .123-.043.167 0 0 0 .044-.045.044a.29.29 0 0 1-.079.167c0 .124.044.256.044.38.035.123.08.211.123.291v.211c0 .132-.043.211-.043.3 0 0 0 .044-.045.044h-.123zm-1.358-1.181h-.044c-.044-.044-.124-.088-.167-.124a.608.608 0 0 0-.133-.176c0-.035 0-.035.044-.079h.599c.079 0 .079 0 .123.044-.044.035-.044.079-.088.123-.035.044-.079.124-.123.167-.044 0-.088.044-.124.044l-.087.001zm-.768-.803c-.044 0-.123-.044-.167-.044-.3-.291-.591-.582-.723-.714-.211-.292-.211-.292-.334-.423v-.927c0-.036.035-.124.035-.203.3-.3.3-.3.644-.723.124-.124.291-.291.424-.459.044 0 .079-.043.123-.088.088 0 .168-.036.255-.036h1.147c.255.167.255.167.3.203.043.044.123.088.211.177.123.123.256.29.423.458a.663.663 0 0 1 .124.211c0 .044.044.079.044.123v1.305c0 .088-.044.168-.044.256-.036.079-.124.167-.212.256v.035c-.079.088-.079.088-.212.256-.079.079-.167.123-.256.211-.123.044-.291.044-.423.079-.291 0-.59 0-.89.044-.125.003-.301.003-.469.003zm-2.16-.044c-.044 0-.132-.035-.212-.035 0 0-.044 0-.044-.044 0 0-.044 0-.044-.044.044-.044.088-.123.168-.167 0-.044.044-.124.088-.212v-.423a.607.607 0 0 0 .124-.211c.044 0 .044-.036.088-.036h.123c.044.079.044.079.132.167v.08c0 .299.044.546.044.802 0 .044-.044.044-.044.088 0 0-.044 0-.044.035h-.379zm1.058 0c-.044-.035-.044-.035-.088-.079v-.211h.132c.044.044.044.044.167.123v.133c-.044 0-.044 0-.044.035l-.167-.001zm-2.804-.168c-.167 0-.335-.044-.502-.044-.423-.079-.855-.203-1.279-.291 0 0-.044 0-.08-.044-.088 0-.176-.035-.256-.035a6.418 6.418 0 0 0-.599-.256c-.211-.124-.211-.124-.291-.124v-.044c-.044-.044-.044-.044-.088-.044l-.124-.123c0-.044-.044-.088-.088-.167 0 0 0-.044-.044-.044 0-.088 0-.168.044-.256 0-.044 0-.044.044-.044 0-.036.079-.168.079-.203.088-.044.133-.088.212-.132.256-.167.511-.291.767-.424.256-.079.556-.167.812-.29.291-.088.59-.168.926-.256l.467-.124h.599c.079.124.124.167.679.926.043.088.079.124.123.211v.124c-.044.044-.08.132-.167.212-.044.043-.088.123-.167.167-.044.044-.132.044-.211.088-.044 0-.088.044-.132.044-.08.123-.212.203-.292.291-.044.044-.044.124-.088.168v.123c.044.044.044.132.088.177v.123c-.088.212-.088.212-.132.247-.044 0-.088.044-.124.044h-.176zm7.221-.044c0-.035 0-.035-.044-.035 0-.256 0-.512.044-.759a.624.624 0 0 1 .169-.211l.044-.044c.043 0 .043 0 .079.044a.912.912 0 0 1 .255.211c.344.503.344.503.344.547v.08c0 .044-.044.044-.044.044a6.664 6.664 0 0 1-.591.123h-.256zm1.738-.335a.795.795 0 0 1-.123-.123c-.044-.088-.088-.123-.177-.211-.123-.168-.123-.168-.291-.335-.044-.088-.087-.167-.132-.255-.168-.167-.168-.167-.291-.379 0-.035 0-.124.035-.167.044-.08.132-.167.177-.247 0-.044 0-.044.035-.044.132-.211.389-.591.556-.803 0-.044.088-.123.123-.167.044-.044.088-.088.133-.124h.123c.176.036.6.08 1.279.247.29.088.59.168.847.3l.334.124a.901.901 0 0 1 .256.167c.044.044.088.088.133.123.079.088.123.177.167.256.045.211.045.211 0 .3-.044.079-.123.167-.212.291-.088.08-.211.168-.3.256-.123.035-.255.123-.423.203-.212.087-.468.176-.679.255-.167.044-.3.123-.468.167-.3.088-.679.132-.803.167l-.299-.001zm-4.418-.123c-.079-.044-.211-.044-.335-.088-.132-.123-.167-.123-.3-.203-.044-.133-.044-.133-.123-.256-.044-.088-.044-.123-.088-.211v-.255c.044-.08.044-.168.088-.292.044-.088.123-.167.167-.291a.095.095 0 0 0 .088-.088c.08-.044.167-.088.255-.123.08 0 .124-.044.211-.044h.292c.132.044.132.044.299.079.045.044.124.088.168.177.089.036.132.124.212.203.044.088.044.176.088.255v.424c0 .044-.044.123-.044.211a.46.46 0 0 0-.124.167c-.087.044-.132.124-.211.212-.089.035-.177.035-.256.079-.131 0-.254.044-.387.044zm-2.839-1.685a.095.095 0 0 1-.088-.088c-.292-.378-.292-.378-.335-.378-.044-.08-.132-.167-.168-.292v-.079c.168-.088.168-.088.458-.133.132-.044.256-.044.432-.044h.167v.511c0 .036-.044.08-.044.124-.211.29-.211.29-.335.378.001.001-.043.001-.087.001zm5.855-.044a.558.558 0 0 0-.167-.123.501.501 0 0 1-.124-.167c-.045-.044-.045-.088-.089-.132 0-.203 0-.458-.044-.714h.044c.213 0 .38 0 .591-.036.133.036.256.036.389.036.035.044.124.044.211.088 0 .044 0 .08-.044.168-.043.044-.043.088-.423.591 0 .044 0 .044-.088.167a.716.716 0 0 1-.168.123l-.088-.001zm-6.878-1.472c-.035 0-.079-.044-.124-.08-.044-.043-.088-.131-.167-.176-.344-.714-.344-.714-.423-.794-.132-.335-.177-.378-.212-.511 0 0-.044-.036-.088-.08-.211-.635-.211-.635-.255-.881-.088-.468-.088-.468-.088-.759v-.132c.044-.036.044-.08.088-.124.124-.079.124-.079.211-.079h.467c.088.035.167.035.256.079.167.088.335.124.468.212.044.043.079.043.123.087.044.124.132.247.176.335.036.036.08.036.124.08.088.043.211.132.379.167h.423c0 .044 0 .044.432.344 0 .035.036.079.036.123 0 .168 0 .335-.036.547 0 .124-.044.256-.044.379-.088.547-.088.547-.167.926-.044.08-.044.08-.088.08-.088.044-.211.044-.379.088-.389.089-.724.125-1.112.169zm7.98-.211c-.502-.08-1.014-.124-1.569-.212 0 0-.044 0-.044-.035-.079-.591-.079-.591-.168-1.015 0-.043-.044-.123-.044-.167-.035-.255-.035-.467-.035-.714l.035-.044c.133-.088.256-.167.388-.291.292-.176.636-.379.936-.547.591-.3.679-.344.714-.378.256-.044.256-.044.432-.088h.292c.044 0 .088.044.132.044.079.044.079.044.123.044 0 .035.045.035.045.079.044.044.044.088.088.168 0 .044.035.131.035.167v.335c-.035.211-.079.379-.123.59-.045.088-.089.168-.133.256 0 .087-.035.123-.079.29-.3.635-.38.724-.424.847 0 0-.255.379-.255.424-.089.123-.089.123-.089.167a.294.294 0 0 0-.167.08h-.09zm-5.767-.08-.088-.088v-.29l.132-1.015c.035-.079.035-.079.079-.123h.088c.079.044.124.079.211.123.168.124.168.124.335.256.133.123.211.246.344.334 0 .088 0 .088.044.167-.044.044-.132.124-.177.212a1.726 1.726 0 0 1-.291.256c0 .035-.043.035-.087.079-.124.044-.301.044-.424.088l-.166.001zm3.228-.212c-.088 0-.221-.044-.344-.088h-.167c-.045-.035-.133-.079-.169-.123-.087-.088-.131-.124-.176-.212v-.079a.568.568 0 0 0 .132-.177c.044-.035.08-.079.124-.123l.423-.379c.089-.044.089-.044.177-.044v.044c.035.088.08.168.08.3.043.168.043.335.088.502v.335s-.045 0-.045.044h-.123zm-1.579-1.057c-.079-.036-.167-.08-.211-.168-.08-.035-.08-.035-.255-.203h-.036s-.044-.043-.044-.087c-.088-.044-.133-.088-.211-.124-.044-.044-.088-.044-.167-.088v-.044h-.045c-.043-.035-.087-.079-.176-.167-.167-.123-.167-.123-.247-.211v-.247c.167-.467.167-.511.247-.758 0-.088.044-.132.044-.211.3-.635.3-.635.344-.67.044-.088.079-.176.123-.256.044-.088.088-.123.132-.211a1.3 1.3 0 0 0 .255-.211c.036 0 .08-.044.168-.044h.167c.088 0 .167 0 .256.044.044.044.044.044.088.044.079.123.168.255.291.378.045.124.132.256.212.379.133.379.256.758.388 1.137 0 .168.035.379.079.547v.124c-.123.124-.291.256-.423.423-.124.044-.167.124-.802.627-.044-.003-.133-.003-.177-.003z"/>
  <path fill-rule="evenodd" clip-rule="evenodd" fill="#FFF" stroke="#000" stroke-width=".026" stroke-miterlimit="2.613" d="m104.96 35.395-.405.132c.414-.159.538.388 1.022.239.494-.142-.291-.221-.714.511-.423.723-1.014-.07-1.049-.458-.036-.379.485-.477.908-.477l.238.053z"/>
  <path fill-rule="evenodd" clip-rule="evenodd" stroke="#000" stroke-width=".026" stroke-miterlimit="2.613" d="M104.334 35.308c.238 0 .432.229.432.511s-.194.511-.432.511-.432-.229-.432-.511.195-.503.432-.511z"/>
  <path fill="#FEBA35" d="m54.986 20.042 9.252 7.673-1.156-12.154 4.061-2.244.337.64-.357.198c-.41.225-.682.416-.816.565a.829.829 0 0 0-.214.553c-.028.322.232 1.016.777 2.076l3.536 6.773c.548 1.049.984 1.677 1.308 1.879.327.202.793.134 1.401-.204l.427-.235.337.641-5.915 3.272-.337-.64.347-.194c.608-.337.922-.699.938-1.09.016-.389-.249-1.111-.798-2.165l-4.177-7.999 1.299 13.595-.494.273-10.377-8.502L58.149 30c.397.764.685 1.271.864 1.519.176.252.397.468.656.649.241.163.537.249.881.252.34.008.671-.072.99-.229l.095-.042.337.641-4.31 2.385-.337-.641.104-.072c.293-.178.529-.413.706-.706.181-.296.27-.587.267-.879a2.874 2.874 0 0 0-.164-.947c-.109-.294-.367-.834-.774-1.613l-3.132-6.008c-.541-1.039-.977-1.645-1.303-1.821-.33-.176-.834-.078-1.513.301l-.248.136-.334-.644 4.052-2.239zm29.27-1.862.673-.199 1.129 4.503-11.501 3.421-.21-.699.256-.077c.699-.208 1.096-.501 1.195-.884.099-.383-.027-1.144-.368-2.278l-2.235-7.356c-.328-1.08-.632-1.75-.917-2.009-.284-.255-.75-.288-1.391-.098l-.176.053-.213-.699 10.218-3.04 1.337 3.443-.684.203c-.491-.859-.967-1.437-1.419-1.741-.362-.252-.731-.376-1.107-.38-.377-.003-.971.113-1.78.354l-2.038.609 1.673 5.514 1.346-.403c.739-.219 1.189-.481 1.353-.782.165-.301.134-.823-.092-1.569l-.049-.152.674-.203 1.451 4.774-.673.203-.054-.173c-.238-.779-.503-1.253-.8-1.427-.297-.17-.813-.147-1.545.068l-1.386.415 1.021 3.358c.25.823.464 1.404.644 1.753.181.35.395.584.642.705.161.083.347.118.553.104.202-.017.532-.092.979-.226l.775-.231c1.24-.388 2.008-.979 2.313-1.758.358-.916.493-1.943.406-3.096zm15.883 2.395-.77.123L88.216 9.665l1.185 8.877c.11.705.183 1.13.225 1.281.042.153.117.296.222.431.202.242.479.415.835.522.355.104.739.127 1.145.062l.033-.004.151-.013.095.72-5.174.813-.095-.72.118-.03c.394-.084.75-.231 1.059-.447.312-.212.521-.449.622-.712.062-.145.089-.329.08-.547-.005-.215-.05-.627-.129-1.223l-1.006-7.561c-.189-1.36-.477-2.165-.859-2.414-.234-.163-.703-.194-1.411-.088l-.11.015-.095-.716 4.286-.676 9.366 9.199-.999-7.495c-.141-.934-.4-1.491-.782-1.667-.456-.25-.966-.337-1.53-.255l-.228.035-.098-.72 5.101-.803.095.72-.158.035c-.645.151-1.118.449-1.424.896-.208.285-.258.867-.147 1.748l1.55 11.647zm1.197-11.287-.712-.008.101-3.724 13.745.177-.004 3.723-.69-.008a7.903 7.903 0 0 0-.443-1.65c-.19-.456-.406-.773-.65-.954-.2-.146-.43-.243-.688-.296-.259-.054-.664-.084-1.218-.093l-1.849-.021-.131 10.311c-.016 1.184.076 1.947.277 2.282.201.339.663.513 1.382.524l.565.004-.011.738-7.251-.092.011-.738.583.009c.727.008 1.195-.152 1.4-.481.205-.33.316-1.09.332-2.282l.131-10.312-1.727-.021c-.649-.008-1.125.017-1.428.076-.306.06-.553.174-.74.343-.482.474-.81 1.305-.985 2.493zm26.869-1.675c2.257.588 3.89 1.842 4.903 3.755.86 1.633 1.023 3.459.491 5.475-.388 1.456-1.083 2.69-2.093 3.708a6.368 6.368 0 0 1-2.943 1.708c-1.411.378-2.868.371-4.365-.017-1.515-.395-2.779-1.098-3.799-2.11-.827-.811-1.399-1.798-1.72-2.959-.371-1.343-.367-2.739.014-4.18.409-1.532 1.137-2.799 2.185-3.802.947-.903 2.106-1.493 3.474-1.762 1.193-.236 2.478-.175 3.853.184zm-.343.776c-1.127-.294-2.204-.147-3.223.441-.607.354-1.19 1.054-1.754 2.102a13.093 13.093 0 0 0-1.083 2.782c-.651 2.451-.669 4.303-.046 5.565.544 1.115 1.462 1.841 2.748 2.18 1.146.294 2.229.092 3.259-.614.375-.265.753-.679 1.134-1.244a11.695 11.695 0 0 0 1.617-3.563 12.57 12.57 0 0 0 .394-2.669c.043-.936-.017-1.702-.171-2.297-.165-.61-.495-1.152-.989-1.629-.508-.494-1.137-.845-1.886-1.054z"/>
  <path fill="#FEBA35" d="m145.676 13.681-1.224 3.509-.68-.256c.122-.548.16-1.07.118-1.562-.041-.492-.152-.899-.336-1.222a1.819 1.819 0 0 0-.574-.584c-.234-.148-.644-.334-1.231-.555l-2.327-.88-2.09 5.418 1.117.423c.724.264 1.225.313 1.504.146.337-.194.649-.632.934-1.31l.049-.13.687.259-1.84 4.768-.687-.259.062-.16c.308-.8.363-1.411.167-1.835-.114-.25-.497-.5-1.154-.757l-1.117-.423-1.354 3.509c-.424 1.098-.601 1.847-.528 2.238.07.395.441.719 1.117.975l.381.145-.262.68-6.421-2.427.263-.68.324.122c.671.256 1.166.259 1.479.016.315-.244.686-.919 1.112-2.025l2.767-7.167c.428-1.11.602-1.836.527-2.191-.078-.354-.479-.665-1.203-.941l-.223-.083.262-.68 10.381 3.919zm12.849 18.665.595.373-2.676 3.804-10.171-6.313.39-.616.229.142c.618.383 1.104.483 1.461.304.353-.179.851-.768 1.486-1.773l4.124-6.512c.605-.953.911-1.623.921-2.003.007-.385-.271-.751-.839-1.103l-.156-.098.39-.616 9.034 5.609-1.74 3.271-.604-.375c.33-.935.462-1.673.395-2.211-.048-.433-.195-.792-.439-1.076-.247-.284-.727-.647-1.44-1.091l-1.805-1.12-3.091 4.879 1.19.737c.651.406 1.147.571 1.487.496.336-.076.713-.446 1.13-1.104l.085-.135.596.372-2.678 4.226-.595-.373.099-.151c.438-.691.623-1.206.561-1.54-.064-.337-.419-.703-1.067-1.105l-1.226-.761-1.888 2.974c-.458.726-.763 1.271-.906 1.637-.148.362-.184.679-.111.938a.933.933 0 0 0 .283.479c.147.143.42.338.816.585l.687.426c1.109.665 2.061.851 2.858.562.923-.335 1.796-.914 2.615-1.738zm8.42 13.577-.587-.505 1.164-15.786-5.947 6.795c-.46.547-.736.885-.823 1.02a1.268 1.268 0 0 0-.184.453 1.68 1.68 0 0 0 .146.978c.149.342.378.645.687.912l.027.021.106.105-.481.551-3.944-3.386.481-.551.099.07c.319.248.657.415 1.02.508.361.093.675.093.938 0 .149-.05.305-.153.465-.302.161-.152.441-.455.843-.912l5.062-5.783c.907-1.046 1.331-1.796 1.273-2.254-.025-.285-.306-.662-.839-1.129l-.084-.07.482-.551 3.266 2.804-.93 13.213 5.02-5.734c.62-.728.872-1.292.762-1.698-.104-.515-.367-.959-.795-1.335l-.172-.148.482-.547 3.887 3.337-.482.548-.129-.095c-.527-.39-1.058-.551-1.59-.487-.35.027-.825.377-1.421 1.049l-7.802 8.909zm12.186 6.71.444.539-3.768 2.761-7.602-9.209.569-.459.171.207c.46.558.886.808 1.284.751.394-.057 1.053-.461 1.979-1.211l6.008-4.864c.883-.713 1.389-1.249 1.521-1.607.131-.362-.016-.796-.442-1.31l-.114-.142.569-.459 6.755 8.179-2.7 2.544-.452-.546c.612-.781.971-1.437 1.083-1.967.094-.428.069-.814-.073-1.161-.142-.347-.479-.842-1.015-1.49l-1.347-1.635-4.502 3.645.887 1.081c.49.59.909.902 1.252.937.344.036.821-.193 1.428-.686l.126-.103.445.538-3.899 3.16-.445-.538.143-.118c.636-.514.977-.94 1.027-1.28.047-.336-.174-.799-.656-1.386l-.917-1.109-2.745 2.219c-.669.543-1.132.962-1.389 1.263-.253.297-.392.583-.409.856a.95.95 0 0 0 .117.544c.093.182.29.452.587.812l.512.623c.839.979 1.683 1.461 2.527 1.439.986-.027 1.998-.298 3.041-.818zm5.133 17.654-1.989-3.409c.166-.888.786-2.261 1.852-4.125.343-.606.73-1.374 1.158-2.291.239-.519.357-.896.354-1.136 0-.242-.129-.578-.377-1.001l-.136-.234-.029-.055-2.903 1.658c-1.037.593-1.649 1.063-1.846 1.407-.19.348-.109.83.252 1.447l.258.442-.634.365-3.503-6.008.635-.365.188.326c.361.617.741.932 1.14.938.398.004 1.118-.288 2.151-.88l6.71-3.835c1.045-.596 1.646-1.053 1.808-1.374.162-.317.052-.811-.34-1.479l-.125-.212.638-.366 1.06 1.67a81.205 81.205 0 0 1 1.761 2.85c1.251 2.145 1.775 3.854 1.573 5.134-.17 1.052-.73 1.849-1.687 2.396-1.656.946-3.313.522-4.97-1.275-.007.745-.538 2.155-1.597 4.238-.605 1.217-.966 2.174-1.085 2.868-.121.694-.028 1.304.271 1.833l.052.106-.64.367zm1.514-12.642c.421.723.813 1.311 1.178 1.761.878 1.096 2.125 1.184 3.733.267.672-.387 1.155-.833 1.45-1.34.255-.424.343-.877.276-1.366-.07-.49-.313-1.093-.731-1.81a11.787 11.787 0 0 0-.412-.65l-5.494 3.138zm6.915 16.325 2.355 5.693-.699.28-.064-.146a2.235 2.235 0 0 0-.375-.605c-.163-.186-.314-.298-.459-.342-.207-.053-.454-.045-.741.029-.284.074-.821.271-1.617.592l-1.93.783a3.599 3.599 0 0 0-.12-.405c-.25-.605-.707-1.283-1.367-2.033-.872-.997-1.489-1.929-1.852-2.801-.806-1.955-.768-3.833.113-5.63.431-.883 1.068-1.674 1.918-2.373a8.388 8.388 0 0 1 2.179-1.288 8.71 8.71 0 0 1 4.568-.558c1.267.181 2.36.621 3.279 1.319.929.704 1.635 1.641 2.12 2.808.694 1.685.65 3.333-.131 4.943.513.031 1.062-.034 1.659-.197l.269.653-4.624 1.92-.273-.664c.982-.614 1.731-1.341 2.24-2.18a4.005 4.005 0 0 0 .556-1.793 4.084 4.084 0 0 0-.312-1.88 4.017 4.017 0 0 0-2.006-2.143c-1.373-.662-3.394-.452-6.063.631-1.967.797-3.328 1.669-4.079 2.623a3.68 3.68 0 0 0-.777 1.842c-.097.68-.001 1.359.283 2.047.447 1.083 1.159 1.742 2.131 1.982.295.072.568.093.818.059.251-.03.568-.127.947-.279l.512-.207c.611-.251.987-.522 1.114-.815.132-.297.074-.743-.169-1.337l-.104-.248.701-.28z"/>
  <path fill="#FEBA35" d="m196.204 85.605 4.923 1.338c.752.207 1.298.269 1.634.191a.962.962 0 0 0 .69-.569c.13-.299.146-.662.041-1.085l-.026-.104.716-.172 1.1 4.484-.716.172-.051-.122a1.963 1.963 0 0 0-.857-1.047c-.398-.234-1.227-.55-2.478-.945l-.098-.033-5.719-1.586-2.341.565c-1.169.281-1.895.56-2.177.833-.284.273-.339.758-.165 1.452l.045.185-.716.172-1.533-6.249.717-.172.05.206c.169.694.442 1.099.824 1.213.379.114 1.151.031 2.313-.249l2.166-.521 4.933-4.569c.874-.819 1.401-1.386 1.59-1.698.186-.316.23-.699.135-1.151l-.032-.138.712-.172 1.45 5.91-.716.172-.027-.116c-.209-.854-.549-1.222-1.02-1.108-.215.05-.559.304-1.024.753l-4.343 4.16zm-178.278 8.19-7.505-1.6c-1.167-.251-1.922-.311-2.262-.187-.343.125-.595.56-.755 1.303l-.068.306-.718-.153c.063-.36.177-1.047.34-2.065.145-.9.282-1.661.407-2.275.035-.155.064-.294.093-.42.314-1.458.681-2.669 1.097-3.628.419-.964.928-1.777 1.53-2.443a6.175 6.175 0 0 1 2.719-1.776c1.312-.415 2.717-.459 4.208-.141 1.792.381 3.208 1.155 4.25 2.317 1.099 1.218 1.588 2.76 1.471 4.617-.037.685-.22 1.773-.541 3.256l-1.234 5.659-.718-.153.09-.409c.147-.688.08-1.169-.209-1.434-.289-.264-1.021-.522-2.195-.774zm-9.721-4.818 9.732 2.073c.929.201 1.568.315 1.917.353.352.032.668.011.95-.067.355-.103.608-.513.769-1.239.363-1.682.256-2.936-.32-3.758-.89-1.27-2.48-2.151-4.777-2.64-2.64-.563-4.666-.334-6.077.687a4.166 4.166 0 0 0-1.245 1.337c-.294.51-.534 1.205-.727 2.085-.073.319-.145.709-.222 1.169z"/>
  <path fill="#FEBA35" d="m22.955 71.113.243-.654 4.311 1.817-4.167 11.155-.69-.254.092-.247c.253-.677.257-1.17.004-1.477-.249-.311-.936-.67-2.055-1.08l-7.281-2.666c-1.067-.393-1.792-.55-2.17-.48-.382.07-.686.415-.918 1.04l-.065.17-.69-.254 3.705-9.91 3.585 1.016-.246.662c-.993-.125-1.745-.102-2.265.074-.42.137-.746.352-.977.646-.227.299-.488.837-.782 1.621l-.738 1.977 5.457 1.999.488-1.305c.267-.717.329-1.231.183-1.544-.146-.31-.587-.6-1.326-.871l-.149-.054.242-.654 4.725 1.729-.242.654-.175-.064c-.769-.28-1.313-.355-1.631-.226-.317.13-.611.552-.874 1.261l-.502 1.346 3.325 1.214c.81.297 1.41.481 1.799.547.39.068.71.037.954-.084a.979.979 0 0 0 .417-.374c.109-.171.248-.475.408-.912l.28-.75c.432-1.216.422-2.176-.027-2.887-.521-.828-1.27-1.559-2.248-2.181zm-8.227-6.134.688-1.526.781-1.636c.119-.245.316-.653.602-1.224.539-1.087 1.038-1.939 1.492-2.556.454-.621.927-1.095 1.422-1.424 1.114-.754 2.327-.808 3.646-.164.955.469 1.622 1.147 1.996 2.039.446 1.069.199 2.549-.745 4.435l-.056.115-.098.193-.588 1.18 2.918 1.43c1.075.524 1.81.769 2.207.735.398-.03.757-.366 1.074-1.007l.178-.353.659.32-3.021 6.056-.659-.32.139-.279c.32-.642.372-1.126.155-1.459s-.861-.76-1.932-1.284l-6.95-3.401c-1.072-.524-1.788-.766-2.151-.722-.361.04-.715.405-1.06 1.099l-.125.248-.66-.325.088-.17zm8.425-.916.383-.769c.369-.735.539-1.354.513-1.85a1.978 1.978 0 0 0-.38-1.093c-.389-.526-.922-.952-1.592-1.279-.611-.3-1.199-.462-1.753-.489-.559-.027-1.031.089-1.415.345-.427.294-.835.83-1.225 1.609-.119.238-.222.471-.315.696l5.784 2.83zm11.032-8.939-2.287-.456-2.706 4.147.512.707c.495.675.818 1.097.968 1.271.15.171.34.333.577.485.265.168.562.203.886.108.327-.098.593-.303.794-.618l.096-.141.616.395-2.348 3.597-.617-.394.069-.165c.201-.439.225-.883.07-1.332-.15-.453-.562-1.14-1.234-2.073l-.58-.802-6.559-8.998.371-.569 12.247 2.43c1.132.224 1.901.31 2.305.262s.758-.265 1.065-.658l.073-.092.616.395-3.254 4.989-.62-.394.088-.133c.385-.588.533-.999.446-1.232a.67.67 0 0 0-.248-.353c-.195-.121-.545-.23-1.049-.323l-.297-.053zm-3.061-.633-5.962-1.174 3.557 4.862 2.405-3.688zm19.149-13.574-2.716 2.873c-.907.101-2.411-.089-4.522-.559a33.414 33.414 0 0 0-2.553-.433c-.565-.08-.968-.081-1.199-.007-.231.073-.52.289-.857.648l-.186.197-.043.044 2.444 2.27c.872.81 1.502 1.256 1.891 1.338.393.082.832-.136 1.326-.656l.356-.374.535.496-4.79 5.063-.536-.5.258-.274c.494-.519.687-.968.578-1.35-.109-.379-.602-.975-1.474-1.784l-5.655-5.247c-.876-.817-1.495-1.253-1.851-1.314-.355-.063-.801.188-1.332.751l-.171.177-.535-.496 1.302-1.489a89.46 89.46 0 0 1 2.242-2.493c1.71-1.804 3.212-2.799 4.504-2.975 1.064-.144 2.002.156 2.804.901 1.399 1.298 1.47 2.989.218 5.08.72-.212 2.238-.118 4.554.283 1.354.222 2.385.287 3.088.199.707-.091 1.271-.351 1.692-.789l.091-.078.537.498zm-12.652 2.23c.577-.612 1.03-1.152 1.359-1.625.801-1.152.525-2.357-.83-3.616-.569-.525-1.139-.857-1.716-.991a2.107 2.107 0 0 0-1.4.138c-.451.205-.965.61-1.535 1.214a12.28 12.28 0 0 0-.508.581l4.63 4.299zm4.654-9.685-.559.438-2.287-2.956 10.792-8.426 2.361 2.894-.544.427c-.489-.433-.956-.771-1.392-1.006-.433-.235-.806-.351-1.109-.338a1.748 1.748 0 0 0-.722.197c-.235.119-.57.35-1.007.688l-1.449 1.135 6.452 8.097c.739.932 1.295 1.467 1.668 1.604.37.137.838-.015 1.404-.459l.441-.341.46.578-5.69 4.446-.46-.582.456-.356c.573-.444.833-.863.784-1.246-.05-.383-.444-1.042-1.19-1.978l-6.452-8.101-1.36 1.062c-.507.397-.86.713-1.058.948-.198.238-.315.48-.354.729-.076.665.197 1.515.815 2.546zM168.787 179.61l-2.055-1.127-3.869 3.17.276.839c.27.796.448 1.299.541 1.509.088.209.227.42.406.636.203.244.477.368.816.372.343.005.66-.112.952-.352l.135-.109.471.563-3.355 2.75-.472-.563.113-.136a1.77 1.77 0 0 0 .479-1.263c-.007-.476-.191-1.264-.552-2.358l-.31-.949-3.538-10.609.529-.435 11.014 6.013c1.018.555 1.729.869 2.13.945.405.074.811-.028 1.226-.313l.099-.066.472.564-4.656 3.815-.471-.563.125-.104c.548-.448.816-.802.806-1.052a.658.658 0 0 0-.132-.412c-.147-.176-.451-.384-.908-.625l-.272-.14zm-2.743-1.528-5.364-2.916 1.923 5.737 3.441-2.821zm1.066-12.94 11.567 3.689-5.384-10.766 3.104-3.552.547.468-.272.311c-.311.357-.508.631-.582.821a.803.803 0 0 0-.012.585c.087.308.579.849 1.479 1.628l5.77 4.943c.895.767 1.534 1.185 1.917 1.252.384.066.808-.166 1.271-.697l.329-.375.547.468-4.518 5.17-.547-.469.264-.302c.464-.531.636-.98.514-1.347-.122-.366-.631-.932-1.527-1.699l-6.815-5.839 6.027 12.041-.379.434-12.938-4.039 6.172 5.288c.652.559 1.105.919 1.365 1.083.257.168.544.285.855.356.291.063.603.036.935-.085a2.25 2.25 0 0 0 .868-.575l.077-.072.547.468-3.291 3.767-.547-.468.075-.103a2.11 2.11 0 0 0 .43-.909c.068-.336.049-.639-.056-.905a2.682 2.682 0 0 0-.494-.813c-.205-.232-.639-.633-1.304-1.202l-5.121-4.387c-.884-.758-1.513-1.159-1.891-1.201-.374-.044-.823.233-1.344.83l-.188.215-.546-.468 3.096-3.544zm24.121-15.978.361-.586 3.826 2.579-6.201 10.028-.618-.375.139-.225c.375-.607.472-1.087.293-1.433-.185-.345-.781-.824-1.788-1.434l-6.536-3.958c-.96-.582-1.629-.873-2.013-.875-.38-.006-.745.272-1.092.833l-.094.151-.618-.374 5.509-8.909 3.278 1.663-.368.595c-.937-.309-1.671-.428-2.211-.356-.43.054-.786.201-1.066.442-.28.246-.638.719-1.074 1.425l-1.1 1.778 4.898 2.965.726-1.174c.397-.645.559-1.132.476-1.461-.077-.331-.445-.694-1.107-1.095l-.138-.083.362-.585 4.242 2.569-.362.585-.155-.095c-.693-.419-1.205-.594-1.535-.527-.337.067-.7.42-1.095 1.057l-.749 1.211 2.986 1.809c.728.44 1.274.729 1.641.87.364.136.678.169.94.095a.95.95 0 0 0 .476-.284c.14-.144.332-.413.573-.804l.42-.678c.649-1.093.826-2.027.533-2.803-.344-.901-.931-1.748-1.759-2.541zm10.605-13.943-1.422 3.609c-.792.414-2.241.775-4.352 1.087a33.09 33.09 0 0 0-2.499.503c-.551.13-.916.272-1.104.421-.185.148-.364.447-.543.9l-.097.244-.023.061 3.084 1.224c1.1.437 1.846.625 2.236.563.385-.06.71-.418.967-1.071l.187-.473.676.268-2.504 6.355-.675-.268.134-.342c.258-.653.264-1.138.025-1.449-.243-.31-.916-.686-2.016-1.123l-7.132-2.83c-1.109-.441-1.839-.625-2.188-.555-.349.066-.664.457-.942 1.163l-.088.224-.676-.268.64-1.833a86.149 86.149 0 0 1 1.128-3.091c.893-2.266 1.899-3.713 3.019-4.334.925-.512 1.892-.565 2.907-.163 1.763.699 2.458 2.234 2.086 4.603.582-.451 2.011-.897 4.282-1.351 1.322-.277 2.287-.583 2.9-.913.614-.333 1.036-.773 1.261-1.327l.053-.103.676.269zm-10.766 6.537c.301-.764.515-1.426.643-1.979.306-1.345-.396-2.355-2.106-3.035-.717-.284-1.36-.385-1.938-.304a2.039 2.039 0 0 0-1.234.621c-.337.35-.655.905-.953 1.662-.077.197-.159.435-.251.717l5.839 2.318zm1.36-14.73 7.418 2.008c1.145.31 1.91.412 2.292.305.379-.105.667-.501.857-1.184l.088-.319.703.19-1.778 6.409-.702-.19.082-.297c.189-.683.146-1.169-.125-1.452-.275-.282-.985-.58-2.13-.889l-7.419-2.007c-1.155-.313-1.902-.413-2.244-.303-.341.108-.614.534-.82 1.272l-.064.235-.703-.19 1.778-6.409.702.19-.07.255c-.121.434-.176.757-.168.975a.706.706 0 0 0 .218.529c.275.266.969.555 2.085.872z"/>
  <path fill="#FEBA35" d="m200.589 115.393.145-.646 5.062 1.107-.145.646c-.59-.008-1.118.089-1.582.295 1.074 1.426 1.403 3.062.988 4.916a6.711 6.711 0 0 1-1.622 3.131 6.073 6.073 0 0 1-2.694 1.729c-1.374.421-2.816.468-4.331.136-1.556-.34-2.91-1.029-4.063-2.069a6.227 6.227 0 0 1-1.79-2.754c-.347-1.061-.388-2.183-.123-3.364.2-.897.554-1.696 1.059-2.384a5.419 5.419 0 0 1 1.888-1.626 5.803 5.803 0 0 0-1.523-.839l.144-.642 5.322 1.037-.144.642c-1.415-.061-2.594.118-3.528.528-.537.238-1.017.627-1.44 1.164s-.705 1.117-.846 1.746c-.215.959-.085 1.849.392 2.66.789 1.36 2.563 2.341 5.316 2.944 1.818.398 3.315.418 4.493.061a4.051 4.051 0 0 0 1.837-1.132 3.84 3.84 0 0 0 .943-1.798 4.128 4.128 0 0 0-.104-2.195 4.038 4.038 0 0 0-1.176-1.821 7.937 7.937 0 0 0-2.478-1.472zm2.672-9.497-2.173.77-.106 4.74.81.324c.772.303 1.267.488 1.484.551.215.067.463.1.74.105.315.006.585-.112.807-.354.226-.241.342-.541.35-.899l.003-.164.729.013-.093 4.112-.728-.014-.029-.166a1.674 1.674 0 0 0-.642-1.128c-.363-.291-1.076-.648-2.132-1.073l-.914-.368-10.27-4.071.015-.649 11.624-4.138c1.073-.383 1.769-.697 2.086-.936.315-.243.5-.598.555-1.07l.013-.112.729.014-.127 5.705-.729-.014.003-.154c.015-.67-.078-1.083-.272-1.23a.67.67 0 0 0-.395-.162c-.228-.004-.581.083-1.058.261l-.28.107zm-2.918 1.012-5.654 2.023 5.56 2.194.094-4.217zm-48.984 71.384 1.878 3.167-.628.34a5.457 5.457 0 0 0-1.113-1.092c-.401-.284-.781-.461-1.145-.532a1.854 1.854 0 0 0-.812.053c-.263.081-.667.268-1.212.563l-2.168 1.175 2.772 5.031 1.041-.563c.665-.369 1.025-.713 1.079-1.029.068-.375-.065-.887-.396-1.534l-.065-.121.637-.345 2.438 4.427-.638.345-.082-.148c-.408-.742-.838-1.175-1.29-1.3-.259-.078-.696.048-1.315.374l-1.041.564 1.795 3.257c.563 1.021 1.016 1.631 1.361 1.83.347.198.833.129 1.457-.209l.355-.192.348.63-5.967 3.232-.347-.631.301-.162c.625-.339.946-.706.965-1.096.014-.39-.262-1.101-.827-2.127l-3.666-6.653c-.567-1.03-1.008-1.627-1.325-1.796-.314-.172-.814-.074-1.49.292l-.205.111-.348-.631 9.653-5.23z"/>
  <path fill="#FEBA35" d="M136.492 186.143c-1.064.431-1.826 1.179-2.279 2.246-.269.629-.312 1.526-.128 2.681.157.965.426 1.905.806 2.829.952 2.315 2.049 3.785 3.289 4.411 1.099.559 2.256.592 3.473.1 1.082-.438 1.814-1.236 2.205-2.398.139-.426.191-.977.153-1.646a11.448 11.448 0 0 0-.854-3.756 12.339 12.339 0 0 0-1.283-2.336c-.528-.759-1.03-1.329-1.508-1.708a3.544 3.544 0 0 0-1.752-.703 4.326 4.326 0 0 0-2.122.28zm-.197-.812c2.133-.864 4.172-.838 6.113.076 1.657.78 2.878 2.122 3.66 4.023.565 1.374.753 2.757.565 4.148a6.152 6.152 0 0 1-1.3 3.078c-.89 1.126-2.041 1.979-3.457 2.551-1.428.579-2.848.769-4.257.573a6.478 6.478 0 0 1-3.123-1.323c-1.097-.84-1.926-1.939-2.485-3.3-.595-1.448-.776-2.873-.55-4.279.205-1.271.77-2.412 1.688-3.43.802-.888 1.85-1.593 3.146-2.117zm-20.05 19.037-.664-4.701.854-.072c.408 1.064.865 1.878 1.371 2.444 1.035 1.142 2.288 1.653 3.752 1.529.955-.081 1.676-.417 2.17-1.01.422-.503.591-1.072.503-1.699a2.206 2.206 0 0 0-.921-1.528c-.413-.295-.804-.52-1.175-.67s-1.266-.448-2.68-.895c-1.908-.604-3.161-1.289-3.762-2.05-.482-.605-.771-1.252-.87-1.946-.165-1.169.172-2.158 1.015-2.972.731-.707 1.695-1.111 2.893-1.213 1.359-.114 2.614.263 3.771 1.126.223-.339.341-.696.354-1.082 0-.062.003-.105.007-.127l.793-.067.554 3.916-.784.067a5.847 5.847 0 0 0-1.565-2.186c-.816-.696-1.763-.997-2.837-.906-.798.067-1.389.334-1.767.797-.33.409-.457.88-.382 1.411.086.608.414 1.11.979 1.501.566.392 1.524.789 2.873 1.19 2.049.613 3.409 1.163 4.076 1.643.955.7 1.518 1.632 1.683 2.804.187 1.321-.188 2.427-1.127 3.311-.843.792-1.95 1.248-3.318 1.363-1.785.15-3.315-.318-4.6-1.407-.19.357-.304.81-.341 1.356l-.855.073zm-2.727-3.514.705-.002-.219 4.66-12.065.043-.001-.73.271-.002c.73-.002 1.201-.176 1.408-.515.203-.343.305-1.109.302-2.3l-.02-7.722c-.003-1.135-.104-1.865-.306-2.195-.197-.33-.635-.493-1.31-.491l-.181.001-.002-.73 10.719-.038.291 3.7-.715.002c-.229-.969-.517-1.661-.866-2.086-.275-.34-.595-.567-.954-.68-.364-.109-.969-.161-1.818-.158l-2.139.008.015 5.786 1.413-.005c.774-.002 1.287-.126 1.531-.373.248-.243.368-.754.367-1.536l-.001-.161.705-.002.012 5.012-.704.003v-.184c-.003-.819-.123-1.352-.356-1.601-.238-.252-.739-.375-1.507-.372l-1.458.005.009 3.529c.002.858.041 1.482.112 1.871.075.386.213.672.417.858.13.128.297.216.502.255.2.043.538.064 1.008.063l.815-.003c1.302-.026 2.213-.375 2.734-1.042.606-.777 1.033-1.733 1.286-2.868zm-25.81-7.904-.722-.098.578-3.746 13.857 1.874-.477 3.759-.699-.094c-.025-.664-.105-1.234-.239-1.717-.13-.483-.309-.834-.529-1.045a1.777 1.777 0 0 0-.658-.389c-.254-.082-.663-.165-1.221-.24l-1.863-.252-1.445 10.402c-.166 1.193-.168 1.975-.007 2.342.157.366.602.6 1.327.697l.565.076-.104.744-7.308-.988.103-.744.588.08c.733.099 1.225-.007 1.476-.312.251-.308.458-1.064.625-2.265l1.445-10.4-1.744-.236c-.655-.089-1.135-.119-1.449-.098-.314.024-.58.109-.793.256-.547.418-.983 1.215-1.306 2.394zm-4.334 4.084-.659-5.945-3.59 4.797 4.249 1.148zm.307 3.062-.245-2.283-4.776-1.291-.527.696c-.497.668-.806 1.096-.924 1.291a2.503 2.503 0 0 0-.289.686.986.986 0 0 0 .16.863c.189.277.464.465.825.563l.166.045-.193.697-4.143-1.12.193-.697.175.014c.482.055.915-.054 1.301-.334.384-.276.922-.873 1.611-1.782l.598-.786 6.649-8.858.654.178 1.334 12.22c.124 1.129.27 1.876.435 2.241.168.365.482.631.948.802l.11.041-.193.697-5.749-1.554.193-.697.155.042c.675.183 1.116.196 1.313.046.138-.102.228-.217.261-.339.06-.218.058-.579-.004-1.082l-.038-.299zm-15.833-13.77-.665-.258 1.428-3.441 12.77 4.964-1.335 3.478-.644-.251c.131-.639.189-1.201.174-1.692-.01-.49-.099-.866-.26-1.117a1.712 1.712 0 0 0-.536-.521c-.222-.138-.593-.31-1.107-.509l-1.717-.668-3.814 9.591c-.438 1.101-.623 1.845-.555 2.231.064.386.434.71 1.102.97l.521.203-.273.686-6.734-2.618.273-.687.542.211c.675.263 1.169.274 1.479.042.312-.236.687-.91 1.127-2.018l3.813-9.591-1.607-.625c-.603-.235-1.054-.374-1.358-.426a1.555 1.555 0 0 0-.816.063c-.621.272-1.223.931-1.808 1.983zm-15.698 2.791 2.6-3.963.743.454c-.38 1.051-.552 1.94-.519 2.672.078 1.482.755 2.616 2.027 3.395.829.509 1.639.682 2.437.526.679-.13 1.196-.462 1.543-.99.353-.537.443-1.108.273-1.708a5.214 5.214 0 0 0-.507-1.208c-.201-.335-.729-1.094-1.579-2.275-1.147-1.595-1.708-2.86-1.688-3.796.012-.747.208-1.41.593-1.995.646-.985 1.58-1.535 2.809-1.651 1.066-.101 2.119.167 3.159.803 1.181.723 1.95 1.757 2.312 3.101a2.257 2.257 0 0 0 1.01-.61.641.641 0 0 1 .091-.092l.688.421-2.166 3.302-.681-.417c.285-.884.345-1.749.187-2.591-.197-1.014-.765-1.807-1.699-2.378-.692-.424-1.35-.572-1.967-.446a1.91 1.91 0 0 0-1.252.842c-.337.514-.405 1.091-.207 1.725.198.633.712 1.507 1.539 2.613 1.254 1.688 1.993 2.914 2.214 3.675.31 1.101.144 2.142-.504 3.129-.731 1.115-1.773 1.729-3.127 1.842-1.212.101-2.417-.214-3.605-.941-1.551-.949-2.48-2.216-2.798-3.808-.393.158-.786.434-1.181.826l-.745-.457z"/>
  <path fill-rule="evenodd" clip-rule="evenodd" fill="#FEBA35" d="M198.496 93.592c.877 0 1.594.716 1.594 1.594s-.717 1.594-1.594 1.594c-.878 0-1.594-.717-1.594-1.594s.716-1.594 1.594-1.594z"/>
  <path fill="#FEBA35" d="m46.993 168.07-6.778 7.099c-.648.679-1.078 1.154-1.287 1.432a2.512 2.512 0 0 0-.429.829c-.097.349.125.775.664 1.279 1.25 1.171 2.378 1.724 3.38 1.659 1.541-.091 3.114-.976 4.715-2.651 1.839-1.926 2.683-3.742 2.537-5.448a4.096 4.096 0 0 0-.506-1.735c-.286-.507-.757-1.067-1.41-1.679a25.57 25.57 0 0 0-.886-.785zm-9.119 5.679 5.225-5.472c.814-.853 1.257-1.455 1.325-1.805s-.177-.784-.732-1.304l-.226-.211.503-.525c.273.241.803.687 1.592 1.346a59.066 59.066 0 0 1 1.736 1.511l.313.293c1.083 1.014 1.929 1.94 2.54 2.786.608.844 1.042 1.689 1.304 2.537a6.035 6.035 0 0 1 .121 3.192c-.323 1.313-1.002 2.516-2.042 3.604-1.247 1.305-2.636 2.096-4.169 2.375-1.608.293-3.175-.083-4.705-1.137-.567-.385-1.404-1.095-2.509-2.129l-4.207-3.938.5-.523.303.283c.513.48.958.668 1.335.563s.973-.588 1.793-1.446zm-2.631-4.294.431.532-3.731 2.681-7.384-9.114.563-.447.166.204c.447.552.868.803 1.255.752.388-.055 1.042-.447 1.959-1.175l5.951-4.729c.874-.695 1.376-1.218 1.508-1.572.134-.351-.006-.782-.419-1.292l-.111-.138.563-.447 6.56 8.097-2.68 2.48-.438-.541c.608-.764.969-1.405 1.083-1.929.096-.417.076-.797-.057-1.138-.138-.342-.465-.833-.985-1.474l-1.309-1.616-4.459 3.544.865 1.067c.474.585.881.897 1.22.932.339.039.807-.181 1.409-.66l.125-.099.431.533-3.862 3.069-.431-.532.141-.112c.631-.502.969-.918 1.018-1.247.05-.334-.16-.789-.629-1.369l-.892-1.101-2.719 2.161c-.662.526-1.12.936-1.377 1.228-.251.292-.388.571-.408.84a.924.924 0 0 0 .108.536c.088.178.278.446.566.803l.499.615c.813.97 1.638 1.447 2.47 1.436.97-.016 1.969-.276 3-.778zm-9.198-24.485-.352-.608 3.258-1.782 6.75 11.7-3.21 1.867-.34-.59c.502-.414.898-.812 1.195-1.202.299-.386.466-.73.5-1.023a1.7 1.7 0 0 0-.087-.734c-.085-.243-.264-.604-.536-1.076l-.908-1.573-8.956 5.068c-1.028.582-1.637 1.043-1.827 1.384-.192.338-.11.816.243 1.428l.276.478-.641.362-3.56-6.17.641-.362.286.496c.356.619.731.932 1.116.943.388.009 1.1-.281 2.133-.867l8.956-5.068-.85-1.473c-.319-.553-.579-.938-.782-1.166a1.544 1.544 0 0 0-.67-.454c-.646-.17-1.525-.031-2.635.422zm-1.28-3.606-7 2.833c-1.08.438-1.738.812-1.972 1.123-.232.305-.217.784.049 1.429l.124.3-.664.269-2.497-6.044.664-.269.116.28c.266.644.594.997.978 1.057.385.056 1.12-.133 2.2-.571l7-2.833c1.089-.441 1.733-.806 1.933-1.095.201-.286.156-.78-.132-1.476l-.091-.222.663-.268 2.497 6.044-.663.269-.1-.242c-.169-.409-.322-.694-.46-.858a.714.714 0 0 0-.49-.283c-.377-.044-1.093.142-2.155.557zm-13.86-4.186-.195-.737 9.833-12.239-8.673 2.261c-.687.194-1.102.321-1.248.381-.146.06-.281.147-.403.27-.219.225-.364.516-.434.877-.071.358-.054.734.049 1.121l.008.032.027.146-.701.183-1.312-4.938.701-.183.041.109c.122.375.303.701.546.978.243.275.5.448.766.517.151.042.336.042.549.009.217-.034.618-.127 1.203-.28l7.379-1.924c1.327-.354 2.097-.733 2.306-1.138.142-.247.125-.708-.048-1.387l-.027-.102.702-.183 1.086 4.09-8.189 10.27 7.32-1.908c.909-.252 1.437-.576 1.575-.967.205-.479.24-.983.104-1.526l-.057-.213.702-.183 1.293 4.868-.701.183-.052-.151c-.214-.608-.554-1.035-1.024-1.274-.302-.171-.883-.146-1.748.071l-11.378 2.967zm7.22-18.747-4.771.432-.813.074c-1.28.116-2.408-.045-3.39-.486a3.8 3.8 0 0 1-1.554-1.297c-.665-.958-1.055-2.057-1.17-3.303-.089-.963-.009-1.859.248-2.677.256-.822.662-1.512 1.223-2.069.348-.342.821-.627 1.423-.855s1.274-.375 2.016-.443l.051-.005a.513.513 0 0 0 .032-.003l1.028-.082 4.821-.438c1.175-.106 1.901-.27 2.183-.494.282-.224.389-.718.319-1.477l-.024-.254.72-.066.605 6.529-.719.065-.023-.243c-.042-.448-.104-.771-.188-.973a.712.712 0 0 0-.389-.413c-.351-.16-1.097-.193-2.246-.103l-4.948.449c-1.136.103-1.964.214-2.478.337-.518.119-.96.307-1.327.558-.408.286-.72.657-.932 1.121a4.056 4.056 0 0 0-.342 2.097c.082.874.375 1.642.877 2.301.502.658 1.13 1.1 1.884 1.321.337.096.692.147 1.06.146.373.002 1.051-.041 2.042-.131l4.904-.445c.903-.089 1.502-.241 1.796-.459.464-.302.681-.881.653-1.731l.001-.105.72-.065.445 4.796-.72.065-.026-.167c-.054-.352-.213-.692-.481-1.015-.303-.439-.94-.619-1.907-.546l-.603.054z"/>
  <path fill-rule="evenodd" clip-rule="evenodd" fill="#FEBA35" d="M13.208 98.104c.878 0 1.593.716 1.593 1.593s-.715 1.593-1.593 1.593c-.877 0-1.594-.715-1.594-1.593s.717-1.593 1.594-1.593z"/>
</svg>
