<svg xmlns="http://www.w3.org/2000/svg" xmlns:xlink="http://www.w3.org/1999/xlink" width="315.546" height="316.911" viewBox="0 0 338.795 340.261" version="1.0">
  <defs>
    <linearGradient id="a">
      <stop style="stop-color:#e95d0f;stop-opacity:1" offset="0"/>
      <stop offset=".806" style="stop-color:#e95d0f;stop-opacity:.09803922"/>
      <stop style="stop-color:#e95d0f;stop-opacity:0" offset="1"/>
    </linearGradient>
    <linearGradient xlink:href="#a" id="c" gradientUnits="userSpaceOnUse" gradientTransform="matrix(1 0 0 2.58571 0 -667.439)" x1="222.078" y1="327.769" x2="366.263" y2="327.769"/>
    <clipPath clipPathUnits="userSpaceOnUse" id="b">
      <path d="M298.146 391.111a3.696 3.696 0 0 0-1.077 5.108c1.106 1.712 3.389 2.19 5.107 1.083a3.697 3.697 0 0 0 1.077-5.108 3.692 3.692 0 0 0-5.107-1.083m26.258-15.633a3.685 3.685 0 0 0 .024-5.222c-1.423-1.449-3.756-1.464-5.214-.038a3.708 3.708 0 0 0-.038 5.228 3.703 3.703 0 0 0 5.228.032m16.816-24.702c1.162-1.683.72-3.977-.972-5.13a3.686 3.686 0 0 0-5.122.957 3.697 3.697 0 0 0 .954 5.136c1.686 1.15 3.995.726 5.14-.963m10.514-34.69a3.684 3.684 0 0 0-4.815 1.998c-.776 1.897.117 4.051 2.002 4.821a3.69 3.69 0 1 0 2.813-6.82m.705-27.23a3.677 3.677 0 0 0 2.93 4.317 3.688 3.688 0 0 0 4.318-2.933 3.677 3.677 0 0 0-2.93-4.314 3.683 3.683 0 0 0-4.318 2.93m3.018-34.84a3.681 3.681 0 0 0-3.609 3.767c.032 2.043 1.73 3.652 3.767 3.62 2.032-.047 3.644-1.733 3.615-3.773a3.702 3.702 0 0 0-3.773-3.615m-9.164-21.89a3.685 3.685 0 0 0 4.343 2.891 3.688 3.688 0 0 0 2.89-4.35c-.396-2.005-2.348-3.29-4.353-2.891a3.681 3.681 0 0 0-2.88 4.35m-5.34-22.466a3.69 3.69 0 0 0 2.058-4.792 3.697 3.697 0 0 0-4.794-2.069c-1.885.752-2.81 2.9-2.07 4.797a3.705 3.705 0 0 0 4.807 2.064m-16.538-26.46a3.693 3.693 0 0 0-4.074-6.161 3.695 3.695 0 0 0-1.037 5.116 3.69 3.69 0 0 0 5.11 1.045m-24.78-26.083a3.678 3.678 0 0 0-.06 5.213 3.685 3.685 0 0 0 5.218.067 3.7 3.7 0 0 0 .061-5.225 3.682 3.682 0 0 0-5.218-.055m-4.212 256.154a2.95 2.95 0 0 0-.85 4.092 2.943 2.943 0 0 0 4.081.849 2.926 2.926 0 0 0 .855-4.084c-.884-1.367-2.72-1.747-4.086-.857m25.315-20.566c-1.167 1.142-1.167 3.01-.023 4.174a2.963 2.963 0 0 0 4.18.033c1.162-1.142 1.168-3.015.03-4.18a2.964 2.964 0 0 0-4.187-.027m17.975-21.145a2.959 2.959 0 0 0 .677 4.119c1.323.954 3.181.653 4.124-.668a2.942 2.942 0 0 0-.676-4.12 2.964 2.964 0 0 0-4.125.67m20.578-30.831a2.966 2.966 0 0 0-3.902 1.496 2.957 2.957 0 0 0 1.513 3.896c1.484.673 3.226-.01 3.884-1.493a2.945 2.945 0 0 0-1.495-3.899m10.493-35.856a2.967 2.967 0 0 0-3.477 2.333c-.308 1.592.74 3.14 2.338 3.462a2.953 2.953 0 0 0 3.466-2.33c.322-1.6-.732-3.15-2.327-3.465m2.403-33.942a2.963 2.963 0 0 0-2.93 2.982c.024 1.63 1.364 2.948 2.992 2.925a2.953 2.953 0 1 0-.062-5.907m-3.056-26.95a2.949 2.949 0 0 0 2.277-3.497c-.324-1.596-1.905-2.617-3.5-2.278a2.936 2.936 0 0 0-2.272 3.498 2.938 2.938 0 0 0 3.495 2.278m-10.906-34.929a2.954 2.954 0 0 0-1.595 3.858 2.942 2.942 0 0 0 3.855 1.607 2.957 2.957 0 0 0-2.26-5.465m-12.484-23.284a2.964 2.964 0 0 0 .826-4.09 2.954 2.954 0 1 0-4.924 3.264 2.948 2.948 0 0 0 4.098.826m-19.277-24.605a2.958 2.958 0 0 0 .055-4.174 2.965 2.965 0 0 0-4.185-.056 2.951 2.951 0 0 0-.05 4.177 2.955 2.955 0 0 0 4.18.053m-24.078-20.987c.94-1.338.6-3.179-.74-4.11a2.947 2.947 0 0 0-4.107.747 2.937 2.937 0 0 0 .746 4.11c1.34.927 3.17.596 4.1-.747m-26.825 245.38c-2.673 1.709-3.454 5.277-1.742 7.973 1.712 2.666 5.28 3.45 7.959 1.744 2.678-1.718 3.471-5.28 1.747-7.961a5.77 5.77 0 0 0-7.964-1.756m20.486-16.342a5.788 5.788 0 0 0-.117 8.16 5.79 5.79 0 0 0 8.155.12 5.766 5.766 0 0 0 .117-8.154 5.763 5.763 0 0 0-8.155-.126m26.794-14.299a5.773 5.773 0 0 0-1.56-8.002 5.75 5.75 0 0 0-8 1.56c-1.785 2.634-1.083 6.211 1.563 8.002 2.635 1.771 6.212 1.072 7.997-1.56m9.68-31.143a5.752 5.752 0 0 0-7.564 3.035 5.775 5.775 0 0 0 3.047 7.566 5.764 5.764 0 0 0 7.558-3.035c1.244-2.93-.105-6.317-3.041-7.566m4.475-14.492a5.774 5.774 0 0 0 6.826-4.45 5.773 5.773 0 0 0-4.46-6.831 5.763 5.763 0 1 0-2.366 11.28m3.946-40.33a5.741 5.741 0 0 0-5.72 5.8c.01 3.182 2.611 5.743 5.799 5.723a5.785 5.785 0 0 0 5.737-5.804 5.78 5.78 0 0 0-5.816-5.72m-1.753-15.51a5.788 5.788 0 0 0 4.46-6.823 5.77 5.77 0 0 0-11.298 2.356c.662 3.12 3.712 5.105 6.838 4.467m-14.135-27.76c1.215 2.947 4.592 4.338 7.543 3.108a5.774 5.774 0 0 0 3.108-7.525c-1.238-2.939-4.604-4.332-7.54-3.112a5.758 5.758 0 0 0-3.111 7.529m-2.713-18.47a5.783 5.783 0 0 0 1.756-7.956 5.787 5.787 0 0 0-7.98-1.741 5.756 5.756 0 0 0-1.74 7.958 5.757 5.757 0 0 0 7.964 1.74m-17.021-23.034a5.778 5.778 0 0 0 .026-8.152c-2.242-2.26-5.889-2.27-8.16-.026a5.755 5.755 0 0 0-.033 8.137 5.772 5.772 0 0 0 8.167.041m-28.152-16.423c2.634 1.776 6.217 1.077 8.002-1.572 1.76-2.646 1.066-6.223-1.572-7.994-2.657-1.77-6.234-1.071-8.005 1.572a5.755 5.755 0 0 0 1.575 7.994m-2.014 194.586c-2.825 1.824-3.612 5.585-1.792 8.398 1.81 2.801 5.57 3.609 8.386 1.788a6.07 6.07 0 0 0 1.795-8.389c-1.833-2.807-5.576-3.614-8.39-1.797m23.642-6.401a6.076 6.076 0 0 0 .144-8.585 6.05 6.05 0 0 0-8.562-.152 6.054 6.054 0 0 0-.167 8.579 6.084 6.084 0 0 0 8.585.158m14.358-21.037c1.876-2.757 1.156-6.536-1.613-8.418a6.065 6.065 0 0 0-8.421 1.61 6.058 6.058 0 0 0 1.607 8.427c2.769 1.879 6.536 1.156 8.427-1.619m1.033-18.007a6.073 6.073 0 0 0 7.976-3.155 6.057 6.057 0 0 0-3.15-7.98c-3.067-1.337-6.65.074-7.967 3.144-1.34 3.074.073 6.645 3.14 7.991m12.889-25.453a6.068 6.068 0 0 0-4.56-7.26 6.056 6.056 0 0 0-7.263 4.56 6.057 6.057 0 0 0 4.56 7.266 6.066 6.066 0 0 0 7.263-4.566m-5.609-32.915c-3.345-.023-6.09 2.678-6.105 6.018a6.06 6.06 0 0 0 6.02 6.115 6.067 6.067 0 0 0 6.112-6.024 6.077 6.077 0 0 0-6.027-6.109m-3.63-11.483a6.06 6.06 0 0 0 4.757-7.139 6.073 6.073 0 0 0-7.133-4.756 6.068 6.068 0 0 0-4.762 7.136c.65 3.287 3.852 5.415 7.139 4.76m-15.426-24.175a6.055 6.055 0 0 0 7.898 3.325 6.043 6.043 0 0 0 3.325-7.906 6.044 6.044 0 0 0-7.898-3.325 6.058 6.058 0 0 0-3.325 7.906m-3.852-16.336a6.048 6.048 0 0 0 1.721-8.398c-1.838-2.792-5.61-3.57-8.4-1.727-2.79 1.844-3.571 5.611-1.724 8.404a6.055 6.055 0 0 0 8.403 1.721m-15.48-17.091c2.388-2.353 2.4-6.194.046-8.573-2.356-2.377-6.196-2.403-8.567-.05a6.07 6.07 0 0 0-.05 8.582 6.05 6.05 0 0 0 8.57.041m-27.212 164.538c-3.32 2.116-4.28 6.518-2.16 9.832a7.125 7.125 0 0 0 9.84 2.166 7.128 7.128 0 0 0 2.154-9.841c-2.116-3.308-6.512-4.277-9.834-2.157m24.288-1.54c2.801-2.769 2.83-7.277.056-10.072-2.766-2.798-7.277-2.824-10.066-.056a7.114 7.114 0 0 0-.053 10.072c2.757 2.793 7.268 2.816 10.063.056m13.081-15.598c2.233-3.25 1.39-7.678-1.853-9.9a7.113 7.113 0 0 0-9.893 1.856 7.114 7.114 0 0 0 1.841 9.897c3.26 2.218 7.68 1.396 9.905-1.853m1.379-15.745a7.125 7.125 0 0 0 9.305-3.866c1.49-3.636-.24-7.798-3.873-9.297-3.644-1.498-7.803.232-9.293 3.864a7.093 7.093 0 0 0 3.86 9.3m15.21-22.949a7.117 7.117 0 0 0-5.527-8.418c-3.855-.799-7.622 1.669-8.415 5.518a7.114 7.114 0 0 0 5.526 8.427 7.11 7.11 0 0 0 8.416-5.527m2.289-20.937a7.129 7.129 0 0 0-7.084-7.171c-3.922-.035-7.136 3.132-7.165 7.06-.027 3.934 3.132 7.142 7.054 7.177a7.134 7.134 0 0 0 7.195-7.066m-16.588-19.708a7.12 7.12 0 0 0 8.55 5.328 7.123 7.123 0 0 0 5.312-8.547 7.107 7.107 0 0 0-8.538-5.325c-3.828.887-6.223 4.722-5.324 8.544m-1.417-27.218c-3.606 1.56-5.28 5.74-3.711 9.349a7.118 7.118 0 0 0 9.358 3.723 7.125 7.125 0 0 0 3.717-9.36c-1.557-3.616-5.743-5.27-9.364-3.712m-11.614-5.576a7.115 7.115 0 0 0 9.84 2.099c3.296-2.149 4.242-6.557 2.102-9.853-2.142-3.304-6.562-4.244-9.843-2.096a7.105 7.105 0 0 0-2.1 9.85m-1.711-14.202a7.109 7.109 0 0 0-.018-10.07 7.117 7.117 0 0 0-10.07.021 7.128 7.128 0 0 0 .019 10.072c2.795 2.772 7.305 2.76 10.069-.023m-23.666-11.222c3.255 2.204 7.687 1.331 9.88-1.926a7.11 7.11 0 0 0-1.927-9.885c-3.263-2.198-7.695-1.332-9.873 1.926a7.112 7.112 0 0 0 1.92 9.885m-13.242 18.033c3.744 2.509 8.823 1.505 11.334-2.25 2.511-3.747 1.507-8.829-2.242-11.343a8.184 8.184 0 0 0-11.348 2.26c-2.512 3.75-1.499 8.825 2.256 11.333m29.69 5.506c-2.767-3.565-7.898-4.22-11.463-1.446-3.57 2.751-4.23 7.888-1.463 11.46 2.763 3.57 7.903 4.226 11.47 1.454 3.578-2.757 4.213-7.894 1.455-11.468m8.913 36.971c4.294-1.387 6.66-5.994 5.28-10.288a8.19 8.19 0 0 0-10.303-5.272 8.16 8.16 0 0 0-5.25 10.292c1.372 4.294 5.982 6.656 10.273 5.268m-4.05 64.08c2.478-3.774 1.422-8.835-2.357-11.311-3.776-2.48-8.854-1.42-11.316 2.356-2.48 3.776-1.425 8.849 2.353 11.32a8.173 8.173 0 0 0 11.32-2.366m-.352-15.648c4.291 1.396 8.907-.951 10.303-5.242 1.393-4.297-.954-8.907-5.242-10.306a8.177 8.177 0 0 0-10.312 5.248c-1.39 4.282.942 8.907 5.251 10.3m14.495-30.406c.111-4.52-3.478-8.257-7.976-8.36-4.514-.108-8.26 3.478-8.36 7.988a8.162 8.162 0 0 0 7.99 8.351c4.511.108 8.255-3.471 8.346-7.979m-33.04 66.848a8.173 8.173 0 0 0 1.346-11.489c-2.804-3.53-7.938-4.139-11.486-1.338a8.171 8.171 0 0 0-1.34 11.48c2.795 3.542 7.94 4.14 11.48 1.347M227 316.404c-5.011 1.619-7.762 6.987-6.144 11.998 1.613 5.003 6.981 7.757 11.98 6.141 5.017-1.613 7.769-6.99 6.15-11.986A9.524 9.524 0 0 0 227 316.404m27.48 1.648c3.918-3.53 4.226-9.557.704-13.455-3.527-3.908-9.55-4.227-13.461-.706-3.902 3.533-4.215 9.554-.688 13.459 3.521 3.913 9.545 4.223 13.444.702m-.143-17.828c4.759 2.23 10.435.196 12.668-4.575 2.242-4.76.202-10.438-4.566-12.669-4.76-2.242-10.435-.196-12.663 4.558-2.248 4.765-.19 10.44 4.56 12.686m5.91-41.74c-5.268-.056-9.577 4.162-9.62 9.428-.056 5.26 4.161 9.568 9.418 9.621 5.269.05 9.584-4.162 9.627-9.428.053-5.266-4.168-9.58-9.425-9.621m-4.665-4.493a9.513 9.513 0 0 0 4.683-12.627c-2.195-4.789-7.842-6.89-12.624-4.69-4.783 2.19-6.882 7.845-4.695 12.622 2.2 4.789 7.853 6.893 12.636 4.695m-14.02-19.348c3.4-4.016 2.897-10.028-1.116-13.423-4.019-3.401-10.028-2.904-13.426 1.118a9.509 9.509 0 0 0 1.12 13.423c4.008 3.405 10.023 2.901 13.421-1.118"/>
    </clipPath>
  </defs>
  <path transform="translate(-30.09 -99.493) scale(.97649)" clip-path="url(#b)" style="fill:url(#c);fill-opacity:1;fill-rule:nonzero" d="M216.938 132.877h154.784v288.031H216.938z"/>
  <path d="M279.679 148.651a3.611 3.611 0 0 1-5.02.906c-1.629-1.137-2.043-3.381-.917-5.013 1.152-1.643 3.396-2.047 5.025-.915a3.6 3.6 0 0 1 .912 5.022m-58.951 75.823c-1.378 4.95-6.523 7.846-11.467 6.454-4.954-1.378-7.835-6.514-6.451-11.467 1.366-4.945 6.51-7.832 11.461-6.451 4.942 1.377 7.837 6.517 6.457 11.464M199.137 329.07c.469-5.118 4.99-8.891 10.104-8.428a9.293 9.293 0 0 1 8.428 10.104c-.457 5.11-4.979 8.886-10.098 8.417-5.122-.451-8.892-4.982-8.434-10.092m-20.067-6.428c2.392-4.548 8.028-6.283 12.573-3.888a9.307 9.307 0 0 1 3.881 12.574c-2.392 4.541-8.029 6.276-12.573 3.881-4.54-2.398-6.28-8.029-3.882-12.567m-16.609-14.397a9.298 9.298 0 0 1 13.068 1.48 9.301 9.301 0 0 1-1.478 13.077c-4.016 3.2-9.875 2.532-13.08-1.49-3.197-4.012-2.526-9.869 1.49-13.067m-9.406-19.716c4.959-1.335 10.063 1.609 11.404 6.568a9.321 9.321 0 0 1-6.588 11.404c-4.96 1.332-10.058-1.618-11.402-6.588-1.323-4.95 1.627-10.055 6.586-11.384m-.912-20.942c5.096.665 8.683 5.339 8.012 10.438a9.299 9.299 0 0 1-10.442 7.994c-5.096-.666-8.686-5.35-8.011-10.438.674-5.09 5.356-8.675 10.44-7.994m7.627-20.397c4.407 2.641 5.842 8.35 3.198 12.768-2.644 4.402-8.355 5.834-12.762 3.184-4.404-2.635-5.834-8.355-3.201-12.76 2.644-4.4 8.36-5.827 12.765-3.192m15.1-15.674c2.998 4.17 2.038 9.984-2.141 12.979a9.289 9.289 0 0 1-12.977-2.15c-2.998-4.164-2.037-9.977 2.138-12.967 4.162-2.998 9.984-2.04 12.98 2.138m22.525-8.812c.86 5.073-2.552 9.878-7.62 10.738a9.306 9.306 0 0 1-10.718-7.634c-.858-5.065 2.555-9.867 7.623-10.718 5.056-.86 9.864 2.555 10.715 7.614m15.863 130.941a7.984 7.984 0 0 1-7.988 7.983c-4.405 0-7.975-3.573-7.975-7.983 0-4.402 3.57-7.98 7.975-7.98 4.413 0 7.988 3.578 7.988 7.98m24.098-6.586c1.398 4.182-.86 8.71-5.039 10.098-4.182 1.39-8.703-.866-10.098-5.047a7.979 7.979 0 0 1 5.045-10.098c4.187-1.395 8.703.86 10.092 5.047M196.81 198.907c.135-4.407 3.819-7.863 8.229-7.725a7.978 7.978 0 0 1 7.726 8.234c-.14 4.407-3.836 7.863-8.229 7.717-4.407-.128-7.869-3.821-7.726-8.226m23.612.672c1.4-4.179 5.936-6.428 10.115-5.025a7.98 7.98 0 0 1 5.02 10.113 7.975 7.975 0 0 1-10.105 5.024 7.988 7.988 0 0 1-5.03-10.112m-47.155 5.962c-1.303-4.21 1.052-8.68 5.26-9.98a7.99 7.99 0 0 1 9.989 5.264 7.98 7.98 0 0 1-5.27 9.987 7.97 7.97 0 0 1-9.979-5.27m-21.548 14.731a7.972 7.972 0 0 1 1.563-11.182 7.982 7.982 0 0 1 11.176 1.555c2.655 3.524 1.958 8.532-1.563 11.184-3.516 2.661-8.524 1.967-11.176-1.557m-22.597 40.632c-4.162-1.458-6.36-6.008-4.905-10.172 1.46-4.162 6.008-6.346 10.175-4.9 4.16 1.458 6.357 6.011 4.894 10.176-1.45 4.156-6 6.345-10.164 4.896m7.723-22.44c-3.639-2.49-4.556-7.46-2.061-11.098 2.498-3.633 7.468-4.556 11.093-2.055 3.644 2.49 4.564 7.462 2.063 11.098-2.49 3.633-7.46 4.553-11.095 2.055m-9.078 46.412a7.987 7.987 0 0 1-7.691-8.266c.168-4.407 3.87-7.852 8.268-7.689 4.408.155 7.843 3.856 7.695 8.263-.158 4.405-3.859 7.85-8.272 7.692m6.317 23.717c-4.236 1.24-8.672-1.174-9.91-5.41-1.243-4.225 1.184-8.666 5.408-9.91 4.216-1.243 8.669 1.18 9.9 5.414a7.977 7.977 0 0 1-5.398 9.906m13.813 20.56c-3.564 2.598-8.557 1.829-11.167-1.727-2.598-3.555-1.829-8.554 1.724-11.158 3.553-2.61 8.549-1.84 11.161 1.715a8.008 8.008 0 0 1-1.718 11.17m38.738 23.14c-1.526 4.136-6.1 6.268-10.247 4.75-4.13-1.512-6.268-6.096-4.747-10.238 1.517-4.139 6.105-6.268 10.24-4.753 4.137 1.515 6.263 6.1 4.754 10.24m-20.165-8.199A7.987 7.987 0 0 1 155.337 346c-3.592-2.55-4.447-7.534-1.903-11.13a7.983 7.983 0 0 1 11.13-1.898c3.595 2.544 4.45 7.529 1.906 11.122m45.757-165.566a6.955 6.955 0 0 1-6.96 6.957c-3.832 0-6.942-3.112-6.942-6.957 0-3.838 3.11-6.954 6.943-6.954a6.956 6.956 0 0 1 6.96 6.954m18.964 3.307a6.95 6.95 0 0 1-8.175 5.454 6.956 6.956 0 0 1-5.456-8.178 6.95 6.95 0 1 1 13.63 2.724m17.07 6.5a6.95 6.95 0 0 1-9.052 3.841c-3.564-1.435-5.282-5.49-3.847-9.052 1.438-3.561 5.482-5.276 9.052-3.847a6.97 6.97 0 0 1 3.847 9.058m-140.899 81.319c3.847-.034 6.971 3.055 7.009 6.903a6.954 6.954 0 1 1-7.008-6.903m3.16-18.996a6.962 6.962 0 0 1 5.52 8.14 6.948 6.948 0 0 1-8.135 5.517 6.95 6.95 0 0 1-5.522-8.135 6.947 6.947 0 0 1 8.137-5.522m6.383-17.106a6.945 6.945 0 0 1 3.896 9.02c-1.407 3.573-5.451 5.322-9.021 3.908a6.94 6.94 0 0 1-3.902-9.018c1.401-3.573 5.445-5.325 9.027-3.91m10.741-17.347a6.97 6.97 0 0 1 1.955 9.635 6.953 6.953 0 0 1-9.64 1.953 6.947 6.947 0 0 1-1.956-9.63c2.118-3.21 6.431-4.079 9.641-1.958m12.736-13.553a6.952 6.952 0 0 1 .097 9.829 6.962 6.962 0 0 1-9.838.094 6.959 6.959 0 0 1-.097-9.835 6.954 6.954 0 0 1 9.838-.088m15.827-11.41c2.109 3.207 1.237 7.522-1.976 9.638a6.95 6.95 0 0 1-9.63-1.973 6.954 6.954 0 0 1 1.97-9.635c3.198-2.112 7.509-1.232 9.635 1.97m16.115-7.357a6.957 6.957 0 0 1-3.57 9.166c-3.51 1.543-7.614-.046-9.155-3.561a6.953 6.953 0 0 1 3.553-9.164c3.51-1.55 7.614.046 9.172 3.559m18.981-4.356a6.955 6.955 0 0 1-5.139 8.383 6.948 6.948 0 0 1-8.383-5.136 6.948 6.948 0 0 1 5.13-8.38 6.957 6.957 0 0 1 8.392 5.133m7.183 194.256a6.943 6.943 0 0 1 6.911-7c3.836-.031 6.963 3.064 7.003 6.9.014 3.841-3.076 6.98-6.911 7.002a6.956 6.956 0 0 1-7.003-6.902m-18.993-3.167c.726-3.77 4.376-6.237 8.149-5.514a6.955 6.955 0 1 1-8.149 5.514m-17.106-6.383a6.97 6.97 0 0 1 9.023-3.915c3.57 1.423 5.325 5.459 3.913 9.037a6.95 6.95 0 0 1-9.023 3.896c-3.57-1.412-5.331-5.45-3.913-9.018m-17.341-10.749a6.957 6.957 0 0 1 9.646-1.953c3.199 2.118 4.07 6.437 1.944 9.636-2.112 3.2-6.434 4.07-9.635 1.952a6.956 6.956 0 0 1-1.955-9.635m-13.542-12.751c2.675-2.735 7.08-2.78 9.815-.091 2.755 2.69 2.784 7.09.103 9.832-2.693 2.735-7.092 2.787-9.833.094a6.948 6.948 0 0 1-.085-9.835m-11.402-15.829c3.204-2.118 7.52-1.229 9.635 1.972a6.958 6.958 0 0 1-1.972 9.636c-3.21 2.112-7.523 1.231-9.635-1.978a6.96 6.96 0 0 1 1.972-9.63m-7.351-16.117c3.521-1.547 7.623.054 9.155 3.564a6.933 6.933 0 0 1-3.565 9.166c-3.504 1.547-7.608-.054-9.143-3.57a6.936 6.936 0 0 1 3.553-9.16m-4.345-18.987c3.733-.898 7.483 1.409 8.378 5.139a6.944 6.944 0 0 1-5.14 8.38 6.933 6.933 0 0 1-8.377-5.136 6.95 6.95 0 0 1 5.14-8.383m127.905 79.058c-1.487-3.533.168-7.614 3.712-9.115a6.953 6.953 0 0 1 9.101 3.71c1.492 3.533-.169 7.617-3.696 9.115-3.535 1.486-7.614-.172-9.117-3.71m-19.036 4.073c-.838-3.747 1.515-7.466 5.259-8.3a6.938 6.938 0 0 1 8.3 5.265c.85 3.741-1.509 7.457-5.259 8.3-3.744.837-7.448-1.515-8.3-5.265M198.325 162.05a5.918 5.918 0 0 1-5.925 5.92 5.918 5.918 0 0 1-5.925-5.92 5.92 5.92 0 0 1 5.925-5.925 5.92 5.92 0 0 1 5.925 5.926m26.49 1.655a5.911 5.911 0 0 1-7.123 4.393 5.922 5.922 0 0 1-4.41-7.126 5.937 5.937 0 0 1 7.14-4.399 5.92 5.92 0 0 1 4.393 7.131m20.568 5.748a5.905 5.905 0 0 1-7.809 2.99c-2.992-1.332-4.327-4.845-3.004-7.826a5.933 5.933 0 0 1 7.832-2.99 5.913 5.913 0 0 1 2.98 7.826m18.262 8.935c-1.835 2.707-5.514 3.401-8.223 1.56a5.917 5.917 0 0 1-1.552-8.23c1.835-2.7 5.53-3.4 8.229-1.559a5.91 5.91 0 0 1 1.546 8.23M253.246 379.47c-1.235-3.036.22-6.497 3.244-7.723 3.024-1.244 6.49.22 7.723 3.255a5.933 5.933 0 0 1-3.25 7.726 5.94 5.94 0 0 1-7.717-3.258m-20.659 7.417c-.632-3.213 1.454-6.334 4.664-6.963a5.913 5.913 0 0 1 6.954 4.67 5.92 5.92 0 0 1-4.664 6.952 5.92 5.92 0 0 1-6.954-4.66m-21.237 3.294a5.934 5.934 0 0 1 5.89-5.96 5.916 5.916 0 0 1 5.957 5.888c.026 3.276-2.62 5.937-5.896 5.962a5.927 5.927 0 0 1-5.951-5.89m-25.407-1.31c.718-3.198 3.879-5.219 7.069-4.507 3.192.697 5.204 3.867 4.496 7.063-.698 3.192-3.865 5.204-7.057 4.501a5.923 5.923 0 0 1-4.508-7.057m-18.627-4.701c1.24-3.036 4.685-4.5 7.72-3.267a5.93 5.93 0 0 1 3.264 7.714 5.927 5.927 0 0 1-7.72 3.267c-3.027-1.238-4.49-4.69-3.264-7.714m-24.395-11.793a5.92 5.92 0 0 1 8.27-1.358 5.913 5.913 0 0 1 1.351 8.266 5.93 5.93 0 0 1-8.269 1.355c-2.652-1.912-3.258-5.614-1.352-8.263m-15.663-12.065a5.94 5.94 0 0 1 8.39.1 5.932 5.932 0 0 1-.104 8.372 5.93 5.93 0 0 1-8.383-.092 5.927 5.927 0 0 1 .097-8.38M112.441 343.8c2.741-1.787 6.414-1.024 8.198 1.711 1.803 2.73 1.046 6.411-1.701 8.189a5.914 5.914 0 0 1-8.203-1.698 5.927 5.927 0 0 1 1.706-8.203m-10.538-17.384c3.018-1.277 6.505.123 7.769 3.139 1.292 3.01-.118 6.488-3.127 7.766a5.939 5.939 0 0 1-7.772-3.133c-1.28-3.013.132-6.488 3.13-7.772m-7.048-18.184c3.184-.743 6.382 1.232 7.122 4.416a5.91 5.91 0 0 1-4.419 7.117 5.913 5.913 0 0 1-7.117-4.407 5.933 5.933 0 0 1 4.414-7.126m-4.353-24.446c3.28-.043 5.973 2.575 6.005 5.85.048 3.265-2.573 5.952-5.848 5.995a5.93 5.93 0 0 1-6.005-5.846c-.029-3.275 2.583-5.953 5.848-5.999m.908-23.872c3.21.643 5.297 3.759 4.654 6.963-.638 3.21-3.77 5.29-6.974 4.656a5.925 5.925 0 0 1-4.645-6.963c.629-3.204 3.756-5.29 6.965-4.656m5.482-22.153c3.016 1.262 4.436 4.744 3.173 7.76a5.915 5.915 0 0 1-7.754 3.166 5.926 5.926 0 0 1-3.173-7.754c1.263-3.016 4.73-4.43 7.754-3.173m9.918-20.882a5.925 5.925 0 0 1 1.561 8.237c-1.852 2.696-5.536 3.399-8.24 1.547a5.937 5.937 0 0 1-1.55-8.235 5.929 5.929 0 0 1 8.23-1.549m14.388-18.944c2.266 2.37 2.186 6.122-.186 8.377-2.358 2.255-6.114 2.181-8.369-.186a5.926 5.926 0 0 1 .183-8.374 5.928 5.928 0 0 1 8.372.183m15.711-13.911c1.784 2.74 1.015 6.414-1.72 8.2-2.727 1.79-6.405 1.023-8.203-1.712-1.784-2.741-1.004-6.417 1.718-8.209a5.94 5.94 0 0 1 8.205 1.72m17.881-10.758a5.918 5.918 0 0 1-3.186 7.752 5.904 5.904 0 0 1-7.74-3.178 5.923 5.923 0 0 1 3.172-7.755 5.93 5.93 0 0 1 7.754 3.181m21.163-7.76a5.919 5.919 0 0 1-4.65 6.98c-3.187.646-6.332-1.426-6.966-4.639a5.933 5.933 0 0 1 4.645-6.977 5.923 5.923 0 0 1 6.97 4.636m7.955-20.545c.606 3.059-1.36 6.026-4.413 6.631a5.635 5.635 0 0 1-6.631-4.398 5.65 5.65 0 0 1 4.419-6.637 5.636 5.636 0 0 1 6.625 4.404m27.136-1.546c-.034 3.113-2.567 5.62-5.668 5.59-3.112-.016-5.625-2.56-5.596-5.658a5.625 5.625 0 0 1 5.668-5.594 5.643 5.643 0 0 1 5.596 5.662m30.786 5.071a5.633 5.633 0 0 1-6.814 4.113 5.62 5.62 0 0 1-4.113-6.809 5.625 5.625 0 0 1 6.811-4.118c3.016.746 4.85 3.795 4.116 6.814m21.025 8.04c-1.255 2.852-4.567 4.156-7.411 2.915a5.634 5.634 0 0 1-2.91-7.414 5.62 5.62 0 0 1 7.406-2.907 5.628 5.628 0 0 1 2.915 7.406m-13.248 244.764c-1.157-2.887.249-6.171 3.121-7.323a5.631 5.631 0 0 1 7.326 3.132 5.64 5.64 0 0 1-3.13 7.323 5.646 5.646 0 0 1-7.317-3.132m-24.175 6.13c-.588-3.06 1.395-6.016 4.442-6.614a5.641 5.641 0 0 1 6.608 4.44 5.63 5.63 0 0 1-4.444 6.608 5.635 5.635 0 0 1-6.606-4.434m-28.333 1.341c.066-3.116 2.635-5.585 5.736-5.514 3.113.066 5.577 2.639 5.5 5.743a5.616 5.616 0 0 1-5.728 5.51c-3.11-.074-5.58-2.638-5.508-5.74m-25.359-3.995a5.637 5.637 0 0 1 6.703-4.307c3.03.66 4.965 3.655 4.299 6.69a5.621 5.621 0 0 1-6.691 4.308 5.648 5.648 0 0 1-4.31-6.69m-24.998-9.23a5.645 5.645 0 0 1 7.428-2.884c2.838 1.249 4.125 4.576 2.876 7.42a5.64 5.64 0 0 1-7.423 2.887c-2.838-1.266-4.136-4.582-2.881-7.423m-25.341-16.155a5.63 5.63 0 0 1 7.88-1.146 5.627 5.627 0 0 1 1.123 7.88 5.62 5.62 0 0 1-7.871 1.144 5.63 5.63 0 0 1-1.132-7.878m-15.223-14.445c2.246-2.17 5.805-2.115 7.969.103 2.163 2.235 2.115 5.8-.115 7.963a5.625 5.625 0 0 1-7.963-.12c-2.158-2.221-2.115-5.785.109-7.946m-15.074-20.408c2.612-1.7 6.099-.975 7.8 1.62a5.63 5.63 0 0 1-1.624 7.792 5.625 5.625 0 0 1-7.794-1.632c-1.7-2.59-.97-6.08 1.618-7.78m-9.667-19.605a5.63 5.63 0 0 1 7.423 2.876c1.246 2.841-.034 6.168-2.884 7.414a5.616 5.616 0 0 1-7.423-2.88c-1.246-2.842.04-6.163 2.884-7.41m-7.211-25.4c3.047-.66 6.05 1.254 6.714 4.29a5.63 5.63 0 0 1-4.293 6.7 5.634 5.634 0 0 1-6.714-4.3c-.65-3.029 1.263-6.027 4.293-6.69m-2.004-27.57c3.104-.01 5.645 2.472 5.674 5.584a5.622 5.622 0 0 1-5.588 5.668 5.622 5.622 0 0 1-5.668-5.58c-.014-3.109 2.475-5.65 5.582-5.673m3.613-26.873a5.63 5.63 0 0 1 4.425 6.617 5.626 5.626 0 0 1-6.623 4.413 5.616 5.616 0 0 1-4.419-6.622 5.634 5.634 0 0 1 6.617-4.408m8.369-24.22c2.878 1.189 4.253 4.473 3.07 7.337-1.184 2.875-4.47 4.253-7.34 3.067a5.633 5.633 0 0 1-3.081-7.349c1.2-2.867 4.475-4.236 7.35-3.055m13.037-22.42c2.584 1.732 3.304 5.21 1.587 7.808a5.63 5.63 0 0 1-7.803 1.572 5.62 5.62 0 0 1-1.581-7.803c1.715-2.586 5.21-3.284 7.797-1.577m19.739-21.808a5.62 5.62 0 0 1-.169 7.951 5.62 5.62 0 0 1-7.954-.177 5.618 5.618 0 0 1 .183-7.96c2.246-2.138 5.8-2.064 7.94.186m18.962-13.98a5.636 5.636 0 0 1-1.575 7.8c-2.596 1.718-6.094 1.012-7.806-1.58a5.631 5.631 0 0 1 1.575-7.8 5.64 5.64 0 0 1 7.806 1.58m22.985-11.121a5.628 5.628 0 0 1-3.035 7.36 5.64 5.64 0 0 1-7.351-3.042 5.62 5.62 0 0 1 3.046-7.362 5.62 5.62 0 0 1 7.34 3.044m34.765-22.697a3.608 3.608 0 1 1-7.217 0 3.605 3.605 0 0 1 3.61-3.605 3.603 3.603 0 0 1 3.607 3.604m13.696-15.963a2.884 2.884 0 0 1-2.883 2.881 2.882 2.882 0 1 1 0-5.762 2.884 2.884 0 0 1 2.883 2.881m38.535 5.188a2.885 2.885 0 0 1-3.484 2.124 2.877 2.877 0 0 1-2.112-3.49c.368-1.544 1.937-2.49 3.487-2.124a2.893 2.893 0 0 1 2.109 3.49m29.634 10.813a2.877 2.877 0 0 1-3.83 1.412 2.876 2.876 0 0 1-1.406-3.833 2.879 2.879 0 0 1 3.821-1.41c1.444.67 2.087 2.384 1.415 3.83m-13.422 300.237a2.88 2.88 0 1 1 5.368-2.092 2.881 2.881 0 1 1-5.368 2.092m-29.82 8.023a2.887 2.887 0 0 1 2.298-3.367c1.575-.286 3.084.746 3.364 2.312a2.871 2.871 0 0 1-2.306 3.364 2.884 2.884 0 0 1-3.356-2.31m-33.921 2.165c.045-1.598 1.369-2.859 2.955-2.816a2.884 2.884 0 0 1 2.807 2.961 2.864 2.864 0 0 1-2.95 2.81 2.893 2.893 0 0 1-2.812-2.956m-34.116-5.03c.383-1.55 1.946-2.504 3.484-2.127a2.897 2.897 0 0 1 2.127 3.482c-.378 1.543-1.935 2.504-3.479 2.13a2.896 2.896 0 0 1-2.132-3.485m-30.168-11.041a2.875 2.875 0 0 1 3.82-1.398 2.879 2.879 0 0 1 1.41 3.827 2.869 2.869 0 0 1-3.83 1.404 2.887 2.887 0 0 1-1.4-3.833M105.001 405.2a2.882 2.882 0 0 1 4.039-.575 2.904 2.904 0 0 1 .563 4.041 2.864 2.864 0 0 1-4.033.572 2.885 2.885 0 0 1-.569-4.039m-21.219-19.687a2.878 2.878 0 0 1 4.076.154c1.083 1.175 1.02 2.996-.149 4.07a2.87 2.87 0 0 1-4.076-.145 2.884 2.884 0 0 1 .149-4.079m-17.015-22.497a2.875 2.875 0 0 1 3.984.857 2.872 2.872 0 0 1-.846 3.98 2.878 2.878 0 0 1-3.987-.844 2.887 2.887 0 0 1 .849-3.993M54.98 340.564a2.875 2.875 0 0 1 3.81 1.449c.648 1.463 0 3.172-1.455 3.81a2.889 2.889 0 0 1-3.822-1.452 2.897 2.897 0 0 1 1.467-3.807m-9.401-29.197a2.897 2.897 0 0 1 3.475 2.138c.355 1.563-.597 3.112-2.146 3.475a2.868 2.868 0 0 1-3.47-2.149 2.883 2.883 0 0 1 2.14-3.464m-3.846-35.997a2.866 2.866 0 0 1 2.915 2.85c.006 1.595-1.269 2.898-2.855 2.907a2.87 2.87 0 0 1-2.916-2.85 2.871 2.871 0 0 1 2.856-2.907m3.001-30.402a2.872 2.872 0 0 1 2.326 3.34c-.283 1.57-1.78 2.616-3.338 2.333a2.87 2.87 0 0 1-2.332-3.35 2.871 2.871 0 0 1 3.344-2.323m9.964-32.587a2.881 2.881 0 0 1 1.586 3.75 2.884 2.884 0 0 1-3.762 1.583 2.88 2.88 0 1 1 2.176-5.333m16.194-29.374a2.854 2.854 0 0 1 .775 3.999c-.89 1.329-2.681 1.683-3.987.777a2.868 2.868 0 0 1-.792-3.996 2.893 2.893 0 0 1 4.004-.78m21.894-25.478a2.867 2.867 0 0 1-.045 4.073c-1.155 1.115-2.982 1.086-4.076-.054a2.868 2.868 0 0 1 .048-4.076 2.878 2.878 0 0 1 4.073.057m25.175-19.539a2.882 2.882 0 0 1-.837 3.99c-1.346.866-3.133.489-3.984-.843a2.872 2.872 0 0 1 .834-3.993 2.878 2.878 0 0 1 3.987.846m29.612-14.705a2.876 2.876 0 0 1-1.627 3.738 2.868 2.868 0 0 1-3.727-1.632 2.877 2.877 0 0 1 1.62-3.741 2.883 2.883 0 0 1 3.734 1.635m27.301-7.629a2.877 2.877 0 0 1-2.25 3.398c-1.565.312-3.089-.694-3.395-2.252a2.87 2.87 0 0 1 2.255-3.401 2.876 2.876 0 0 1 3.39 2.255m52.02 14.365a3.6 3.6 0 0 1-4.322 2.71 3.604 3.604 0 1 1 4.322-2.71m29.711 7.675a3.608 3.608 0 0 1-6.551-3.027 3.606 3.606 0 0 1 4.79-1.76c1.815.837 2.584 2.98 1.761 4.787m14.857 270.387a3.585 3.585 0 0 1 1.978-4.699c1.824-.757 3.933.126 4.69 1.967a3.622 3.622 0 0 1-1.96 4.707 3.614 3.614 0 0 1-4.708-1.975m-26.693 10.347a3.598 3.598 0 0 1 2.827-4.247 3.61 3.61 0 0 1 4.236 2.844 3.585 3.585 0 0 1-2.824 4.233c-1.96.389-3.864-.883-4.239-2.83m-30.606 5.16a3.595 3.595 0 0 1 3.65-3.556 3.597 3.597 0 0 1 3.547 3.661 3.59 3.59 0 0 1-3.65 3.55 3.596 3.596 0 0 1-3.547-3.656m-32.257-1.535a3.603 3.603 0 0 1 4.336-2.675 3.602 3.602 0 0 1 2.666 4.342 3.589 3.589 0 0 1-4.344 2.666c-1.93-.457-3.116-2.398-2.658-4.333m-25.875-6.536c.8-1.821 2.937-2.65 4.767-1.855a3.624 3.624 0 0 1 1.837 4.759 3.603 3.603 0 0 1-4.753 1.846 3.617 3.617 0 0 1-1.852-4.75m-29.134-13.991a3.607 3.607 0 0 1 5.04-.77 3.583 3.583 0 0 1 .757 5.034 3.584 3.584 0 0 1-5.025.78 3.61 3.61 0 0 1-.772-5.044m-22.471-17.193a3.62 3.62 0 0 1 5.102.21 3.605 3.605 0 0 1-.212 5.092 3.61 3.61 0 0 1-5.09-.2 3.61 3.61 0 0 1 .2-5.102m-17.181-19.007a3.613 3.613 0 0 1 4.985 1.08 3.59 3.59 0 0 1-1.1 4.977 3.589 3.589 0 0 1-4.97-1.075 3.593 3.593 0 0 1 1.085-4.982M73.901 344.23a3.61 3.61 0 0 1 4.736 1.91 3.584 3.584 0 0 1-1.906 4.716 3.62 3.62 0 0 1-4.734-1.892c-.771-1.835.078-3.956 1.904-4.733m-10.207-25.013a3.605 3.605 0 0 1 4.31 2.733c.44 1.94-.794 3.867-2.74 4.299a3.608 3.608 0 0 1-4.302-2.738 3.605 3.605 0 0 1 2.732-4.294m-5.974-31.68a3.598 3.598 0 0 1 3.608 3.607 3.604 3.604 0 0 1-3.607 3.601 3.614 3.614 0 0 1-3.607-3.598 3.615 3.615 0 0 1 3.607-3.61m.491-27.956a3.6 3.6 0 0 1 2.864 4.218c-.374 1.953-2.272 3.239-4.216 2.859a3.606 3.606 0 0 1-2.866-4.213 3.6 3.6 0 0 1 4.218-2.864m6.234-28.914a3.59 3.59 0 0 1 1.966 4.699 3.601 3.601 0 0 1-4.707 1.966 3.602 3.602 0 0 1-1.964-4.696 3.611 3.611 0 0 1 4.705-1.97m11.83-27.001a3.618 3.618 0 0 1 .998 5 3.61 3.61 0 0 1-5.002.994c-1.658-1.112-2.11-3.35-.998-5.002a3.612 3.612 0 0 1 5.002-.992m18.393-25.761c1.386 1.426 1.335 3.71-.097 5.102a3.599 3.599 0 0 1-5.097-.109 3.596 3.596 0 0 1 .095-5.087 3.612 3.612 0 0 1 5.099.094m21.511-19.81a3.592 3.592 0 0 1-1.1 4.973c-1.684 1.075-3.913.578-4.965-1.095a3.604 3.604 0 0 1 1.083-4.979 3.61 3.61 0 0 1 4.982 1.1m23.489-14.456c.751 1.844-.155 3.939-2.001 4.685-1.835.746-3.944-.163-4.682-2.01a3.603 3.603 0 0 1 2.007-4.684 3.602 3.602 0 0 1 4.676 2.009m27.127-10.21a3.597 3.597 0 1 1-7.074 1.318 3.584 3.584 0 0 1 2.867-4.199c1.958-.363 3.853.93 4.207 2.881" style="fill:#e95d0f;fill-opacity:1;fill-rule:nonzero;stroke:none" transform="translate(-34.893 -105.985)"/>
  <path d="m227.582 286.953 13.146 1.535c-2.073 7.251-5.913 12.879-11.52 16.882-5.608 4.004-12.77 6.006-21.487 6.006-10.98 0-19.685-3.192-26.116-9.576-6.432-6.383-9.648-15.336-9.648-26.858 0-11.921 3.251-21.174 9.754-27.758 6.502-6.584 14.937-9.876 25.303-9.876 10.036 0 18.235 3.225 24.596 9.676 6.362 6.45 9.542 15.525 9.542 27.225 0 .711-.023 1.779-.07 3.202h-55.979c.471 7.785 2.804 13.746 6.998 17.883 4.193 4.138 9.423 6.206 15.69 6.206 4.665 0 8.647-1.157 11.945-3.47 3.299-2.313 5.914-6.005 7.846-11.077zm-41.772-19.417h41.913c-.565-5.961-2.168-10.432-4.806-13.412-4.053-4.627-9.306-6.94-15.762-6.94-5.843 0-10.755 1.846-14.736 5.538-3.982 3.693-6.185 8.63-6.609 14.814zm71.597 42.238V238.91h11.45v10.743c2.921-5.027 5.619-8.341 8.093-9.943 2.473-1.601 5.195-2.402 8.163-2.402 4.288 0 8.647 1.29 13.076 3.87l-4.382 11.144c-3.11-1.735-6.22-2.602-9.33-2.602-2.78 0-5.277.79-7.492 2.368-2.215 1.58-3.793 3.77-4.736 6.573-1.413 4.27-2.12 8.942-2.12 14.013v37.1h-12.722z" style="font-size:11.48947048px;fill:#fff;stroke:#fff;stroke-width:2.71288204;stroke-miterlimit:4;stroke-opacity:1" transform="translate(-34.893 -105.985)"/>
  <path d="m355.69 285.944 12.623 1.603c-1.379 8.5-4.909 15.154-10.59 19.961-5.681 4.808-12.658 7.212-20.931 7.212-10.364 0-18.696-3.31-24.996-9.929-6.3-6.619-9.45-16.106-9.45-28.462 0-7.99 1.356-14.98 4.066-20.972 2.71-5.992 6.834-10.486 12.373-13.482 5.539-2.996 11.565-4.494 18.078-4.494 8.225 0 14.953 2.032 20.183 6.096 5.23 4.065 8.581 9.836 10.055 17.315l-12.48 1.88c-1.189-4.97-3.293-8.708-6.312-11.217-3.019-2.508-6.668-3.762-10.946-3.762-6.466 0-11.72 2.264-15.761 6.793-4.041 4.529-6.062 11.694-6.062 21.495 0 9.94 1.95 17.163 5.848 21.668 3.899 4.506 8.986 6.759 15.261 6.759 5.04 0 9.248-1.51 12.623-4.529 3.376-3.02 5.515-7.664 6.419-13.935z" style="font-size:11.79311562px;fill:#fff;stroke:#fff;stroke-width:2.78472114;stroke-miterlimit:4;stroke-opacity:1" transform="translate(-34.893 -105.985)"/>
</svg>
