<?xml version="1.0" encoding="UTF-8" standalone="no"?>
<!-- Created with Inkscape (http://www.inkscape.org/) -->
<svg
   xmlns:dc="http://purl.org/dc/elements/1.1/"
   xmlns:cc="http://creativecommons.org/ns#"
   xmlns:rdf="http://www.w3.org/1999/02/22-rdf-syntax-ns#"
   xmlns:svg="http://www.w3.org/2000/svg"
   xmlns="http://www.w3.org/2000/svg"
   xmlns:xlink="http://www.w3.org/1999/xlink"
   xmlns:sodipodi="http://sodipodi.sourceforge.net/DTD/sodipodi-0.dtd"
   xmlns:inkscape="http://www.inkscape.org/namespaces/inkscape"
   width="315.545961687"
   height="316.91104353" viewBox="0 0 338.79514 340.2608"
   id="svg4389"
   sodipodi:version="0.32"
   inkscape:version="0.46"
   version="1.0"
   sodipodi:docname="European_Research_Council_logo.svg"
   inkscape:output_extension="org.inkscape.output.svg.inkscape">
  <defs
     id="defs4391">
    <linearGradient
       inkscape:collect="always"
       id="linearGradient3884">
      <stop
         style="stop-color:#e95d0f;stop-opacity:1;"
         offset="0"
         id="stop3886" />
      <stop
         id="stop3894"
         offset="0.80568159"
         style="stop-color:#e95d0f;stop-opacity:0.09803922;" />
      <stop
         style="stop-color:#e95d0f;stop-opacity:0;"
         offset="1"
         id="stop3888" />
    </linearGradient>
    <linearGradient
       inkscape:collect="always"
       xlink:href="#linearGradient3884"
       id="linearGradient3890"
       x1="222.07758"
       y1="327.76874"
       x2="366.26282"
       y2="327.76874"
       gradientUnits="userSpaceOnUse"
       gradientTransform="matrix(1,0,0,2.5857101,0,-667.43863)" />
    <clipPath
       clipPathUnits="userSpaceOnUse"
       id="clipPath3896">
      <path
         id="path3898"
         d="M 298.14566,391.11109 C 296.43919,392.2263 295.95916,394.51231 297.06851,396.21878 C 298.17493,397.9311 300.45802,398.4082 302.17619,397.30178 C 303.88265,396.18073 304.36269,393.90056 303.25334,392.1941 C 302.14399,390.48178 299.84919,390.00175 298.14566,391.11109 M 324.40413,375.47778 C 325.85594,374.04938 325.86765,371.71068 324.42755,370.25594 C 323.005,368.80705 320.67215,368.79242 319.21449,370.21788 C 317.76268,371.65213 317.75389,373.99669 319.17644,375.44558 C 320.60483,376.89154 322.94939,376.91202 324.40413,375.47778 M 341.21997,350.77649 C 342.38201,349.09344 341.94002,346.79864 340.24819,345.64539 C 338.571,344.49213 336.2762,344.92826 335.12587,346.60253 C 333.96969,348.29729 334.40582,350.59208 336.08009,351.73948 C 337.76606,352.88981 340.0755,352.46539 341.21997,350.77649 M 351.7339,316.08521 C 349.84888,315.30662 347.68873,316.20522 346.91892,318.08438 C 346.14325,319.9811 347.036,322.13541 348.92101,322.90522 C 350.80895,323.68381 352.96325,322.78814 353.74477,320.90019 C 354.52044,319.02104 353.62184,316.86381 351.7339,316.08521 M 352.43931,288.85497 C 352.04709,290.85999 353.36426,292.79183 355.36928,293.17235 C 357.37138,293.55579 359.30322,292.24448 359.68666,290.23945 C 360.07889,288.24029 358.76172,286.30551 356.7567,285.925 C 354.76046,285.5357 352.82276,286.84702 352.43931,288.85497 M 355.45709,254.01441 C 353.41987,254.05246 351.80122,255.74137 351.84805,257.78151 C 351.88025,259.82459 353.57793,261.43446 355.61515,261.40226 C 357.64652,261.35543 359.25932,259.66945 359.23005,257.62931 C 359.18614,255.59209 357.48846,253.97051 355.45709,254.01441 M 346.29253,232.12308 C 346.69061,234.12225 348.63124,235.41308 350.63626,235.015 C 352.6325,234.61399 353.93503,232.66459 353.52525,230.66542 C 353.1301,228.6604 351.17776,227.37543 349.17274,227.7735 C 347.18235,228.17451 345.87982,230.11806 346.29253,232.12308 M 340.95361,209.65805 C 342.83862,208.90873 343.7665,206.76029 343.01132,204.86649 C 342.25907,202.96977 340.11062,202.05068 338.21683,202.79707 C 336.33182,203.54932 335.40687,205.69777 336.14741,207.59449 C 336.90551,209.48829 339.05396,210.4103 340.95361,209.65805 M 324.41584,183.19762 C 326.11937,182.07071 326.58185,179.77591 325.46079,178.08408 C 324.33681,176.37761 322.03908,175.91222 320.3414,177.0362 C 318.64664,178.16311 318.17832,180.45498 319.30523,182.15266 C 320.43214,183.8562 322.71523,184.31575 324.41584,183.19762 M 299.63552,157.11477 C 298.17493,158.53438 298.14566,160.87601 299.57405,162.32782 C 301.00537,163.79427 303.34408,163.81769 304.79296,162.39515 C 306.25063,160.96968 306.27697,158.62805 304.85443,157.17038 C 303.43189,155.70686 301.09904,155.68637 299.63552,157.11477 M 295.42351,413.26878 C 294.06244,414.1586 293.67021,415.99678 294.57467,417.36078 C 295.46742,418.72479 297.29974,419.1053 298.65496,418.20963 C 300.03945,417.31981 300.40826,415.48455 299.50966,414.12641 C 298.62569,412.75948 296.79044,412.37896 295.42351,413.26878 M 320.73948,392.7034 C 319.57159,393.84495 319.57159,395.7124 320.71606,396.87736 C 321.85468,398.03647 323.73676,398.0511 324.89587,396.90956 C 326.05791,395.76801 326.06376,393.89471 324.92514,392.72975 C 323.78067,391.57064 321.90444,391.556 320.73948,392.7034 M 338.71443,371.55847 C 337.76606,372.88442 338.0734,374.72553 339.39057,375.67681 C 340.71359,376.63103 342.57226,376.32954 343.51477,375.00945 C 344.46899,373.68643 344.17335,371.83654 342.83862,370.88818 C 341.50975,369.93396 339.68035,370.24423 338.71443,371.55847 M 359.29151,340.72796 C 357.7958,340.06938 356.05421,340.7426 355.38977,342.22368 C 354.73119,343.7194 355.41319,345.46391 356.90305,346.11957 C 358.38706,346.79279 360.12865,346.11079 360.78723,344.62678 C 361.45752,343.13106 360.78138,341.3924 359.29151,340.72796 M 369.78495,304.87173 C 368.18679,304.55561 366.6296,305.60056 366.30763,307.20458 C 366.00029,308.79689 367.04817,310.34529 368.64633,310.66726 C 370.24157,310.98046 371.79875,309.94136 372.11195,308.33734 C 372.43392,306.73625 371.38019,305.18785 369.78495,304.87173 M 372.18805,270.92977 C 370.55476,270.94441 369.25516,272.27914 369.25808,273.91243 C 369.2815,275.54279 370.62208,276.85996 372.24952,276.83654 C 373.88573,276.81898 375.19705,275.48132 375.17656,273.85389 C 375.16485,272.2206 373.81841,270.91221 372.18805,270.92977 M 369.13222,243.98052 C 370.72746,243.63806 371.74899,242.0838 371.40946,240.48271 C 371.08456,238.88747 369.50396,237.86594 367.90872,238.20547 C 366.30763,238.53915 365.2978,240.10219 365.63734,241.70328 C 365.96809,243.29852 367.5282,244.32006 369.13222,243.98052 M 358.22607,209.05216 C 356.71865,209.67854 356.0103,211.40257 356.63083,212.91 C 357.24844,214.42913 358.97247,215.13747 360.48575,214.51694 C 361.99317,213.89055 362.70737,212.16067 362.08684,210.66203 C 361.46923,209.14875 359.73935,208.43748 358.22607,209.05216 M 345.74225,185.76756 C 347.09161,184.87188 347.46042,183.0337 346.56767,181.67848 C 345.66907,180.31448 343.83382,179.94275 342.46982,180.84428 C 341.10289,181.75166 340.73994,183.58106 341.64439,184.94213 C 342.53714,186.30321 344.36947,186.67494 345.74225,185.76756 M 326.46476,161.16286 C 327.62973,160.02717 327.65314,158.15679 326.52038,156.9889 C 325.37591,155.81809 323.49967,155.7976 322.33471,156.93329 C 321.1639,158.07484 321.14633,159.93936 322.28495,161.11018 C 323.42357,162.27806 325.29395,162.30441 326.46476,161.16286 M 302.38694,140.17599 C 303.32652,138.83833 302.98698,136.99722 301.6464,136.06643 C 300.30581,135.13855 298.47641,135.46638 297.53976,136.81282 C 296.60018,138.1534 296.93679,139.99159 298.28615,140.92238 C 299.62674,141.85026 301.45614,141.5195 302.38694,140.17599 M 275.56062,385.55557 C 272.88823,387.26496 272.10671,390.83302 273.81903,393.52883 C 275.53135,396.19536 279.09941,396.97981 281.77765,395.27334 C 284.45589,393.55517 285.24912,389.99296 283.52509,387.3118 C 281.8157,384.63063 278.23886,383.84033 275.56062,385.55557 M 296.04697,369.21391 C 293.76973,371.43553 293.71997,375.08262 295.92989,377.3745 C 298.14566,379.64588 301.80153,379.70149 304.08462,377.49451 C 306.36771,375.27288 306.42332,371.62872 304.2017,369.33977 C 301.98593,367.05083 298.34177,366.99521 296.04697,369.21391 M 322.84109,354.91532 C 324.6178,352.27513 323.91531,348.68951 321.28098,346.9128 C 318.63493,345.12145 315.05809,345.83272 313.28138,348.47291 C 311.49588,351.10724 312.19837,354.68409 314.84442,356.47543 C 317.47875,358.24629 321.0556,357.54673 322.84109,354.91532 M 332.52081,323.77162 C 329.5967,322.51592 326.20133,323.87407 324.95734,326.80696 C 323.7192,329.734 325.06857,333.12059 328.00439,334.37336 C 330.9285,335.62028 334.3063,334.26213 335.562,331.33802 C 336.806,328.40805 335.45663,325.02147 332.52081,323.77162 M 336.99625,309.27985 C 340.10477,309.93258 343.16353,307.93634 343.82211,304.83075 C 344.46899,301.71052 342.48153,298.65469 339.3613,297.99904 C 336.24108,297.34631 333.19403,299.33669 332.53544,302.45399 C 331.88272,305.56836 333.87017,308.61541 336.99625,309.27985 M 340.9419,268.94817 C 337.75436,268.9628 335.18734,271.56494 335.22247,274.74956 C 335.23125,277.93125 337.83339,280.49241 341.02093,280.47192 C 344.20555,280.44558 346.76671,277.85222 346.75793,274.6676 C 346.72866,271.48299 344.12359,268.93061 340.9419,268.94817 M 339.18861,253.43779 C 342.29127,252.77628 344.29044,249.72923 343.64941,246.61486 C 342.99668,243.49756 339.93207,241.50132 336.81185,242.15405 C 333.70333,242.80678 331.70417,245.85968 332.35104,248.97112 C 333.01255,252.09135 336.06253,254.07588 339.18861,253.43779 M 325.05393,225.67774 C 326.26865,228.62527 329.64646,230.01562 332.59691,228.78626 C 335.52103,227.56568 336.91722,224.19959 335.70543,221.26084 C 334.46729,218.32209 331.1012,216.92882 328.16537,218.1494 C 325.21492,219.3729 323.83628,222.75363 325.05393,225.67774 M 322.34057,207.20812 C 325.01295,205.49288 325.79447,201.9336 324.09679,199.25243 C 322.37276,196.57711 318.80178,195.79267 316.11768,197.51084 C 313.43358,199.22901 312.65792,202.79707 314.37609,205.46946 C 316.09426,208.15063 319.65647,208.93215 322.34057,207.20812 M 305.31983,184.17525 C 307.5678,181.93314 307.58536,178.2919 305.34617,176.02344 C 303.10406,173.76377 299.45697,173.75206 297.18559,175.9971 C 294.92591,178.23628 294.92006,181.88338 297.15339,184.13427 C 299.3955,186.40273 303.04259,186.42029 305.31983,184.17525 M 277.16756,167.75163 C 279.8019,169.52834 283.3846,168.82878 285.17009,166.17981 C 286.92924,163.53376 286.23553,159.95692 283.59827,158.18606 C 280.94052,156.4152 277.36368,157.11477 275.59282,159.75788 C 273.81903,162.40393 274.52152,165.9837 277.16756,167.75163 M 275.15376,362.33829 C 272.32917,364.16184 271.54179,367.92309 273.36241,370.73597 C 275.17132,373.53715 278.93257,374.34501 281.74838,372.52439 C 284.55834,370.70377 285.36035,366.95424 283.54266,364.1355 C 281.71033,361.32847 277.96665,360.5206 275.15376,362.33829 M 298.79546,355.93686 C 301.20441,353.60694 301.26588,349.76081 298.93888,347.35185 C 296.60603,344.9429 292.78332,344.87558 290.37729,347.19965 C 287.95078,349.52664 287.88346,353.36984 290.21045,355.7788 C 292.53745,358.18775 296.38358,358.25507 298.79546,355.93686 M 313.15259,334.90023 C 315.02882,332.14295 314.30877,328.36415 311.53979,326.48206 C 308.76788,324.6029 305.00078,325.32295 303.1187,328.09193 C 301.22783,330.86384 301.95374,334.63679 304.72564,336.51888 C 307.49462,338.39804 311.26172,337.67506 313.15259,334.90023 M 314.18583,316.89308 C 317.2563,318.22195 320.82729,316.80819 322.16202,313.73773 C 323.49675,310.66726 322.09469,307.09042 319.01252,305.75862 C 315.94498,304.42096 312.36229,305.83179 311.04512,308.90226 C 309.70454,311.97565 311.1183,315.54664 314.18583,316.89308 M 327.07359,291.43954 C 327.81413,288.17882 325.77691,284.92688 322.51326,284.18048 C 319.24376,283.43701 315.99474,285.46838 315.25128,288.74081 C 314.49903,292.00739 316.5421,295.25933 319.8116,296.00572 C 323.07818,296.75212 326.32427,294.70612 327.07359,291.43954 M 321.46538,258.52498 C 318.11977,258.50156 315.37421,261.20322 315.35958,264.54297 C 315.33031,267.89736 318.02611,270.63414 321.3805,270.65756 C 324.73488,270.68098 327.46289,267.9881 327.49216,264.63371 C 327.50679,261.28518 324.81684,258.55132 321.46538,258.52498 M 317.83585,247.0422 C 321.12292,246.38655 323.25088,243.19315 322.59229,239.90315 C 321.93371,236.6278 318.74031,234.49399 315.4591,235.14672 C 312.17203,235.8053 310.04115,238.9987 310.6968,242.28284 C 311.34661,245.5699 314.54879,247.69786 317.83585,247.0422 M 302.41035,222.86778 C 303.67191,225.96752 307.2107,227.46031 310.30751,226.1929 C 313.41602,224.93135 314.91174,221.39548 313.63262,218.28697 C 312.37692,215.18723 308.84399,213.68859 305.73547,214.96185 C 302.63281,216.22048 301.14295,219.7622 302.41035,222.86778 M 298.55837,206.53198 C 301.35662,204.6938 302.13228,200.93255 300.27947,198.1343 C 298.44129,195.3419 294.66833,194.56331 291.87886,196.40735 C 289.0894,198.25138 288.30788,202.01848 290.15484,204.81088 C 291.99595,207.60913 295.75719,208.38479 298.55837,206.53198 M 283.07726,189.44099 C 285.46572,187.08765 285.47743,183.24738 283.12409,180.86769 C 280.76782,178.49094 276.92755,178.46459 274.55664,180.81793 C 272.16818,183.18298 272.15647,187.01448 274.50688,189.40001 C 276.86608,191.78262 280.69465,191.80311 283.07726,189.44099 M 255.86457,353.97867 C 252.54531,356.09492 251.58524,360.49719 253.70441,363.8106 C 255.82652,367.12693 260.22879,368.09578 263.54512,365.9766 C 266.8556,363.8545 267.8186,359.44931 265.69942,356.1359 C 263.58317,352.82834 259.18676,351.85949 255.86457,353.97867 M 280.15314,352.43905 C 282.95432,349.67007 282.98359,345.16243 280.20876,342.3671 C 277.44271,339.56885 272.93214,339.54251 270.14267,342.31149 C 267.33856,345.08047 267.32393,349.58226 270.08998,352.38343 C 272.84725,355.17583 277.35782,355.19924 280.15314,352.43905 M 293.23408,336.84085 C 295.46742,333.59184 294.62443,329.16323 291.38127,326.9416 C 288.14104,324.71998 283.7095,325.54833 281.48787,328.79735 C 279.2604,332.03758 280.08582,336.46912 283.32898,338.69367 C 286.5897,340.91236 291.00953,340.08987 293.23408,336.84085 M 294.61272,321.09631 C 298.25396,322.59788 302.41035,320.868 303.91778,317.22969 C 305.40764,313.5943 303.67776,309.43205 300.04531,307.93341 C 296.40114,306.43476 292.24182,308.16465 290.75195,311.7971 C 289.23282,315.43541 290.96856,319.60059 294.61272,321.09631 M 309.82162,298.14832 C 310.6207,294.29926 308.15321,290.53216 304.29537,289.73015 C 300.44046,288.93107 296.67336,291.39856 295.88013,295.24762 C 295.07812,299.11424 297.54854,302.87548 301.40638,303.67457 C 305.25544,304.47658 309.02254,302.00615 309.82162,298.14832 M 312.11056,277.2112 C 312.13398,273.27726 308.96692,270.0663 305.02713,270.03995 C 301.10489,270.00483 297.891,273.17189 297.86173,277.09997 C 297.83539,281.03392 300.99367,284.24195 304.9159,284.27708 C 308.8674,284.30927 312.06666,281.14222 312.11056,277.2112 M 295.52303,257.50344 C 296.40992,261.33494 300.23556,263.72048 304.07291,262.83066 C 307.89563,261.93498 310.27531,258.11227 309.38549,254.2837 C 308.4986,250.45221 304.68759,248.07252 300.84731,248.95942 C 297.01875,249.84631 294.62443,253.68073 295.52303,257.50344 M 294.10634,230.2849 C 290.50023,231.84501 288.82596,236.02483 290.39486,239.63387 C 291.95204,243.25169 296.13771,244.91132 299.7526,243.35706 C 303.35871,241.79988 305.02713,237.61421 303.46994,233.99639 C 301.91276,230.3815 297.72709,228.72772 294.10634,230.2849 M 282.49185,224.70889 C 284.62859,228.00767 289.04256,228.94432 292.33256,226.80758 C 295.6284,224.65913 296.57384,220.25101 294.43417,216.95516 C 292.29158,213.65054 287.87175,212.71096 284.59054,214.8594 C 281.28005,217.00492 280.3434,221.41012 282.49185,224.70889 M 280.77953,210.5069 C 283.56315,207.70865 283.55144,203.20979 280.76197,200.43788 C 277.97835,197.66012 273.46193,197.67183 270.69295,200.45837 C 267.92105,203.24198 267.9269,207.75548 270.71051,210.53031 C 273.50584,213.30222 278.01641,213.29051 280.77953,210.5069 M 257.11442,199.28463 C 260.36928,201.48869 264.80082,200.61643 266.99317,197.35863 C 269.19723,194.09499 268.33376,189.67223 265.06718,187.47402 C 261.80353,185.27581 257.37199,186.14222 255.19428,189.40001 C 252.99022,192.66074 253.85077,197.08935 257.11442,199.28463 M 243.87249,217.31812 C 247.61617,219.82659 252.69459,218.82262 255.20599,215.06722 C 257.71739,211.32061 256.71341,206.23927 252.96387,203.72495 C 249.20263,201.21647 244.13885,202.2263 241.61574,205.98462 C 239.10434,209.73416 240.1171,214.80964 243.87249,217.31812 M 273.56145,222.82388 C 270.7954,219.25874 265.6643,218.60309 262.09916,221.37792 C 258.52818,224.12934 257.86959,229.26629 260.63564,232.83728 C 263.39877,236.40827 268.53865,237.06393 272.10671,234.29202 C 275.68355,231.53475 276.31872,226.39779 273.56145,222.82388 M 282.47429,259.79532 C 286.76825,258.4079 289.1333,253.80074 287.75467,249.50677 C 286.35847,245.20695 281.76009,242.85361 277.45149,244.23517 C 273.15459,245.62259 270.80418,250.2356 272.20038,254.52664 C 273.57316,258.82061 278.18325,261.18273 282.47429,259.79532 M 278.42326,323.87407 C 280.90247,320.10111 279.84581,315.04026 276.067,312.56399 C 272.29112,310.08478 267.2127,311.14437 264.75106,314.92025 C 262.27186,318.69613 263.32559,323.76869 267.1044,326.23911 C 270.88321,328.71246 275.94992,327.6558 278.42326,323.87407 M 278.07202,308.22611 C 282.36306,309.62231 286.979,307.27483 288.3752,302.98379 C 289.76847,298.68689 287.42098,294.0768 283.13287,292.67768 C 278.83012,291.27855 274.22003,293.62604 272.82091,297.92586 C 271.43057,302.20812 273.76342,306.83284 278.07202,308.22611 M 292.56672,277.82003 C 292.67795,273.30068 289.0894,269.56285 284.59054,269.4604 C 280.07704,269.3521 276.33043,272.93772 276.23091,277.44829 C 276.12846,281.96179 279.70238,285.70547 284.22173,285.79914 C 288.7323,285.90744 292.47598,282.32767 292.56672,277.82003 M 259.5263,344.66776 C 263.0768,341.86073 263.67391,336.72962 260.87273,333.17913 C 258.06863,329.64912 252.9346,329.04029 249.38703,331.84147 C 245.84824,334.63679 245.24527,339.7796 248.04645,343.32132 C 250.84177,346.86304 255.98751,347.46015 259.5263,344.66776 M 227.00103,316.40426 C 221.98994,318.02291 219.23852,323.39111 220.85718,328.4022 C 222.46997,333.40451 227.83817,336.15885 232.83755,334.54313 C 237.85449,332.93033 240.60591,327.55336 238.98726,322.5569 C 237.37446,317.54288 232.01212,314.79439 227.00103,316.40426 M 254.48008,318.05219 C 258.39939,314.52218 258.70673,308.4954 255.1855,304.59658 C 251.65841,300.68899 245.63457,300.36994 241.72404,303.89117 C 237.8223,307.4241 237.5091,313.44502 241.03619,317.3497 C 244.55742,321.26315 250.58126,321.57341 254.48008,318.05219 M 254.33665,300.22359 C 259.09602,302.45399 264.77155,300.4197 267.00488,295.64862 C 269.24699,290.88926 267.20685,285.2108 262.4387,282.9804 C 257.67933,280.73828 252.0038,282.78429 249.77633,287.5378 C 247.52836,292.30302 249.58607,297.97855 254.33665,300.22359 M 260.24635,258.484 C 254.97768,258.42839 250.66907,262.64625 250.62517,267.912 C 250.56955,273.17189 254.78742,277.48049 260.04438,277.53318 C 265.31305,277.58294 269.62751,273.37093 269.67142,268.10518 C 269.7241,262.83944 265.50331,258.52498 260.24635,258.484 M 255.58065,253.991 C 260.36928,251.79864 262.46212,246.14068 260.26391,241.36375 C 258.06863,236.57511 252.42237,234.4735 247.63959,236.67463 C 242.85681,238.86406 240.75812,244.5191 242.94462,249.29602 C 245.14575,254.08466 250.79786,256.1892 255.58065,253.991 M 241.56013,234.64326 C 244.96135,230.62737 244.4579,224.61523 240.44492,221.21986 C 236.4261,217.81864 230.41689,218.31624 227.01859,222.33799 C 223.61737,226.35096 224.10912,232.36017 228.13965,235.76139 C 232.14677,239.16554 238.16183,238.66209 241.56013,234.64326" />
    </clipPath>
    <linearGradient
       inkscape:collect="always"
       xlink:href="#linearGradient3884"
       id="linearGradient4013"
       gradientUnits="userSpaceOnUse"
       gradientTransform="matrix(1,0,0,2.5857101,0,-667.43863)"
       x1="222.07758"
       y1="327.76874"
       x2="366.26282"
       y2="327.76874" />
    <linearGradient
       inkscape:collect="always"
       xlink:href="#linearGradient3884"
       id="linearGradient4281"
       gradientUnits="userSpaceOnUse"
       gradientTransform="matrix(1,0,0,2.5857101,0,-667.43863)"
       x1="222.07758"
       y1="327.76874"
       x2="366.26282"
       y2="327.76874" />
    <linearGradient
       inkscape:collect="always"
       xlink:href="#linearGradient3884"
       id="linearGradient4548"
       gradientUnits="userSpaceOnUse"
       gradientTransform="matrix(1,0,0,2.5857101,0,-667.43863)"
       x1="222.07758"
       y1="327.76874"
       x2="366.26282"
       y2="327.76874" />
  </defs>
  <sodipodi:namedview
     id="base"
     pagecolor="#ffffff"
     bordercolor="#666666"
     borderopacity="1.0"
     gridtolerance="10000"
     guidetolerance="10"
     objecttolerance="10"
     inkscape:pageopacity="0.0"
     inkscape:pageshadow="2"
     inkscape:zoom="0.7"
     inkscape:cx="434.91306"
     inkscape:cy="196.94114"
     inkscape:document-units="px"
     inkscape:current-layer="g3129"
     showgrid="false"
     inkscape:window-width="1024"
     inkscape:window-height="712"
     inkscape:window-x="-4"
     inkscape:window-y="-4" />
  <metadata
     id="metadata4394">
    <rdf:RDF>
      <cc:Work
         rdf:about="">
        <dc:format>image/svg+xml</dc:format>
        <dc:type
           rdf:resource="http://purl.org/dc/dcmitype/StillImage" />
      </cc:Work>
    </rdf:RDF>
  </metadata>
  <g
     inkscape:label="Layer 1"
     inkscape:groupmode="layer"
     id="layer1"
     transform="translate(-34.893263,-105.98524)">
    <g
       id="g4813">
      <rect
         transform="matrix(0.9764886,0,0,0.9764886,4.8031586,6.4918589)"
         clip-path="url(#clipPath3896)"
         y="132.87737"
         x="216.93813"
         height="288.03101"
         width="154.784"
         id="rect3104"
         style="fill:url(#linearGradient4548);fill-opacity:1;fill-rule:nonzero" />
      <g
         id="g4682">
        <path
           d="M 279.67858,148.65125 C 278.53815,150.28616 276.30017,150.68916 274.65955,149.5573 C 273.03036,148.41973 272.61591,146.17603 273.74206,144.54398 C 274.89392,142.90051 277.13762,142.4975 278.76681,143.62935 C 280.40742,144.76407 280.82187,147.01063 279.67858,148.65125"
           style="fill:#e95d0f;fill-opacity:1;fill-rule:nonzero;stroke:none"
           id="path3089" />
        <path
           d="M 220.72778,224.47414 C 219.35011,229.42457 214.20531,232.31995 209.26059,230.92799 C 204.30729,229.55033 201.42621,224.41411 202.80959,219.46081 C 204.17582,214.51609 209.32062,211.62929 214.27105,213.00981 C 219.21292,214.38747 222.1083,219.52655 220.72778,224.47414"
           style="fill:#e95d0f;fill-opacity:1;fill-rule:nonzero;stroke:none"
           id="path2869" />
        <path
           d="M 199.13678,329.07073 C 199.60552,323.95165 204.12723,320.1788 209.24058,320.64183 C 214.36823,321.10201 218.13251,325.62371 217.66948,330.74565 C 217.21217,335.85614 212.69046,339.63185 207.57138,339.16311 C 202.44946,338.71151 198.67946,334.18123 199.13678,329.07073"
           style="fill:#e95d0f;fill-opacity:1;fill-rule:nonzero;stroke:none"
           id="path2871" />
        <path
           d="M 179.0692,322.64259 C 181.46154,318.09516 187.09795,316.36022 191.64252,318.75541 C 196.18138,321.15631 197.92489,326.77844 195.52398,331.32872 C 193.13165,335.87044 187.49525,337.60537 182.95067,335.21018 C 178.41182,332.81214 176.67116,327.18144 179.0692,322.64259"
           style="fill:#e95d0f;fill-opacity:1;fill-rule:nonzero;stroke:none"
           id="path2873" />
        <path
           d="M 162.46009,308.24573 C 166.47589,305.04738 172.3238,305.70477 175.52787,309.72629 C 178.73193,313.75066 178.07169,319.59858 174.05017,322.80264 C 170.03437,326.00386 164.17502,325.33503 160.97095,321.31352 C 157.7726,317.30057 158.44429,311.44408 162.46009,308.24573"
           style="fill:#e95d0f;fill-opacity:1;fill-rule:nonzero;stroke:none"
           id="path2875" />
        <path
           d="M 153.05368,288.52972 C 158.01269,287.19493 163.11748,290.13891 164.45798,295.09791 C 165.77848,300.06836 162.84023,305.16457 157.86978,306.50222 C 152.91077,307.83415 147.8117,304.88446 146.46834,299.91402 C 145.14498,294.96358 148.09467,289.8588 153.05368,288.52972"
           style="fill:#e95d0f;fill-opacity:1;fill-rule:nonzero;stroke:none"
           id="path2877" />
        <path
           d="M 152.1419,267.58754 C 157.23812,268.2535 160.82518,272.92669 160.15351,278.02576 C 159.47896,283.11339 154.80863,286.69474 149.71242,286.0202 C 144.61621,285.35424 141.02629,280.66961 141.70083,275.58198 C 142.37537,270.49149 147.05713,266.90728 152.1419,267.58754"
           style="fill:#e95d0f;fill-opacity:1;fill-rule:nonzero;stroke:none"
           id="path2879" />
        <path
           d="M 159.76765,247.19128 C 164.17502,249.83227 165.60984,255.54014 162.96599,259.95894 C 160.32213,264.3606 154.61141,265.79257 150.20403,263.14301 C 145.79951,260.50773 144.3704,254.78843 147.00283,250.38391 C 149.64668,245.98225 155.36313,244.556 159.76765,247.19128"
           style="fill:#e95d0f;fill-opacity:1;fill-rule:nonzero;stroke:none"
           id="path2881" />
        <path
           d="M 174.86763,231.51679 C 177.8659,235.68693 176.90554,241.50055 172.72681,244.49597 C 168.54523,247.48853 162.74305,246.53388 159.75049,242.34659 C 156.75222,238.18216 157.71258,232.36854 161.88844,229.37884 C 166.05001,226.38056 171.87221,227.33807 174.86763,231.51679"
           style="fill:#e95d0f;fill-opacity:1;fill-rule:nonzero;stroke:none"
           id="path2883" />
        <path
           d="M 197.39327,222.7049 C 198.25358,227.77824 194.84087,232.58291 189.77325,233.44323 C 184.6999,234.28926 179.90952,230.8794 179.05492,225.80892 C 178.19745,220.74416 181.61016,215.94234 186.67779,215.0906 C 191.73399,214.23027 196.54151,217.64584 197.39327,222.7049"
           style="fill:#e95d0f;fill-opacity:1;fill-rule:nonzero;stroke:none"
           id="path2885" />
        <path
           d="M 213.25639,353.64571 C 213.25639,358.05594 209.68075,361.62872 205.26766,361.62872 C 200.86314,361.62872 197.29322,358.05594 197.29322,353.64571 C 197.29322,349.24405 200.86314,345.66555 205.26766,345.66555 C 209.68075,345.66555 213.25639,349.24405 213.25639,353.64571"
           style="fill:#e95d0f;fill-opacity:1;fill-rule:nonzero;stroke:none"
           id="path2887" />
        <path
           d="M 237.35405,347.06037 C 238.75172,351.24195 236.49373,355.76937 232.31501,357.15846 C 228.13343,358.54756 223.61172,356.29243 222.21691,352.11085 C 220.81924,347.92927 223.07723,343.41042 227.26167,342.01275 C 231.44896,340.61794 235.96495,342.87308 237.35405,347.06037"
           style="fill:#e95d0f;fill-opacity:1;fill-rule:nonzero;stroke:none"
           id="path2889" />
        <path
           d="M 196.81018,198.90735 C 196.94452,194.49997 200.62876,191.04438 205.03901,191.18158 C 209.45781,191.32449 212.90197,195.00588 212.76477,199.41611 C 212.62472,203.82349 208.92904,207.27908 204.53596,207.13331 C 200.12858,207.00469 196.66728,203.31187 196.81018,198.90735"
           style="fill:#e95d0f;fill-opacity:1;fill-rule:nonzero;stroke:none"
           id="path2891" />
        <path
           d="M 220.42194,199.57903 C 221.82247,195.40031 226.35847,193.15089 230.53719,194.55428 C 234.72162,195.96338 236.96247,200.4908 235.55623,204.66666 C 234.1557,208.84824 229.62828,211.0948 225.45241,209.69142 C 221.26798,208.28518 219.02141,203.76061 220.42194,199.57903"
           style="fill:#e95d0f;fill-opacity:1;fill-rule:nonzero;stroke:none"
           id="path2893" />
        <path
           d="M 173.26701,205.54128 C 171.96367,201.33112 174.31884,196.86086 178.52615,195.56037 C 182.74202,194.25988 187.20657,196.61505 188.51563,200.82521 C 189.82184,205.03823 187.45809,209.5142 183.24507,210.81184 C 179.03777,212.11805 174.56179,209.75715 173.26701,205.54128"
           style="fill:#e95d0f;fill-opacity:1;fill-rule:nonzero;stroke:none"
           id="path2895" />
        <path
           d="M 151.71889,220.27255 C 149.05789,216.75408 149.7553,211.74648 153.28234,209.09119 C 156.79795,206.4359 161.79984,207.13331 164.45798,210.64606 C 167.11327,214.17025 166.41586,219.17785 162.89454,221.83028 C 159.37892,224.49128 154.37133,223.79674 151.71889,220.27255"
           style="fill:#e95d0f;fill-opacity:1;fill-rule:nonzero;stroke:none"
           id="path2897" />
        <path
           d="M 129.1218,260.90501 C 124.96023,259.44732 122.76225,254.89704 124.21709,250.73261 C 125.67764,246.57104 130.22507,244.38736 134.39236,245.83361 C 138.55107,247.29131 140.74904,251.84446 139.28563,256.00889 C 137.83651,260.16474 133.28622,262.35413 129.1218,260.90501"
           style="fill:#e95d0f;fill-opacity:1;fill-rule:nonzero;stroke:none"
           id="path2899" />
        <path
           d="M 136.84471,238.46513 C 133.2062,235.97561 132.28871,231.00517 134.78393,227.36665 C 137.28202,223.73385 142.25247,222.81065 145.87668,225.31159 C 149.52092,227.8011 150.44127,232.77441 147.94033,236.41006 C 145.45081,240.04286 140.48036,240.96321 136.84471,238.46513"
           style="fill:#e95d0f;fill-opacity:1;fill-rule:nonzero;stroke:none"
           id="path2901" />
        <path
           d="M 127.767,284.87692 C 123.36248,284.71685 119.91833,281.01832 120.07553,276.61094 C 120.24416,272.20356 123.94556,268.75941 128.34436,268.92233 C 132.75174,269.07667 136.18732,272.77807 136.03869,277.18544 C 135.88149,281.58996 132.18009,285.03412 127.767,284.87692"
           style="fill:#e95d0f;fill-opacity:1;fill-rule:nonzero;stroke:none"
           id="path2903" />
        <path
           d="M 134.08367,308.59443 C 129.84779,309.8349 125.41183,307.41971 124.17422,303.18382 C 122.93089,298.95937 125.35752,294.5177 129.58197,293.27437 C 133.79784,292.03105 138.25095,294.45481 139.48285,298.68784 C 140.72618,302.91801 138.31098,307.34825 134.08367,308.59443"
           style="fill:#e95d0f;fill-opacity:1;fill-rule:nonzero;stroke:none"
           id="path2905" />
        <path
           d="M 147.89745,329.15362 C 144.33325,331.75173 139.33993,330.98288 136.73038,327.42725 C 134.13226,323.87163 134.90112,318.87259 138.45389,316.26875 C 142.00666,313.6592 147.00283,314.42806 149.61524,317.98368 C 152.21336,321.54217 151.45022,326.53834 147.89745,329.15362"
           style="fill:#e95d0f;fill-opacity:1;fill-rule:nonzero;stroke:none"
           id="path2907" />
        <path
           d="M 186.63492,352.29377 C 185.10863,356.42961 180.53548,358.56185 176.38819,357.04414 C 172.25807,355.53213 170.12011,350.94755 171.64069,346.80599 C 173.15841,342.66728 177.74586,340.5379 181.8817,342.05277 C 186.01754,343.56763 188.14406,348.15221 186.63492,352.29377"
           style="fill:#e95d0f;fill-opacity:1;fill-rule:nonzero;stroke:none"
           id="path2909" />
        <path
           d="M 166.47017,344.09353 C 163.92063,347.69489 158.93875,348.54664 155.33739,345.99997 C 151.74462,343.45044 150.89001,338.4657 153.43383,334.87005 C 155.98621,331.27156 160.96524,330.42266 164.56374,332.9722 C 168.15937,335.51602 169.01399,340.50075 166.47017,344.09353"
           style="fill:#e95d0f;fill-opacity:1;fill-rule:nonzero;stroke:none"
           id="path2911" />
        <path
           d="M 212.22743,178.52824 C 212.22743,182.37254 209.11482,185.48514 205.26766,185.48514 C 201.43479,185.48514 198.32504,182.37254 198.32504,178.52824 C 198.32504,174.68964 201.43479,171.57418 205.26766,171.57418 C 209.11482,171.57418 212.22743,174.68964 212.22743,178.52824"
           style="fill:#e95d0f;fill-opacity:1;fill-rule:nonzero;stroke:none"
           id="path2913" />
        <path
           d="M 231.19172,181.83519 C 230.44001,185.59661 226.77863,188.04039 223.01722,187.28868 C 219.25579,186.53983 216.80916,182.86987 217.56087,179.11131 C 218.31258,175.34132 221.9711,172.90039 225.74109,173.65211 C 229.50252,174.40382 231.94344,178.06521 231.19172,181.83519"
           style="fill:#e95d0f;fill-opacity:1;fill-rule:nonzero;stroke:none"
           id="path2915" />
        <path
           d="M 248.26102,188.33479 C 246.82047,191.89899 242.76752,193.61678 239.20903,192.17624 C 235.64483,190.74142 233.92704,186.6856 235.36187,183.12426 C 236.79955,179.56291 240.84393,177.84798 244.41385,179.27709 C 247.9752,180.72335 249.69299,184.77345 248.26102,188.33479"
           style="fill:#e95d0f;fill-opacity:1;fill-rule:nonzero;stroke:none"
           id="path2917" />
        <path
           d="M 107.36216,269.65403 C 111.20933,269.61973 114.33336,272.70947 114.37052,276.55663 C 114.39911,280.39523 111.30365,283.52783 107.47077,283.55928 C 103.61789,283.58786 100.50243,280.49812 100.46242,276.66525 C 100.43669,272.81523 103.52071,269.68261 107.36216,269.65403"
           style="fill:#e95d0f;fill-opacity:1;fill-rule:nonzero;stroke:none"
           id="path2919" />
        <path
           d="M 110.52335,250.6583 C 114.29335,251.38714 116.76285,255.02851 116.04257,258.79851 C 115.31945,262.57136 111.67236,265.04086 107.90808,264.31487 C 104.12666,263.59174 101.66859,259.94752 102.386,256.18038 C 103.10627,252.40467 106.74764,249.93517 110.52335,250.6583"
           style="fill:#e95d0f;fill-opacity:1;fill-rule:nonzero;stroke:none"
           id="path2921" />
        <path
           d="M 116.90576,233.55185 C 120.46996,234.9638 122.2192,238.99961 120.80152,242.57239 C 119.39527,246.14516 115.35089,247.8944 111.78097,246.47958 C 108.21106,245.07047 106.46182,241.02895 107.8795,237.46189 C 109.28003,233.88912 113.32441,232.13702 116.90576,233.55185"
           style="fill:#e95d0f;fill-opacity:1;fill-rule:nonzero;stroke:none"
           id="path2923" />
        <path
           d="M 127.64695,216.2053 C 130.83959,218.32896 131.71135,222.64201 129.60198,225.84036 C 127.47832,229.04443 123.16241,229.91619 119.9612,227.79253 C 116.76285,225.67173 115.88538,221.36439 118.00618,218.16318 C 120.12412,214.9534 124.43717,214.0845 127.64695,216.2053"
           style="fill:#e95d0f;fill-opacity:1;fill-rule:nonzero;stroke:none"
           id="path2925" />
        <path
           d="M 140.38318,202.65162 C 143.12422,205.33549 143.16709,209.74001 140.48036,212.48104 C 137.78221,215.22207 133.38912,215.26209 130.64237,212.57536 C 127.90134,209.88578 127.85847,205.48126 130.54519,202.74022 C 133.23192,200.00204 137.63644,199.95345 140.38318,202.65162"
           style="fill:#e95d0f;fill-opacity:1;fill-rule:nonzero;stroke:none"
           id="path2927" />
        <path
           d="M 156.20915,191.2416 C 158.31853,194.44853 157.44677,198.76444 154.23413,200.87953 C 151.03006,202.9946 146.71986,202.11141 144.60478,198.90735 C 142.49256,195.70043 143.36432,191.39308 146.57409,189.27229 C 149.77244,187.16007 154.08264,188.04039 156.20915,191.2416"
           style="fill:#e95d0f;fill-opacity:1;fill-rule:nonzero;stroke:none"
           id="path2929" />
        <path
           d="M 172.3238,183.88454 C 173.8701,187.40015 172.2695,191.50456 168.75389,193.05085 C 165.24399,194.5943 161.13958,193.00512 159.59901,189.48951 C 158.04986,185.9739 159.6476,181.8695 163.15177,180.32605 C 166.66167,178.7769 170.76607,180.37179 172.3238,183.88454"
           style="fill:#e95d0f;fill-opacity:1;fill-rule:nonzero;stroke:none"
           id="path2931" />
        <path
           d="M 191.30525,179.52861 C 192.19987,183.26144 189.89901,187.01715 186.16617,187.91178 C 182.4219,188.80926 178.68334,186.50839 177.78301,182.77555 C 176.88553,179.04271 179.18354,175.29273 182.91351,174.39525 C 186.66064,173.49777 190.3992,175.79578 191.30525,179.52861"
           style="fill:#e95d0f;fill-opacity:1;fill-rule:nonzero;stroke:none"
           id="path2933" />
        <path
           d="M 198.48796,373.78474 C 198.45938,369.93757 201.54911,366.80782 205.39913,366.78495 C 209.23487,366.75351 212.36176,369.84897 212.40178,373.68469 C 212.41607,377.52614 209.32634,380.66447 205.4906,380.68734 C 201.65487,380.71592 198.51368,377.62047 198.48796,373.78474"
           style="fill:#e95d0f;fill-opacity:1;fill-rule:nonzero;stroke:none"
           id="path2935" />
        <path
           d="M 179.49508,370.61783 C 180.22107,366.84783 183.87102,364.38119 187.64387,365.10432 C 191.40814,365.82745 193.88337,369.47453 193.15738,373.24453 C 192.43425,377.01452 188.78716,379.48403 185.01145,378.76375 C 181.2386,378.03776 178.77481,374.38781 179.49508,370.61783"
           style="fill:#e95d0f;fill-opacity:1;fill-rule:nonzero;stroke:none"
           id="path2937" />
        <path
           d="M 162.38863,364.23542 C 163.8063,360.66835 167.84211,358.91627 171.41204,360.31966 C 174.98195,361.74305 176.7369,365.77886 175.32494,369.35735 C 173.91012,372.92441 169.86574,374.67078 166.30154,373.25311 C 162.73162,371.84114 160.97095,367.80248 162.38863,364.23542"
           style="fill:#e95d0f;fill-opacity:1;fill-rule:nonzero;stroke:none"
           id="path2939" />
        <path
           d="M 145.0478,353.48565 C 147.17718,350.28158 151.49023,349.40697 154.6943,351.53349 C 157.89265,353.65142 158.76441,357.9702 156.63789,361.16855 C 154.52567,364.36975 150.20403,365.23865 147.00283,363.12071 C 143.79877,360.99705 142.93272,356.67829 145.0478,353.48565"
           style="fill:#e95d0f;fill-opacity:1;fill-rule:nonzero;stroke:none"
           id="path2941" />
        <path
           d="M 131.50556,340.73513 C 134.18085,337.99981 138.58537,337.95408 141.32068,340.64366 C 144.07601,343.33325 144.10459,347.73491 141.42358,350.47594 C 138.73113,353.21126 134.33233,353.2627 131.5913,350.57026 C 128.85027,347.87211 128.80739,343.47616 131.50556,340.73513"
           style="fill:#e95d0f;fill-opacity:1;fill-rule:nonzero;stroke:none"
           id="path2943" />
        <path
           d="M 120.10411,324.90629 C 123.30818,322.78836 127.62409,323.67727 129.73918,326.87847 C 131.85426,330.07968 130.97106,334.3956 127.767,336.51353 C 124.55722,338.62575 120.24416,337.74543 118.13194,334.53564 C 116.02257,331.33158 116.90576,327.0271 120.10411,324.90629"
           style="fill:#e95d0f;fill-opacity:1;fill-rule:nonzero;stroke:none"
           id="path2945" />
        <path
           d="M 112.75276,308.78879 C 116.27409,307.24249 120.37565,308.8431 121.90765,312.353 C 123.46538,315.87432 121.87049,319.97301 118.34345,321.5193 C 114.83927,323.0656 110.73486,321.465 109.2,317.94939 C 107.64512,314.43378 109.23715,310.33509 112.75276,308.78879"
           style="fill:#e95d0f;fill-opacity:1;fill-rule:nonzero;stroke:none"
           id="path2947" />
        <path
           d="M 108.40827,289.80163 C 112.14111,288.90415 115.89109,291.21073 116.78571,294.94071 C 117.68319,298.67926 115.37947,302.43211 111.64664,303.32101 C 107.9138,304.22707 104.15809,301.92048 103.26919,298.18479 C 102.37457,294.44624 104.66971,290.69911 108.40827,289.80163"
           style="fill:#e95d0f;fill-opacity:1;fill-rule:nonzero;stroke:none"
           id="path2949" />
        <path
           d="M 236.31365,368.86002 C 234.82738,365.32726 236.48229,361.24572 240.02649,359.74515 C 243.56211,358.25888 247.63221,359.91664 249.12706,363.45513 C 250.61905,366.98789 248.95843,371.07228 245.43138,372.56999 C 241.89576,374.05627 237.81708,372.39849 236.31365,368.86002"
           style="fill:#e95d0f;fill-opacity:1;fill-rule:nonzero;stroke:none"
           id="path2951" />
        <path
           d="M 217.2779,372.93298 C 216.44045,369.18585 218.79276,365.46731 222.53703,364.63271 C 226.2813,363.78667 230.0027,366.14471 230.83731,369.89756 C 231.6862,373.63896 229.32816,377.35465 225.57817,378.19783 C 221.83391,379.03529 218.12966,376.68297 217.2779,372.93298"
           style="fill:#e95d0f;fill-opacity:1;fill-rule:nonzero;stroke:none"
           id="path2953" />
        <path
           d="M 198.32504,162.05059 C 198.32504,165.31754 195.68119,167.96996 192.39995,167.96996 C 189.11872,167.96996 186.47485,165.31754 186.47485,162.05059 C 186.47485,158.77793 189.11872,156.1255 192.39995,156.1255 C 195.68119,156.1255 198.32504,158.77793 198.32504,162.05059"
           style="fill:#e95d0f;fill-opacity:1;fill-rule:nonzero;stroke:none"
           id="path2955" />
        <path
           d="M 224.81503,163.7055 C 224.06332,166.8867 220.87069,168.85887 217.69235,168.09859 C 214.50543,167.34688 212.5304,164.16281 213.28211,160.97304 C 214.04526,157.78613 217.24075,155.81967 220.42194,156.57423 C 223.60601,157.32881 225.57246,160.5243 224.81503,163.7055"
           style="fill:#e95d0f;fill-opacity:1;fill-rule:nonzero;stroke:none"
           id="path2957" />
        <path
           d="M 245.38279,169.45339 C 244.05943,172.43736 240.55525,173.77787 237.57413,172.44308 C 234.58158,171.11115 233.24678,167.5984 234.57014,164.61727 C 235.90493,161.63329 239.41482,160.29278 242.40167,161.62757 C 245.38279,162.96236 246.72902,166.45797 245.38279,169.45339"
           style="fill:#e95d0f;fill-opacity:1;fill-rule:nonzero;stroke:none"
           id="path2959" />
        <path
           d="M 263.64397,178.38818 C 261.80899,181.09492 258.13046,181.78947 255.42086,179.94877 C 252.71698,178.10521 252.01958,174.42097 253.86885,171.71709 C 255.70382,169.01894 259.3995,168.31867 262.09767,170.15936 C 264.8044,172.00291 265.49323,175.69002 263.64397,178.38818"
           style="fill:#e95d0f;fill-opacity:1;fill-rule:nonzero;stroke:none"
           id="path2961" />
        <path
           d="M 253.24576,379.46973 C 252.01101,376.4343 253.46584,372.973 256.48984,371.74682 C 259.51383,370.5035 262.98085,371.9669 264.21275,375.00234 C 265.4475,378.02919 263.99267,381.48478 260.96295,382.72811 C 257.93324,383.95143 254.48336,382.49087 253.24576,379.46973"
           style="fill:#e95d0f;fill-opacity:1;fill-rule:nonzero;stroke:none"
           id="path2963" />
        <path
           d="M 232.58653,386.88682 C 231.95487,383.67418 234.04137,380.553 237.25115,379.92419 C 240.46665,379.28967 243.57925,381.38189 244.2052,384.59452 C 244.83687,387.80145 242.75037,390.90833 239.54058,391.54572 C 236.32509,392.17739 233.2182,390.08802 232.58653,386.88682"
           style="fill:#e95d0f;fill-opacity:1;fill-rule:nonzero;stroke:none"
           id="path2965" />
        <path
           d="M 211.34995,390.17949 C 211.33852,386.90397 213.97666,384.24011 217.24075,384.2201 C 220.52198,384.20009 223.18013,386.84109 223.19728,390.10803 C 223.223,393.38356 220.57629,396.04455 217.30077,396.07029 C 214.03668,396.08743 211.36996,393.44929 211.34995,390.17949"
           style="fill:#e95d0f;fill-opacity:1;fill-rule:nonzero;stroke:none"
           id="path2967" />
        <path
           d="M 185.94322,388.87042 C 186.66064,385.67208 189.82184,383.65131 193.01161,384.36301 C 196.20424,385.06042 198.21643,388.23019 197.50759,391.42568 C 196.81018,394.61831 193.64328,396.6305 190.45065,395.92737 C 187.25516,395.22139 185.2401,392.0602 185.94322,388.87042"
           style="fill:#e95d0f;fill-opacity:1;fill-rule:nonzero;stroke:none"
           id="path2969" />
        <path
           d="M 167.31621,384.16865 C 168.55667,381.13322 172.00083,379.66981 175.03626,380.90171 C 178.06883,382.1336 179.52652,385.59491 178.30035,388.61604 C 177.06846,391.65147 173.61001,393.11488 170.58029,391.88299 C 167.55343,390.64538 166.09003,387.19265 167.31621,384.16865"
           style="fill:#e95d0f;fill-opacity:1;fill-rule:nonzero;stroke:none"
           id="path2971" />
        <path
           d="M 142.92128,372.37563 C 144.82772,369.71177 148.54055,369.10868 151.19012,371.01797 C 153.85398,372.92441 154.45421,376.62866 152.54206,379.28395 C 150.62705,381.9421 146.92851,382.54232 144.27322,380.63875 C 141.6208,378.7266 141.01486,375.0252 142.92128,372.37563"
           style="fill:#e95d0f;fill-opacity:1;fill-rule:nonzero;stroke:none"
           id="path2973" />
        <path
           d="M 127.25824,360.31108 C 129.60198,358.03308 133.34625,358.06452 135.64712,360.41112 C 137.92512,362.74914 137.87653,366.49913 135.54422,368.78285 C 133.2062,371.07228 129.44477,371.02941 127.16106,368.69138 C 124.87734,366.34478 124.9145,362.60337 127.25824,360.31108"
           style="fill:#e95d0f;fill-opacity:1;fill-rule:nonzero;stroke:none"
           id="path2975" />
        <path
           d="M 112.44122,343.79914 C 115.18226,342.01275 118.85507,342.7759 120.63859,345.51121 C 122.44214,348.24082 121.68471,351.9222 118.93796,353.70001 C 116.19692,355.50641 112.52982,354.73469 110.73486,352.00223 C 108.94276,349.2612 109.70591,345.59696 112.44122,343.79914"
           style="fill:#e95d0f;fill-opacity:1;fill-rule:nonzero;stroke:none"
           id="path2977" />
        <path
           d="M 101.90296,326.41544 C 104.92124,325.13782 108.40827,326.53834 109.6716,329.55377 C 110.96352,332.56347 109.55441,336.04193 106.54471,337.31955 C 103.53214,338.59717 100.05941,337.18807 98.773208,334.18694 C 97.492725,331.17437 98.904687,327.69878 101.90296,326.41544"
           style="fill:#e95d0f;fill-opacity:1;fill-rule:nonzero;stroke:none"
           id="path2979" />
        <path
           d="M 94.854588,308.23144 C 98.038646,307.48831 101.23699,309.46333 101.97727,312.64739 C 102.72898,315.83431 100.7511,319.02408 97.558464,319.76436 C 94.374406,320.51893 91.18749,318.53818 90.441494,315.35699 C 89.698357,312.17007 91.667671,308.986 94.854588,308.23144"
           style="fill:#e95d0f;fill-opacity:1;fill-rule:nonzero;stroke:none"
           id="path2981" />
        <path
           d="M 90.501517,283.78508 C 93.782755,283.7422 96.475199,286.36033 96.50664,289.63586 C 96.555229,292.89995 93.93424,295.58667 90.65872,295.62954 C 87.383198,295.67241 84.702187,293.05143 84.653597,289.78448 C 84.625015,286.50896 87.237429,283.83081 90.501517,283.78508"
           style="fill:#e95d0f;fill-opacity:1;fill-rule:nonzero;stroke:none"
           id="path2983" />
        <path
           d="M 91.410431,259.91321 C 94.620213,260.55632 96.706714,263.67178 96.063615,266.87584 C 95.426232,270.08563 92.293621,272.16641 89.089556,271.53189 C 85.891206,270.8945 83.807564,267.77332 84.444947,264.56926 C 85.073756,261.36519 88.200649,259.27869 91.410431,259.91321"
           style="fill:#e95d0f;fill-opacity:1;fill-rule:nonzero;stroke:none"
           id="path2985" />
        <path
           d="M 96.892499,237.75915 C 99.907922,239.02248 101.32846,242.50379 100.06512,245.51921 C 98.80179,248.53749 95.334768,249.95518 92.310771,248.68612 C 89.295348,247.42279 87.874812,243.95291 89.138145,240.93177 C 90.401479,237.91634 93.868501,236.50153 96.892499,237.75915"
           style="fill:#e95d0f;fill-opacity:1;fill-rule:nonzero;stroke:none"
           id="path2987" />
        <path
           d="M 106.81053,216.87699 C 109.52583,218.72911 110.2118,222.41622 108.37111,225.11437 C 106.51899,227.80968 102.83474,228.5128 100.13086,226.66067 C 97.438419,224.81712 96.741013,221.13288 98.581707,218.42614 C 100.43098,215.72512 104.12094,215.03915 106.81053,216.87699"
           style="fill:#e95d0f;fill-opacity:1;fill-rule:nonzero;stroke:none"
           id="path2989" />
        <path
           d="M 121.19881,197.9327 C 123.46538,200.30216 123.38535,204.05501 121.01303,206.31014 C 118.65499,208.56527 114.89929,208.49096 112.64415,206.12435 C 110.38044,203.75489 110.46905,200.0049 112.82708,197.74977 C 115.19368,195.49178 118.93796,195.57466 121.19881,197.9327"
           style="fill:#e95d0f;fill-opacity:1;fill-rule:nonzero;stroke:none"
           id="path2991" />
        <path
           d="M 136.91045,184.02174 C 138.69398,186.76277 137.92512,190.43558 135.1898,192.22197 C 132.46306,194.01122 128.78453,193.24521 126.98671,190.5099 C 125.20318,187.76886 125.98347,184.09319 128.7045,182.30109 C 131.44553,180.5147 135.11263,181.28642 136.91045,184.02174"
           style="fill:#e95d0f;fill-opacity:1;fill-rule:nonzero;stroke:none"
           id="path2993" />
        <path
           d="M 154.79148,173.26339 C 156.05481,176.28739 154.62856,179.76013 151.60456,181.01489 C 148.59486,182.28108 145.11926,180.86054 143.8645,177.83654 C 142.59545,174.8154 144.0217,171.35124 147.03712,170.08219 C 150.05541,168.82172 153.52815,170.2451 154.79148,173.26339"
           style="fill:#e95d0f;fill-opacity:1;fill-rule:nonzero;stroke:none"
           id="path2995" />
        <path
           d="M 175.95375,165.50332 C 176.60256,168.7131 174.52463,171.84286 171.30342,172.4831 C 168.11651,173.12906 164.97247,171.05684 164.33793,167.8442 C 163.6977,164.63728 165.77277,161.51611 168.98254,160.86729 C 172.18661,160.22133 175.30493,162.29925 175.95375,165.50332"
           style="fill:#e95d0f;fill-opacity:1;fill-rule:nonzero;stroke:none"
           id="path2997" />
        <path
           d="M 183.90817,144.95843 C 184.51411,148.01673 182.54766,150.98356 179.49508,151.5895 C 176.44822,152.20116 173.48424,150.23184 172.86401,147.1907 C 172.25807,144.13812 174.23596,141.17129 177.28281,140.55391 C 180.32968,139.94797 183.28794,141.91443 183.90817,144.95843"
           style="fill:#e95d0f;fill-opacity:1;fill-rule:nonzero;stroke:none"
           id="path2999" />
        <path
           d="M 211.04413,143.41213 C 211.00982,146.52473 208.47744,149.0314 205.37628,149.00282 C 202.26367,148.98566 199.75129,146.44185 199.77987,143.34354 C 199.79703,140.22236 202.34084,137.73285 205.44772,137.74999 C 208.5489,137.77286 211.05555,140.30525 211.04413,143.41213"
           style="fill:#e95d0f;fill-opacity:1;fill-rule:nonzero;stroke:none"
           id="path3001" />
        <path
           d="M 241.83002,148.48262 C 241.08402,151.49804 238.02573,153.34159 235.01602,152.5956 C 231.99774,151.85246 230.15705,148.80559 230.90304,145.78732 C 231.64903,142.76332 234.6959,140.92548 237.71418,141.66861 C 240.72961,142.41461 242.56458,145.46433 241.83002,148.48262"
           style="fill:#e95d0f;fill-opacity:1;fill-rule:nonzero;stroke:none"
           id="path3003" />
        <path
           d="M 262.85509,156.52279 C 261.60033,159.37529 258.28765,160.67864 255.44373,159.43818 C 252.59122,158.18913 251.29073,154.87074 252.53405,152.02395 C 253.78596,149.17145 257.09006,147.87096 259.93971,149.11714 C 262.79508,150.36618 264.0927,153.67315 262.85509,156.52279"
           style="fill:#e95d0f;fill-opacity:1;fill-rule:nonzero;stroke:none"
           id="path3005" />
        <path
           d="M 249.60724,401.28653 C 248.44966,398.39973 249.85591,395.11564 252.72842,393.96377 C 255.62379,392.8062 258.89932,394.20958 260.05403,397.09638 C 261.20304,399.98604 259.80823,403.25871 256.92429,404.41915 C 254.03749,405.56529 250.7734,404.16476 249.60724,401.28653"
           style="fill:#e95d0f;fill-opacity:1;fill-rule:nonzero;stroke:none"
           id="path3007" />
        <path
           d="M 225.4324,407.41742 C 224.84361,404.35626 226.82722,401.40087 229.87408,400.80349 C 232.9238,400.20899 235.88492,402.20402 236.48229,405.24232 C 237.0768,408.30347 235.08747,411.25601 232.03775,411.85052 C 228.99089,412.44503 226.03549,410.46142 225.4324,407.41742"
           style="fill:#e95d0f;fill-opacity:1;fill-rule:nonzero;stroke:none"
           id="path3009" />
        <path
           d="M 197.09886,408.75793 C 197.1646,405.64246 199.73414,403.17296 202.83531,403.24442 C 205.94791,403.31016 208.4117,405.88255 208.33453,408.98658 C 208.27451,412.09633 205.70782,414.56012 202.60666,414.49723 C 199.49692,414.42292 197.0274,411.85909 197.09886,408.75793"
           style="fill:#e95d0f;fill-opacity:1;fill-rule:nonzero;stroke:none"
           id="path3011" />
        <path
           d="M 171.74072,404.76213 C 172.40955,401.71813 175.40211,399.79741 178.44325,400.4548 C 181.47297,401.11504 183.40799,404.11046 182.74202,407.14589 C 182.07892,410.18989 179.08636,412.11634 176.05093,411.45322 C 173.02121,410.78726 171.09192,407.7947 171.74072,404.76213"
           style="fill:#e95d0f;fill-opacity:1;fill-rule:nonzero;stroke:none"
           id="path3013" />
        <path
           d="M 146.74273,395.53293 C 148.01178,392.68615 151.32446,391.39995 154.17124,392.64899 C 157.00946,393.89804 158.29566,397.225 157.04661,400.06894 C 155.78328,402.91286 152.4706,404.20478 149.62381,402.95574 C 146.7856,401.68955 145.48797,398.37401 146.74273,395.53293"
           style="fill:#e95d0f;fill-opacity:1;fill-rule:nonzero;stroke:none"
           id="path3015" />
        <path
           d="M 121.40174,379.37828 C 123.2653,376.88591 126.78377,376.37142 129.28186,378.23212 C 131.77137,380.09854 132.2687,383.61987 130.40514,386.11224 C 128.55015,388.60175 125.02883,389.11623 122.5336,387.25553 C 120.0498,385.38911 119.53818,381.86779 121.40174,379.37828"
           style="fill:#e95d0f;fill-opacity:1;fill-rule:nonzero;stroke:none"
           id="path3017" />
        <path
           d="M 106.17886,364.93283 C 108.42542,362.76343 111.98391,362.81774 114.14758,365.03572 C 116.31126,367.27085 116.26267,370.83505 114.03325,372.99872 C 111.79812,375.16526 108.23964,375.11667 106.07024,372.87868 C 103.91229,370.65784 103.95516,367.09364 106.17886,364.93283"
           style="fill:#e95d0f;fill-opacity:1;fill-rule:nonzero;stroke:none"
           id="path3019" />
        <path
           d="M 91.104602,344.52512 C 93.717016,342.82449 97.204045,343.55047 98.904687,346.14574 C 100.60533,348.74958 99.87934,352.23375 97.281217,353.93725 C 94.674519,355.64075 91.18749,354.91191 89.486848,352.30521 C 87.786208,349.71566 88.517912,346.22577 91.104602,344.52512"
           style="fill:#e95d0f;fill-opacity:1;fill-rule:nonzero;stroke:none"
           id="path3021" />
        <path
           d="M 81.438099,324.92059 C 84.287745,323.66583 87.600423,324.95203 88.860899,327.79596 C 90.107083,330.63703 88.8266,333.964 85.976954,335.21018 C 83.121591,336.46494 79.808913,335.18732 78.554154,332.3291 C 77.30797,329.48803 78.594169,326.16678 81.438099,324.92059"
           style="fill:#e95d0f;fill-opacity:1;fill-rule:nonzero;stroke:none"
           id="path3023" />
        <path
           d="M 74.226808,299.51958 C 77.273671,298.85933 80.277661,300.77434 80.940768,303.80978 C 81.601017,306.8452 79.683151,309.84348 76.64772,310.50944 C 73.600857,311.17826 70.6083,309.25469 69.933759,306.21068 C 69.284943,303.18097 71.197093,300.18269 74.226808,299.51958"
           style="fill:#e95d0f;fill-opacity:1;fill-rule:nonzero;stroke:none"
           id="path3025" />
        <path
           d="M 72.223195,271.94919 C 75.327222,271.9406 77.868181,274.42154 77.896763,277.53415 C 77.922487,280.63818 75.42726,283.17913 72.308941,283.202 C 69.202055,283.22487 66.663955,280.72964 66.64109,277.62275 C 66.626799,274.51301 69.116309,271.97205 72.223195,271.94919"
           style="fill:#e95d0f;fill-opacity:1;fill-rule:nonzero;stroke:none"
           id="path3027" />
        <path
           d="M 75.835986,245.07619 C 78.888565,245.68785 80.866455,248.64611 80.260511,251.69298 C 79.651711,254.73984 76.684878,256.71772 73.638014,256.10606 C 70.582576,255.50012 68.607545,252.54187 69.219204,249.48356 C 69.830864,246.44814 72.794839,244.47025 75.835986,245.07619"
           style="fill:#e95d0f;fill-opacity:1;fill-rule:nonzero;stroke:none"
           id="path3029" />
        <path
           d="M 84.204856,220.85563 C 87.083085,222.04464 88.457889,225.32874 87.274586,228.19268 C 86.091282,231.06805 82.804329,232.44571 79.934675,231.25955 C 77.05073,230.07624 75.675926,226.79215 76.853512,223.91106 C 78.053965,221.04427 81.329486,219.67518 84.204856,220.85563"
           style="fill:#e95d0f;fill-opacity:1;fill-rule:nonzero;stroke:none"
           id="path3031" />
        <path
           d="M 97.241202,198.43575 C 99.825033,200.16782 100.5453,203.64628 98.827515,206.2444 C 97.112582,208.82823 93.611261,209.53993 91.024572,207.81642 C 88.429307,206.09863 87.720468,202.61446 89.443976,200.01348 C 91.158907,197.42679 94.654512,196.72938 97.241202,198.43575"
           style="fill:#e95d0f;fill-opacity:1;fill-rule:nonzero;stroke:none"
           id="path3033" />
        <path
           d="M 116.98007,176.62751 C 119.13517,178.88552 119.05229,182.43256 116.81144,184.57909 C 114.56774,186.73133 111.00353,186.64844 108.85701,184.40188 C 106.70763,182.15532 106.77909,178.60255 109.03994,176.44174 C 111.2865,174.30378 114.83927,174.37809 116.98007,176.62751"
           style="fill:#e95d0f;fill-opacity:1;fill-rule:nonzero;stroke:none"
           id="path3035" />
        <path
           d="M 135.94151,162.64795 C 137.65073,165.24894 136.95333,168.72454 134.36664,170.44804 C 131.77137,172.16584 128.27291,171.45986 126.56083,168.86745 C 124.8459,166.27218 125.54902,162.78801 128.13571,161.06736 C 130.74241,159.35528 134.21801,160.06127 135.94151,162.64795"
           style="fill:#e95d0f;fill-opacity:1;fill-rule:nonzero;stroke:none"
           id="path3037" />
        <path
           d="M 158.92733,151.52662 C 160.12206,154.40199 158.76441,157.68608 155.89189,158.88654 C 153.0251,160.06984 149.72957,158.70648 148.54055,155.84539 C 147.35153,152.96145 148.69775,149.67449 151.58741,148.48262 C 154.45421,147.29931 157.74402,148.65982 158.92733,151.52662"
           style="fill:#e95d0f;fill-opacity:1;fill-rule:nonzero;stroke:none"
           id="path3039" />
        <path
           d="M 193.69187,128.82949 C 193.69187,130.82167 192.07983,132.43942 190.0848,132.43942 C 188.08975,132.43942 186.47485,130.82167 186.47485,128.82949 C 186.47485,126.8373 188.08975,125.22527 190.0848,125.22527 C 192.07983,125.22527 193.69187,126.8373 193.69187,128.82949"
           style="fill:#e95d0f;fill-opacity:1;fill-rule:nonzero;stroke:none"
           id="path3041" />
        <path
           d="M 207.38846,112.86633 C 207.38846,114.46121 206.09083,115.74741 204.50451,115.74741 C 202.90676,115.74741 201.61485,114.46121 201.61485,112.86633 C 201.61485,111.27144 202.90676,109.98524 204.50451,109.98524 C 206.09083,109.98524 207.38846,111.27144 207.38846,112.86633"
           style="fill:#e95d0f;fill-opacity:1;fill-rule:nonzero;stroke:none"
           id="path3043" />
        <path
           d="M 245.92299,118.05399 C 245.54571,119.60029 243.99941,120.54923 242.43882,120.17765 C 240.89252,119.79752 239.93788,118.23692 240.3266,116.68777 C 240.69531,115.14433 242.26447,114.19826 243.81363,114.56411 C 245.3485,114.94425 246.30314,116.5077 245.92299,118.05399"
           style="fill:#e95d0f;fill-opacity:1;fill-rule:nonzero;stroke:none"
           id="path3045" />
        <path
           d="M 275.55703,128.86664 C 274.89392,130.31576 273.17041,130.95601 271.72701,130.27861 C 270.27218,129.60978 269.64909,127.90056 270.32077,126.44573 C 270.98673,125.00519 272.69024,124.3678 274.14221,125.03663 C 275.58561,125.70546 276.22871,127.42039 275.55703,128.86664"
           style="fill:#e95d0f;fill-opacity:1;fill-rule:nonzero;stroke:none"
           id="path3047" />
        <path
           d="M 262.13482,429.10274 C 261.55174,427.61932 262.29774,425.9444 263.76973,425.3699 C 265.25885,424.7954 266.93091,425.52425 267.50256,427.01052 C 268.08564,428.49108 267.34536,430.16886 265.86766,430.74336 C 264.39282,431.32358 262.70647,430.58901 262.13482,429.10274"
           style="fill:#e95d0f;fill-opacity:1;fill-rule:nonzero;stroke:none"
           id="path3049" />
        <path
           d="M 232.31501,437.12576 C 232.02061,435.55374 233.061,434.05032 234.61301,433.75878 C 236.18789,433.47296 237.69703,434.50478 237.97714,436.07109 C 238.27154,437.64311 237.24544,439.14653 235.67056,439.43521 C 234.10711,439.72675 232.60369,438.6835 232.31501,437.12576"
           style="fill:#e95d0f;fill-opacity:1;fill-rule:nonzero;stroke:none"
           id="path3051" />
        <path
           d="M 198.39364,439.28944 C 198.43937,437.6917 199.76273,436.43122 201.34904,436.47409 C 202.94964,436.52268 204.2044,437.84889 204.15581,439.43521 C 204.12723,441.02724 202.80387,442.29057 201.20613,442.24484 C 199.61695,442.20482 198.35648,440.87575 198.39364,439.28944"
           style="fill:#e95d0f;fill-opacity:1;fill-rule:nonzero;stroke:none"
           id="path3053" />
        <path
           d="M 164.27791,434.25897 C 164.66092,432.70982 166.22436,431.75517 167.76209,432.13246 C 169.30838,432.5126 170.25731,434.07319 169.8886,435.61377 C 169.51131,437.15721 167.95359,438.11757 166.41015,437.74314 C 164.86099,437.36871 163.90348,435.79669 164.27791,434.25897"
           style="fill:#e95d0f;fill-opacity:1;fill-rule:nonzero;stroke:none"
           id="path3055" />
        <path
           d="M 134.10939,423.21767 C 134.78393,421.77141 136.49601,421.14831 137.93083,421.82 C 139.37995,422.49168 140.01162,424.20089 139.33993,425.64715 C 138.67112,427.09913 136.96475,427.72794 135.50992,427.05054 C 134.06652,426.38171 133.44057,424.66678 134.10939,423.21767"
           style="fill:#e95d0f;fill-opacity:1;fill-rule:nonzero;stroke:none"
           id="path3057" />
        <path
           d="M 105.00127,405.19944 C 105.95592,403.92467 107.75945,403.66744 109.03994,404.62494 C 110.30041,405.59387 110.5548,407.39456 109.603,408.66646 C 108.65979,409.94409 106.83911,410.20419 105.57006,409.23811 C 104.30386,408.27774 104.03805,406.47134 105.00127,405.19944"
           style="fill:#e95d0f;fill-opacity:1;fill-rule:nonzero;stroke:none"
           id="path3059" />
        <path
           d="M 83.78184,385.51201 C 84.947994,384.42589 86.774397,384.49449 87.857663,385.66636 C 88.940929,386.84109 88.878048,388.66177 87.709036,389.73647 C 86.540023,390.82545 84.71362,390.76828 83.633212,389.5907 C 82.54423,388.42455 82.615686,386.60099 83.78184,385.51201"
           style="fill:#e95d0f;fill-opacity:1;fill-rule:nonzero;stroke:none"
           id="path3061" />
        <path
           d="M 66.766851,363.01495 C 68.10164,362.14606 69.896603,362.53478 70.751211,363.87243 C 71.617252,365.20721 71.239966,366.98789 69.905178,367.85106 C 68.558955,368.71996 66.784001,368.34269 65.91796,367.00789 C 65.054777,365.66739 65.426346,363.881 66.766851,363.01495"
           style="fill:#e95d0f;fill-opacity:1;fill-rule:nonzero;stroke:none"
           id="path3063" />
        <path
           d="M 54.979548,340.56364 C 56.440099,339.91196 58.146457,340.55791 58.789557,342.01275 C 59.438373,343.47616 58.789557,345.18538 57.334722,345.82276 C 55.87703,346.47729 54.167813,345.82847 53.513281,344.37078 C 52.875898,342.92167 53.524714,341.21245 54.979548,340.56364"
           style="fill:#e95d0f;fill-opacity:1;fill-rule:nonzero;stroke:none"
           id="path3065" />
        <path
           d="M 45.57886,311.36691 C 47.125157,311.00391 48.685746,311.96141 49.054456,313.50485 C 49.408876,315.0683 48.457088,316.61746 46.907932,316.98045 C 45.350202,317.35202 43.79533,316.39166 43.438052,314.83107 C 43.0722,313.28763 44.029704,311.73847 45.57886,311.36691"
           style="fill:#e95d0f;fill-opacity:1;fill-rule:nonzero;stroke:none"
           id="path3067" />
        <path
           d="M 41.731695,275.37047 C 43.332298,275.34475 44.629931,276.61952 44.64708,278.22012 C 44.652796,279.81501 43.378029,281.11836 41.791717,281.12693 C 40.193971,281.14694 38.890623,279.87788 38.876332,278.27728 C 38.853466,276.67954 40.145382,275.37905 41.731695,275.37047"
           style="fill:#e95d0f;fill-opacity:1;fill-rule:nonzero;stroke:none"
           id="path3069" />
        <path
           d="M 44.732826,244.96758 C 46.296273,245.24197 47.34524,246.74253 47.059418,248.30884 C 46.776455,249.87801 45.278747,250.92411 43.721016,250.64114 C 42.14042,250.3639 41.102886,248.86334 41.388708,247.29131 C 41.665956,245.72501 43.163663,244.68176 44.732826,244.96758"
           style="fill:#e95d0f;fill-opacity:1;fill-rule:nonzero;stroke:none"
           id="path3071" />
        <path
           d="M 54.696584,212.381 C 56.171427,212.97551 56.874548,214.65615 56.282897,216.13099 C 55.676954,217.60869 53.993462,218.32038 52.521478,217.71444 C 51.043778,217.11422 50.334939,215.43358 50.935165,213.95874 C 51.529675,212.48961 53.218884,211.76935 54.696584,212.381"
           style="fill:#e95d0f;fill-opacity:1;fill-rule:nonzero;stroke:none"
           id="path3073" />
        <path
           d="M 70.891264,183.00707 C 72.223195,183.89598 72.571898,185.69094 71.665841,187.00572 C 70.776935,188.33479 68.98483,188.68921 67.678623,187.78315 C 66.352409,186.89711 65.992273,185.11357 66.886896,183.78736 C 67.78152,182.46972 69.573624,182.12101 70.891264,183.00707"
           style="fill:#e95d0f;fill-opacity:1;fill-rule:nonzero;stroke:none"
           id="path3075" />
        <path
           d="M 92.785236,157.52889 C 93.902799,158.67503 93.88565,160.49 92.739504,161.60185 C 91.584782,162.71655 89.75838,162.68797 88.663681,161.54754 C 87.5404,160.40426 87.568983,158.58643 88.712271,157.47173 C 89.852701,156.35988 91.673388,156.38846 92.785236,157.52889"
           style="fill:#e95d0f;fill-opacity:1;fill-rule:nonzero;stroke:none"
           id="path3077" />
        <path
           d="M 117.96045,137.99008 C 118.83506,139.32488 118.45206,141.11126 117.12299,141.98016 C 115.77676,142.8462 113.99038,142.46892 113.13862,141.13698 C 112.25544,139.8022 112.63844,138.01295 113.97323,137.14405 C 115.30802,136.26944 117.0944,136.65815 117.96045,137.99008"
           style="fill:#e95d0f;fill-opacity:1;fill-rule:nonzero;stroke:none"
           id="path3079" />
        <path
           d="M 147.57162,123.28454 C 148.16041,124.77081 147.42871,126.43716 145.94528,127.02309 C 144.45901,127.60331 142.78981,126.87447 142.21816,125.39105 C 141.62366,123.90477 142.36107,122.23843 143.83877,121.64964 C 145.31933,121.06942 146.9914,121.80398 147.57162,123.28454"
           style="fill:#e95d0f;fill-opacity:1;fill-rule:nonzero;stroke:none"
           id="path3081" />
        <path
           d="M 174.87334,115.65595 C 175.19632,117.2194 174.18165,118.73711 172.62392,119.05438 C 171.05761,119.36592 169.53418,118.35983 169.22836,116.8021 C 168.89966,115.23865 169.91433,113.71807 171.48349,113.40081 C 173.04122,113.08355 174.55322,114.09251 174.87334,115.65595"
           style="fill:#e95d0f;fill-opacity:1;fill-rule:nonzero;stroke:none"
           id="path3083" />
        <path
           d="M 226.89296,130.02137 C 226.44993,131.96495 224.51492,133.17971 222.57133,132.73096 C 220.63631,132.28508 219.42157,130.35292 219.86745,128.41219 C 220.30762,126.47431 222.24264,125.26529 224.18337,125.70546 C 226.1241,126.14848 227.33884,128.08349 226.89296,130.02137"
           style="fill:#e95d0f;fill-opacity:1;fill-rule:nonzero;stroke:none"
           id="path3085" />
        <path
           d="M 256.60417,137.69569 C 255.76385,139.49923 253.62304,140.28809 251.8195,139.4535 C 250.01025,138.61603 249.21852,136.47238 250.05312,134.66883 C 250.89344,132.85386 253.03996,132.07071 254.8435,132.90817 C 256.65847,133.74563 257.42734,135.8893 256.60417,137.69569"
           style="fill:#e95d0f;fill-opacity:1;fill-rule:nonzero;stroke:none"
           id="path3087" />
        <path
           id="path3135"
           style="fill:#e95d0f;fill-opacity:1;fill-rule:nonzero;stroke:none"
           d="M 271.46125,408.08342 C 270.70096,406.24844 271.57558,404.13907 273.43914,403.3845 C 275.26269,402.62708 277.37205,403.51027 278.12948,405.35096 C 278.87833,407.1888 278.00372,409.2953 276.16874,410.05845 C 274.32519,410.81016 272.21582,409.92697 271.46125,408.08342" />
        <path
           id="path3137"
           style="fill:#e95d0f;fill-opacity:1;fill-rule:nonzero;stroke:none"
           d="M 244.76833,418.43018 C 244.36818,416.4723 245.64008,414.57444 247.59511,414.18286 C 249.54727,413.79986 251.44799,415.07177 251.83099,417.02679 C 252.22828,418.9761 250.95637,420.88253 249.00707,421.25982 C 247.04633,421.64854 245.14275,420.37663 244.76833,418.43018" />
        <path
           id="path3139"
           style="fill:#e95d0f;fill-opacity:1;fill-rule:nonzero;stroke:none"
           d="M 214.1625,423.58927 C 214.1825,421.59709 215.81741,420.00792 217.81245,420.03364 C 219.80748,420.06508 221.39951,421.7057 221.3595,423.69502 C 221.33949,425.6872 219.69887,427.27637 217.70955,427.24493 C 215.71451,427.21349 214.1282,425.57859 214.1625,423.58927" />
        <path
           id="path3141"
           style="fill:#e95d0f;fill-opacity:1;fill-rule:nonzero;stroke:none"
           d="M 181.90462,422.0544 C 182.36765,420.11939 184.30266,418.91893 186.24054,419.37911 C 188.16984,419.83928 189.37601,421.78573 188.90726,423.72075 C 188.44994,425.65862 186.51493,426.85621 184.56276,426.38747 C 182.63346,425.93015 181.4473,423.98942 181.90462,422.0544" />
        <path
           id="path3143"
           style="fill:#e95d0f;fill-opacity:1;fill-rule:nonzero;stroke:none"
           d="M 156.02914,415.51765 C 156.82944,413.69696 158.96739,412.86808 160.79665,413.66267 C 162.60591,414.4744 163.43479,416.59806 162.63449,418.4216 C 161.83133,420.24229 159.70767,421.07403 157.88127,420.26801 C 156.06058,419.46771 155.23742,417.33548 156.02914,415.51765" />
        <path
           id="path3145"
           style="fill:#e95d0f;fill-opacity:1;fill-rule:nonzero;stroke:none"
           d="M 126.8953,401.52666 C 128.07574,399.92606 130.33374,399.57735 131.93434,400.7578 C 133.54352,401.93539 133.88079,404.19338 132.69177,405.79113 C 131.52561,407.4003 129.27048,407.74901 127.66702,406.57142 C 126.0607,405.39669 125.71771,403.13298 126.8953,401.52666" />
        <path
           id="path3147"
           style="fill:#e95d0f;fill-opacity:1;fill-rule:nonzero;stroke:none"
           d="M 104.42396,384.33446 C 105.89595,382.9911 108.17395,383.0797 109.52589,384.54311 C 110.87211,385.99795 110.78065,388.29024 109.31438,389.63646 C 107.85383,390.98554 105.57583,390.89122 104.22389,389.43639 C 102.86623,387.97298 102.96341,385.68926 104.42396,384.33446" />
        <path
           id="path3149"
           style="fill:#e95d0f;fill-opacity:1;fill-rule:nonzero;stroke:none"
           d="M 87.243198,365.32729 C 88.915258,364.2526 91.133237,364.73278 92.227936,366.4077 C 93.302627,368.07976 92.816729,370.31775 91.12752,371.38386 C 89.464036,372.46141 87.237482,371.98695 86.157074,370.30917 C 85.073809,368.62854 85.562564,366.40198 87.243198,365.32729" />
        <path
           id="path3151"
           style="fill:#e95d0f;fill-opacity:1;fill-rule:nonzero;stroke:none"
           d="M 73.901023,344.23076 C 75.741717,343.45047 77.851084,344.30222 78.637095,346.14006 C 79.420248,347.96646 78.56564,350.08726 76.730662,350.85612 C 74.898542,351.6307 72.789175,350.78752 71.997448,348.96398 C 71.225728,347.129 72.07462,345.0082 73.901023,344.23076" />
        <path
           id="path3153"
           style="fill:#e95d0f;fill-opacity:1;fill-rule:nonzero;stroke:none"
           d="M 63.694316,319.21847 C 65.643623,318.77831 67.561489,320.00448 68.004513,321.95093 C 68.444679,323.89166 67.209928,325.81811 65.26348,326.2497 C 63.322748,326.68415 61.404881,325.46083 60.961857,323.51152 C 60.533124,321.57651 61.759301,319.64721 63.694316,319.21847" />
        <path
           id="path3155"
           style="fill:#e95d0f;fill-opacity:1;fill-rule:nonzero;stroke:none"
           d="M 57.720635,287.53795 C 59.715673,287.53224 61.327709,289.14713 61.327709,291.14503 C 61.327709,293.12863 59.715673,294.74924 57.720635,294.74639 C 55.742746,294.74924 54.122134,293.13721 54.11356,291.14789 C 54.11356,289.15571 55.737029,287.53795 57.720635,287.53795" />
        <path
           id="path3157"
           style="fill:#e95d0f;fill-opacity:1;fill-rule:nonzero;stroke:none"
           d="M 58.212249,259.58169 C 60.167272,259.94755 61.447755,261.83683 61.076186,263.80043 C 60.701759,265.75259 58.8039,267.03879 56.86031,266.65865 C 54.908145,266.28708 53.621946,264.40065 53.993515,262.44563 C 54.367941,260.48775 56.254367,259.20441 58.212249,259.58169" />
        <path
           id="path3159"
           style="fill:#e95d0f;fill-opacity:1;fill-rule:nonzero;stroke:none"
           d="M 64.446028,230.66793 C 66.292439,231.4225 67.175629,233.52615 66.412484,235.36685 C 65.660772,237.2104 63.551405,238.09359 61.704995,237.3333 C 59.867159,236.58159 58.989685,234.47508 59.741397,232.63725 C 60.498825,230.79655 62.608192,229.91336 64.446028,230.66793" />
        <path
           id="path3161"
           style="fill:#e95d0f;fill-opacity:1;fill-rule:nonzero;stroke:none"
           d="M 76.276205,203.66632 C 77.92254,204.76959 78.374139,207.0133 77.273724,208.66535 C 76.167592,210.32026 73.923889,210.76328 72.271837,209.66001 C 70.614069,208.54816 70.16247,206.31017 71.274318,204.65812 C 72.38045,203.00893 74.621295,202.56019 76.276205,203.66632" />
        <path
           id="path3163"
           style="fill:#e95d0f;fill-opacity:1;fill-rule:nonzero;stroke:none"
           d="M 94.668856,177.90517 C 96.055093,179.33143 96.003645,181.61514 94.571677,183.0071 C 93.133992,184.38476 90.861706,184.34189 89.475469,182.89849 C 88.097806,181.47223 88.134963,179.18851 89.56979,177.81085 C 90.996042,176.43319 93.285477,176.4732 94.668856,177.90517" />
        <path
           id="path3165"
           style="fill:#e95d0f;fill-opacity:1;fill-rule:nonzero;stroke:none"
           d="M 116.17983,158.09484 C 117.25452,159.7669 116.7629,162.00203 115.07941,163.06815 C 113.39592,164.14284 111.16651,163.64551 110.11468,161.97345 C 109.03999,160.29567 109.52589,158.06626 111.19795,156.99443 C 112.87858,155.91974 115.10514,156.41993 116.17983,158.09484" />
        <path
           id="path3167"
           style="fill:#e95d0f;fill-opacity:1;fill-rule:nonzero;stroke:none"
           d="M 139.66869,143.63796 C 140.4204,145.48152 139.51434,147.57659 137.66793,148.32259 C 135.83295,149.06858 133.72359,148.15967 132.98617,146.31326 C 132.24589,144.47256 133.14051,142.37177 134.99264,141.62863 C 136.83047,140.89407 138.93412,141.79155 139.66869,143.63796" />
        <path
           id="path3169"
           style="fill:#e95d0f;fill-opacity:1;fill-rule:nonzero;stroke:none"
           d="M 166.79606,133.4284 C 167.16763,135.38628 165.87571,137.26699 163.92069,137.6357 C 161.96281,137.99869 160.0821,136.70964 159.72196,134.74604 C 159.34754,132.79959 160.62802,130.91316 162.58876,130.54731 C 164.54664,130.18432 166.44164,131.47623 166.79606,133.4284" />
      </g>
    </g>
    <path
       id="text3171"
       d="M 227.58168,286.95348 L 240.7281,288.4882 C 238.65477,295.73928 234.81451,301.36662 229.20733,305.37026 C 223.60002,309.37393 216.43782,311.37574 207.72072,311.37574 C 196.7418,311.37574 188.03644,308.18394 181.60462,301.80036 C 175.17277,295.41677 171.95684,286.46417 171.95684,274.9425 C 171.95684,263.02059 175.2081,253.7677 181.71063,247.18388 C 188.21314,240.60014 196.64755,237.30826 207.01393,237.30821 C 217.05039,237.30826 225.24919,240.53344 231.61044,246.98367 C 237.97152,253.43408 241.15211,262.50901 241.15217,274.20853 C 241.15211,274.92031 241.12855,275.98794 241.08148,277.41143 L 185.10326,277.41143 C 185.57443,285.19634 187.90686,291.15733 192.10053,295.29441 C 196.29417,299.43152 201.52444,301.50009 207.79141,301.50006 C 212.45621,301.50009 216.43782,300.34346 219.73626,298.03025 C 223.03458,295.71704 225.64973,292.02477 227.58168,286.95348 L 227.58168,286.95348 z M 185.81005,267.53576 L 227.72306,267.53576 C 227.15756,261.57483 225.55548,257.10407 222.91685,254.12353 C 218.8645,249.49714 213.61063,247.18393 207.15528,247.18388 C 201.31241,247.18393 196.40018,249.03005 192.41861,252.72226 C 188.43694,256.41455 186.23412,261.3524 185.81005,267.53576 L 185.81005,267.53576 z M 257.40676,309.77428 L 257.40676,238.90966 L 268.85685,238.90966 L 268.85685,249.65278 C 271.77826,244.62606 274.47584,241.3119 276.94967,239.7104 C 279.42342,238.109 282.14459,237.30826 285.11315,237.30821 C 289.40101,237.30826 293.75959,238.59834 298.18888,241.1784 L 293.80674,252.32188 C 290.69681,250.58704 287.5869,249.71957 284.47705,249.71951 C 281.69693,249.71957 279.19959,250.50917 276.985,252.08835 C 274.77035,253.66761 273.19184,255.85851 272.24945,258.661 C 270.83585,262.93161 270.12906,267.60252 270.12909,272.67378 L 270.12909,309.77428 L 257.40676,309.77428 z"
       style="font-size:11.48947048px;stroke:#000000;stroke-width:2.71288204;stroke-miterlimit:4;stroke-opacity:1" />
    <path
       id="text3175"
       d="M 355.69054,285.94412 L 368.3133,287.54664 C 366.93446,296.04696 363.40437,302.70088 357.72301,307.50842 C 352.04151,312.31596 345.06453,314.71974 336.79204,314.71974 C 326.42753,314.71974 318.09557,311.41019 311.79609,304.7911 C 305.49658,298.17202 302.34683,288.68466 302.34683,276.32902 C 302.34683,268.3397 303.70181,261.34903 306.4118,255.35696 C 309.12176,249.365 313.24615,244.871 318.78498,241.87492 C 324.32375,238.87898 330.34985,237.38097 336.86334,237.38092 C 345.0883,237.38097 351.8157,239.41317 357.04552,243.47743 C 362.27523,247.54184 365.62702,253.31324 367.10094,260.79157 L 354.62079,262.67278 C 353.43217,257.70274 351.32836,253.96353 348.30943,251.45519 C 345.29037,248.94696 341.6414,247.69282 337.36256,247.69276 C 330.89661,247.69282 325.64307,249.95724 321.6019,254.48602 C 317.5607,259.01494 315.54011,266.17979 315.54011,275.98065 C 315.54011,285.92093 317.48939,293.14386 321.38797,297.64945 C 325.2865,302.15509 330.37365,304.4079 336.64939,304.4079 C 341.68894,304.4079 345.89653,302.89828 349.27218,299.87903 C 352.64769,296.85982 354.78715,292.21487 355.69054,285.94412 L 355.69054,285.94412 z"
       style="font-size:11.79311562px;stroke:#000000;stroke-width:2.78472114;stroke-miterlimit:4;stroke-opacity:1" />
  </g>
</svg>
